G75*
%MOIN*%
%OFA0B0*%
%FSLAX25Y25*%
%IPPOS*%
%LPD*%
%AMOC8*
5,1,8,0,0,1.08239X$1,22.5*
%
%ADD10R,0.00150X0.00075*%
%ADD11R,0.00075X0.00075*%
%ADD12C,0.00600*%
%ADD13C,0.00800*%
%ADD14C,0.01000*%
%ADD15C,0.00591*%
%ADD16C,0.00700*%
%ADD17R,0.00625X0.00125*%
%ADD18R,0.01375X0.00125*%
%ADD19R,0.01250X0.00125*%
%ADD20R,0.02250X0.00125*%
%ADD21R,0.02375X0.00125*%
%ADD22R,0.04375X0.00125*%
%ADD23R,0.02750X0.00125*%
%ADD24R,0.02875X0.00125*%
%ADD25R,0.03500X0.00125*%
%ADD26R,0.04000X0.00125*%
%ADD27R,0.04250X0.00125*%
%ADD28R,0.04500X0.00125*%
%ADD29R,0.04625X0.00125*%
%ADD30R,0.04750X0.00125*%
%ADD31R,0.05125X0.00125*%
%ADD32R,0.02000X0.00125*%
%ADD33R,0.01875X0.00125*%
%ADD34R,0.01125X0.00125*%
%ADD35R,0.01750X0.00125*%
%ADD36R,0.01625X0.00125*%
%ADD37R,0.01500X0.00125*%
%ADD38R,0.05000X0.00125*%
%ADD39R,0.04875X0.00125*%
%ADD40R,0.02500X0.00125*%
%ADD41R,0.03000X0.00125*%
%ADD42R,0.03375X0.00125*%
%ADD43R,0.03750X0.00125*%
%ADD44R,0.04125X0.00125*%
%ADD45R,0.02125X0.00125*%
%ADD46R,0.05250X0.00125*%
%ADD47R,0.03875X0.00125*%
%ADD48R,0.03625X0.00125*%
%ADD49R,0.03125X0.00125*%
%ADD50R,0.01000X0.00125*%
%ADD51R,0.00125X0.00125*%
%ADD52R,0.00250X0.00125*%
%ADD53R,0.00375X0.00125*%
%ADD54R,0.00500X0.00125*%
%ADD55R,0.00750X0.00125*%
%ADD56R,0.00875X0.00125*%
%ADD57R,0.02625X0.00125*%
%ADD58R,0.03250X0.00125*%
%ADD59R,0.05500X0.00125*%
%ADD60R,0.05625X0.00125*%
%ADD61R,0.05750X0.00125*%
%ADD62R,0.06125X0.00125*%
%ADD63R,0.06000X0.00125*%
%ADD64R,0.06375X0.00125*%
%ADD65R,0.06500X0.00125*%
%ADD66R,0.06750X0.00125*%
%ADD67R,0.06625X0.00125*%
%ADD68R,0.06875X0.00125*%
%ADD69R,0.07125X0.00125*%
%ADD70R,0.07250X0.00125*%
%ADD71R,0.07375X0.00125*%
%ADD72R,0.07625X0.00125*%
%ADD73R,0.07750X0.00125*%
%ADD74R,0.08125X0.00125*%
%ADD75R,0.08000X0.00125*%
%ADD76R,0.08250X0.00125*%
%ADD77R,0.08875X0.00125*%
%ADD78R,0.09000X0.00125*%
%ADD79R,0.09125X0.00125*%
%ADD80R,0.09750X0.00125*%
%ADD81R,0.10875X0.00125*%
%ADD82R,0.10750X0.00125*%
%ADD83R,0.11625X0.00125*%
%ADD84R,0.11500X0.00125*%
%ADD85R,0.26875X0.00125*%
%ADD86R,0.26625X0.00125*%
%ADD87R,0.26250X0.00125*%
%ADD88R,0.25875X0.00125*%
%ADD89R,0.25625X0.00125*%
%ADD90R,0.25250X0.00125*%
%ADD91R,0.25000X0.00125*%
%ADD92R,0.24625X0.00125*%
%ADD93R,0.24125X0.00125*%
%ADD94R,0.23875X0.00125*%
%ADD95R,0.23500X0.00125*%
%ADD96R,0.23375X0.00125*%
%ADD97R,0.22875X0.00125*%
%ADD98R,0.22250X0.00125*%
%ADD99R,0.22125X0.00125*%
%ADD100R,0.21625X0.00125*%
%ADD101R,0.21250X0.00125*%
%ADD102R,0.20875X0.00125*%
%ADD103R,0.20375X0.00125*%
%ADD104R,0.19875X0.00125*%
%ADD105R,0.19375X0.00125*%
%ADD106R,0.19125X0.00125*%
%ADD107R,0.18375X0.00125*%
%ADD108R,0.17875X0.00125*%
%ADD109R,0.17500X0.00125*%
%ADD110R,0.16625X0.00125*%
%ADD111R,0.16375X0.00125*%
%ADD112R,0.15750X0.00125*%
%ADD113R,0.14875X0.00125*%
%ADD114R,0.14375X0.00125*%
%ADD115R,0.13500X0.00125*%
%ADD116R,0.12875X0.00125*%
%ADD117R,0.12125X0.00125*%
%ADD118R,0.10375X0.00125*%
%ADD119R,0.08375X0.00125*%
%ADD120R,0.06250X0.00125*%
%ADD121R,0.05875X0.00125*%
%ADD122R,0.05375X0.00125*%
%ADD123R,0.13125X0.00125*%
%ADD124R,0.13625X0.00125*%
%ADD125R,0.07500X0.00125*%
%ADD126R,0.07875X0.00125*%
D10*
X0170563Y0135175D03*
X0170563Y0135250D03*
X0170488Y0135400D03*
X0170488Y0135475D03*
X0172737Y0135250D03*
X0172737Y0135175D03*
D11*
X0172775Y0135325D03*
X0172775Y0135400D03*
X0172775Y0135475D03*
X0172775Y0135550D03*
X0172775Y0135625D03*
X0170525Y0135325D03*
X0170450Y0135550D03*
X0170450Y0135625D03*
X0170450Y0135700D03*
D12*
X0169800Y0138608D02*
X0172903Y0138608D01*
X0171868Y0139642D01*
X0172903Y0140676D01*
X0169800Y0140676D01*
X0170317Y0142015D02*
X0169800Y0142532D01*
X0169800Y0143566D01*
X0170317Y0144083D01*
X0172386Y0144083D01*
X0172903Y0143566D01*
X0172903Y0142532D01*
X0172386Y0142015D01*
X0170317Y0142015D01*
X0170317Y0145422D02*
X0169800Y0145939D01*
X0169800Y0146973D01*
X0170317Y0147490D01*
X0170834Y0147490D01*
X0171351Y0146973D01*
X0171351Y0145939D01*
X0171868Y0145422D01*
X0172386Y0145422D01*
X0172903Y0145939D01*
X0172903Y0146973D01*
X0172386Y0147490D01*
X0172903Y0148829D02*
X0172903Y0149863D01*
X0172903Y0149346D02*
X0169800Y0149346D01*
X0169800Y0148829D02*
X0169800Y0149863D01*
X0162403Y0149762D02*
X0160334Y0149762D01*
X0159300Y0148727D01*
X0160334Y0147693D01*
X0162403Y0147693D01*
X0162403Y0146355D02*
X0162403Y0144286D01*
X0160851Y0144286D01*
X0161368Y0145320D01*
X0161368Y0145838D01*
X0160851Y0146355D01*
X0159817Y0146355D01*
X0159300Y0145838D01*
X0159300Y0144803D01*
X0159817Y0144286D01*
X0146149Y0129253D02*
X0147700Y0127701D01*
X0145632Y0127701D01*
X0146149Y0126150D02*
X0146149Y0129253D01*
X0144293Y0129253D02*
X0143259Y0128218D01*
X0143259Y0127184D01*
X0144293Y0126150D01*
X0143776Y0122668D02*
X0142742Y0122668D01*
X0142225Y0122151D01*
X0142225Y0121117D01*
X0142742Y0120600D01*
X0143776Y0120600D01*
X0144293Y0121117D01*
X0144293Y0122151D01*
X0143776Y0122668D01*
X0145632Y0122151D02*
X0145632Y0120600D01*
X0146666Y0120600D02*
X0146666Y0122151D01*
X0146149Y0122668D01*
X0145632Y0122151D01*
X0146666Y0122151D02*
X0147183Y0122668D01*
X0147700Y0122668D01*
X0147700Y0120600D01*
X0140886Y0121117D02*
X0140886Y0122151D01*
X0140369Y0122668D01*
X0138818Y0122668D01*
X0138818Y0123703D02*
X0138818Y0120600D01*
X0140369Y0120600D01*
X0140886Y0121117D01*
X0137479Y0121117D02*
X0137479Y0122151D01*
X0136962Y0122668D01*
X0135928Y0122668D01*
X0135411Y0122151D01*
X0135411Y0121634D01*
X0137479Y0121634D01*
X0137479Y0121117D02*
X0136962Y0120600D01*
X0135928Y0120600D01*
X0134072Y0120600D02*
X0132521Y0120600D01*
X0132004Y0121117D01*
X0132521Y0121634D01*
X0133555Y0121634D01*
X0134072Y0122151D01*
X0133555Y0122668D01*
X0132004Y0122668D01*
X0131801Y0126150D02*
X0130767Y0126150D01*
X0131284Y0126150D02*
X0131284Y0129253D01*
X0131801Y0129253D01*
X0133140Y0127701D02*
X0133657Y0128218D01*
X0134691Y0128218D01*
X0135208Y0127701D01*
X0135208Y0126667D01*
X0134691Y0126150D01*
X0133657Y0126150D01*
X0133140Y0126667D01*
X0133140Y0127701D01*
X0136546Y0126667D02*
X0137064Y0126150D01*
X0138098Y0126150D01*
X0138615Y0126667D01*
X0138615Y0128736D01*
X0138098Y0129253D01*
X0137064Y0129253D01*
X0136546Y0128736D01*
X0129530Y0129253D02*
X0129013Y0129253D01*
X0129013Y0126150D01*
X0129530Y0126150D02*
X0128496Y0126150D01*
X0127259Y0126667D02*
X0127259Y0127701D01*
X0126741Y0128218D01*
X0125707Y0128218D01*
X0125190Y0127701D01*
X0125190Y0127184D01*
X0127259Y0127184D01*
X0127259Y0126667D02*
X0126741Y0126150D01*
X0125707Y0126150D01*
X0123852Y0126667D02*
X0123335Y0126150D01*
X0121783Y0126150D01*
X0119928Y0126667D02*
X0119411Y0126150D01*
X0119928Y0126667D02*
X0119928Y0128736D01*
X0120445Y0128218D02*
X0119411Y0128218D01*
X0121783Y0128218D02*
X0123335Y0128218D01*
X0123852Y0127701D01*
X0123852Y0126667D01*
X0123335Y0122668D02*
X0121783Y0122668D01*
X0122300Y0121634D02*
X0123335Y0121634D01*
X0123852Y0122151D01*
X0123335Y0122668D01*
X0122300Y0121634D02*
X0121783Y0121117D01*
X0122300Y0120600D01*
X0123852Y0120600D01*
X0125190Y0120600D02*
X0126741Y0120600D01*
X0127259Y0121117D01*
X0126741Y0121634D01*
X0125190Y0121634D01*
X0125190Y0122151D02*
X0125190Y0120600D01*
X0125190Y0122151D02*
X0125707Y0122668D01*
X0126741Y0122668D01*
X0117038Y0122668D02*
X0117038Y0121117D01*
X0116521Y0120600D01*
X0114969Y0120600D01*
X0114969Y0120083D02*
X0115487Y0119566D01*
X0116004Y0119566D01*
X0114969Y0120083D02*
X0114969Y0122668D01*
X0113631Y0122151D02*
X0113631Y0121117D01*
X0113114Y0120600D01*
X0112080Y0120600D01*
X0111563Y0121117D01*
X0111563Y0122151D01*
X0112080Y0122668D01*
X0113114Y0122668D01*
X0113631Y0122151D01*
X0110224Y0122668D02*
X0110224Y0121117D01*
X0109707Y0120600D01*
X0108156Y0120600D01*
X0108156Y0122668D01*
X0109808Y0126150D02*
X0109291Y0126667D01*
X0109808Y0127184D01*
X0110843Y0127184D01*
X0111360Y0127701D01*
X0110843Y0128218D01*
X0109291Y0128218D01*
X0109808Y0126150D02*
X0111360Y0126150D01*
X0112698Y0126150D02*
X0114249Y0126150D01*
X0114767Y0126667D01*
X0114249Y0127184D01*
X0112698Y0127184D01*
X0112698Y0127701D02*
X0112698Y0126150D01*
X0112698Y0127701D02*
X0113215Y0128218D01*
X0114249Y0128218D01*
X0104546Y0128218D02*
X0104546Y0126150D01*
X0103512Y0126150D02*
X0103512Y0127701D01*
X0102995Y0128218D01*
X0102477Y0127701D01*
X0102477Y0126150D01*
X0101139Y0126667D02*
X0100622Y0127184D01*
X0099071Y0127184D01*
X0099071Y0127701D02*
X0099071Y0126150D01*
X0100622Y0126150D01*
X0101139Y0126667D01*
X0100622Y0128218D02*
X0099588Y0128218D01*
X0099071Y0127701D01*
X0097732Y0128218D02*
X0096181Y0128218D01*
X0095664Y0127701D01*
X0095664Y0126150D01*
X0094325Y0126667D02*
X0094325Y0128218D01*
X0094325Y0126667D02*
X0093808Y0126150D01*
X0092257Y0126150D01*
X0092257Y0125633D02*
X0092774Y0125116D01*
X0093291Y0125116D01*
X0092257Y0125633D02*
X0092257Y0128218D01*
X0097732Y0128218D02*
X0097732Y0126150D01*
X0098452Y0122668D02*
X0097935Y0122151D01*
X0097935Y0120600D01*
X0099486Y0120600D01*
X0100003Y0121117D01*
X0099486Y0121634D01*
X0097935Y0121634D01*
X0098452Y0122668D02*
X0099486Y0122668D01*
X0101342Y0122668D02*
X0102893Y0122668D01*
X0103410Y0122151D01*
X0103410Y0121117D01*
X0102893Y0120600D01*
X0101342Y0120600D01*
X0103064Y0116803D02*
X0102546Y0116286D01*
X0102546Y0115251D01*
X0103064Y0114734D01*
X0104615Y0114734D01*
X0104615Y0113700D02*
X0104615Y0116803D01*
X0103064Y0116803D01*
X0101208Y0115768D02*
X0101208Y0113700D01*
X0101208Y0114734D02*
X0100174Y0115768D01*
X0099657Y0115768D01*
X0098369Y0115251D02*
X0098369Y0114217D01*
X0097852Y0113700D01*
X0096818Y0113700D01*
X0096301Y0114734D02*
X0098369Y0114734D01*
X0098369Y0115251D02*
X0097852Y0115768D01*
X0096818Y0115768D01*
X0096301Y0115251D01*
X0096301Y0114734D01*
X0094962Y0115251D02*
X0094445Y0115768D01*
X0092894Y0115768D01*
X0093411Y0114734D02*
X0094445Y0114734D01*
X0094962Y0115251D01*
X0094962Y0113700D02*
X0093411Y0113700D01*
X0092894Y0114217D01*
X0093411Y0114734D01*
X0091555Y0115251D02*
X0091038Y0115768D01*
X0089487Y0115768D01*
X0090004Y0114734D02*
X0091038Y0114734D01*
X0091555Y0115251D01*
X0091555Y0113700D02*
X0090004Y0113700D01*
X0089487Y0114217D01*
X0090004Y0114734D01*
X0093877Y0111253D02*
X0093877Y0108150D01*
X0094394Y0108150D02*
X0093360Y0108150D01*
X0092123Y0108667D02*
X0092123Y0109701D01*
X0091606Y0110218D01*
X0090572Y0110218D01*
X0090055Y0109701D01*
X0090055Y0109184D01*
X0092123Y0109184D01*
X0092123Y0108667D02*
X0091606Y0108150D01*
X0090572Y0108150D01*
X0093877Y0111253D02*
X0094394Y0111253D01*
X0095733Y0110218D02*
X0097284Y0110218D01*
X0097801Y0109701D01*
X0097801Y0108667D01*
X0097284Y0108150D01*
X0095733Y0108150D01*
X0099140Y0108150D02*
X0100691Y0108150D01*
X0101208Y0108667D01*
X0101208Y0110218D01*
X0102546Y0110218D02*
X0104098Y0110218D01*
X0104615Y0109701D01*
X0104615Y0108667D01*
X0104098Y0108150D01*
X0102546Y0108150D01*
X0100174Y0107116D02*
X0099657Y0107116D01*
X0099140Y0107633D01*
X0099140Y0110218D01*
X0099555Y0104668D02*
X0098004Y0104668D01*
X0098521Y0103634D02*
X0098004Y0103117D01*
X0098521Y0102600D01*
X0100072Y0102600D01*
X0099555Y0103634D02*
X0100072Y0104151D01*
X0099555Y0104668D01*
X0099555Y0103634D02*
X0098521Y0103634D01*
X0101411Y0103634D02*
X0103479Y0103634D01*
X0103479Y0103117D02*
X0103479Y0104151D01*
X0102962Y0104668D01*
X0101928Y0104668D01*
X0101411Y0104151D01*
X0101411Y0103634D01*
X0101928Y0102600D02*
X0102962Y0102600D01*
X0103479Y0103117D01*
X0104818Y0102600D02*
X0106369Y0102600D01*
X0106886Y0103117D01*
X0106886Y0104151D01*
X0106369Y0104668D01*
X0104818Y0104668D01*
X0104818Y0105703D02*
X0104818Y0102600D01*
X0108225Y0103117D02*
X0108225Y0104151D01*
X0108742Y0104668D01*
X0109776Y0104668D01*
X0110293Y0104151D01*
X0110293Y0103117D01*
X0109776Y0102600D01*
X0108742Y0102600D01*
X0108225Y0103117D01*
X0111632Y0102600D02*
X0111632Y0104151D01*
X0112149Y0104668D01*
X0112666Y0104151D01*
X0112666Y0102600D01*
X0113700Y0102600D02*
X0113700Y0104668D01*
X0113183Y0104668D01*
X0112666Y0104151D01*
X0112666Y0108150D02*
X0113183Y0108667D01*
X0113183Y0110736D01*
X0113700Y0110218D02*
X0112666Y0110218D01*
X0111429Y0109701D02*
X0111429Y0108667D01*
X0110912Y0108150D01*
X0109877Y0108150D01*
X0109360Y0108667D01*
X0109360Y0109701D01*
X0109877Y0110218D01*
X0110912Y0110218D01*
X0111429Y0109701D01*
X0112149Y0113700D02*
X0113183Y0113700D01*
X0113700Y0114217D01*
X0113700Y0115251D02*
X0112666Y0115768D01*
X0112149Y0115768D01*
X0111632Y0115251D01*
X0111632Y0114217D01*
X0112149Y0113700D01*
X0110293Y0113700D02*
X0109259Y0114734D01*
X0109259Y0115768D01*
X0110293Y0116803D01*
X0111632Y0116803D02*
X0113700Y0116803D01*
X0113700Y0115251D01*
X0103512Y0127701D02*
X0104029Y0128218D01*
X0104546Y0128218D01*
X0096596Y0122668D02*
X0095045Y0122668D01*
X0094528Y0122151D01*
X0094528Y0120600D01*
X0096596Y0120600D02*
X0096596Y0122668D01*
X0084741Y0116803D02*
X0084741Y0113700D01*
X0082673Y0113700D02*
X0082673Y0116803D01*
X0083707Y0115768D01*
X0084741Y0116803D01*
X0081334Y0115251D02*
X0081334Y0114217D01*
X0080817Y0113700D01*
X0079783Y0113700D01*
X0079266Y0114217D01*
X0079266Y0115251D01*
X0079783Y0115768D01*
X0080817Y0115768D01*
X0081334Y0115251D01*
X0077928Y0115251D02*
X0077928Y0114217D01*
X0077410Y0113700D01*
X0075859Y0113700D01*
X0075859Y0116803D01*
X0075859Y0115768D02*
X0077410Y0115768D01*
X0077928Y0115251D01*
X0074521Y0115251D02*
X0074004Y0115768D01*
X0072969Y0115768D01*
X0072452Y0115251D01*
X0072452Y0114734D01*
X0074521Y0114734D01*
X0074521Y0114217D02*
X0074521Y0115251D01*
X0074521Y0114217D02*
X0074004Y0113700D01*
X0072969Y0113700D01*
X0073385Y0110218D02*
X0073385Y0108667D01*
X0072868Y0108150D01*
X0071317Y0108150D01*
X0071317Y0110218D01*
X0069978Y0109701D02*
X0069978Y0108667D01*
X0069461Y0108150D01*
X0067910Y0108150D01*
X0067910Y0107633D02*
X0067910Y0110218D01*
X0069461Y0110218D01*
X0069978Y0109701D01*
X0068944Y0107116D02*
X0068427Y0107116D01*
X0067910Y0107633D01*
X0066571Y0108150D02*
X0066571Y0111253D01*
X0066054Y0110218D02*
X0065020Y0110218D01*
X0064503Y0109701D01*
X0064503Y0108150D01*
X0066571Y0109701D02*
X0066054Y0110218D01*
X0066155Y0113700D02*
X0065638Y0114217D01*
X0065638Y0115251D01*
X0066155Y0115768D01*
X0067707Y0115768D01*
X0067707Y0116803D02*
X0067707Y0113700D01*
X0066155Y0113700D01*
X0064300Y0114217D02*
X0064300Y0115768D01*
X0064300Y0114217D02*
X0063783Y0113700D01*
X0062231Y0113700D01*
X0062231Y0115768D01*
X0060893Y0115768D02*
X0059859Y0115768D01*
X0060376Y0116286D02*
X0060376Y0114217D01*
X0059859Y0113700D01*
X0058105Y0114217D02*
X0057588Y0113700D01*
X0058105Y0114217D02*
X0058105Y0116286D01*
X0058622Y0115768D02*
X0057588Y0115768D01*
X0056350Y0115251D02*
X0056350Y0114217D01*
X0055833Y0113700D01*
X0054799Y0113700D01*
X0054282Y0114217D01*
X0054282Y0115251D01*
X0054799Y0115768D01*
X0055833Y0115768D01*
X0056350Y0115251D01*
X0052944Y0115768D02*
X0052944Y0113700D01*
X0052944Y0115768D02*
X0051392Y0115768D01*
X0050875Y0115251D01*
X0050875Y0113700D01*
X0050875Y0110218D02*
X0050875Y0108667D01*
X0051392Y0108150D01*
X0051909Y0108667D01*
X0052426Y0108150D01*
X0052944Y0108667D01*
X0052944Y0110218D01*
X0054282Y0109701D02*
X0054282Y0109184D01*
X0056350Y0109184D01*
X0056350Y0108667D02*
X0056350Y0109701D01*
X0055833Y0110218D01*
X0054799Y0110218D01*
X0054282Y0109701D01*
X0054799Y0108150D02*
X0055833Y0108150D01*
X0056350Y0108667D01*
X0057689Y0108150D02*
X0057689Y0109701D01*
X0058206Y0110218D01*
X0059757Y0110218D01*
X0059757Y0108150D01*
X0074723Y0108667D02*
X0074723Y0109701D01*
X0075241Y0110218D01*
X0076275Y0110218D01*
X0076792Y0109701D01*
X0076792Y0108667D01*
X0076275Y0108150D01*
X0075241Y0108150D01*
X0074723Y0108667D01*
X0078080Y0110218D02*
X0078597Y0110218D01*
X0079631Y0109184D01*
X0079631Y0108150D02*
X0079631Y0110218D01*
X0080969Y0109701D02*
X0080969Y0108150D01*
X0080969Y0109701D02*
X0081487Y0110218D01*
X0082521Y0110218D01*
X0083038Y0109701D01*
X0084275Y0110218D02*
X0085309Y0110218D01*
X0084792Y0110736D02*
X0084792Y0108667D01*
X0084275Y0108150D01*
X0083038Y0108150D02*
X0083038Y0111253D01*
X0159800Y0174108D02*
X0162903Y0174108D01*
X0161868Y0175142D01*
X0162903Y0176176D01*
X0159800Y0176176D01*
X0159800Y0177515D02*
X0159800Y0178549D01*
X0159800Y0178032D02*
X0162903Y0178032D01*
X0162903Y0177515D02*
X0162903Y0178549D01*
X0162386Y0179786D02*
X0161868Y0179786D01*
X0161351Y0180303D01*
X0161351Y0181337D01*
X0160834Y0181855D01*
X0160317Y0181855D01*
X0159800Y0181337D01*
X0159800Y0180303D01*
X0160317Y0179786D01*
X0162386Y0179786D02*
X0162903Y0180303D01*
X0162903Y0181337D01*
X0162386Y0181855D01*
X0162386Y0183193D02*
X0160317Y0183193D01*
X0159800Y0183710D01*
X0159800Y0184744D01*
X0160317Y0185262D01*
X0162386Y0185262D01*
X0162903Y0184744D01*
X0162903Y0183710D01*
X0162386Y0183193D01*
X0169800Y0181762D02*
X0171351Y0180210D01*
X0170834Y0179693D02*
X0172903Y0181762D01*
X0172903Y0179693D02*
X0169800Y0179693D01*
X0170317Y0178355D02*
X0169800Y0177837D01*
X0169800Y0176803D01*
X0170317Y0176286D01*
X0172386Y0176286D01*
X0172903Y0176803D01*
X0172903Y0177837D01*
X0172386Y0178355D01*
X0172386Y0174948D02*
X0172903Y0174431D01*
X0172903Y0173396D01*
X0172386Y0172879D01*
X0171868Y0172879D01*
X0171351Y0173396D01*
X0171351Y0174431D01*
X0170834Y0174948D01*
X0170317Y0174948D01*
X0169800Y0174431D01*
X0169800Y0173396D01*
X0170317Y0172879D01*
X0179800Y0172879D02*
X0182903Y0172879D01*
X0182903Y0174431D01*
X0182386Y0174948D01*
X0181351Y0174948D01*
X0180834Y0174431D01*
X0180834Y0172879D01*
X0180834Y0173913D02*
X0179800Y0174948D01*
X0180317Y0176286D02*
X0179800Y0176803D01*
X0179800Y0177837D01*
X0180317Y0178355D01*
X0180834Y0178355D01*
X0181351Y0177837D01*
X0181351Y0176803D01*
X0181868Y0176286D01*
X0182386Y0176286D01*
X0182903Y0176803D01*
X0182903Y0177837D01*
X0182386Y0178355D01*
X0182903Y0179693D02*
X0182903Y0181762D01*
X0182903Y0180727D02*
X0179800Y0180727D01*
X0205300Y0189051D02*
X0205300Y0190752D01*
X0205867Y0191319D01*
X0206434Y0191319D01*
X0207001Y0190752D01*
X0207001Y0189051D01*
X0205300Y0189051D02*
X0208703Y0189051D01*
X0208703Y0190752D01*
X0208136Y0191319D01*
X0207569Y0191319D01*
X0207001Y0190752D01*
X0205300Y0192734D02*
X0205300Y0195002D01*
X0205300Y0196417D02*
X0208703Y0196417D01*
X0207001Y0196984D02*
X0205300Y0198685D01*
X0206434Y0196417D02*
X0208703Y0198685D01*
X0208703Y0192734D02*
X0205300Y0192734D01*
X0182386Y0149762D02*
X0180317Y0149762D01*
X0179800Y0149244D01*
X0179800Y0147693D01*
X0182903Y0147693D01*
X0182903Y0149244D01*
X0182386Y0149762D01*
X0182903Y0146355D02*
X0179800Y0146355D01*
X0182903Y0144286D01*
X0179800Y0144286D01*
X0180317Y0142948D02*
X0181351Y0142948D01*
X0181351Y0141913D01*
X0180317Y0140879D02*
X0179800Y0141396D01*
X0179800Y0142431D01*
X0180317Y0142948D01*
X0182386Y0142948D02*
X0182903Y0142431D01*
X0182903Y0141396D01*
X0182386Y0140879D01*
X0180317Y0140879D01*
X0181892Y0128218D02*
X0181375Y0127701D01*
X0181375Y0126150D01*
X0183444Y0126150D02*
X0183444Y0128218D01*
X0181892Y0128218D01*
X0184782Y0127701D02*
X0185299Y0128218D01*
X0186333Y0128218D01*
X0186850Y0127701D01*
X0186850Y0126667D01*
X0186333Y0126150D01*
X0185299Y0126150D01*
X0184782Y0126667D01*
X0184782Y0127701D01*
X0188088Y0128218D02*
X0189122Y0128218D01*
X0188605Y0128736D02*
X0188605Y0126667D01*
X0188088Y0126150D01*
X0190359Y0126150D02*
X0190876Y0126667D01*
X0190876Y0128736D01*
X0191393Y0128218D02*
X0190359Y0128218D01*
X0192731Y0128218D02*
X0192731Y0126150D01*
X0194283Y0126150D01*
X0194800Y0126667D01*
X0194800Y0128218D01*
X0196138Y0127701D02*
X0196655Y0128218D01*
X0198207Y0128218D01*
X0198207Y0129253D02*
X0198207Y0126150D01*
X0196655Y0126150D01*
X0196138Y0126667D01*
X0196138Y0127701D01*
X0196655Y0122668D02*
X0196138Y0122151D01*
X0196138Y0121634D01*
X0198207Y0121634D01*
X0198207Y0121117D02*
X0198207Y0122151D01*
X0197690Y0122668D01*
X0196655Y0122668D01*
X0196655Y0120600D02*
X0197690Y0120600D01*
X0198207Y0121117D01*
X0199545Y0120600D02*
X0201097Y0120600D01*
X0201614Y0121117D01*
X0201614Y0122151D01*
X0201097Y0122668D01*
X0199545Y0122668D01*
X0199545Y0123703D02*
X0199545Y0120600D01*
X0202952Y0121117D02*
X0202952Y0122151D01*
X0203469Y0122668D01*
X0204504Y0122668D01*
X0205021Y0122151D01*
X0205021Y0121117D01*
X0204504Y0120600D01*
X0203469Y0120600D01*
X0202952Y0121117D01*
X0206359Y0120600D02*
X0206359Y0122151D01*
X0206876Y0122668D01*
X0207393Y0122151D01*
X0207393Y0120600D01*
X0208428Y0120600D02*
X0208428Y0122668D01*
X0207910Y0122668D01*
X0207393Y0122151D01*
X0207910Y0126150D02*
X0208428Y0126667D01*
X0208428Y0127701D01*
X0207910Y0128218D01*
X0206359Y0128218D01*
X0206359Y0129253D02*
X0206359Y0126150D01*
X0207910Y0126150D01*
X0209766Y0126667D02*
X0209766Y0127701D01*
X0210283Y0128218D01*
X0211317Y0128218D01*
X0211834Y0127701D01*
X0211834Y0126667D01*
X0211317Y0126150D01*
X0210283Y0126150D01*
X0209766Y0126667D01*
X0213173Y0126150D02*
X0213173Y0129253D01*
X0214207Y0128218D01*
X0215241Y0129253D01*
X0215241Y0126150D01*
X0214724Y0122668D02*
X0213690Y0122668D01*
X0213173Y0122151D01*
X0213173Y0121634D01*
X0215241Y0121634D01*
X0215241Y0121117D02*
X0215241Y0122151D01*
X0214724Y0122668D01*
X0215241Y0121117D02*
X0214724Y0120600D01*
X0213690Y0120600D01*
X0216529Y0122668D02*
X0217046Y0122668D01*
X0218080Y0121634D01*
X0218080Y0120600D02*
X0218080Y0122668D01*
X0219419Y0122151D02*
X0219419Y0120600D01*
X0220970Y0120600D01*
X0221487Y0121117D01*
X0220970Y0121634D01*
X0219419Y0121634D01*
X0219419Y0122151D02*
X0219936Y0122668D01*
X0220970Y0122668D01*
X0222826Y0122151D02*
X0222826Y0120600D01*
X0222826Y0122151D02*
X0223343Y0122668D01*
X0224377Y0122668D01*
X0224894Y0122151D01*
X0226233Y0122668D02*
X0227784Y0122668D01*
X0228301Y0122151D01*
X0227784Y0121634D01*
X0226750Y0121634D01*
X0226233Y0121117D01*
X0226750Y0120600D01*
X0228301Y0120600D01*
X0224894Y0120600D02*
X0224894Y0123703D01*
X0225462Y0126150D02*
X0223911Y0126150D01*
X0223394Y0126667D01*
X0223911Y0127184D01*
X0224945Y0127184D01*
X0225462Y0127701D01*
X0224945Y0128218D01*
X0223394Y0128218D01*
X0222055Y0127701D02*
X0221538Y0127184D01*
X0220504Y0127184D01*
X0219987Y0126667D01*
X0220504Y0126150D01*
X0222055Y0126150D01*
X0222055Y0127701D02*
X0221538Y0128218D01*
X0219987Y0128218D01*
X0226801Y0127701D02*
X0226801Y0127184D01*
X0228869Y0127184D01*
X0228869Y0126667D02*
X0228869Y0127701D01*
X0228352Y0128218D01*
X0227318Y0128218D01*
X0226801Y0127701D01*
X0227318Y0126150D02*
X0228352Y0126150D01*
X0228869Y0126667D01*
X0230157Y0128218D02*
X0230674Y0128218D01*
X0231708Y0127184D01*
X0231708Y0126150D02*
X0231708Y0128218D01*
X0233046Y0128736D02*
X0233046Y0127701D01*
X0233564Y0127184D01*
X0235115Y0127184D01*
X0235115Y0126150D02*
X0235115Y0129253D01*
X0233564Y0129253D01*
X0233046Y0128736D01*
X0233564Y0122668D02*
X0234598Y0122668D01*
X0235115Y0122151D01*
X0235115Y0121117D01*
X0234598Y0120600D01*
X0233564Y0120600D01*
X0233046Y0121117D01*
X0233046Y0122151D01*
X0233564Y0122668D01*
X0236352Y0122668D02*
X0237386Y0122668D01*
X0236869Y0123186D02*
X0236869Y0121117D01*
X0236352Y0120600D01*
X0236850Y0117168D02*
X0236333Y0116651D01*
X0236333Y0115100D01*
X0234994Y0115617D02*
X0234477Y0115100D01*
X0232926Y0115100D01*
X0232926Y0114583D02*
X0232926Y0117168D01*
X0234477Y0117168D01*
X0234994Y0116651D01*
X0234994Y0115617D01*
X0233960Y0114066D02*
X0233443Y0114066D01*
X0232926Y0114583D01*
X0236850Y0117168D02*
X0238401Y0117168D01*
X0238401Y0115100D01*
X0239638Y0115100D02*
X0240672Y0115100D01*
X0240155Y0115100D02*
X0240155Y0117168D01*
X0240672Y0117168D01*
X0240155Y0118203D02*
X0240155Y0118720D01*
X0242011Y0117168D02*
X0243562Y0117168D01*
X0244079Y0116651D01*
X0243562Y0116134D01*
X0242528Y0116134D01*
X0242011Y0115617D01*
X0242528Y0115100D01*
X0244079Y0115100D01*
X0245316Y0115100D02*
X0246350Y0115100D01*
X0245833Y0115100D02*
X0245833Y0118203D01*
X0246350Y0118203D01*
X0247689Y0117168D02*
X0247689Y0115100D01*
X0249240Y0115100D01*
X0249757Y0115617D01*
X0249757Y0117168D01*
X0251096Y0116651D02*
X0251096Y0115617D01*
X0251613Y0115100D01*
X0253164Y0115100D01*
X0253164Y0114066D02*
X0253164Y0117168D01*
X0251613Y0117168D01*
X0251096Y0116651D01*
X0257808Y0117168D02*
X0258842Y0117168D01*
X0258325Y0117686D02*
X0258325Y0115617D01*
X0257808Y0115100D01*
X0260130Y0117168D02*
X0260647Y0117168D01*
X0261682Y0116134D01*
X0261682Y0115100D02*
X0261682Y0117168D01*
X0263020Y0116651D02*
X0263020Y0115100D01*
X0264571Y0115100D01*
X0265088Y0115617D01*
X0264571Y0116134D01*
X0263020Y0116134D01*
X0263020Y0116651D02*
X0263537Y0117168D01*
X0264571Y0117168D01*
X0266325Y0117168D02*
X0267360Y0117168D01*
X0266843Y0117686D02*
X0266843Y0115617D01*
X0266325Y0115100D01*
X0268698Y0115617D02*
X0269215Y0116134D01*
X0270250Y0116134D01*
X0270767Y0116651D01*
X0270250Y0117168D01*
X0268698Y0117168D01*
X0268698Y0115617D02*
X0269215Y0115100D01*
X0270767Y0115100D01*
X0270969Y0120650D02*
X0270969Y0122201D01*
X0271487Y0122718D01*
X0273038Y0122718D01*
X0273038Y0120650D01*
X0274376Y0120650D02*
X0275928Y0120650D01*
X0276445Y0121167D01*
X0275928Y0121684D01*
X0274376Y0121684D01*
X0274376Y0122201D02*
X0274376Y0120650D01*
X0274376Y0122201D02*
X0274893Y0122718D01*
X0275928Y0122718D01*
X0276029Y0125166D02*
X0276546Y0125166D01*
X0276029Y0125166D02*
X0275512Y0125683D01*
X0275512Y0128268D01*
X0274174Y0127751D02*
X0273656Y0128268D01*
X0272622Y0128268D01*
X0272105Y0127751D01*
X0272105Y0127234D01*
X0274174Y0127234D01*
X0274174Y0126717D02*
X0274174Y0127751D01*
X0274174Y0126717D02*
X0273656Y0126200D01*
X0272622Y0126200D01*
X0270767Y0126200D02*
X0270767Y0129303D01*
X0270767Y0128268D02*
X0269215Y0128268D01*
X0268698Y0127751D01*
X0268698Y0126717D01*
X0269215Y0126200D01*
X0270767Y0126200D01*
X0267360Y0126717D02*
X0266843Y0127234D01*
X0265291Y0127234D01*
X0265291Y0127751D02*
X0265291Y0126200D01*
X0266843Y0126200D01*
X0267360Y0126717D01*
X0266843Y0128268D02*
X0265808Y0128268D01*
X0265291Y0127751D01*
X0263953Y0126200D02*
X0262919Y0126200D01*
X0263436Y0126200D02*
X0263436Y0129303D01*
X0263953Y0129303D01*
X0261682Y0129303D02*
X0261164Y0129303D01*
X0261164Y0126200D01*
X0260647Y0126200D02*
X0261682Y0126200D01*
X0259410Y0126200D02*
X0257859Y0126200D01*
X0257342Y0126717D01*
X0257859Y0127234D01*
X0258893Y0127234D01*
X0259410Y0127751D01*
X0258893Y0128268D01*
X0257342Y0128268D01*
X0257139Y0122718D02*
X0257139Y0120650D01*
X0257139Y0121684D02*
X0256105Y0122718D01*
X0255588Y0122718D01*
X0258477Y0122201D02*
X0258477Y0121684D01*
X0260546Y0121684D01*
X0260546Y0121167D02*
X0260546Y0122201D01*
X0260029Y0122718D01*
X0258995Y0122718D01*
X0258477Y0122201D01*
X0258995Y0120650D02*
X0260029Y0120650D01*
X0260546Y0121167D01*
X0261884Y0120650D02*
X0261884Y0122201D01*
X0262401Y0122718D01*
X0263436Y0122718D01*
X0263953Y0122201D01*
X0265190Y0122718D02*
X0266224Y0122718D01*
X0265707Y0123236D02*
X0265707Y0121167D01*
X0265190Y0120650D01*
X0263953Y0120650D02*
X0263953Y0123753D01*
X0267563Y0122201D02*
X0267563Y0121167D01*
X0268080Y0120650D01*
X0269114Y0120650D01*
X0269631Y0121167D01*
X0269631Y0122201D01*
X0269114Y0122718D01*
X0268080Y0122718D01*
X0267563Y0122201D01*
X0275512Y0126200D02*
X0277063Y0126200D01*
X0277580Y0126717D01*
X0277580Y0128268D01*
X0278919Y0129303D02*
X0280987Y0129303D01*
X0280987Y0126200D01*
X0278919Y0126200D01*
X0279953Y0127751D02*
X0280987Y0127751D01*
X0285733Y0127751D02*
X0286250Y0128268D01*
X0287284Y0128268D01*
X0287801Y0127751D01*
X0287801Y0126717D01*
X0287284Y0126200D01*
X0286250Y0126200D01*
X0285733Y0126717D01*
X0285733Y0127751D01*
X0289140Y0128268D02*
X0289140Y0126717D01*
X0289657Y0126200D01*
X0290174Y0126717D01*
X0290691Y0126200D01*
X0291208Y0126717D01*
X0291208Y0128268D01*
X0292546Y0129303D02*
X0294615Y0129303D01*
X0293581Y0129303D02*
X0293581Y0126200D01*
X0295335Y0122718D02*
X0294818Y0122201D01*
X0294818Y0121684D01*
X0296886Y0121684D01*
X0296886Y0121167D02*
X0296886Y0122201D01*
X0296369Y0122718D01*
X0295335Y0122718D01*
X0295335Y0120650D02*
X0296369Y0120650D01*
X0296886Y0121167D01*
X0298225Y0121684D02*
X0300293Y0121684D01*
X0300293Y0121167D02*
X0300293Y0122201D01*
X0299776Y0122718D01*
X0298742Y0122718D01*
X0298225Y0122201D01*
X0298225Y0121684D01*
X0298742Y0120650D02*
X0299776Y0120650D01*
X0300293Y0121167D01*
X0301632Y0121167D02*
X0302149Y0121684D01*
X0303183Y0121684D01*
X0303700Y0122201D01*
X0303183Y0122718D01*
X0301632Y0122718D01*
X0301632Y0121167D02*
X0302149Y0120650D01*
X0303700Y0120650D01*
X0296886Y0117686D02*
X0296369Y0118203D01*
X0295335Y0118203D01*
X0294818Y0117686D01*
X0294818Y0117168D01*
X0296886Y0115100D01*
X0294818Y0115100D01*
X0293479Y0115100D02*
X0292445Y0116134D01*
X0292445Y0117168D01*
X0293479Y0118203D01*
X0290072Y0121167D02*
X0290072Y0122201D01*
X0289555Y0122718D01*
X0288521Y0122718D01*
X0288004Y0122201D01*
X0288004Y0121167D01*
X0288521Y0120650D01*
X0289555Y0120650D01*
X0290072Y0121167D01*
X0286665Y0120650D02*
X0286665Y0122718D01*
X0285114Y0122718D01*
X0284597Y0122201D01*
X0284597Y0120650D01*
X0283259Y0121167D02*
X0283259Y0122201D01*
X0282741Y0122718D01*
X0281707Y0122718D01*
X0281190Y0122201D01*
X0281190Y0121684D01*
X0283259Y0121684D01*
X0283259Y0121167D02*
X0282741Y0120650D01*
X0281707Y0120650D01*
X0282326Y0118203D02*
X0284394Y0118203D01*
X0284394Y0115100D01*
X0282326Y0115100D01*
X0280987Y0115100D02*
X0279436Y0115100D01*
X0278919Y0115617D01*
X0278919Y0117686D01*
X0279436Y0118203D01*
X0280987Y0118203D01*
X0280987Y0115100D01*
X0283360Y0116651D02*
X0284394Y0116651D01*
X0285733Y0115100D02*
X0287801Y0115100D01*
X0287801Y0118203D01*
X0299259Y0127234D02*
X0299259Y0128268D01*
X0300293Y0129303D01*
X0299259Y0127234D02*
X0300293Y0126200D01*
X0301632Y0126200D02*
X0303700Y0126200D01*
X0302666Y0126200D02*
X0302666Y0129303D01*
X0303700Y0128268D01*
X0303642Y0132000D02*
X0303125Y0132517D01*
X0303125Y0133551D01*
X0303642Y0134068D01*
X0304676Y0134068D01*
X0305193Y0133551D01*
X0305193Y0132517D01*
X0304676Y0132000D01*
X0303642Y0132000D01*
X0301786Y0132517D02*
X0301269Y0132000D01*
X0300752Y0132517D01*
X0300235Y0132000D01*
X0299718Y0132517D01*
X0299718Y0134068D01*
X0301786Y0134068D02*
X0301786Y0132517D01*
X0306532Y0132000D02*
X0306532Y0135103D01*
X0306532Y0133551D02*
X0308600Y0133551D01*
X0308600Y0132000D02*
X0308600Y0135103D01*
X0314016Y0147167D02*
X0314016Y0149436D01*
X0312882Y0148301D02*
X0315151Y0148301D01*
X0316565Y0147167D02*
X0316565Y0149436D01*
X0317132Y0150003D01*
X0318834Y0150003D01*
X0318834Y0146600D01*
X0317132Y0146600D01*
X0316565Y0147167D01*
X0320248Y0146600D02*
X0322517Y0146600D01*
X0322517Y0150003D01*
X0320248Y0150003D01*
X0321383Y0148301D02*
X0322517Y0148301D01*
X0323931Y0148301D02*
X0324499Y0147734D01*
X0326200Y0147734D01*
X0326200Y0146600D02*
X0326200Y0150003D01*
X0324499Y0150003D01*
X0323931Y0149436D01*
X0323931Y0148301D01*
X0325066Y0147734D02*
X0323931Y0146600D01*
X0324499Y0171600D02*
X0326200Y0171600D01*
X0326200Y0175003D01*
X0324499Y0175003D01*
X0323931Y0174436D01*
X0323931Y0173869D01*
X0324499Y0173301D01*
X0326200Y0173301D01*
X0324499Y0173301D02*
X0323931Y0172734D01*
X0323931Y0172167D01*
X0324499Y0171600D01*
X0322517Y0171600D02*
X0322517Y0175003D01*
X0322517Y0171600D02*
X0320248Y0171600D01*
X0318834Y0171600D02*
X0318834Y0175003D01*
X0318267Y0173301D02*
X0316565Y0171600D01*
X0315151Y0173301D02*
X0312882Y0173301D01*
X0316565Y0175003D02*
X0318834Y0172734D01*
X0285887Y0135103D02*
X0284336Y0135103D01*
X0283819Y0134586D01*
X0283819Y0133551D01*
X0284336Y0133034D01*
X0285887Y0133034D01*
X0285887Y0132000D02*
X0285887Y0135103D01*
X0282480Y0135103D02*
X0281963Y0135103D01*
X0281963Y0132000D01*
X0282480Y0132000D02*
X0281446Y0132000D01*
X0280209Y0132517D02*
X0279692Y0133034D01*
X0278141Y0133034D01*
X0278141Y0133551D02*
X0278141Y0132000D01*
X0279692Y0132000D01*
X0280209Y0132517D01*
X0279692Y0134068D02*
X0278658Y0134068D01*
X0278141Y0133551D01*
X0276802Y0134068D02*
X0276802Y0132517D01*
X0276285Y0132000D01*
X0274734Y0132000D01*
X0274734Y0131483D02*
X0275251Y0130966D01*
X0275768Y0130966D01*
X0274734Y0131483D02*
X0274734Y0134068D01*
X0273395Y0134068D02*
X0273395Y0133551D01*
X0272878Y0133551D01*
X0272878Y0134068D01*
X0273395Y0134068D01*
X0273395Y0132517D02*
X0273395Y0132000D01*
X0272878Y0132000D01*
X0272878Y0132517D01*
X0273395Y0132517D01*
X0290633Y0132517D02*
X0290633Y0133551D01*
X0291150Y0134068D01*
X0292184Y0134068D01*
X0292701Y0133551D01*
X0292701Y0132517D01*
X0292184Y0132000D01*
X0291150Y0132000D01*
X0290633Y0132517D01*
X0293938Y0132000D02*
X0294455Y0132517D01*
X0294455Y0134586D01*
X0294972Y0134068D02*
X0293938Y0134068D01*
X0277063Y0117168D02*
X0275512Y0117168D01*
X0276029Y0116134D02*
X0277063Y0116134D01*
X0277580Y0116651D01*
X0277063Y0117168D01*
X0276029Y0116134D02*
X0275512Y0115617D01*
X0276029Y0115100D01*
X0277580Y0115100D01*
X0244200Y0126667D02*
X0243683Y0126150D01*
X0242649Y0126150D01*
X0242132Y0126667D01*
X0242132Y0127184D01*
X0242649Y0127701D01*
X0243166Y0127701D01*
X0242649Y0127701D02*
X0242132Y0128218D01*
X0242132Y0128736D01*
X0242649Y0129253D01*
X0243683Y0129253D01*
X0244200Y0128736D01*
X0240793Y0129253D02*
X0239759Y0128218D01*
X0239759Y0127184D01*
X0240793Y0126150D01*
X0205021Y0126667D02*
X0205021Y0127701D01*
X0204504Y0128218D01*
X0203469Y0128218D01*
X0202952Y0127701D01*
X0202952Y0127184D01*
X0205021Y0127184D01*
X0205021Y0126667D02*
X0204504Y0126150D01*
X0203469Y0126150D01*
X0137703Y0189118D02*
X0137136Y0188551D01*
X0134867Y0188551D01*
X0134300Y0189118D01*
X0134300Y0190252D01*
X0134867Y0190819D01*
X0136001Y0190819D01*
X0136001Y0189685D01*
X0137136Y0190819D02*
X0137703Y0190252D01*
X0137703Y0189118D01*
X0137703Y0192234D02*
X0134300Y0192234D01*
X0135434Y0192234D02*
X0135434Y0193935D01*
X0136001Y0194502D01*
X0137136Y0194502D01*
X0137703Y0193935D01*
X0137703Y0192234D01*
X0135434Y0193368D02*
X0134300Y0194502D01*
X0134300Y0195917D02*
X0137703Y0195917D01*
X0134300Y0198185D01*
X0137703Y0198185D01*
D13*
X0112124Y0077700D02*
X0109722Y0077700D01*
X0109722Y0082504D01*
X0109722Y0080903D02*
X0112124Y0080903D01*
X0112925Y0080102D01*
X0112925Y0078501D01*
X0112124Y0077700D01*
X0114820Y0080903D02*
X0115620Y0080903D01*
X0117222Y0079301D01*
X0117222Y0077700D02*
X0117222Y0080903D01*
X0119175Y0080102D02*
X0119175Y0077700D01*
X0121577Y0077700D01*
X0122378Y0078501D01*
X0121577Y0079301D01*
X0119175Y0079301D01*
X0119175Y0080102D02*
X0119976Y0080903D01*
X0121577Y0080903D01*
X0124332Y0080102D02*
X0125132Y0080903D01*
X0126734Y0080903D01*
X0127534Y0080102D01*
X0127534Y0078501D01*
X0126734Y0077700D01*
X0125132Y0077700D01*
X0124332Y0078501D01*
X0124332Y0080102D01*
X0129488Y0080102D02*
X0130289Y0080903D01*
X0132691Y0080903D01*
X0132691Y0082504D02*
X0132691Y0077700D01*
X0130289Y0077700D01*
X0129488Y0078501D01*
X0129488Y0080102D01*
X0134645Y0080102D02*
X0135445Y0080903D01*
X0137047Y0080903D01*
X0137847Y0080102D01*
X0137847Y0078501D01*
X0137047Y0077700D01*
X0135445Y0077700D01*
X0134645Y0078501D01*
X0134645Y0080102D01*
X0139801Y0080102D02*
X0139801Y0078501D01*
X0140602Y0077700D01*
X0143004Y0077700D01*
X0143004Y0076099D02*
X0143004Y0080903D01*
X0140602Y0080903D01*
X0139801Y0080102D01*
X0144957Y0080102D02*
X0145758Y0080903D01*
X0147359Y0080903D01*
X0147359Y0079301D02*
X0144957Y0079301D01*
X0144957Y0080102D02*
X0144957Y0077700D01*
X0147359Y0077700D01*
X0148160Y0078501D01*
X0147359Y0079301D01*
X0150114Y0082504D02*
X0153316Y0077700D01*
X0155270Y0077700D02*
X0155270Y0080102D01*
X0156071Y0080903D01*
X0156871Y0080102D01*
X0156871Y0077700D01*
X0158473Y0077700D02*
X0158473Y0080903D01*
X0157672Y0080903D01*
X0156871Y0080102D01*
X0160427Y0080102D02*
X0161227Y0080903D01*
X0162829Y0080903D01*
X0163629Y0080102D01*
X0163629Y0078501D01*
X0162829Y0077700D01*
X0161227Y0077700D01*
X0160427Y0078501D01*
X0160427Y0080102D01*
X0165583Y0080903D02*
X0167985Y0080903D01*
X0168786Y0080102D01*
X0168786Y0078501D01*
X0167985Y0077700D01*
X0165583Y0077700D01*
X0170563Y0077700D02*
X0171364Y0077700D01*
X0171364Y0078501D01*
X0170563Y0078501D01*
X0170563Y0077700D01*
X0173317Y0078501D02*
X0173317Y0080102D01*
X0174118Y0080903D01*
X0176520Y0080903D01*
X0176520Y0082504D02*
X0176520Y0077700D01*
X0174118Y0077700D01*
X0173317Y0078501D01*
X0178474Y0077700D02*
X0178474Y0080903D01*
X0181677Y0080903D02*
X0181677Y0078501D01*
X0180876Y0077700D01*
X0178474Y0077700D01*
X0183630Y0077700D02*
X0183630Y0080102D01*
X0184431Y0080903D01*
X0186032Y0080903D01*
X0186833Y0080102D01*
X0188669Y0080903D02*
X0190271Y0080903D01*
X0189470Y0081703D02*
X0189470Y0078501D01*
X0188669Y0077700D01*
X0186833Y0077700D02*
X0186833Y0082504D01*
X0192107Y0077700D02*
X0193708Y0077700D01*
X0192908Y0077700D02*
X0192908Y0080903D01*
X0193708Y0080903D01*
X0192908Y0082504D02*
X0192908Y0083305D01*
X0195662Y0080903D02*
X0198064Y0080903D01*
X0198865Y0080102D01*
X0198865Y0078501D01*
X0198064Y0077700D01*
X0195662Y0077700D01*
X0195662Y0076899D02*
X0195662Y0080903D01*
X0200818Y0082504D02*
X0204021Y0077700D01*
X0209177Y0077700D02*
X0205975Y0082504D01*
X0210955Y0080903D02*
X0210955Y0080102D01*
X0211756Y0080102D01*
X0211756Y0080903D01*
X0210955Y0080903D01*
X0210955Y0078501D02*
X0210955Y0077700D01*
X0211756Y0077700D01*
X0211756Y0078501D01*
X0210955Y0078501D01*
X0213709Y0078501D02*
X0214510Y0079301D01*
X0216111Y0079301D01*
X0216912Y0080102D01*
X0216111Y0080903D01*
X0213709Y0080903D01*
X0213709Y0078501D02*
X0214510Y0077700D01*
X0216912Y0077700D01*
X0218866Y0078501D02*
X0219666Y0077700D01*
X0222068Y0077700D01*
X0222068Y0076099D02*
X0222068Y0080903D01*
X0219666Y0080903D01*
X0218866Y0080102D01*
X0218866Y0078501D01*
X0223905Y0077700D02*
X0224705Y0078501D01*
X0224705Y0081703D01*
X0223905Y0080903D02*
X0225506Y0080903D01*
X0227342Y0080903D02*
X0228944Y0080903D01*
X0228143Y0081703D02*
X0228143Y0078501D01*
X0227342Y0077700D01*
X0230897Y0077700D02*
X0230897Y0080102D01*
X0231698Y0080903D01*
X0233299Y0080903D01*
X0234100Y0080102D01*
X0234100Y0082504D02*
X0234100Y0077700D01*
X0197263Y0076099D02*
X0196463Y0076099D01*
X0195662Y0076899D01*
X0180600Y0112200D02*
X0177397Y0112200D01*
X0175444Y0113001D02*
X0175444Y0116203D01*
X0174643Y0117004D01*
X0173042Y0117004D01*
X0172241Y0116203D01*
X0175444Y0113001D01*
X0174643Y0112200D01*
X0173042Y0112200D01*
X0172241Y0113001D01*
X0172241Y0116203D01*
X0170287Y0115403D02*
X0168686Y0117004D01*
X0168686Y0112200D01*
X0170287Y0112200D02*
X0167084Y0112200D01*
X0165131Y0112200D02*
X0165131Y0113001D01*
X0161928Y0116203D01*
X0161928Y0117004D01*
X0165131Y0117004D01*
X0177397Y0116203D02*
X0178198Y0117004D01*
X0179799Y0117004D01*
X0180600Y0116203D01*
X0177397Y0116203D02*
X0177397Y0115403D01*
X0180600Y0112200D01*
X0179000Y0151300D02*
X0184000Y0151300D01*
X0186500Y0153800D01*
X0186500Y0168800D01*
X0184000Y0171300D01*
X0179000Y0171300D01*
X0176500Y0168800D01*
X0176500Y0153800D01*
X0179000Y0151300D01*
X0176500Y0153800D02*
X0174000Y0151300D01*
X0169000Y0151300D01*
X0166500Y0153800D01*
X0166500Y0168800D01*
X0169000Y0171300D01*
X0174000Y0171300D01*
X0176500Y0168800D01*
X0166500Y0168800D02*
X0164000Y0171300D01*
X0159000Y0171300D01*
X0156500Y0168800D01*
X0156500Y0153800D01*
X0159000Y0151300D01*
X0164000Y0151300D01*
X0166500Y0153800D01*
X0150600Y0153302D02*
X0150600Y0151901D01*
X0149899Y0151200D01*
X0148498Y0151200D01*
X0147798Y0151901D01*
X0147798Y0153302D01*
X0148498Y0154002D01*
X0149899Y0154002D01*
X0150600Y0153302D01*
X0145996Y0154002D02*
X0145996Y0149799D01*
X0145996Y0151200D02*
X0143894Y0151200D01*
X0143194Y0151901D01*
X0143194Y0153302D01*
X0143894Y0154002D01*
X0145996Y0154002D01*
X0141392Y0154002D02*
X0141392Y0149799D01*
X0141392Y0151200D02*
X0139290Y0151200D01*
X0138590Y0151901D01*
X0138590Y0153302D01*
X0139290Y0154002D01*
X0141392Y0154002D01*
X0139858Y0157299D02*
X0139858Y0161502D01*
X0137756Y0161502D01*
X0137055Y0160802D01*
X0137055Y0159401D01*
X0137756Y0158700D01*
X0139858Y0158700D01*
X0141526Y0158700D02*
X0142927Y0158700D01*
X0142226Y0158700D02*
X0142226Y0161502D01*
X0142927Y0161502D01*
X0142226Y0162904D02*
X0142226Y0163604D01*
X0141392Y0166200D02*
X0139991Y0166200D01*
X0140692Y0166200D02*
X0140692Y0170404D01*
X0141392Y0170404D01*
X0143194Y0168302D02*
X0143894Y0169002D01*
X0145295Y0169002D01*
X0145996Y0168302D01*
X0145996Y0166901D01*
X0145295Y0166200D01*
X0143894Y0166200D01*
X0143194Y0166901D01*
X0143194Y0168302D01*
X0138323Y0168302D02*
X0137622Y0169002D01*
X0135520Y0169002D01*
X0135520Y0170404D02*
X0135520Y0166200D01*
X0137622Y0166200D01*
X0138323Y0166901D01*
X0138323Y0168302D01*
X0133719Y0168302D02*
X0133018Y0169002D01*
X0131617Y0169002D01*
X0130917Y0168302D01*
X0130917Y0167601D01*
X0133719Y0167601D01*
X0133719Y0166901D02*
X0133719Y0168302D01*
X0133719Y0166901D02*
X0133018Y0166200D01*
X0131617Y0166200D01*
X0129115Y0166200D02*
X0129115Y0169002D01*
X0129115Y0167601D02*
X0127714Y0169002D01*
X0127013Y0169002D01*
X0120674Y0169002D02*
X0118573Y0169002D01*
X0117872Y0168302D01*
X0117872Y0166901D01*
X0118573Y0166200D01*
X0120674Y0166200D01*
X0120674Y0170404D01*
X0115370Y0169002D02*
X0113969Y0169002D01*
X0113268Y0168302D01*
X0113268Y0166200D01*
X0115370Y0166200D01*
X0116071Y0166901D01*
X0115370Y0167601D01*
X0113268Y0167601D01*
X0111467Y0169002D02*
X0110065Y0169002D01*
X0110766Y0169703D02*
X0110766Y0166901D01*
X0110065Y0166200D01*
X0107697Y0166901D02*
X0106996Y0166200D01*
X0107697Y0166901D02*
X0107697Y0169703D01*
X0108397Y0169002D02*
X0106996Y0169002D01*
X0105328Y0168302D02*
X0104627Y0169002D01*
X0103226Y0169002D01*
X0102526Y0168302D01*
X0102526Y0167601D01*
X0105328Y0167601D01*
X0105328Y0166901D02*
X0105328Y0168302D01*
X0105328Y0166901D02*
X0104627Y0166200D01*
X0103226Y0166200D01*
X0100724Y0166200D02*
X0100724Y0169002D01*
X0100724Y0167601D02*
X0099323Y0169002D01*
X0098622Y0169002D01*
X0096888Y0169002D02*
X0096888Y0166901D01*
X0096187Y0166200D01*
X0094085Y0166200D01*
X0094085Y0165499D02*
X0094786Y0164799D01*
X0095486Y0164799D01*
X0094085Y0165499D02*
X0094085Y0169002D01*
X0100924Y0161502D02*
X0100224Y0160802D01*
X0100224Y0158700D01*
X0103026Y0158700D02*
X0103026Y0161502D01*
X0100924Y0161502D01*
X0104828Y0160802D02*
X0105528Y0161502D01*
X0106929Y0161502D01*
X0107630Y0160802D01*
X0107630Y0159401D01*
X0106929Y0158700D01*
X0105528Y0158700D01*
X0104828Y0159401D01*
X0104828Y0160802D01*
X0106929Y0156104D02*
X0106929Y0155404D01*
X0106929Y0154002D02*
X0106929Y0151200D01*
X0106229Y0151200D02*
X0107630Y0151200D01*
X0109432Y0151901D02*
X0110132Y0151200D01*
X0112234Y0151200D01*
X0111533Y0152601D02*
X0110132Y0152601D01*
X0109432Y0151901D01*
X0109432Y0154002D02*
X0111533Y0154002D01*
X0112234Y0153302D01*
X0111533Y0152601D01*
X0107630Y0154002D02*
X0106929Y0154002D01*
X0104561Y0153302D02*
X0103860Y0154002D01*
X0101758Y0154002D01*
X0101758Y0155404D02*
X0101758Y0151200D01*
X0103860Y0151200D01*
X0104561Y0151901D01*
X0104561Y0153302D01*
X0099957Y0153302D02*
X0099256Y0154002D01*
X0097855Y0154002D01*
X0097154Y0153302D01*
X0097154Y0152601D01*
X0099957Y0152601D01*
X0099957Y0151901D02*
X0099957Y0153302D01*
X0099957Y0151901D02*
X0099256Y0151200D01*
X0097855Y0151200D01*
X0113902Y0158700D02*
X0114603Y0158700D01*
X0114603Y0159401D01*
X0113902Y0159401D01*
X0113902Y0158700D01*
X0115303Y0157299D01*
X0116971Y0158700D02*
X0117672Y0159401D01*
X0117672Y0162203D01*
X0118373Y0161502D02*
X0116971Y0161502D01*
X0120174Y0161502D02*
X0122276Y0161502D01*
X0122976Y0160802D01*
X0122276Y0160101D01*
X0120875Y0160101D01*
X0120174Y0159401D01*
X0120875Y0158700D01*
X0122976Y0158700D01*
X0124778Y0158700D02*
X0126880Y0158700D01*
X0127580Y0159401D01*
X0126880Y0160101D01*
X0124778Y0160101D01*
X0124778Y0160802D02*
X0124778Y0158700D01*
X0124778Y0160802D02*
X0125479Y0161502D01*
X0126880Y0161502D01*
X0129949Y0162904D02*
X0129949Y0158700D01*
X0130650Y0158700D02*
X0129248Y0158700D01*
X0126880Y0156104D02*
X0126880Y0155404D01*
X0126880Y0154002D02*
X0126880Y0151200D01*
X0127580Y0151200D02*
X0126179Y0151200D01*
X0123811Y0151901D02*
X0123110Y0151200D01*
X0123811Y0151901D02*
X0123811Y0154703D01*
X0124511Y0154002D02*
X0123110Y0154002D01*
X0121442Y0153302D02*
X0120741Y0154002D01*
X0119340Y0154002D01*
X0118639Y0153302D01*
X0118639Y0152601D01*
X0121442Y0152601D01*
X0121442Y0151901D02*
X0121442Y0153302D01*
X0121442Y0151901D02*
X0120741Y0151200D01*
X0119340Y0151200D01*
X0126880Y0154002D02*
X0127580Y0154002D01*
X0129382Y0154002D02*
X0131484Y0154002D01*
X0132184Y0153302D01*
X0131484Y0152601D01*
X0130083Y0152601D01*
X0129382Y0151901D01*
X0130083Y0151200D01*
X0132184Y0151200D01*
X0133986Y0151901D02*
X0134686Y0151200D01*
X0136088Y0151200D01*
X0136788Y0151901D01*
X0136788Y0153302D01*
X0136088Y0154002D01*
X0134686Y0154002D01*
X0133986Y0153302D01*
X0133986Y0151901D01*
X0130650Y0162904D02*
X0129949Y0162904D01*
X0144595Y0158700D02*
X0145996Y0158700D01*
X0145295Y0158700D02*
X0145295Y0162904D01*
X0145996Y0162904D01*
X0147798Y0161502D02*
X0149899Y0161502D01*
X0150600Y0160802D01*
X0150600Y0159401D01*
X0149899Y0158700D01*
X0147798Y0158700D01*
X0148498Y0166200D02*
X0149899Y0166200D01*
X0150600Y0166901D01*
X0149899Y0168302D02*
X0148498Y0168302D01*
X0147798Y0167601D01*
X0147798Y0166901D01*
X0148498Y0166200D01*
X0149899Y0168302D02*
X0150600Y0169002D01*
X0150600Y0169703D01*
X0149899Y0170404D01*
X0148498Y0170404D01*
X0147798Y0169703D01*
X0159000Y0172619D02*
X0164000Y0172619D01*
X0164000Y0186300D02*
X0169000Y0186300D01*
X0171500Y0188800D01*
X0174000Y0186300D01*
X0179000Y0186300D01*
X0181500Y0188800D01*
X0184000Y0186300D01*
X0189000Y0186300D01*
X0191500Y0188800D01*
X0194000Y0186300D01*
X0199000Y0186300D01*
X0201500Y0188800D01*
X0201500Y0193800D01*
X0199000Y0196300D01*
X0194000Y0196300D01*
X0191500Y0193800D01*
X0189000Y0196300D01*
X0184000Y0196300D01*
X0181500Y0193800D01*
X0179000Y0196300D01*
X0174000Y0196300D01*
X0171500Y0193800D01*
X0169000Y0196300D01*
X0164000Y0196300D01*
X0161500Y0193800D01*
X0159000Y0196300D01*
X0154000Y0196300D01*
X0151500Y0193800D01*
X0149000Y0196300D01*
X0144000Y0196300D01*
X0141500Y0193800D01*
X0141500Y0188800D01*
X0144000Y0186300D01*
X0149000Y0186300D01*
X0151500Y0188800D01*
X0154000Y0186300D01*
X0159000Y0186300D01*
X0161500Y0188800D01*
X0164000Y0186300D01*
D14*
X0197032Y0167305D02*
X0197032Y0161700D01*
X0200768Y0167305D01*
X0200768Y0161700D01*
X0203109Y0162634D02*
X0203109Y0166371D01*
X0204043Y0167305D01*
X0205912Y0167305D01*
X0206846Y0166371D01*
X0206846Y0162634D01*
X0205912Y0161700D01*
X0204043Y0161700D01*
X0203109Y0162634D01*
X0203030Y0157405D02*
X0205833Y0157405D01*
X0205833Y0151800D01*
X0203030Y0151800D01*
X0202096Y0152734D01*
X0202096Y0156471D01*
X0203030Y0157405D01*
X0199756Y0157405D02*
X0199756Y0151800D01*
X0196019Y0151800D01*
X0197887Y0154602D02*
X0199756Y0154602D01*
X0199756Y0157405D02*
X0196019Y0157405D01*
X0208016Y0157405D02*
X0209884Y0157405D01*
X0208950Y0157405D02*
X0208950Y0151800D01*
X0209884Y0151800D02*
X0208016Y0151800D01*
X0212225Y0152734D02*
X0213159Y0151800D01*
X0215027Y0151800D01*
X0215961Y0152734D01*
X0215027Y0154602D02*
X0213159Y0154602D01*
X0212225Y0153668D01*
X0212225Y0152734D01*
X0215027Y0154602D02*
X0215961Y0155537D01*
X0215961Y0156471D01*
X0215027Y0157405D01*
X0213159Y0157405D01*
X0212225Y0156471D01*
X0215263Y0161700D02*
X0217132Y0163568D01*
X0216198Y0163568D02*
X0219000Y0163568D01*
X0219000Y0161700D02*
X0219000Y0167305D01*
X0216198Y0167305D01*
X0215263Y0166371D01*
X0215263Y0164502D01*
X0216198Y0163568D01*
X0221341Y0161700D02*
X0225077Y0161700D01*
X0225077Y0167305D01*
X0221341Y0167305D01*
X0223209Y0164502D02*
X0225077Y0164502D01*
X0227418Y0162634D02*
X0227418Y0166371D01*
X0228352Y0167305D01*
X0231154Y0167305D01*
X0231154Y0161700D01*
X0228352Y0161700D01*
X0227418Y0162634D01*
X0233495Y0161700D02*
X0237232Y0161700D01*
X0237232Y0167305D01*
X0239572Y0166371D02*
X0239572Y0162634D01*
X0240506Y0161700D01*
X0242375Y0161700D01*
X0243309Y0162634D01*
X0243309Y0166371D01*
X0242375Y0167305D01*
X0240506Y0167305D01*
X0239572Y0166371D01*
X0245649Y0166371D02*
X0246584Y0167305D01*
X0248452Y0167305D01*
X0249386Y0166371D01*
X0249386Y0165437D01*
X0248452Y0164502D01*
X0246584Y0164502D01*
X0245649Y0163568D01*
X0245649Y0162634D01*
X0246584Y0161700D01*
X0248452Y0161700D01*
X0249386Y0162634D01*
X0244322Y0157405D02*
X0240585Y0157405D01*
X0242453Y0157405D02*
X0242453Y0151800D01*
X0238244Y0151800D02*
X0238244Y0157405D01*
X0238244Y0154602D02*
X0234508Y0154602D01*
X0234508Y0151800D02*
X0234508Y0157405D01*
X0232167Y0157405D02*
X0230299Y0157405D01*
X0231233Y0157405D02*
X0231233Y0151800D01*
X0232167Y0151800D02*
X0230299Y0151800D01*
X0228116Y0152734D02*
X0227182Y0151800D01*
X0225313Y0151800D01*
X0224379Y0152734D01*
X0224379Y0153668D01*
X0225313Y0154602D01*
X0227182Y0154602D01*
X0228116Y0155537D01*
X0228116Y0156471D01*
X0227182Y0157405D01*
X0225313Y0157405D01*
X0224379Y0156471D01*
X0276500Y0161300D02*
X0286500Y0161300D01*
X0281500Y0156300D02*
X0281500Y0166300D01*
X0071500Y0166300D02*
X0071500Y0156300D01*
D15*
X0065336Y0171846D02*
X0063852Y0173057D01*
X0063254Y0172749D01*
X0062406Y0174795D01*
X0062785Y0175007D01*
X0063103Y0175301D01*
X0063345Y0175662D01*
X0063495Y0176069D01*
X0063546Y0176500D01*
X0063493Y0176939D01*
X0063337Y0177352D01*
X0063088Y0177717D01*
X0062759Y0178011D01*
X0062369Y0178220D01*
X0061941Y0178329D01*
X0061499Y0178334D01*
X0061069Y0178234D01*
X0060675Y0178034D01*
X0060340Y0177746D01*
X0060082Y0177387D01*
X0059918Y0176977D01*
X0059855Y0176540D01*
X0059899Y0176100D01*
X0060045Y0175684D01*
X0060286Y0175314D01*
X0060609Y0175012D01*
X0060994Y0174795D01*
X0060146Y0172749D01*
X0059548Y0173057D01*
X0058064Y0171846D01*
X0057046Y0172864D01*
X0058257Y0174348D01*
X0057949Y0174946D01*
X0057744Y0175587D01*
X0055839Y0175780D01*
X0055839Y0177220D01*
X0057744Y0177413D01*
X0057949Y0178054D01*
X0058257Y0178652D01*
X0057046Y0180136D01*
X0058064Y0181154D01*
X0059548Y0179943D01*
X0060146Y0180251D01*
X0060787Y0180456D01*
X0060980Y0182361D01*
X0062420Y0182361D01*
X0062613Y0180456D01*
X0063254Y0180251D01*
X0063852Y0179943D01*
X0065336Y0181154D01*
X0066354Y0180136D01*
X0065143Y0178652D01*
X0065451Y0178054D01*
X0065656Y0177413D01*
X0067561Y0177220D01*
X0067561Y0175780D01*
X0065656Y0175587D01*
X0065451Y0174946D01*
X0065143Y0174348D01*
X0066354Y0172864D01*
X0065336Y0171846D01*
X0065392Y0171903D02*
X0065266Y0171903D01*
X0065982Y0172492D02*
X0064544Y0172492D01*
X0063116Y0173081D02*
X0066177Y0173081D01*
X0065696Y0173670D02*
X0062872Y0173670D01*
X0062628Y0174259D02*
X0065216Y0174259D01*
X0065401Y0174848D02*
X0062502Y0174848D01*
X0063194Y0175437D02*
X0065609Y0175437D01*
X0067561Y0176027D02*
X0063479Y0176027D01*
X0063532Y0176616D02*
X0067561Y0176616D01*
X0067561Y0177205D02*
X0063392Y0177205D01*
X0063001Y0177794D02*
X0065534Y0177794D01*
X0065282Y0178383D02*
X0058118Y0178383D01*
X0057996Y0178972D02*
X0065404Y0178972D01*
X0065885Y0179561D02*
X0057515Y0179561D01*
X0057061Y0180150D02*
X0059295Y0180150D01*
X0059950Y0180150D02*
X0063450Y0180150D01*
X0064105Y0180150D02*
X0066339Y0180150D01*
X0065750Y0180739D02*
X0064827Y0180739D01*
X0062585Y0180739D02*
X0060815Y0180739D01*
X0060875Y0181328D02*
X0062525Y0181328D01*
X0062465Y0181917D02*
X0060935Y0181917D01*
X0058572Y0180739D02*
X0057650Y0180739D01*
X0057865Y0177794D02*
X0060395Y0177794D01*
X0060009Y0177205D02*
X0055839Y0177205D01*
X0055839Y0176616D02*
X0059866Y0176616D01*
X0059925Y0176027D02*
X0055839Y0176027D01*
X0057791Y0175437D02*
X0060206Y0175437D01*
X0060899Y0174848D02*
X0057999Y0174848D01*
X0058184Y0174259D02*
X0060772Y0174259D01*
X0060528Y0173670D02*
X0057704Y0173670D01*
X0057223Y0173081D02*
X0060284Y0173081D01*
X0058856Y0172492D02*
X0057418Y0172492D01*
X0058008Y0171903D02*
X0058134Y0171903D01*
D16*
X0076500Y0182050D02*
X0076500Y0140550D01*
X0076502Y0140410D01*
X0076508Y0140270D01*
X0076518Y0140130D01*
X0076531Y0139990D01*
X0076549Y0139851D01*
X0076571Y0139712D01*
X0076596Y0139575D01*
X0076625Y0139437D01*
X0076658Y0139301D01*
X0076695Y0139166D01*
X0076736Y0139032D01*
X0076781Y0138899D01*
X0076829Y0138767D01*
X0076881Y0138637D01*
X0076936Y0138508D01*
X0076995Y0138381D01*
X0077058Y0138255D01*
X0077124Y0138131D01*
X0077193Y0138010D01*
X0077266Y0137890D01*
X0077343Y0137772D01*
X0077422Y0137657D01*
X0077505Y0137543D01*
X0077591Y0137433D01*
X0077680Y0137324D01*
X0077772Y0137218D01*
X0077867Y0137115D01*
X0077964Y0137014D01*
X0078065Y0136917D01*
X0078168Y0136822D01*
X0078274Y0136730D01*
X0078383Y0136641D01*
X0078493Y0136555D01*
X0078607Y0136472D01*
X0078722Y0136393D01*
X0078840Y0136316D01*
X0078960Y0136243D01*
X0079081Y0136174D01*
X0079205Y0136108D01*
X0079331Y0136045D01*
X0079458Y0135986D01*
X0079587Y0135931D01*
X0079717Y0135879D01*
X0079849Y0135831D01*
X0079982Y0135786D01*
X0080116Y0135745D01*
X0080251Y0135708D01*
X0080387Y0135675D01*
X0080525Y0135646D01*
X0080662Y0135621D01*
X0080801Y0135599D01*
X0080940Y0135581D01*
X0081080Y0135568D01*
X0081220Y0135558D01*
X0081360Y0135552D01*
X0081500Y0135550D01*
X0266500Y0135550D01*
X0266640Y0135552D01*
X0266780Y0135558D01*
X0266920Y0135568D01*
X0267060Y0135581D01*
X0267199Y0135599D01*
X0267338Y0135621D01*
X0267475Y0135646D01*
X0267613Y0135675D01*
X0267749Y0135708D01*
X0267884Y0135745D01*
X0268018Y0135786D01*
X0268151Y0135831D01*
X0268283Y0135879D01*
X0268413Y0135931D01*
X0268542Y0135986D01*
X0268669Y0136045D01*
X0268795Y0136108D01*
X0268919Y0136174D01*
X0269040Y0136243D01*
X0269160Y0136316D01*
X0269278Y0136393D01*
X0269393Y0136472D01*
X0269507Y0136555D01*
X0269617Y0136641D01*
X0269726Y0136730D01*
X0269832Y0136822D01*
X0269935Y0136917D01*
X0270036Y0137014D01*
X0270133Y0137115D01*
X0270228Y0137218D01*
X0270320Y0137324D01*
X0270409Y0137433D01*
X0270495Y0137543D01*
X0270578Y0137657D01*
X0270657Y0137772D01*
X0270734Y0137890D01*
X0270807Y0138010D01*
X0270876Y0138131D01*
X0270942Y0138255D01*
X0271005Y0138381D01*
X0271064Y0138508D01*
X0271119Y0138637D01*
X0271171Y0138767D01*
X0271219Y0138899D01*
X0271264Y0139032D01*
X0271305Y0139166D01*
X0271342Y0139301D01*
X0271375Y0139437D01*
X0271404Y0139575D01*
X0271429Y0139712D01*
X0271451Y0139851D01*
X0271469Y0139990D01*
X0271482Y0140130D01*
X0271492Y0140270D01*
X0271498Y0140410D01*
X0271500Y0140550D01*
X0271500Y0182050D01*
X0271498Y0182190D01*
X0271492Y0182330D01*
X0271482Y0182470D01*
X0271469Y0182610D01*
X0271451Y0182749D01*
X0271429Y0182888D01*
X0271404Y0183025D01*
X0271375Y0183163D01*
X0271342Y0183299D01*
X0271305Y0183434D01*
X0271264Y0183568D01*
X0271219Y0183701D01*
X0271171Y0183833D01*
X0271119Y0183963D01*
X0271064Y0184092D01*
X0271005Y0184219D01*
X0270942Y0184345D01*
X0270876Y0184469D01*
X0270807Y0184590D01*
X0270734Y0184710D01*
X0270657Y0184828D01*
X0270578Y0184943D01*
X0270495Y0185057D01*
X0270409Y0185167D01*
X0270320Y0185276D01*
X0270228Y0185382D01*
X0270133Y0185485D01*
X0270036Y0185586D01*
X0269935Y0185683D01*
X0269832Y0185778D01*
X0269726Y0185870D01*
X0269617Y0185959D01*
X0269507Y0186045D01*
X0269393Y0186128D01*
X0269278Y0186207D01*
X0269160Y0186284D01*
X0269040Y0186357D01*
X0268919Y0186426D01*
X0268795Y0186492D01*
X0268669Y0186555D01*
X0268542Y0186614D01*
X0268413Y0186669D01*
X0268283Y0186721D01*
X0268151Y0186769D01*
X0268018Y0186814D01*
X0267884Y0186855D01*
X0267749Y0186892D01*
X0267613Y0186925D01*
X0267475Y0186954D01*
X0267338Y0186979D01*
X0267199Y0187001D01*
X0267060Y0187019D01*
X0266920Y0187032D01*
X0266780Y0187042D01*
X0266640Y0187048D01*
X0266500Y0187050D01*
X0081500Y0187050D01*
X0081360Y0187048D01*
X0081220Y0187042D01*
X0081080Y0187032D01*
X0080940Y0187019D01*
X0080801Y0187001D01*
X0080662Y0186979D01*
X0080525Y0186954D01*
X0080387Y0186925D01*
X0080251Y0186892D01*
X0080116Y0186855D01*
X0079982Y0186814D01*
X0079849Y0186769D01*
X0079717Y0186721D01*
X0079587Y0186669D01*
X0079458Y0186614D01*
X0079331Y0186555D01*
X0079205Y0186492D01*
X0079081Y0186426D01*
X0078960Y0186357D01*
X0078840Y0186284D01*
X0078722Y0186207D01*
X0078607Y0186128D01*
X0078493Y0186045D01*
X0078383Y0185959D01*
X0078274Y0185870D01*
X0078168Y0185778D01*
X0078065Y0185683D01*
X0077964Y0185586D01*
X0077867Y0185485D01*
X0077772Y0185382D01*
X0077680Y0185276D01*
X0077591Y0185167D01*
X0077505Y0185057D01*
X0077422Y0184943D01*
X0077343Y0184828D01*
X0077266Y0184710D01*
X0077193Y0184590D01*
X0077124Y0184469D01*
X0077058Y0184345D01*
X0076995Y0184219D01*
X0076936Y0184092D01*
X0076881Y0183963D01*
X0076829Y0183833D01*
X0076781Y0183701D01*
X0076736Y0183568D01*
X0076695Y0183434D01*
X0076658Y0183299D01*
X0076625Y0183163D01*
X0076596Y0183025D01*
X0076571Y0182888D01*
X0076549Y0182749D01*
X0076531Y0182610D01*
X0076518Y0182470D01*
X0076508Y0182330D01*
X0076502Y0182190D01*
X0076500Y0182050D01*
D17*
X0151625Y0112550D03*
X0151625Y0112425D03*
X0151500Y0112300D03*
X0151500Y0112175D03*
X0170875Y0102800D03*
X0190625Y0112425D03*
X0190625Y0112550D03*
X0190750Y0112300D03*
X0175250Y0131175D03*
X0175000Y0131050D03*
X0173000Y0130925D03*
X0172875Y0130800D03*
X0171875Y0131550D03*
X0171875Y0131675D03*
X0171875Y0131800D03*
X0171875Y0131925D03*
X0171875Y0132050D03*
X0170375Y0132050D03*
X0170375Y0132175D03*
X0170375Y0132300D03*
X0170375Y0131925D03*
X0170375Y0131800D03*
X0169375Y0130800D03*
X0167250Y0131050D03*
X0167125Y0131175D03*
X0167000Y0131300D03*
D18*
X0152500Y0114050D03*
X0149875Y0106925D03*
X0149625Y0106300D03*
X0149500Y0106050D03*
X0149125Y0104925D03*
X0149000Y0104550D03*
X0149000Y0104425D03*
X0148875Y0104300D03*
X0148875Y0104175D03*
X0148750Y0103925D03*
X0148750Y0103800D03*
X0148625Y0103425D03*
X0148625Y0103300D03*
X0148500Y0103175D03*
X0153625Y0103425D03*
X0153750Y0102925D03*
X0160750Y0102925D03*
X0160750Y0103050D03*
X0160875Y0103175D03*
X0161000Y0103550D03*
X0161000Y0103675D03*
X0161125Y0103800D03*
X0161125Y0103925D03*
X0161250Y0104175D03*
X0161250Y0104300D03*
X0161375Y0104675D03*
X0161375Y0104800D03*
X0161500Y0104925D03*
X0161875Y0106050D03*
X0162000Y0106550D03*
X0162125Y0106800D03*
X0162250Y0107175D03*
X0162375Y0107425D03*
X0166000Y0103175D03*
X0166125Y0103050D03*
X0166125Y0102925D03*
X0168500Y0104550D03*
X0168625Y0104425D03*
X0168750Y0104300D03*
X0168375Y0104800D03*
X0168250Y0104925D03*
X0168250Y0108175D03*
X0168375Y0108425D03*
X0173125Y0108550D03*
X0173250Y0108300D03*
X0173375Y0108175D03*
X0173500Y0107675D03*
X0175750Y0107675D03*
X0175750Y0107800D03*
X0175875Y0107925D03*
X0175875Y0108050D03*
X0176250Y0108675D03*
X0176000Y0104925D03*
X0176000Y0104800D03*
X0176125Y0104675D03*
X0176250Y0104425D03*
X0173500Y0105300D03*
X0173375Y0104925D03*
X0173375Y0104800D03*
X0173250Y0104675D03*
X0173125Y0104425D03*
X0180625Y0104300D03*
X0180750Y0104425D03*
X0180875Y0104550D03*
X0180875Y0104675D03*
X0181000Y0104800D03*
X0181000Y0104925D03*
X0181125Y0105050D03*
X0181125Y0107925D03*
X0181000Y0108175D03*
X0180875Y0108425D03*
X0180750Y0108550D03*
X0183375Y0108425D03*
X0183500Y0108800D03*
X0183375Y0107550D03*
X0188750Y0103425D03*
X0188625Y0103050D03*
X0188625Y0102925D03*
X0188875Y0103800D03*
X0188875Y0103925D03*
X0189000Y0104050D03*
X0189000Y0104175D03*
X0189125Y0104425D03*
X0189125Y0104550D03*
X0189250Y0104800D03*
X0189750Y0106300D03*
X0189875Y0106550D03*
X0190125Y0107425D03*
X0193500Y0104050D03*
X0193875Y0102925D03*
X0189875Y0113925D03*
X0189750Y0114050D03*
D19*
X0189937Y0113800D03*
X0189937Y0113675D03*
X0191187Y0110050D03*
X0190562Y0108425D03*
X0190562Y0108300D03*
X0190437Y0108175D03*
X0190312Y0108050D03*
X0190312Y0107925D03*
X0190312Y0107800D03*
X0190312Y0107675D03*
X0190187Y0107550D03*
X0190062Y0107300D03*
X0190062Y0107175D03*
X0190062Y0107050D03*
X0189937Y0106925D03*
X0189937Y0106800D03*
X0189937Y0106675D03*
X0189812Y0106425D03*
X0189687Y0106175D03*
X0189687Y0106050D03*
X0189312Y0104925D03*
X0189187Y0104675D03*
X0189062Y0104300D03*
X0188812Y0103675D03*
X0188812Y0103550D03*
X0188687Y0103300D03*
X0188687Y0103175D03*
X0186562Y0103175D03*
X0186562Y0103300D03*
X0186562Y0103425D03*
X0186562Y0103550D03*
X0186562Y0103675D03*
X0186562Y0103800D03*
X0186562Y0103925D03*
X0186562Y0104050D03*
X0186562Y0104175D03*
X0186562Y0104300D03*
X0186562Y0104425D03*
X0186562Y0104550D03*
X0186562Y0104675D03*
X0186562Y0104800D03*
X0186562Y0104925D03*
X0186562Y0105050D03*
X0186562Y0105175D03*
X0186562Y0105300D03*
X0186562Y0105425D03*
X0186562Y0105550D03*
X0186562Y0105675D03*
X0186562Y0106925D03*
X0186562Y0107050D03*
X0186562Y0107175D03*
X0186562Y0107300D03*
X0186562Y0107425D03*
X0186562Y0107550D03*
X0186562Y0107675D03*
X0186562Y0107800D03*
X0186562Y0107925D03*
X0186562Y0108050D03*
X0186562Y0108175D03*
X0186562Y0108300D03*
X0186562Y0108425D03*
X0186562Y0108550D03*
X0186562Y0108675D03*
X0186562Y0108800D03*
X0186562Y0108925D03*
X0186562Y0109050D03*
X0183437Y0108675D03*
X0183437Y0108550D03*
X0183312Y0108300D03*
X0183312Y0108175D03*
X0183312Y0108050D03*
X0183312Y0107925D03*
X0183312Y0107800D03*
X0183312Y0107675D03*
X0183437Y0107425D03*
X0183437Y0107300D03*
X0181312Y0107300D03*
X0181312Y0107425D03*
X0181187Y0107550D03*
X0181187Y0107675D03*
X0181187Y0107800D03*
X0181062Y0108050D03*
X0180937Y0108300D03*
X0181312Y0107175D03*
X0181312Y0107050D03*
X0181312Y0106925D03*
X0181312Y0106800D03*
X0181312Y0106675D03*
X0181312Y0106550D03*
X0181312Y0106425D03*
X0181312Y0106300D03*
X0181312Y0106175D03*
X0181312Y0106050D03*
X0181312Y0105925D03*
X0181312Y0105800D03*
X0181312Y0105675D03*
X0181312Y0105550D03*
X0181187Y0105425D03*
X0181187Y0105300D03*
X0181187Y0105175D03*
X0186562Y0103050D03*
X0186562Y0102925D03*
X0192562Y0106425D03*
X0192562Y0106550D03*
X0192562Y0106675D03*
X0192437Y0106925D03*
X0192437Y0107050D03*
X0192312Y0107300D03*
X0192187Y0107550D03*
X0192187Y0107675D03*
X0192062Y0107925D03*
X0191937Y0108175D03*
X0191937Y0108300D03*
X0193187Y0104925D03*
X0193187Y0104800D03*
X0193187Y0104675D03*
X0193312Y0104550D03*
X0193437Y0104425D03*
X0193437Y0104300D03*
X0193437Y0104175D03*
X0193562Y0103925D03*
X0193687Y0103800D03*
X0193687Y0103675D03*
X0193687Y0103550D03*
X0193687Y0103425D03*
X0193812Y0103300D03*
X0193812Y0103175D03*
X0193812Y0103050D03*
X0176187Y0104550D03*
X0175937Y0105050D03*
X0175937Y0105175D03*
X0175812Y0105300D03*
X0175812Y0105425D03*
X0175687Y0105550D03*
X0175687Y0105675D03*
X0175687Y0105800D03*
X0175687Y0105925D03*
X0175687Y0106050D03*
X0175687Y0106175D03*
X0175687Y0106300D03*
X0175687Y0106675D03*
X0175687Y0106925D03*
X0175687Y0107050D03*
X0175687Y0107175D03*
X0175687Y0107300D03*
X0175687Y0107425D03*
X0175687Y0107550D03*
X0175937Y0108175D03*
X0173687Y0107300D03*
X0173687Y0107175D03*
X0173687Y0107050D03*
X0173687Y0106925D03*
X0173687Y0106800D03*
X0173687Y0106675D03*
X0173687Y0106550D03*
X0173687Y0106425D03*
X0173687Y0106300D03*
X0173687Y0106175D03*
X0173687Y0106050D03*
X0173687Y0105925D03*
X0173687Y0105800D03*
X0173687Y0105675D03*
X0173562Y0105550D03*
X0173562Y0105425D03*
X0173437Y0105175D03*
X0173437Y0105050D03*
X0173187Y0104550D03*
X0173562Y0107550D03*
X0173437Y0107800D03*
X0173437Y0107925D03*
X0173437Y0108050D03*
X0173187Y0108425D03*
X0168438Y0104675D03*
X0168188Y0105050D03*
X0168188Y0105175D03*
X0168188Y0105300D03*
X0168063Y0105425D03*
X0168063Y0105550D03*
X0168063Y0107800D03*
X0168188Y0107925D03*
X0168188Y0108050D03*
X0164688Y0106925D03*
X0164688Y0106800D03*
X0164688Y0106675D03*
X0164813Y0106425D03*
X0164938Y0106300D03*
X0164938Y0106175D03*
X0164938Y0106050D03*
X0164563Y0107050D03*
X0164438Y0107300D03*
X0164438Y0107425D03*
X0164438Y0107550D03*
X0164313Y0107675D03*
X0164313Y0107800D03*
X0164313Y0107925D03*
X0164188Y0108175D03*
X0164063Y0108425D03*
X0162688Y0108425D03*
X0162688Y0108300D03*
X0162563Y0108175D03*
X0162563Y0108050D03*
X0162563Y0107925D03*
X0162438Y0107800D03*
X0162438Y0107675D03*
X0162438Y0107550D03*
X0162313Y0107300D03*
X0162188Y0107050D03*
X0162188Y0106925D03*
X0162063Y0106675D03*
X0161938Y0106425D03*
X0161938Y0106300D03*
X0161938Y0106175D03*
X0161313Y0104550D03*
X0161313Y0104425D03*
X0161188Y0104050D03*
X0160938Y0103425D03*
X0160938Y0103300D03*
X0165313Y0104925D03*
X0165438Y0104800D03*
X0165563Y0104550D03*
X0165563Y0104425D03*
X0165688Y0104175D03*
X0165688Y0104050D03*
X0165688Y0103925D03*
X0165813Y0103800D03*
X0165813Y0103675D03*
X0165938Y0103550D03*
X0165938Y0103425D03*
X0165938Y0103300D03*
X0163438Y0110050D03*
X0152438Y0106675D03*
X0152438Y0106550D03*
X0152438Y0106425D03*
X0152563Y0106175D03*
X0152563Y0106050D03*
X0152313Y0106925D03*
X0152188Y0107050D03*
X0152188Y0107175D03*
X0152188Y0107300D03*
X0151938Y0107675D03*
X0151938Y0107800D03*
X0151938Y0107925D03*
X0151813Y0108175D03*
X0151813Y0108300D03*
X0151813Y0108425D03*
X0150438Y0108550D03*
X0150313Y0108425D03*
X0150313Y0108300D03*
X0150313Y0108175D03*
X0150188Y0108050D03*
X0150188Y0107925D03*
X0150063Y0107800D03*
X0150063Y0107675D03*
X0150063Y0107550D03*
X0150063Y0107425D03*
X0149938Y0107300D03*
X0149938Y0107175D03*
X0149938Y0107050D03*
X0149813Y0106800D03*
X0149688Y0106675D03*
X0149688Y0106550D03*
X0149688Y0106425D03*
X0149563Y0106175D03*
X0149063Y0104800D03*
X0149063Y0104675D03*
X0148813Y0104050D03*
X0148688Y0103675D03*
X0148688Y0103550D03*
X0148438Y0103050D03*
X0148438Y0102925D03*
X0153188Y0104300D03*
X0153188Y0104425D03*
X0153188Y0104550D03*
X0153063Y0104800D03*
X0153063Y0104925D03*
X0153313Y0104175D03*
X0153438Y0104050D03*
X0153438Y0103925D03*
X0153438Y0103800D03*
X0153438Y0103675D03*
X0153563Y0103550D03*
X0153688Y0103300D03*
X0153688Y0103175D03*
X0153688Y0103050D03*
X0151063Y0110050D03*
X0152313Y0113675D03*
X0152438Y0113800D03*
X0152438Y0113925D03*
X0167438Y0129175D03*
X0168563Y0129925D03*
X0168688Y0129800D03*
X0173812Y0130050D03*
D20*
X0188562Y0115800D03*
X0188562Y0115675D03*
X0188687Y0115550D03*
X0191187Y0108925D03*
X0178562Y0102925D03*
X0170813Y0110175D03*
X0153688Y0115675D03*
X0153563Y0115550D03*
X0151063Y0108925D03*
X0151063Y0108800D03*
D21*
X0151000Y0108675D03*
X0153750Y0115800D03*
X0153875Y0115925D03*
X0163375Y0108800D03*
X0163375Y0108675D03*
X0170875Y0102925D03*
X0178500Y0110175D03*
X0188250Y0116050D03*
X0188375Y0115925D03*
X0191250Y0108800D03*
D22*
X0157125Y0109175D03*
X0157125Y0109300D03*
X0157125Y0109425D03*
X0157125Y0109550D03*
X0157125Y0109675D03*
X0157125Y0109800D03*
X0157125Y0109925D03*
X0157125Y0110050D03*
X0157125Y0110175D03*
X0157125Y0103800D03*
X0157125Y0103675D03*
X0157125Y0103550D03*
X0157125Y0103425D03*
X0157125Y0103300D03*
X0157125Y0103175D03*
X0157125Y0103050D03*
X0157125Y0102925D03*
X0156750Y0118800D03*
X0156875Y0118925D03*
D23*
X0154563Y0116675D03*
X0154438Y0116550D03*
X0170813Y0110050D03*
X0178562Y0103050D03*
X0187937Y0116550D03*
D24*
X0187750Y0116675D03*
X0187625Y0116800D03*
X0185750Y0110175D03*
X0178500Y0110050D03*
X0170875Y0103050D03*
X0154625Y0116800D03*
D25*
X0155438Y0117675D03*
X0170813Y0109925D03*
X0170813Y0103175D03*
X0178562Y0103175D03*
X0185437Y0106175D03*
X0185437Y0109925D03*
X0186812Y0117675D03*
X0186687Y0117800D03*
D26*
X0186062Y0118425D03*
X0185187Y0109550D03*
X0185187Y0106550D03*
X0185187Y0106425D03*
X0178562Y0103300D03*
X0170813Y0103300D03*
X0157313Y0106175D03*
X0157313Y0106300D03*
X0157313Y0106425D03*
X0157313Y0106550D03*
X0157313Y0106675D03*
X0157313Y0106800D03*
X0157313Y0106925D03*
X0157313Y0107050D03*
D27*
X0169563Y0106675D03*
X0169563Y0106550D03*
X0169563Y0106425D03*
X0169563Y0106300D03*
X0169563Y0106175D03*
X0169563Y0106050D03*
X0169563Y0105925D03*
X0169563Y0105800D03*
X0169563Y0105675D03*
X0170938Y0103425D03*
X0170813Y0109675D03*
X0178437Y0109675D03*
X0178562Y0103425D03*
X0185562Y0118800D03*
X0156563Y0118675D03*
D28*
X0170813Y0109550D03*
X0178437Y0109550D03*
X0178562Y0103550D03*
X0191187Y0105800D03*
X0191187Y0105925D03*
X0185437Y0118925D03*
X0185312Y0119050D03*
X0163438Y0105925D03*
X0163438Y0105800D03*
X0163438Y0105675D03*
X0151063Y0105800D03*
X0151063Y0105925D03*
D29*
X0163375Y0105550D03*
X0170875Y0103550D03*
X0157000Y0119050D03*
X0157125Y0119175D03*
X0185125Y0119175D03*
D30*
X0178437Y0109425D03*
X0178562Y0103675D03*
X0170813Y0103675D03*
X0170813Y0109425D03*
X0157313Y0119300D03*
X0171188Y0129050D03*
X0171813Y0129800D03*
X0191187Y0105675D03*
X0191187Y0105550D03*
X0151063Y0105550D03*
X0151063Y0105675D03*
X0151063Y0105425D03*
D31*
X0151125Y0105050D03*
X0163375Y0105050D03*
X0170875Y0103800D03*
X0170750Y0109300D03*
X0178500Y0103800D03*
X0191250Y0105050D03*
X0157875Y0119675D03*
D32*
X0153438Y0115300D03*
X0153313Y0115175D03*
X0151063Y0109175D03*
X0163438Y0109175D03*
X0172562Y0103925D03*
X0180187Y0103925D03*
X0183937Y0106925D03*
X0191187Y0109175D03*
X0191187Y0109300D03*
D33*
X0189125Y0114925D03*
X0189000Y0115050D03*
X0189000Y0115175D03*
X0180375Y0108925D03*
X0180250Y0109050D03*
X0176625Y0109050D03*
X0172625Y0109050D03*
X0169000Y0109050D03*
X0169125Y0103925D03*
X0176875Y0103925D03*
X0180375Y0104050D03*
X0163375Y0109300D03*
X0163375Y0109425D03*
X0153125Y0114800D03*
X0153125Y0114925D03*
X0153250Y0115050D03*
X0151000Y0109425D03*
X0151000Y0109300D03*
X0171125Y0130300D03*
X0171125Y0130425D03*
X0171125Y0130550D03*
D34*
X0168500Y0130050D03*
X0168250Y0130175D03*
X0168125Y0130300D03*
X0173750Y0129925D03*
X0174000Y0130175D03*
X0174875Y0129175D03*
X0190000Y0113550D03*
X0190125Y0113425D03*
X0191875Y0108425D03*
X0192000Y0108050D03*
X0192125Y0107800D03*
X0192250Y0107425D03*
X0192375Y0107175D03*
X0192500Y0106800D03*
X0192625Y0106300D03*
X0192750Y0106175D03*
X0192750Y0106050D03*
X0175625Y0106425D03*
X0175625Y0106550D03*
X0175625Y0106800D03*
X0173625Y0107425D03*
X0165500Y0104675D03*
X0165625Y0104300D03*
X0164750Y0106550D03*
X0164500Y0107175D03*
X0164250Y0108050D03*
X0164125Y0108300D03*
X0163375Y0110175D03*
X0158750Y0109050D03*
X0158750Y0108925D03*
X0158750Y0108800D03*
X0158750Y0108675D03*
X0158750Y0108550D03*
X0158750Y0108425D03*
X0158750Y0108300D03*
X0158750Y0108175D03*
X0158750Y0108050D03*
X0158750Y0107925D03*
X0158750Y0107800D03*
X0158750Y0107675D03*
X0158750Y0107550D03*
X0158750Y0107425D03*
X0158750Y0107300D03*
X0158750Y0107175D03*
X0158750Y0106050D03*
X0158750Y0105925D03*
X0158750Y0105800D03*
X0158750Y0105675D03*
X0158750Y0105550D03*
X0158750Y0105425D03*
X0158750Y0105300D03*
X0158750Y0105175D03*
X0158750Y0105050D03*
X0158750Y0104925D03*
X0158750Y0104800D03*
X0158750Y0104675D03*
X0158750Y0104550D03*
X0158750Y0104425D03*
X0158750Y0104300D03*
X0158750Y0104175D03*
X0158750Y0104050D03*
X0158750Y0103925D03*
X0153125Y0104675D03*
X0152500Y0106300D03*
X0152375Y0106800D03*
X0152125Y0107425D03*
X0152000Y0107550D03*
X0151875Y0108050D03*
X0151750Y0108550D03*
X0152125Y0113425D03*
X0152250Y0113550D03*
D35*
X0152813Y0114425D03*
X0152813Y0114550D03*
X0152938Y0114675D03*
X0151063Y0109550D03*
X0163438Y0109550D03*
X0172687Y0108925D03*
X0176562Y0108925D03*
X0183812Y0109050D03*
X0191187Y0109425D03*
X0191187Y0109550D03*
X0189312Y0114675D03*
X0189187Y0114800D03*
X0176687Y0104050D03*
X0172687Y0104050D03*
D36*
X0169000Y0104050D03*
X0168875Y0108925D03*
X0172875Y0108800D03*
X0176375Y0108800D03*
X0180500Y0108800D03*
X0183625Y0108925D03*
X0183625Y0107050D03*
X0180500Y0104175D03*
X0191125Y0109675D03*
X0189500Y0114425D03*
X0189500Y0114550D03*
X0167750Y0129050D03*
X0163375Y0109800D03*
X0163375Y0109675D03*
X0151000Y0109675D03*
D37*
X0151063Y0109800D03*
X0151063Y0109925D03*
X0152688Y0114175D03*
X0152688Y0114300D03*
X0163313Y0109925D03*
X0168313Y0108300D03*
X0168563Y0108550D03*
X0168563Y0108675D03*
X0168688Y0108800D03*
X0173062Y0108675D03*
X0176062Y0108425D03*
X0176062Y0108300D03*
X0176187Y0108550D03*
X0176437Y0104300D03*
X0176437Y0104175D03*
X0172937Y0104175D03*
X0172937Y0104300D03*
X0168813Y0104175D03*
X0180687Y0108675D03*
X0183562Y0107175D03*
X0191187Y0109800D03*
X0191187Y0109925D03*
X0189562Y0114175D03*
X0189562Y0114300D03*
X0174562Y0129050D03*
D38*
X0171188Y0129175D03*
X0184687Y0119550D03*
X0178437Y0109300D03*
X0191187Y0105300D03*
X0191187Y0105175D03*
X0163438Y0105175D03*
X0151063Y0105175D03*
X0157563Y0119550D03*
D39*
X0157500Y0119425D03*
X0163375Y0105425D03*
X0163375Y0105300D03*
X0151125Y0105300D03*
X0184750Y0119425D03*
X0185000Y0119300D03*
X0191250Y0105425D03*
D40*
X0191187Y0108550D03*
X0191187Y0108675D03*
X0185937Y0105800D03*
X0188187Y0116175D03*
X0188062Y0116300D03*
X0163438Y0108550D03*
X0154063Y0116050D03*
X0154063Y0116175D03*
D41*
X0154813Y0116925D03*
X0154813Y0117050D03*
X0187437Y0117050D03*
X0187562Y0116925D03*
X0185687Y0105925D03*
D42*
X0185500Y0106050D03*
X0178500Y0109925D03*
X0187000Y0117550D03*
X0155375Y0117550D03*
D43*
X0171188Y0129925D03*
X0171188Y0130050D03*
X0171188Y0130175D03*
X0186187Y0118300D03*
X0186437Y0118050D03*
X0178437Y0109800D03*
X0185312Y0106300D03*
D44*
X0185125Y0106675D03*
X0185125Y0106800D03*
X0185125Y0109175D03*
X0185125Y0109300D03*
X0185125Y0109425D03*
X0185875Y0118550D03*
X0185750Y0118675D03*
X0156375Y0118550D03*
D45*
X0153500Y0115425D03*
X0151000Y0109050D03*
X0163375Y0109050D03*
X0163375Y0108925D03*
X0188750Y0115425D03*
X0188875Y0115300D03*
X0191125Y0109050D03*
D46*
X0184437Y0119675D03*
X0184312Y0119800D03*
X0178437Y0109175D03*
X0170813Y0109175D03*
X0157938Y0119800D03*
X0171188Y0129300D03*
D47*
X0156250Y0118425D03*
X0156125Y0118300D03*
X0156000Y0118175D03*
X0186250Y0118175D03*
X0185250Y0109675D03*
D48*
X0185375Y0109800D03*
X0186625Y0117925D03*
X0170750Y0109800D03*
X0155875Y0118050D03*
X0155625Y0117925D03*
X0155625Y0117800D03*
D49*
X0155000Y0117175D03*
X0185625Y0110050D03*
X0187250Y0117175D03*
D50*
X0190187Y0113300D03*
X0190187Y0113175D03*
X0191187Y0110175D03*
X0174187Y0130300D03*
X0174312Y0130425D03*
X0171688Y0130675D03*
X0167938Y0130425D03*
X0152063Y0113300D03*
X0152063Y0113175D03*
X0151938Y0113050D03*
X0151063Y0110175D03*
D51*
X0165875Y0132175D03*
X0165750Y0132300D03*
X0168750Y0131800D03*
X0168875Y0131675D03*
X0170000Y0134175D03*
X0170000Y0134300D03*
X0170000Y0134425D03*
X0170000Y0134550D03*
X0172375Y0134550D03*
X0172375Y0134675D03*
X0172375Y0134425D03*
X0173625Y0131925D03*
X0173500Y0131800D03*
X0176250Y0132050D03*
X0176375Y0132175D03*
X0176500Y0132300D03*
X0176750Y0132425D03*
X0191250Y0111425D03*
X0191250Y0111300D03*
D52*
X0191062Y0111550D03*
X0191062Y0111675D03*
X0176062Y0131925D03*
X0173437Y0131675D03*
X0173312Y0131425D03*
X0172188Y0133675D03*
X0172188Y0133800D03*
X0172313Y0133925D03*
X0172313Y0134050D03*
X0172313Y0134175D03*
X0172313Y0134300D03*
X0170063Y0134050D03*
X0170063Y0133925D03*
X0170063Y0133800D03*
X0170188Y0133175D03*
X0168938Y0131550D03*
X0166313Y0131800D03*
X0166188Y0131925D03*
X0166063Y0132050D03*
X0166688Y0129300D03*
X0151313Y0111800D03*
X0151188Y0111675D03*
X0151188Y0111550D03*
X0151063Y0111425D03*
X0151063Y0111300D03*
D53*
X0151375Y0111925D03*
X0151375Y0112050D03*
X0169250Y0131050D03*
X0169125Y0131300D03*
X0169000Y0131425D03*
X0170250Y0132925D03*
X0170250Y0133050D03*
X0170125Y0133300D03*
X0170125Y0133425D03*
X0170125Y0133550D03*
X0170125Y0133675D03*
X0172125Y0133550D03*
X0172125Y0133425D03*
X0172125Y0133300D03*
X0172125Y0133175D03*
X0172125Y0133050D03*
X0172000Y0132675D03*
X0172000Y0132550D03*
X0172000Y0132425D03*
X0173375Y0131550D03*
X0173250Y0131300D03*
X0175500Y0131425D03*
X0175750Y0131550D03*
X0175750Y0131675D03*
X0176000Y0131800D03*
X0175500Y0129300D03*
X0166750Y0131425D03*
X0191000Y0111800D03*
D54*
X0190937Y0111925D03*
X0190937Y0112050D03*
X0190812Y0112175D03*
X0175312Y0131300D03*
X0173187Y0131175D03*
X0173062Y0131050D03*
X0171938Y0132175D03*
X0171938Y0132300D03*
X0172063Y0132800D03*
X0172063Y0132925D03*
X0170313Y0132800D03*
X0170313Y0132675D03*
X0170313Y0132550D03*
X0170313Y0132425D03*
X0169188Y0131175D03*
X0169313Y0130925D03*
X0166563Y0131550D03*
X0166563Y0131675D03*
D55*
X0167313Y0130925D03*
X0167563Y0130800D03*
X0167813Y0130550D03*
X0169563Y0130550D03*
X0169688Y0130300D03*
X0170563Y0130925D03*
X0170563Y0131050D03*
X0170563Y0131300D03*
X0170438Y0131425D03*
X0170438Y0131550D03*
X0170438Y0131675D03*
X0171813Y0131425D03*
X0172812Y0130675D03*
X0172812Y0130550D03*
X0174937Y0130925D03*
X0190562Y0112675D03*
X0151688Y0112675D03*
D56*
X0151750Y0112800D03*
X0151875Y0112925D03*
X0167750Y0130675D03*
X0169500Y0130675D03*
X0169625Y0130425D03*
X0170625Y0130675D03*
X0170625Y0130800D03*
X0170500Y0131175D03*
X0171750Y0131175D03*
X0171750Y0131300D03*
X0171750Y0131050D03*
X0171750Y0130925D03*
X0171750Y0130800D03*
X0172625Y0130425D03*
X0172625Y0130300D03*
X0174500Y0130550D03*
X0174625Y0130675D03*
X0174750Y0130800D03*
X0190375Y0113050D03*
X0190375Y0112925D03*
X0190500Y0112800D03*
D57*
X0188000Y0116425D03*
X0154250Y0116425D03*
X0154250Y0116300D03*
D58*
X0155188Y0117300D03*
X0155188Y0117425D03*
X0187062Y0117425D03*
X0187187Y0117300D03*
D59*
X0184062Y0119925D03*
X0158188Y0119925D03*
D60*
X0171125Y0128175D03*
X0183875Y0120050D03*
D61*
X0183687Y0120175D03*
X0171188Y0129550D03*
X0158563Y0120175D03*
X0158438Y0120050D03*
D62*
X0183500Y0120300D03*
D63*
X0183312Y0120425D03*
X0158938Y0120425D03*
X0158813Y0120300D03*
D64*
X0183125Y0120550D03*
D65*
X0159188Y0120550D03*
D66*
X0182687Y0120800D03*
X0182812Y0120675D03*
D67*
X0171125Y0126800D03*
X0171125Y0127300D03*
X0171125Y0128550D03*
X0159500Y0120675D03*
D68*
X0159625Y0120800D03*
D69*
X0159875Y0120925D03*
X0171125Y0128675D03*
X0182375Y0120925D03*
D70*
X0182187Y0121050D03*
D71*
X0160125Y0121050D03*
D72*
X0171125Y0128050D03*
X0181875Y0121175D03*
D73*
X0160438Y0121175D03*
D74*
X0161000Y0121425D03*
X0181500Y0121300D03*
D75*
X0160813Y0121300D03*
D76*
X0181312Y0121425D03*
D77*
X0180875Y0121550D03*
X0161500Y0121550D03*
D78*
X0180687Y0121675D03*
D79*
X0171125Y0126550D03*
X0171125Y0127425D03*
X0161625Y0121675D03*
D80*
X0162188Y0121800D03*
X0180062Y0121800D03*
D81*
X0179375Y0121925D03*
D82*
X0162813Y0121925D03*
D83*
X0171125Y0126300D03*
X0178875Y0122050D03*
D84*
X0171188Y0127925D03*
X0163313Y0122050D03*
D85*
X0171125Y0122175D03*
D86*
X0171125Y0122300D03*
D87*
X0171188Y0122425D03*
D88*
X0171125Y0122550D03*
D89*
X0171125Y0122675D03*
D90*
X0171188Y0122800D03*
D91*
X0171188Y0122925D03*
D92*
X0171125Y0123050D03*
D93*
X0171125Y0123175D03*
D94*
X0171125Y0123300D03*
D95*
X0171188Y0123425D03*
D96*
X0171125Y0123550D03*
D97*
X0171125Y0123675D03*
D98*
X0171188Y0123800D03*
D99*
X0171125Y0123925D03*
D100*
X0171125Y0124050D03*
D101*
X0171188Y0124175D03*
D102*
X0171125Y0124300D03*
D103*
X0171125Y0124425D03*
D104*
X0171125Y0124550D03*
D105*
X0171125Y0124675D03*
D106*
X0171125Y0124800D03*
D107*
X0171125Y0124925D03*
D108*
X0171125Y0125050D03*
D109*
X0171188Y0125175D03*
D110*
X0171125Y0125300D03*
D111*
X0171125Y0125425D03*
D112*
X0171188Y0125550D03*
D113*
X0171125Y0125675D03*
D114*
X0171125Y0125800D03*
D115*
X0171063Y0125925D03*
D116*
X0171125Y0126050D03*
D117*
X0171125Y0126175D03*
D118*
X0171125Y0126425D03*
X0171125Y0127550D03*
D119*
X0171125Y0126675D03*
D120*
X0171188Y0126925D03*
X0171188Y0128425D03*
D121*
X0171125Y0128300D03*
X0171125Y0127050D03*
X0171125Y0129675D03*
D122*
X0171125Y0129425D03*
X0171125Y0127175D03*
D123*
X0171125Y0127675D03*
D124*
X0171250Y0127800D03*
D125*
X0171188Y0128800D03*
D126*
X0171125Y0128925D03*
M02*
