G75*
%MOIN*%
%OFA0B0*%
%FSLAX25Y25*%
%IPPOS*%
%LPD*%
%AMOC8*
5,1,8,0,0,1.08239X$1,22.5*
%
%ADD10C,0.05000*%
%ADD11C,0.07400*%
%ADD12C,0.01600*%
%ADD13C,0.08000*%
%ADD14C,0.07400*%
%ADD15R,0.02756X0.03543*%
%ADD16R,0.02756X0.06693*%
%ADD17R,0.05000X0.02200*%
%ADD18R,0.02200X0.05000*%
%ADD19R,0.01575X0.04331*%
%ADD20R,0.21654X0.08465*%
%ADD21R,0.03150X0.04724*%
%ADD22R,0.04331X0.03937*%
%ADD23C,0.09000*%
%ADD24R,0.06299X0.07087*%
%ADD25C,0.01000*%
%ADD26C,0.02900*%
%ADD27C,0.01200*%
%ADD28C,0.02000*%
%ADD29C,0.03000*%
%ADD30C,0.01500*%
%ADD31C,0.00984*%
D10*
X0128000Y0091800D02*
X0138500Y0081300D01*
X0166500Y0081300D01*
X0168000Y0082800D01*
X0168000Y0091737D01*
X0168000Y0102800D01*
X0173500Y0108300D01*
X0184500Y0108300D01*
X0192500Y0116300D01*
X0192500Y0100300D01*
X0198500Y0094300D01*
X0206500Y0094300D01*
X0208000Y0095800D01*
X0208000Y0103237D01*
X0208000Y0098237D01*
X0202000Y0106487D02*
X0202000Y0111487D01*
X0192500Y0116300D02*
X0202500Y0126300D01*
X0227500Y0126300D01*
X0233000Y0131800D01*
X0233000Y0138237D01*
X0233000Y0166300D01*
X0233000Y0172300D01*
X0231500Y0173800D01*
X0233000Y0175300D01*
X0233000Y0178237D01*
X0233000Y0173237D01*
X0231500Y0173800D02*
X0224000Y0173800D01*
X0221500Y0176300D01*
X0208000Y0189800D01*
X0208000Y0208800D01*
X0176500Y0208800D01*
X0176500Y0191300D01*
X0176500Y0208800D02*
X0166500Y0208800D01*
X0168000Y0210300D01*
X0168000Y0228237D01*
X0168000Y0223237D01*
X0162000Y0231487D02*
X0162000Y0236487D01*
X0174000Y0236487D02*
X0174000Y0231487D01*
X0180000Y0228237D02*
X0180000Y0223237D01*
X0166500Y0208800D02*
X0159000Y0208800D01*
X0151500Y0201300D01*
X0131500Y0201300D01*
X0128000Y0204800D01*
X0128000Y0213237D01*
X0128000Y0208237D01*
X0122000Y0216487D02*
X0122000Y0221487D01*
X0134000Y0221487D02*
X0134000Y0216487D01*
X0140000Y0213237D02*
X0140000Y0208237D01*
X0109000Y0186487D02*
X0109000Y0181487D01*
X0103000Y0178237D02*
X0103000Y0156800D01*
X0103500Y0156300D01*
X0103000Y0155800D01*
X0103000Y0138237D01*
X0103000Y0133237D01*
X0097000Y0141487D02*
X0097000Y0146487D01*
X0103500Y0156300D02*
X0113500Y0156300D01*
X0131500Y0138300D01*
X0131500Y0128300D01*
X0128000Y0124800D01*
X0128000Y0119300D01*
X0116500Y0119300D01*
X0108500Y0111300D01*
X0056500Y0111300D01*
X0034000Y0133800D01*
X0034000Y0143800D01*
X0097000Y0181487D02*
X0097000Y0186487D01*
X0103000Y0178237D02*
X0103000Y0173237D01*
X0115000Y0173237D02*
X0115000Y0178237D01*
X0109000Y0146487D02*
X0109000Y0141487D01*
X0115000Y0138237D02*
X0115000Y0133237D01*
X0128000Y0119300D02*
X0128000Y0103237D01*
X0128000Y0091800D01*
X0128000Y0098237D02*
X0128000Y0103237D01*
X0134000Y0106487D02*
X0134000Y0111487D01*
X0140000Y0103237D02*
X0140000Y0098237D01*
X0122000Y0106487D02*
X0122000Y0111487D01*
X0162000Y0099987D02*
X0162000Y0094987D01*
X0168000Y0091737D02*
X0168000Y0086737D01*
X0174000Y0094987D02*
X0174000Y0099987D01*
X0180000Y0091737D02*
X0180000Y0086737D01*
X0214000Y0106487D02*
X0214000Y0111487D01*
X0220000Y0103237D02*
X0220000Y0098237D01*
X0233000Y0133237D02*
X0233000Y0138237D01*
X0227000Y0141487D02*
X0227000Y0146487D01*
X0239000Y0146487D02*
X0239000Y0141487D01*
X0245000Y0138237D02*
X0245000Y0133237D01*
X0246500Y0166300D02*
X0233000Y0166300D01*
X0245000Y0173237D02*
X0245000Y0178237D01*
X0239000Y0181487D02*
X0239000Y0186487D01*
X0227000Y0186487D02*
X0227000Y0181487D01*
X0246500Y0166300D02*
X0254000Y0173800D01*
X0279000Y0173800D01*
X0294397Y0158403D01*
X0296103Y0158403D01*
X0220000Y0208237D02*
X0220000Y0213237D01*
X0214000Y0216487D02*
X0214000Y0221487D01*
X0208000Y0213237D02*
X0208000Y0208800D01*
X0208000Y0208237D02*
X0208000Y0213237D01*
X0202000Y0216487D02*
X0202000Y0221487D01*
D11*
X0196500Y0191300D03*
X0186500Y0191300D03*
X0176500Y0191300D03*
X0166500Y0191300D03*
X0156500Y0191300D03*
X0146500Y0191300D03*
X0084500Y0197200D03*
X0084500Y0215000D03*
X0058900Y0215000D03*
X0058900Y0197200D03*
X0246803Y0095422D03*
X0255000Y0102300D03*
X0263197Y0109178D03*
X0289000Y0191300D03*
X0299000Y0191300D03*
D12*
X0289000Y0193620D02*
X0266320Y0216300D01*
X0264490Y0216300D01*
X0227000Y0193800D02*
X0220000Y0200800D01*
X0220000Y0213237D01*
X0202000Y0216487D02*
X0183813Y0216487D01*
X0180000Y0220300D01*
X0180000Y0228237D01*
X0162000Y0231487D02*
X0143750Y0213237D01*
X0140000Y0213237D01*
X0122000Y0216487D02*
X0122000Y0184487D01*
X0115750Y0178237D01*
X0115000Y0178237D01*
X0097000Y0181487D02*
X0084187Y0181487D01*
X0081500Y0178800D01*
X0081500Y0131300D01*
X0091500Y0121300D01*
X0106500Y0121300D01*
X0115000Y0129800D01*
X0115000Y0138237D01*
X0121500Y0131300D02*
X0126500Y0131300D01*
X0121500Y0131300D02*
X0106500Y0116300D01*
X0066500Y0116300D01*
X0054000Y0128800D01*
X0054000Y0143800D01*
X0059200Y0197100D02*
X0084700Y0197100D01*
X0084700Y0215100D02*
X0058700Y0215100D01*
X0180109Y0146009D02*
X0184000Y0142119D01*
X0184000Y0139800D01*
X0162000Y0117800D01*
X0162000Y0094987D01*
X0180000Y0091737D02*
X0180000Y0079800D01*
X0176500Y0076300D01*
X0136500Y0076300D01*
X0122000Y0090800D01*
X0122000Y0106487D01*
X0182337Y0148236D02*
X0186500Y0144073D01*
X0186500Y0135300D01*
X0187727Y0147300D02*
X0192500Y0147300D01*
X0208500Y0163300D01*
X0208500Y0172300D01*
X0200381Y0176300D02*
X0197190Y0173110D01*
X0200381Y0176300D02*
X0221500Y0176300D01*
X0227000Y0181487D02*
X0227000Y0193800D01*
X0271155Y0156645D02*
X0261500Y0146990D01*
X0261500Y0143800D01*
X0285250Y0120050D01*
X0281505Y0116305D01*
X0281505Y0116295D02*
X0274389Y0109178D01*
X0263197Y0109178D01*
X0285250Y0120050D02*
X0286500Y0121300D01*
X0286500Y0123110D01*
X0289331Y0125941D01*
X0287522Y0127751D02*
X0284059Y0131213D01*
X0284059Y0131241D01*
X0276500Y0138800D01*
X0276500Y0140610D01*
X0281845Y0145955D01*
X0305478Y0134849D02*
X0309562Y0138934D01*
X0311366Y0138934D01*
X0305478Y0134849D02*
X0309000Y0131327D01*
X0309000Y0128800D01*
X0306366Y0126166D01*
X0291141Y0124132D02*
X0288310Y0121300D01*
X0286500Y0121300D01*
X0245000Y0129800D02*
X0245000Y0138237D01*
X0245000Y0129800D02*
X0236500Y0121300D01*
X0206500Y0121300D01*
X0202000Y0116800D01*
X0202000Y0106487D01*
X0187727Y0147300D02*
X0184564Y0150463D01*
D13*
X0264490Y0216300D03*
X0238510Y0231300D03*
D14*
X0317800Y0166300D02*
X0325200Y0166300D01*
X0325200Y0156300D02*
X0317800Y0156300D01*
X0054000Y0147500D02*
X0054000Y0140100D01*
X0044000Y0140100D02*
X0044000Y0147500D01*
X0034000Y0147500D02*
X0034000Y0140100D01*
D15*
G36*
X0141913Y0150884D02*
X0139964Y0152833D01*
X0142467Y0155336D01*
X0144416Y0153387D01*
X0141913Y0150884D01*
G37*
G36*
X0145533Y0147264D02*
X0143584Y0149213D01*
X0146087Y0151716D01*
X0148036Y0149767D01*
X0145533Y0147264D01*
G37*
G36*
X0144416Y0169213D02*
X0142467Y0167264D01*
X0139964Y0169767D01*
X0141913Y0171716D01*
X0144416Y0169213D01*
G37*
G36*
X0148036Y0172833D02*
X0146087Y0170884D01*
X0143584Y0173387D01*
X0145533Y0175336D01*
X0148036Y0172833D01*
G37*
G36*
X0189964Y0178767D02*
X0191913Y0180716D01*
X0194416Y0178213D01*
X0192467Y0176264D01*
X0189964Y0178767D01*
G37*
G36*
X0193584Y0182387D02*
X0195533Y0184336D01*
X0198036Y0181833D01*
X0196087Y0179884D01*
X0193584Y0182387D01*
G37*
G36*
X0197467Y0175336D02*
X0199416Y0173387D01*
X0196913Y0170884D01*
X0194964Y0172833D01*
X0197467Y0175336D01*
G37*
G36*
X0201087Y0171716D02*
X0203036Y0169767D01*
X0200533Y0167264D01*
X0198584Y0169213D01*
X0201087Y0171716D01*
G37*
D16*
G36*
X0157550Y0143481D02*
X0159499Y0141532D01*
X0154768Y0136801D01*
X0152819Y0138750D01*
X0157550Y0143481D01*
G37*
G36*
X0160891Y0140140D02*
X0162840Y0138191D01*
X0158109Y0133460D01*
X0156160Y0135409D01*
X0160891Y0140140D01*
G37*
G36*
X0164232Y0136799D02*
X0166181Y0134850D01*
X0161450Y0130119D01*
X0159501Y0132068D01*
X0164232Y0136799D01*
G37*
D17*
G36*
X0169890Y0142544D02*
X0166356Y0139010D01*
X0164800Y0140566D01*
X0168334Y0144100D01*
X0169890Y0142544D01*
G37*
G36*
X0167663Y0144771D02*
X0164129Y0141237D01*
X0162573Y0142793D01*
X0166107Y0146327D01*
X0167663Y0144771D01*
G37*
G36*
X0165436Y0146998D02*
X0161902Y0143464D01*
X0160346Y0145020D01*
X0163880Y0148554D01*
X0165436Y0146998D01*
G37*
G36*
X0163208Y0149225D02*
X0159674Y0145691D01*
X0158118Y0147247D01*
X0161652Y0150781D01*
X0163208Y0149225D01*
G37*
G36*
X0160981Y0151452D02*
X0157447Y0147918D01*
X0155891Y0149474D01*
X0159425Y0153008D01*
X0160981Y0151452D01*
G37*
G36*
X0158754Y0153680D02*
X0155220Y0150146D01*
X0153664Y0151702D01*
X0157198Y0155236D01*
X0158754Y0153680D01*
G37*
G36*
X0156527Y0155907D02*
X0152993Y0152373D01*
X0151437Y0153929D01*
X0154971Y0157463D01*
X0156527Y0155907D01*
G37*
G36*
X0154300Y0158134D02*
X0150766Y0154600D01*
X0149210Y0156156D01*
X0152744Y0159690D01*
X0154300Y0158134D01*
G37*
G36*
X0182654Y0177580D02*
X0179120Y0174046D01*
X0177564Y0175602D01*
X0181098Y0179136D01*
X0182654Y0177580D01*
G37*
G36*
X0184882Y0175353D02*
X0181348Y0171819D01*
X0179792Y0173375D01*
X0183326Y0176909D01*
X0184882Y0175353D01*
G37*
G36*
X0187109Y0173126D02*
X0183575Y0169592D01*
X0182019Y0171148D01*
X0185553Y0174682D01*
X0187109Y0173126D01*
G37*
G36*
X0189336Y0170898D02*
X0185802Y0167364D01*
X0184246Y0168920D01*
X0187780Y0172454D01*
X0189336Y0170898D01*
G37*
G36*
X0191563Y0168671D02*
X0188029Y0165137D01*
X0186473Y0166693D01*
X0190007Y0170227D01*
X0191563Y0168671D01*
G37*
G36*
X0193790Y0166444D02*
X0190256Y0162910D01*
X0188700Y0164466D01*
X0192234Y0168000D01*
X0193790Y0166444D01*
G37*
G36*
X0180427Y0179807D02*
X0176893Y0176273D01*
X0175337Y0177829D01*
X0178871Y0181363D01*
X0180427Y0179807D01*
G37*
G36*
X0178200Y0182034D02*
X0174666Y0178500D01*
X0173110Y0180056D01*
X0176644Y0183590D01*
X0178200Y0182034D01*
G37*
D18*
G36*
X0169890Y0180056D02*
X0168334Y0178500D01*
X0164800Y0182034D01*
X0166356Y0183590D01*
X0169890Y0180056D01*
G37*
G36*
X0167663Y0177829D02*
X0166107Y0176273D01*
X0162573Y0179807D01*
X0164129Y0181363D01*
X0167663Y0177829D01*
G37*
G36*
X0165436Y0175602D02*
X0163880Y0174046D01*
X0160346Y0177580D01*
X0161902Y0179136D01*
X0165436Y0175602D01*
G37*
G36*
X0163208Y0173375D02*
X0161652Y0171819D01*
X0158118Y0175353D01*
X0159674Y0176909D01*
X0163208Y0173375D01*
G37*
G36*
X0160981Y0171148D02*
X0159425Y0169592D01*
X0155891Y0173126D01*
X0157447Y0174682D01*
X0160981Y0171148D01*
G37*
G36*
X0158754Y0168920D02*
X0157198Y0167364D01*
X0153664Y0170898D01*
X0155220Y0172454D01*
X0158754Y0168920D01*
G37*
G36*
X0156527Y0166693D02*
X0154971Y0165137D01*
X0151437Y0168671D01*
X0152993Y0170227D01*
X0156527Y0166693D01*
G37*
G36*
X0154300Y0164466D02*
X0152744Y0162910D01*
X0149210Y0166444D01*
X0150766Y0168000D01*
X0154300Y0164466D01*
G37*
G36*
X0178200Y0140566D02*
X0176644Y0139010D01*
X0173110Y0142544D01*
X0174666Y0144100D01*
X0178200Y0140566D01*
G37*
G36*
X0180427Y0142793D02*
X0178871Y0141237D01*
X0175337Y0144771D01*
X0176893Y0146327D01*
X0180427Y0142793D01*
G37*
G36*
X0182654Y0145020D02*
X0181098Y0143464D01*
X0177564Y0146998D01*
X0179120Y0148554D01*
X0182654Y0145020D01*
G37*
G36*
X0184882Y0147247D02*
X0183326Y0145691D01*
X0179792Y0149225D01*
X0181348Y0150781D01*
X0184882Y0147247D01*
G37*
G36*
X0187109Y0149474D02*
X0185553Y0147918D01*
X0182019Y0151452D01*
X0183575Y0153008D01*
X0187109Y0149474D01*
G37*
G36*
X0189336Y0151702D02*
X0187780Y0150146D01*
X0184246Y0153680D01*
X0185802Y0155236D01*
X0189336Y0151702D01*
G37*
G36*
X0191563Y0153929D02*
X0190007Y0152373D01*
X0186473Y0155907D01*
X0188029Y0157463D01*
X0191563Y0153929D01*
G37*
G36*
X0193790Y0156156D02*
X0192234Y0154600D01*
X0188700Y0158134D01*
X0190256Y0159690D01*
X0193790Y0156156D01*
G37*
D19*
G36*
X0286548Y0125664D02*
X0285435Y0126777D01*
X0288496Y0129838D01*
X0289609Y0128725D01*
X0286548Y0125664D01*
G37*
G36*
X0288357Y0123854D02*
X0287244Y0124967D01*
X0290305Y0128028D01*
X0291418Y0126915D01*
X0288357Y0123854D01*
G37*
G36*
X0290167Y0122044D02*
X0289054Y0123157D01*
X0292115Y0126218D01*
X0293228Y0125105D01*
X0290167Y0122044D01*
G37*
G36*
X0291977Y0120235D02*
X0290864Y0121348D01*
X0293925Y0124409D01*
X0295038Y0123296D01*
X0291977Y0120235D01*
G37*
G36*
X0304504Y0132762D02*
X0303391Y0133875D01*
X0306452Y0136936D01*
X0307565Y0135823D01*
X0304504Y0132762D01*
G37*
G36*
X0302694Y0134572D02*
X0301581Y0135685D01*
X0304642Y0138746D01*
X0305755Y0137633D01*
X0302694Y0134572D01*
G37*
G36*
X0300885Y0136381D02*
X0299772Y0137494D01*
X0302833Y0140555D01*
X0303946Y0139442D01*
X0300885Y0136381D01*
G37*
G36*
X0299075Y0138191D02*
X0297962Y0139304D01*
X0301023Y0142365D01*
X0302136Y0141252D01*
X0299075Y0138191D01*
G37*
D20*
G36*
X0292493Y0150618D02*
X0277182Y0135307D01*
X0271197Y0141292D01*
X0286508Y0156603D01*
X0292493Y0150618D01*
G37*
G36*
X0281803Y0161308D02*
X0266492Y0145997D01*
X0260507Y0151982D01*
X0275818Y0167293D01*
X0281803Y0161308D01*
G37*
D21*
G36*
X0294712Y0147851D02*
X0296939Y0150078D01*
X0300278Y0146739D01*
X0298051Y0144512D01*
X0294712Y0147851D01*
G37*
G36*
X0299722Y0152861D02*
X0301949Y0155088D01*
X0305288Y0151749D01*
X0303061Y0149522D01*
X0299722Y0152861D01*
G37*
G36*
X0277051Y0124088D02*
X0279278Y0121861D01*
X0275939Y0118522D01*
X0273712Y0120749D01*
X0277051Y0124088D01*
G37*
G36*
X0282061Y0119078D02*
X0284288Y0116851D01*
X0280949Y0113512D01*
X0278722Y0115739D01*
X0282061Y0119078D01*
G37*
D22*
G36*
X0283712Y0136295D02*
X0286773Y0139356D01*
X0289556Y0136573D01*
X0286495Y0133512D01*
X0283712Y0136295D01*
G37*
G36*
X0288444Y0141027D02*
X0291505Y0144088D01*
X0294288Y0141305D01*
X0291227Y0138244D01*
X0288444Y0141027D01*
G37*
G36*
X0306495Y0146588D02*
X0309556Y0143527D01*
X0306773Y0140744D01*
X0303712Y0143805D01*
X0306495Y0146588D01*
G37*
G36*
X0311227Y0141856D02*
X0314288Y0138795D01*
X0311505Y0136012D01*
X0308444Y0139073D01*
X0311227Y0141856D01*
G37*
G36*
X0309288Y0126305D02*
X0306227Y0123244D01*
X0303444Y0126027D01*
X0306505Y0129088D01*
X0309288Y0126305D01*
G37*
G36*
X0304556Y0121573D02*
X0301495Y0118512D01*
X0298712Y0121295D01*
X0301773Y0124356D01*
X0304556Y0121573D01*
G37*
D23*
X0256500Y0161300D03*
X0088500Y0161300D03*
D24*
G36*
X0300834Y0158125D02*
X0296381Y0153672D01*
X0291372Y0158681D01*
X0295825Y0163134D01*
X0300834Y0158125D01*
G37*
G36*
X0308628Y0165919D02*
X0304175Y0161466D01*
X0299166Y0166475D01*
X0303619Y0170928D01*
X0308628Y0165919D01*
G37*
D25*
X0131839Y0077425D02*
X0092186Y0077425D01*
X0092139Y0077445D02*
X0077616Y0085150D01*
X0063832Y0094112D01*
X0050896Y0104259D01*
X0038910Y0115511D01*
X0027968Y0127782D01*
X0018156Y0140973D01*
X0009550Y0154981D01*
X0006120Y0161500D01*
X0009550Y0168019D01*
X0018156Y0182027D01*
X0027968Y0195218D01*
X0038910Y0207489D01*
X0050896Y0218741D01*
X0063832Y0228888D01*
X0077616Y0237850D01*
X0092139Y0245555D01*
X0107287Y0251944D01*
X0122942Y0256966D01*
X0138980Y0260581D01*
X0155276Y0262762D01*
X0171700Y0263490D01*
X0188124Y0262762D01*
X0204420Y0260581D01*
X0220458Y0256966D01*
X0236113Y0251944D01*
X0251261Y0245555D01*
X0265784Y0237850D01*
X0279568Y0228888D01*
X0292504Y0218741D01*
X0304490Y0207489D01*
X0315432Y0195218D01*
X0325244Y0182027D01*
X0333850Y0168019D01*
X0337280Y0161500D01*
X0333850Y0154981D01*
X0325244Y0140973D01*
X0315432Y0127782D01*
X0304490Y0115511D01*
X0292504Y0104259D01*
X0279568Y0094112D01*
X0265784Y0085150D01*
X0251261Y0077445D01*
X0236113Y0071056D01*
X0220458Y0066034D01*
X0204420Y0062419D01*
X0188124Y0060238D01*
X0178000Y0059789D01*
X0179299Y0061089D01*
X0180700Y0064470D01*
X0180700Y0068130D01*
X0179299Y0071511D01*
X0177007Y0073804D01*
X0177916Y0074181D01*
X0178619Y0074884D01*
X0181416Y0077681D01*
X0182119Y0078384D01*
X0182500Y0079303D01*
X0182500Y0083298D01*
X0183561Y0084358D01*
X0184200Y0085902D01*
X0184200Y0092573D01*
X0183561Y0094116D01*
X0182379Y0095298D01*
X0180835Y0095937D01*
X0179165Y0095937D01*
X0178000Y0095455D01*
X0178000Y0100381D01*
X0177846Y0101154D01*
X0177545Y0101882D01*
X0177107Y0102537D01*
X0176550Y0103094D01*
X0175895Y0103532D01*
X0175167Y0103834D01*
X0175005Y0103866D01*
X0175240Y0104100D01*
X0185335Y0104100D01*
X0186879Y0104739D01*
X0188300Y0106160D01*
X0188300Y0099465D01*
X0188939Y0097921D01*
X0194939Y0091921D01*
X0194939Y0091921D01*
X0196121Y0090739D01*
X0197665Y0090100D01*
X0207335Y0090100D01*
X0208879Y0090739D01*
X0210061Y0091921D01*
X0211561Y0093421D01*
X0212200Y0094965D01*
X0212200Y0102903D01*
X0212833Y0102641D01*
X0213606Y0102487D01*
X0213750Y0102487D01*
X0213750Y0106237D01*
X0214250Y0106237D01*
X0214250Y0102487D01*
X0214394Y0102487D01*
X0215167Y0102641D01*
X0215800Y0102903D01*
X0215800Y0097402D01*
X0216439Y0095858D01*
X0217621Y0094677D01*
X0219165Y0094037D01*
X0220835Y0094037D01*
X0222379Y0094677D01*
X0223561Y0095858D01*
X0224200Y0097402D01*
X0224200Y0104073D01*
X0223561Y0105616D01*
X0222379Y0106798D01*
X0220835Y0107437D01*
X0219165Y0107437D01*
X0218000Y0106955D01*
X0218000Y0111881D01*
X0217846Y0112654D01*
X0217545Y0113382D01*
X0217107Y0114037D01*
X0216550Y0114594D01*
X0215895Y0115032D01*
X0215167Y0115334D01*
X0214394Y0115487D01*
X0214250Y0115487D01*
X0214250Y0106737D01*
X0213750Y0106737D01*
X0213750Y0115487D01*
X0213606Y0115487D01*
X0212833Y0115334D01*
X0212105Y0115032D01*
X0211450Y0114594D01*
X0210893Y0114037D01*
X0210455Y0113382D01*
X0210154Y0112654D01*
X0210000Y0111881D01*
X0210000Y0106955D01*
X0208835Y0107437D01*
X0207165Y0107437D01*
X0206200Y0107038D01*
X0206200Y0112323D01*
X0205561Y0113866D01*
X0204500Y0114927D01*
X0204500Y0115764D01*
X0207536Y0118800D01*
X0236997Y0118800D01*
X0237916Y0119181D01*
X0246416Y0127681D01*
X0247119Y0128384D01*
X0247500Y0129303D01*
X0247500Y0129798D01*
X0248561Y0130858D01*
X0249200Y0132402D01*
X0249200Y0139073D01*
X0248561Y0140616D01*
X0247379Y0141798D01*
X0245835Y0142437D01*
X0244165Y0142437D01*
X0243000Y0141955D01*
X0243000Y0146881D01*
X0242846Y0147654D01*
X0242545Y0148382D01*
X0242107Y0149037D01*
X0241550Y0149594D01*
X0240895Y0150032D01*
X0240167Y0150334D01*
X0239394Y0150487D01*
X0239250Y0150487D01*
X0239250Y0141737D01*
X0238750Y0141737D01*
X0238750Y0150487D01*
X0238606Y0150487D01*
X0237833Y0150334D01*
X0237200Y0150071D01*
X0237200Y0162100D01*
X0247335Y0162100D01*
X0248879Y0162739D01*
X0250061Y0163921D01*
X0255740Y0169600D01*
X0277260Y0169600D01*
X0290837Y0156023D01*
X0292018Y0154842D01*
X0293361Y0154286D01*
X0295677Y0151970D01*
X0297085Y0151970D01*
X0297700Y0152585D01*
X0298022Y0152264D01*
X0298022Y0152158D01*
X0301400Y0148780D01*
X0301400Y0147737D01*
X0299872Y0149265D01*
X0297901Y0147295D01*
X0297495Y0147701D01*
X0299465Y0149672D01*
X0297859Y0151279D01*
X0297517Y0151476D01*
X0297135Y0151578D01*
X0296740Y0151578D01*
X0296359Y0151476D01*
X0296017Y0151279D01*
X0294967Y0150229D01*
X0297494Y0147701D01*
X0297088Y0147295D01*
X0294560Y0149822D01*
X0293510Y0148772D01*
X0293313Y0148430D01*
X0293211Y0148049D01*
X0293211Y0147654D01*
X0293313Y0147272D01*
X0293510Y0146930D01*
X0295117Y0145324D01*
X0292367Y0145324D01*
X0292427Y0145290D02*
X0292084Y0145487D01*
X0291703Y0145589D01*
X0291308Y0145589D01*
X0290927Y0145487D01*
X0290584Y0145290D01*
X0289256Y0143961D01*
X0291366Y0141851D01*
X0290681Y0141166D01*
X0288571Y0143276D01*
X0287243Y0141948D01*
X0287045Y0141606D01*
X0286943Y0141225D01*
X0286943Y0141057D01*
X0286069Y0141057D01*
X0282011Y0136999D01*
X0282011Y0136825D01*
X0281558Y0137278D01*
X0294193Y0149914D01*
X0294193Y0151322D01*
X0287212Y0158303D01*
X0285804Y0158303D01*
X0269497Y0141996D01*
X0269497Y0140588D01*
X0276478Y0133607D01*
X0277886Y0133607D01*
X0278022Y0133742D01*
X0281920Y0129844D01*
X0281940Y0129797D01*
X0282643Y0129094D01*
X0283995Y0127742D01*
X0283734Y0127480D01*
X0283734Y0126072D01*
X0284831Y0124976D01*
X0284381Y0124526D01*
X0284360Y0124476D01*
X0264000Y0144836D01*
X0264000Y0145955D01*
X0264065Y0146020D01*
X0265788Y0144297D01*
X0267196Y0144297D01*
X0283503Y0160604D01*
X0283503Y0162012D01*
X0276522Y0168993D01*
X0275114Y0168993D01*
X0258807Y0152686D01*
X0258807Y0151278D01*
X0260529Y0149555D01*
X0259381Y0148406D01*
X0259000Y0147487D01*
X0259000Y0143303D01*
X0259381Y0142384D01*
X0260084Y0141681D01*
X0276349Y0125416D01*
X0276130Y0125290D01*
X0274524Y0123683D01*
X0276494Y0121712D01*
X0276088Y0121306D01*
X0274117Y0123276D01*
X0272510Y0121670D01*
X0272313Y0121328D01*
X0272211Y0120946D01*
X0272211Y0120551D01*
X0272313Y0120170D01*
X0272510Y0119828D01*
X0273560Y0118778D01*
X0276088Y0121305D01*
X0276494Y0120899D01*
X0273967Y0118371D01*
X0275017Y0117321D01*
X0275359Y0117124D01*
X0275740Y0117022D01*
X0276135Y0117022D01*
X0276517Y0117124D01*
X0276859Y0117321D01*
X0278465Y0118928D01*
X0276495Y0120899D01*
X0276901Y0121305D01*
X0278872Y0119334D01*
X0280479Y0120941D01*
X0280605Y0121160D01*
X0281172Y0120592D01*
X0277022Y0116442D01*
X0277022Y0115346D01*
X0273353Y0111678D01*
X0268006Y0111678D01*
X0267775Y0112237D01*
X0266256Y0113756D01*
X0264271Y0114578D01*
X0262123Y0114578D01*
X0260138Y0113756D01*
X0258619Y0112237D01*
X0257797Y0110252D01*
X0257797Y0108104D01*
X0258478Y0106459D01*
X0258059Y0106878D01*
X0256074Y0107700D01*
X0253926Y0107700D01*
X0251941Y0106878D01*
X0250422Y0105359D01*
X0249600Y0103374D01*
X0249600Y0101226D01*
X0250281Y0099581D01*
X0249862Y0100000D01*
X0247877Y0100822D01*
X0245729Y0100822D01*
X0243744Y0100000D01*
X0242225Y0098481D01*
X0241403Y0096496D01*
X0241403Y0094348D01*
X0242225Y0092363D01*
X0243744Y0090844D01*
X0245729Y0090022D01*
X0247877Y0090022D01*
X0249862Y0090844D01*
X0251381Y0092363D01*
X0252203Y0094348D01*
X0252203Y0096496D01*
X0251522Y0098141D01*
X0251941Y0097722D01*
X0253926Y0096900D01*
X0256074Y0096900D01*
X0258059Y0097722D01*
X0259578Y0099241D01*
X0260400Y0101226D01*
X0260400Y0103374D01*
X0259719Y0105019D01*
X0260138Y0104600D01*
X0262123Y0103778D01*
X0264271Y0103778D01*
X0266256Y0104600D01*
X0267775Y0106119D01*
X0268006Y0106678D01*
X0274886Y0106678D01*
X0275805Y0107058D01*
X0280557Y0111811D01*
X0281653Y0111811D01*
X0285989Y0116147D01*
X0285989Y0117254D01*
X0287369Y0118634D01*
X0287536Y0118800D01*
X0288807Y0118800D01*
X0289726Y0119181D01*
X0290317Y0119772D01*
X0290359Y0119730D01*
X0291055Y0119034D01*
X0291397Y0118836D01*
X0291779Y0118734D01*
X0292174Y0118734D01*
X0292555Y0118836D01*
X0292897Y0119034D01*
X0294568Y0120704D01*
X0292951Y0122322D01*
X0292951Y0122322D01*
X0295542Y0124914D01*
X0294929Y0125527D01*
X0294929Y0125810D01*
X0292820Y0127919D01*
X0292820Y0127919D01*
X0291639Y0129100D01*
X0299221Y0129100D01*
X0300509Y0130389D01*
X0302491Y0132370D01*
X0303800Y0131062D01*
X0305208Y0131062D01*
X0305469Y0131323D01*
X0306003Y0130789D01*
X0305801Y0130789D01*
X0301743Y0126731D01*
X0301743Y0125857D01*
X0301575Y0125857D01*
X0301194Y0125755D01*
X0300852Y0125557D01*
X0299524Y0124229D01*
X0301634Y0122119D01*
X0300949Y0121434D01*
X0298839Y0123544D01*
X0297510Y0122216D01*
X0297313Y0121873D01*
X0297211Y0121492D01*
X0297211Y0121097D01*
X0297313Y0120716D01*
X0297510Y0120373D01*
X0298699Y0119184D01*
X0300949Y0121434D01*
X0301634Y0120749D01*
X0302319Y0121434D01*
X0304429Y0119324D01*
X0305757Y0120652D01*
X0305955Y0120994D01*
X0306057Y0121375D01*
X0306057Y0121543D01*
X0306931Y0121543D01*
X0310989Y0125601D01*
X0310989Y0127010D01*
X0310867Y0127132D01*
X0311119Y0127384D01*
X0311500Y0128303D01*
X0311500Y0131825D01*
X0311119Y0132744D01*
X0310416Y0133447D01*
X0309014Y0134849D01*
X0309638Y0135474D01*
X0310801Y0134311D01*
X0312210Y0134311D01*
X0315989Y0138090D01*
X0315989Y0139499D01*
X0311931Y0143557D01*
X0311257Y0143557D01*
X0311257Y0144231D01*
X0307800Y0147688D01*
X0307800Y0150848D01*
X0307313Y0152024D01*
X0306989Y0152347D01*
X0306989Y0152453D01*
X0302653Y0156789D01*
X0302547Y0156789D01*
X0302226Y0157111D01*
X0302535Y0157420D01*
X0302535Y0158828D01*
X0296528Y0164835D01*
X0295120Y0164835D01*
X0294512Y0164227D01*
X0281379Y0177361D01*
X0279835Y0178000D01*
X0253165Y0178000D01*
X0251621Y0177361D01*
X0249200Y0174940D01*
X0249200Y0179073D01*
X0248561Y0180616D01*
X0247379Y0181798D01*
X0245835Y0182437D01*
X0244165Y0182437D01*
X0243000Y0181955D01*
X0243000Y0186881D01*
X0242846Y0187654D01*
X0242545Y0188382D01*
X0242107Y0189037D01*
X0241550Y0189594D01*
X0240895Y0190032D01*
X0240167Y0190334D01*
X0239394Y0190487D01*
X0239250Y0190487D01*
X0239250Y0181737D01*
X0238750Y0181737D01*
X0238750Y0190487D01*
X0238606Y0190487D01*
X0237833Y0190334D01*
X0237105Y0190032D01*
X0236450Y0189594D01*
X0235893Y0189037D01*
X0235455Y0188382D01*
X0235154Y0187654D01*
X0235000Y0186881D01*
X0235000Y0181955D01*
X0233835Y0182437D01*
X0232165Y0182437D01*
X0231200Y0182038D01*
X0231200Y0187323D01*
X0230561Y0188866D01*
X0229500Y0189927D01*
X0229500Y0194297D01*
X0229119Y0195216D01*
X0222500Y0201836D01*
X0222500Y0204798D01*
X0223561Y0205858D01*
X0224200Y0207402D01*
X0224200Y0214073D01*
X0223561Y0215616D01*
X0222379Y0216798D01*
X0220835Y0217437D01*
X0219165Y0217437D01*
X0218000Y0216955D01*
X0218000Y0221881D01*
X0217846Y0222654D01*
X0217545Y0223382D01*
X0217107Y0224037D01*
X0216550Y0224594D01*
X0215895Y0225032D01*
X0215167Y0225334D01*
X0214394Y0225487D01*
X0214250Y0225487D01*
X0214250Y0216737D01*
X0213750Y0216737D01*
X0213750Y0225487D01*
X0213606Y0225487D01*
X0212833Y0225334D01*
X0212105Y0225032D01*
X0211450Y0224594D01*
X0210893Y0224037D01*
X0210455Y0223382D01*
X0210154Y0222654D01*
X0210000Y0221881D01*
X0210000Y0216955D01*
X0208835Y0217437D01*
X0207165Y0217437D01*
X0206200Y0217038D01*
X0206200Y0222323D01*
X0205561Y0223866D01*
X0204379Y0225048D01*
X0202835Y0225687D01*
X0201165Y0225687D01*
X0199621Y0225048D01*
X0198439Y0223866D01*
X0197800Y0222323D01*
X0197800Y0218987D01*
X0184848Y0218987D01*
X0183269Y0220567D01*
X0183561Y0220858D01*
X0184200Y0222402D01*
X0184200Y0229073D01*
X0183561Y0230616D01*
X0182379Y0231798D01*
X0180835Y0232437D01*
X0179165Y0232437D01*
X0178000Y0231955D01*
X0178000Y0236881D01*
X0177846Y0237654D01*
X0177545Y0238382D01*
X0177107Y0239037D01*
X0176550Y0239594D01*
X0175895Y0240032D01*
X0175167Y0240334D01*
X0174394Y0240487D01*
X0174250Y0240487D01*
X0174250Y0231737D01*
X0173750Y0231737D01*
X0173750Y0240487D01*
X0173606Y0240487D01*
X0172833Y0240334D01*
X0172105Y0240032D01*
X0171450Y0239594D01*
X0170893Y0239037D01*
X0170455Y0238382D01*
X0170154Y0237654D01*
X0170000Y0236881D01*
X0170000Y0231955D01*
X0168835Y0232437D01*
X0167165Y0232437D01*
X0166200Y0232038D01*
X0166200Y0237323D01*
X0165561Y0238866D01*
X0164379Y0240048D01*
X0162835Y0240687D01*
X0161165Y0240687D01*
X0159621Y0240048D01*
X0158439Y0238866D01*
X0157800Y0237323D01*
X0157800Y0230823D01*
X0143077Y0216100D01*
X0142379Y0216798D01*
X0140835Y0217437D01*
X0139165Y0217437D01*
X0138000Y0216955D01*
X0138000Y0221881D01*
X0137846Y0222654D01*
X0137545Y0223382D01*
X0137107Y0224037D01*
X0136550Y0224594D01*
X0135895Y0225032D01*
X0135167Y0225334D01*
X0134394Y0225487D01*
X0134250Y0225487D01*
X0134250Y0216737D01*
X0133750Y0216737D01*
X0133750Y0225487D01*
X0133606Y0225487D01*
X0132833Y0225334D01*
X0132105Y0225032D01*
X0131450Y0224594D01*
X0130893Y0224037D01*
X0130455Y0223382D01*
X0130154Y0222654D01*
X0130000Y0221881D01*
X0130000Y0216955D01*
X0128835Y0217437D01*
X0127165Y0217437D01*
X0126200Y0217038D01*
X0126200Y0222323D01*
X0125561Y0223866D01*
X0124379Y0225048D01*
X0122835Y0225687D01*
X0121165Y0225687D01*
X0119621Y0225048D01*
X0118439Y0223866D01*
X0117800Y0222323D01*
X0117800Y0215652D01*
X0118439Y0214108D01*
X0119500Y0213048D01*
X0119500Y0185523D01*
X0116245Y0182268D01*
X0115835Y0182437D01*
X0114165Y0182437D01*
X0113000Y0181955D01*
X0113000Y0186881D01*
X0112846Y0187654D01*
X0112545Y0188382D01*
X0112107Y0189037D01*
X0111550Y0189594D01*
X0110895Y0190032D01*
X0110167Y0190334D01*
X0109394Y0190487D01*
X0109250Y0190487D01*
X0109250Y0181737D01*
X0108750Y0181737D01*
X0108750Y0190487D01*
X0108606Y0190487D01*
X0107833Y0190334D01*
X0107105Y0190032D01*
X0106450Y0189594D01*
X0105893Y0189037D01*
X0105455Y0188382D01*
X0105154Y0187654D01*
X0105000Y0186881D01*
X0105000Y0181955D01*
X0103835Y0182437D01*
X0102165Y0182437D01*
X0101200Y0182038D01*
X0101200Y0187323D01*
X0100561Y0188866D01*
X0099379Y0190048D01*
X0097835Y0190687D01*
X0096165Y0190687D01*
X0094621Y0190048D01*
X0093439Y0188866D01*
X0092800Y0187323D01*
X0092800Y0183987D01*
X0083690Y0183987D01*
X0082771Y0183607D01*
X0080084Y0180919D01*
X0079381Y0180216D01*
X0079000Y0179297D01*
X0079000Y0130803D01*
X0079381Y0129884D01*
X0080084Y0129181D01*
X0090084Y0119181D01*
X0091003Y0118800D01*
X0105464Y0118800D01*
X0067536Y0118800D01*
X0056500Y0129836D01*
X0056500Y0135291D01*
X0057059Y0135522D01*
X0058578Y0137041D01*
X0059400Y0139026D01*
X0059400Y0148574D01*
X0058578Y0150559D01*
X0057059Y0152078D01*
X0055074Y0152900D01*
X0052926Y0152900D01*
X0050941Y0152078D01*
X0049422Y0150559D01*
X0048891Y0149276D01*
X0048819Y0149496D01*
X0048447Y0150225D01*
X0047966Y0150888D01*
X0047388Y0151466D01*
X0046725Y0151947D01*
X0045996Y0152319D01*
X0045218Y0152572D01*
X0044500Y0152686D01*
X0044500Y0144300D01*
X0043500Y0144300D01*
X0043500Y0152686D01*
X0042782Y0152572D01*
X0042004Y0152319D01*
X0041275Y0151947D01*
X0040612Y0151466D01*
X0040034Y0150888D01*
X0039553Y0150225D01*
X0039181Y0149496D01*
X0039109Y0149276D01*
X0038578Y0150559D01*
X0037059Y0152078D01*
X0035074Y0152900D01*
X0032926Y0152900D01*
X0030941Y0152078D01*
X0029422Y0150559D01*
X0028600Y0148574D01*
X0028600Y0139026D01*
X0029422Y0137041D01*
X0029800Y0136663D01*
X0029800Y0132965D01*
X0030439Y0131421D01*
X0052939Y0108921D01*
X0054121Y0107739D01*
X0055665Y0107100D01*
X0109335Y0107100D01*
X0110879Y0107739D01*
X0118240Y0115100D01*
X0119746Y0115100D01*
X0119621Y0115048D01*
X0118439Y0113866D01*
X0117800Y0112323D01*
X0117800Y0105652D01*
X0118439Y0104108D01*
X0119500Y0103048D01*
X0119500Y0090303D01*
X0119881Y0089384D01*
X0120584Y0088681D01*
X0134381Y0074884D01*
X0134381Y0074884D01*
X0135084Y0074181D01*
X0136003Y0073800D01*
X0165989Y0073800D01*
X0163701Y0071511D01*
X0162300Y0068130D01*
X0162300Y0064470D01*
X0163701Y0061089D01*
X0164982Y0059808D01*
X0155276Y0060238D01*
X0138980Y0062419D01*
X0122942Y0066034D01*
X0107287Y0071056D01*
X0092139Y0077445D01*
X0092139Y0077445D01*
X0090294Y0078424D02*
X0130841Y0078424D01*
X0129842Y0079422D02*
X0088412Y0079422D01*
X0086530Y0080421D02*
X0128844Y0080421D01*
X0127845Y0081419D02*
X0084648Y0081419D01*
X0082766Y0082418D02*
X0126847Y0082418D01*
X0125848Y0083416D02*
X0080884Y0083416D01*
X0079002Y0084415D02*
X0124850Y0084415D01*
X0123851Y0085413D02*
X0077211Y0085413D01*
X0075675Y0086412D02*
X0122853Y0086412D01*
X0121854Y0087410D02*
X0074140Y0087410D01*
X0072604Y0088409D02*
X0120856Y0088409D01*
X0120584Y0088681D02*
X0120584Y0088681D01*
X0119871Y0089407D02*
X0071068Y0089407D01*
X0069532Y0090406D02*
X0119500Y0090406D01*
X0119500Y0091404D02*
X0067996Y0091404D01*
X0066461Y0092403D02*
X0119500Y0092403D01*
X0119500Y0093401D02*
X0064925Y0093401D01*
X0063465Y0094400D02*
X0119500Y0094400D01*
X0119500Y0095398D02*
X0062192Y0095398D01*
X0060919Y0096397D02*
X0119500Y0096397D01*
X0119500Y0097395D02*
X0059646Y0097395D01*
X0058373Y0098394D02*
X0119500Y0098394D01*
X0119500Y0099392D02*
X0057100Y0099392D01*
X0055827Y0100391D02*
X0119500Y0100391D01*
X0119500Y0101389D02*
X0054554Y0101389D01*
X0053281Y0102388D02*
X0119500Y0102388D01*
X0119161Y0103386D02*
X0052008Y0103386D01*
X0050762Y0104385D02*
X0118325Y0104385D01*
X0117911Y0105383D02*
X0049698Y0105383D01*
X0048635Y0106382D02*
X0117800Y0106382D01*
X0117800Y0107380D02*
X0110012Y0107380D01*
X0111519Y0108379D02*
X0117800Y0108379D01*
X0117800Y0109377D02*
X0112517Y0109377D01*
X0113516Y0110376D02*
X0117800Y0110376D01*
X0117800Y0111374D02*
X0114514Y0111374D01*
X0115513Y0112373D02*
X0117821Y0112373D01*
X0118234Y0113371D02*
X0116511Y0113371D01*
X0117510Y0114370D02*
X0118943Y0114370D01*
X0105464Y0118800D02*
X0105464Y0118800D01*
X0105464Y0123800D02*
X0092536Y0123800D01*
X0084000Y0132336D01*
X0084000Y0157315D01*
X0084591Y0156723D01*
X0085355Y0156168D01*
X0086197Y0155740D01*
X0087095Y0155448D01*
X0088000Y0155304D01*
X0088000Y0160800D01*
X0089000Y0160800D01*
X0089000Y0161800D01*
X0088000Y0161800D01*
X0088000Y0167296D01*
X0087095Y0167152D01*
X0086197Y0166860D01*
X0085355Y0166432D01*
X0084591Y0165877D01*
X0084000Y0165285D01*
X0084000Y0177764D01*
X0085223Y0178987D01*
X0093560Y0178987D01*
X0094621Y0177927D01*
X0096165Y0177287D01*
X0097835Y0177287D01*
X0098800Y0177687D01*
X0098800Y0155965D01*
X0098800Y0154965D01*
X0098800Y0150288D01*
X0097835Y0150687D01*
X0096165Y0150687D01*
X0094621Y0150048D01*
X0093439Y0148866D01*
X0092800Y0147323D01*
X0092800Y0140652D01*
X0093439Y0139108D01*
X0094621Y0137927D01*
X0096165Y0137287D01*
X0097835Y0137287D01*
X0098800Y0137687D01*
X0098800Y0132402D01*
X0099439Y0130858D01*
X0100621Y0129677D01*
X0102165Y0129037D01*
X0103835Y0129037D01*
X0105379Y0129677D01*
X0106561Y0130858D01*
X0107200Y0132402D01*
X0107200Y0137903D01*
X0107833Y0137641D01*
X0108606Y0137487D01*
X0108750Y0137487D01*
X0108750Y0141237D01*
X0109250Y0141237D01*
X0109250Y0137487D01*
X0109394Y0137487D01*
X0110167Y0137641D01*
X0110800Y0137903D01*
X0110800Y0132402D01*
X0111439Y0130858D01*
X0111981Y0130317D01*
X0105464Y0123800D01*
X0106020Y0124355D02*
X0091980Y0124355D01*
X0090982Y0125354D02*
X0107018Y0125354D01*
X0108017Y0126352D02*
X0089983Y0126352D01*
X0088985Y0127351D02*
X0109015Y0127351D01*
X0110014Y0128349D02*
X0087986Y0128349D01*
X0086988Y0129348D02*
X0101416Y0129348D01*
X0099952Y0130346D02*
X0085989Y0130346D01*
X0084991Y0131345D02*
X0099238Y0131345D01*
X0098824Y0132343D02*
X0084000Y0132343D01*
X0084000Y0133342D02*
X0098800Y0133342D01*
X0098800Y0134340D02*
X0084000Y0134340D01*
X0084000Y0135339D02*
X0098800Y0135339D01*
X0098800Y0136337D02*
X0084000Y0136337D01*
X0084000Y0137336D02*
X0096048Y0137336D01*
X0097952Y0137336D02*
X0098800Y0137336D01*
X0094213Y0138334D02*
X0084000Y0138334D01*
X0084000Y0139333D02*
X0093346Y0139333D01*
X0092933Y0140331D02*
X0084000Y0140331D01*
X0084000Y0141330D02*
X0092800Y0141330D01*
X0092800Y0142328D02*
X0084000Y0142328D01*
X0084000Y0143327D02*
X0092800Y0143327D01*
X0092800Y0144325D02*
X0084000Y0144325D01*
X0084000Y0145324D02*
X0092800Y0145324D01*
X0092800Y0146322D02*
X0084000Y0146322D01*
X0084000Y0147321D02*
X0092800Y0147321D01*
X0093213Y0148319D02*
X0084000Y0148319D01*
X0084000Y0149318D02*
X0093891Y0149318D01*
X0095269Y0150316D02*
X0084000Y0150316D01*
X0084000Y0151315D02*
X0098800Y0151315D01*
X0098800Y0152313D02*
X0084000Y0152313D01*
X0084000Y0153312D02*
X0098800Y0153312D01*
X0098800Y0154310D02*
X0084000Y0154310D01*
X0084000Y0155309D02*
X0087971Y0155309D01*
X0088000Y0155309D02*
X0089000Y0155309D01*
X0089000Y0155304D02*
X0089905Y0155448D01*
X0090803Y0155740D01*
X0091645Y0156168D01*
X0092409Y0156723D01*
X0093077Y0157391D01*
X0093632Y0158155D01*
X0094060Y0158997D01*
X0094352Y0159895D01*
X0094496Y0160800D01*
X0089000Y0160800D01*
X0089000Y0155304D01*
X0089029Y0155309D02*
X0098800Y0155309D01*
X0098800Y0156307D02*
X0091836Y0156307D01*
X0092991Y0157306D02*
X0098800Y0157306D01*
X0098800Y0158304D02*
X0093708Y0158304D01*
X0094160Y0159303D02*
X0098800Y0159303D01*
X0098800Y0160301D02*
X0094417Y0160301D01*
X0094496Y0161800D02*
X0094352Y0162705D01*
X0094060Y0163603D01*
X0093632Y0164445D01*
X0093077Y0165209D01*
X0092409Y0165877D01*
X0091645Y0166432D01*
X0090803Y0166860D01*
X0089905Y0167152D01*
X0089000Y0167296D01*
X0089000Y0161800D01*
X0094496Y0161800D01*
X0094417Y0162299D02*
X0098800Y0162299D01*
X0098800Y0163297D02*
X0094160Y0163297D01*
X0093708Y0164296D02*
X0098800Y0164296D01*
X0098800Y0165294D02*
X0092991Y0165294D01*
X0091836Y0166293D02*
X0098800Y0166293D01*
X0098800Y0167291D02*
X0089028Y0167291D01*
X0089000Y0167291D02*
X0088000Y0167291D01*
X0087971Y0167291D02*
X0084000Y0167291D01*
X0084000Y0166293D02*
X0085164Y0166293D01*
X0084009Y0165294D02*
X0084000Y0165294D01*
X0084000Y0168290D02*
X0098800Y0168290D01*
X0098800Y0169288D02*
X0084000Y0169288D01*
X0084000Y0170287D02*
X0098800Y0170287D01*
X0098800Y0171285D02*
X0084000Y0171285D01*
X0084000Y0172284D02*
X0098800Y0172284D01*
X0098800Y0173282D02*
X0084000Y0173282D01*
X0084000Y0174281D02*
X0098800Y0174281D01*
X0098800Y0175279D02*
X0084000Y0175279D01*
X0084000Y0176278D02*
X0098800Y0176278D01*
X0098800Y0177276D02*
X0084000Y0177276D01*
X0084510Y0178275D02*
X0094273Y0178275D01*
X0092800Y0184266D02*
X0019821Y0184266D01*
X0020564Y0185264D02*
X0092800Y0185264D01*
X0092800Y0186263D02*
X0021307Y0186263D01*
X0022049Y0187261D02*
X0092800Y0187261D01*
X0093188Y0188260D02*
X0022792Y0188260D01*
X0023535Y0189258D02*
X0093831Y0189258D01*
X0095125Y0190257D02*
X0024278Y0190257D01*
X0025020Y0191255D02*
X0119500Y0191255D01*
X0119500Y0190257D02*
X0110352Y0190257D01*
X0109250Y0190257D02*
X0108750Y0190257D01*
X0108750Y0189258D02*
X0109250Y0189258D01*
X0109250Y0188260D02*
X0108750Y0188260D01*
X0108750Y0187261D02*
X0109250Y0187261D01*
X0109250Y0186263D02*
X0108750Y0186263D01*
X0108750Y0185264D02*
X0109250Y0185264D01*
X0109250Y0184266D02*
X0108750Y0184266D01*
X0108750Y0183267D02*
X0109250Y0183267D01*
X0109250Y0182269D02*
X0108750Y0182269D01*
X0108750Y0181237D02*
X0109250Y0181237D01*
X0109250Y0177487D01*
X0109394Y0177487D01*
X0110167Y0177641D01*
X0110800Y0177903D01*
X0110800Y0172402D01*
X0111439Y0170858D01*
X0112621Y0169677D01*
X0114165Y0169037D01*
X0115835Y0169037D01*
X0117379Y0169677D01*
X0118561Y0170858D01*
X0119200Y0172402D01*
X0119200Y0178152D01*
X0124119Y0183071D01*
X0124500Y0183990D01*
X0124500Y0202360D01*
X0127939Y0198921D01*
X0129121Y0197739D01*
X0130665Y0197100D01*
X0152335Y0197100D01*
X0153879Y0197739D01*
X0155061Y0198921D01*
X0160740Y0204600D01*
X0172300Y0204600D01*
X0172300Y0194737D01*
X0171922Y0194359D01*
X0171500Y0193340D01*
X0171078Y0194359D01*
X0169559Y0195878D01*
X0167574Y0196700D01*
X0165426Y0196700D01*
X0163441Y0195878D01*
X0161922Y0194359D01*
X0161500Y0193340D01*
X0161078Y0194359D01*
X0159559Y0195878D01*
X0157574Y0196700D01*
X0155426Y0196700D01*
X0153441Y0195878D01*
X0151922Y0194359D01*
X0151500Y0193340D01*
X0151078Y0194359D01*
X0149559Y0195878D01*
X0147574Y0196700D01*
X0145426Y0196700D01*
X0143441Y0195878D01*
X0141922Y0194359D01*
X0141100Y0192374D01*
X0141100Y0190226D01*
X0141456Y0189367D01*
X0139089Y0187000D01*
X0137800Y0185711D01*
X0137800Y0170770D01*
X0138263Y0170306D01*
X0138263Y0169065D01*
X0140708Y0166620D01*
X0137300Y0163211D01*
X0137300Y0154889D01*
X0138458Y0153730D01*
X0138263Y0153535D01*
X0138263Y0152127D01*
X0141208Y0149182D01*
X0141882Y0149182D01*
X0141882Y0148508D01*
X0144827Y0145563D01*
X0146235Y0145563D01*
X0146430Y0145758D01*
X0146800Y0145389D01*
X0146800Y0145389D01*
X0148089Y0144100D01*
X0155184Y0144100D01*
X0157164Y0146079D01*
X0157800Y0145443D01*
X0160593Y0148236D01*
X0160663Y0148166D01*
X0157870Y0145373D01*
X0158062Y0145181D01*
X0156847Y0145181D01*
X0151119Y0139453D01*
X0151119Y0138045D01*
X0154063Y0135100D01*
X0154689Y0135100D01*
X0154762Y0134829D01*
X0154959Y0134487D01*
X0155939Y0133507D01*
X0159233Y0136800D01*
X0159500Y0136533D01*
X0156207Y0133239D01*
X0157187Y0132259D01*
X0157529Y0132062D01*
X0157800Y0131989D01*
X0157800Y0131363D01*
X0160745Y0128419D01*
X0162153Y0128419D01*
X0167881Y0134147D01*
X0167881Y0135555D01*
X0167700Y0135737D01*
X0167700Y0137950D01*
X0171500Y0141750D01*
X0175941Y0137309D01*
X0177349Y0137309D01*
X0179901Y0139861D01*
X0181312Y0141272D01*
X0181500Y0141083D01*
X0181500Y0140836D01*
X0160584Y0119919D01*
X0160584Y0119919D01*
X0159881Y0119216D01*
X0159500Y0118297D01*
X0159500Y0103427D01*
X0158439Y0102366D01*
X0157800Y0100823D01*
X0157800Y0094152D01*
X0158439Y0092608D01*
X0159621Y0091427D01*
X0161165Y0090787D01*
X0162835Y0090787D01*
X0163800Y0091187D01*
X0163800Y0085500D01*
X0140240Y0085500D01*
X0132200Y0093540D01*
X0132200Y0102903D01*
X0132833Y0102641D01*
X0133606Y0102487D01*
X0133750Y0102487D01*
X0133750Y0106237D01*
X0134250Y0106237D01*
X0134250Y0102487D01*
X0134394Y0102487D01*
X0135167Y0102641D01*
X0135800Y0102903D01*
X0135800Y0097402D01*
X0136439Y0095858D01*
X0137621Y0094677D01*
X0139165Y0094037D01*
X0140835Y0094037D01*
X0142379Y0094677D01*
X0143561Y0095858D01*
X0144200Y0097402D01*
X0144200Y0104073D01*
X0143561Y0105616D01*
X0142379Y0106798D01*
X0140835Y0107437D01*
X0139165Y0107437D01*
X0138000Y0106955D01*
X0138000Y0111881D01*
X0137846Y0112654D01*
X0137545Y0113382D01*
X0137107Y0114037D01*
X0136550Y0114594D01*
X0135895Y0115032D01*
X0135167Y0115334D01*
X0134394Y0115487D01*
X0134250Y0115487D01*
X0134250Y0106737D01*
X0133750Y0106737D01*
X0133750Y0115487D01*
X0133606Y0115487D01*
X0132833Y0115334D01*
X0132200Y0115071D01*
X0132200Y0123060D01*
X0133879Y0124739D01*
X0135061Y0125921D01*
X0135700Y0127465D01*
X0135700Y0139135D01*
X0135061Y0140679D01*
X0117061Y0158679D01*
X0115879Y0159861D01*
X0114335Y0160500D01*
X0107200Y0160500D01*
X0107200Y0177903D01*
X0107833Y0177641D01*
X0108606Y0177487D01*
X0108750Y0177487D01*
X0108750Y0181237D01*
X0108750Y0180272D02*
X0109250Y0180272D01*
X0109250Y0179273D02*
X0108750Y0179273D01*
X0108750Y0178275D02*
X0109250Y0178275D01*
X0110800Y0177276D02*
X0107200Y0177276D01*
X0107200Y0176278D02*
X0110800Y0176278D01*
X0110800Y0175279D02*
X0107200Y0175279D01*
X0107200Y0174281D02*
X0110800Y0174281D01*
X0110800Y0173282D02*
X0107200Y0173282D01*
X0107200Y0172284D02*
X0110849Y0172284D01*
X0111263Y0171285D02*
X0107200Y0171285D01*
X0107200Y0170287D02*
X0112011Y0170287D01*
X0113559Y0169288D02*
X0107200Y0169288D01*
X0107200Y0168290D02*
X0139038Y0168290D01*
X0138263Y0169288D02*
X0116441Y0169288D01*
X0117989Y0170287D02*
X0138263Y0170287D01*
X0137800Y0171285D02*
X0118737Y0171285D01*
X0119151Y0172284D02*
X0137800Y0172284D01*
X0137800Y0173282D02*
X0119200Y0173282D01*
X0119200Y0174281D02*
X0137800Y0174281D01*
X0137800Y0175279D02*
X0119200Y0175279D01*
X0119200Y0176278D02*
X0137800Y0176278D01*
X0137800Y0177276D02*
X0119200Y0177276D01*
X0119323Y0178275D02*
X0137800Y0178275D01*
X0137800Y0179273D02*
X0120321Y0179273D01*
X0121320Y0180272D02*
X0137800Y0180272D01*
X0137800Y0181270D02*
X0122318Y0181270D01*
X0123317Y0182269D02*
X0137800Y0182269D01*
X0137800Y0183267D02*
X0124201Y0183267D01*
X0124500Y0184266D02*
X0137800Y0184266D01*
X0137800Y0185264D02*
X0124500Y0185264D01*
X0124500Y0186263D02*
X0138352Y0186263D01*
X0139350Y0187261D02*
X0124500Y0187261D01*
X0124500Y0188260D02*
X0140349Y0188260D01*
X0141347Y0189258D02*
X0124500Y0189258D01*
X0124500Y0190257D02*
X0141100Y0190257D01*
X0141100Y0191255D02*
X0124500Y0191255D01*
X0124500Y0192254D02*
X0141100Y0192254D01*
X0141464Y0193252D02*
X0124500Y0193252D01*
X0124500Y0194251D02*
X0141877Y0194251D01*
X0142813Y0195249D02*
X0124500Y0195249D01*
X0124500Y0196248D02*
X0144334Y0196248D01*
X0148666Y0196248D02*
X0154334Y0196248D01*
X0152813Y0195249D02*
X0150187Y0195249D01*
X0151123Y0194251D02*
X0151877Y0194251D01*
X0152689Y0197246D02*
X0172300Y0197246D01*
X0172300Y0196248D02*
X0168666Y0196248D01*
X0170187Y0195249D02*
X0172300Y0195249D01*
X0171877Y0194251D02*
X0171123Y0194251D01*
X0172300Y0198245D02*
X0154385Y0198245D01*
X0155061Y0198921D02*
X0155061Y0198921D01*
X0155383Y0199243D02*
X0172300Y0199243D01*
X0172300Y0200242D02*
X0156382Y0200242D01*
X0157380Y0201240D02*
X0172300Y0201240D01*
X0172300Y0202239D02*
X0158379Y0202239D01*
X0159377Y0203237D02*
X0172300Y0203237D01*
X0172300Y0204236D02*
X0160376Y0204236D01*
X0158666Y0196248D02*
X0164334Y0196248D01*
X0162813Y0195249D02*
X0160187Y0195249D01*
X0161123Y0194251D02*
X0161877Y0194251D01*
X0166500Y0191300D02*
X0153500Y0178300D01*
X0153500Y0172800D01*
X0156209Y0170091D01*
X0156209Y0169909D01*
X0153982Y0167818D02*
X0153982Y0167682D01*
X0151500Y0170164D01*
X0151500Y0186300D01*
X0156500Y0191300D01*
X0163576Y0185264D02*
X0165624Y0185264D01*
X0165651Y0185291D02*
X0163424Y0183063D01*
X0161196Y0180836D01*
X0158969Y0178609D01*
X0156742Y0176382D01*
X0155700Y0175340D01*
X0155700Y0177389D01*
X0164567Y0186256D01*
X0165426Y0185900D01*
X0167574Y0185900D01*
X0169559Y0186722D01*
X0171078Y0188241D01*
X0171500Y0189260D01*
X0171922Y0188241D01*
X0173441Y0186722D01*
X0175426Y0185900D01*
X0177574Y0185900D01*
X0179559Y0186722D01*
X0181078Y0188241D01*
X0181609Y0189524D01*
X0181681Y0189304D01*
X0182053Y0188575D01*
X0182534Y0187912D01*
X0183112Y0187334D01*
X0183775Y0186853D01*
X0184504Y0186481D01*
X0185282Y0186228D01*
X0186000Y0186114D01*
X0186000Y0190800D01*
X0187000Y0190800D01*
X0187000Y0191800D01*
X0196000Y0191800D01*
X0196000Y0196486D01*
X0195282Y0196372D01*
X0194504Y0196119D01*
X0193775Y0195747D01*
X0193112Y0195266D01*
X0192534Y0194688D01*
X0192053Y0194025D01*
X0191681Y0193296D01*
X0191500Y0192739D01*
X0191319Y0193296D01*
X0190947Y0194025D01*
X0190466Y0194688D01*
X0189888Y0195266D01*
X0189225Y0195747D01*
X0188496Y0196119D01*
X0187718Y0196372D01*
X0187000Y0196486D01*
X0187000Y0191800D01*
X0186000Y0191800D01*
X0186000Y0196486D01*
X0185282Y0196372D01*
X0184504Y0196119D01*
X0183775Y0195747D01*
X0183112Y0195266D01*
X0182534Y0194688D01*
X0182053Y0194025D01*
X0181681Y0193296D01*
X0181609Y0193076D01*
X0181078Y0194359D01*
X0180700Y0194737D01*
X0180700Y0204600D01*
X0203800Y0204600D01*
X0203800Y0188965D01*
X0204439Y0187421D01*
X0213060Y0178800D01*
X0199884Y0178800D01*
X0198965Y0178419D01*
X0198262Y0177716D01*
X0197582Y0177037D01*
X0196765Y0177037D01*
X0193728Y0174000D01*
X0192098Y0174000D01*
X0191106Y0173589D01*
X0190347Y0172829D01*
X0190079Y0172561D01*
X0189720Y0172920D01*
X0191564Y0174764D01*
X0191765Y0174563D01*
X0193173Y0174563D01*
X0196118Y0177508D01*
X0196118Y0178382D01*
X0196285Y0178382D01*
X0196667Y0178485D01*
X0197009Y0178682D01*
X0197989Y0179662D01*
X0195810Y0181842D01*
X0196077Y0182109D01*
X0198257Y0179930D01*
X0199237Y0180910D01*
X0199434Y0181252D01*
X0199537Y0181634D01*
X0199537Y0182029D01*
X0199434Y0182410D01*
X0199237Y0182752D01*
X0197978Y0184011D01*
X0196077Y0182110D01*
X0195810Y0182377D01*
X0197711Y0184278D01*
X0196452Y0185537D01*
X0196110Y0185734D01*
X0195729Y0185837D01*
X0195334Y0185837D01*
X0194952Y0185734D01*
X0194610Y0185537D01*
X0193630Y0184557D01*
X0195809Y0182377D01*
X0195542Y0182110D01*
X0193362Y0184289D01*
X0192382Y0183309D01*
X0192185Y0182967D01*
X0192082Y0182585D01*
X0192082Y0182418D01*
X0191208Y0182418D01*
X0188263Y0179473D01*
X0188263Y0178065D01*
X0188464Y0177864D01*
X0187600Y0177000D01*
X0186316Y0177000D01*
X0185836Y0176521D01*
X0185200Y0177157D01*
X0182407Y0174364D01*
X0182337Y0174434D01*
X0185130Y0177227D01*
X0184355Y0178002D01*
X0184355Y0178285D01*
X0182128Y0180512D01*
X0179901Y0182739D01*
X0177349Y0185291D01*
X0175941Y0185291D01*
X0171500Y0180850D01*
X0167059Y0185291D01*
X0165651Y0185291D01*
X0167085Y0185264D02*
X0175915Y0185264D01*
X0174916Y0184266D02*
X0168084Y0184266D01*
X0169082Y0183267D02*
X0173918Y0183267D01*
X0172919Y0182269D02*
X0170081Y0182269D01*
X0171079Y0181270D02*
X0171921Y0181270D01*
X0171500Y0176300D02*
X0164000Y0168800D01*
X0161773Y0168800D01*
X0158436Y0172137D01*
X0156638Y0176278D02*
X0155700Y0176278D01*
X0155700Y0177276D02*
X0157636Y0177276D01*
X0158635Y0178275D02*
X0156586Y0178275D01*
X0157584Y0179273D02*
X0159633Y0179273D01*
X0160632Y0180272D02*
X0158583Y0180272D01*
X0159581Y0181270D02*
X0161630Y0181270D01*
X0162629Y0182269D02*
X0160580Y0182269D01*
X0161579Y0183267D02*
X0163627Y0183267D01*
X0164626Y0184266D02*
X0162577Y0184266D01*
X0168450Y0186263D02*
X0174550Y0186263D01*
X0172902Y0187261D02*
X0170098Y0187261D01*
X0171086Y0188260D02*
X0171914Y0188260D01*
X0171499Y0189258D02*
X0171501Y0189258D01*
X0177376Y0185264D02*
X0194337Y0185264D01*
X0193921Y0184266D02*
X0193386Y0184266D01*
X0193339Y0184266D02*
X0178374Y0184266D01*
X0179373Y0183267D02*
X0192358Y0183267D01*
X0191059Y0182269D02*
X0180371Y0182269D01*
X0181370Y0181270D02*
X0190061Y0181270D01*
X0189062Y0180272D02*
X0182368Y0180272D01*
X0183367Y0179273D02*
X0188263Y0179273D01*
X0188263Y0178275D02*
X0184355Y0178275D01*
X0185081Y0177276D02*
X0187876Y0177276D01*
X0187227Y0174800D02*
X0184564Y0172137D01*
X0182337Y0174293D02*
X0179543Y0171500D01*
X0180318Y0170725D01*
X0180318Y0170442D01*
X0182870Y0167891D01*
X0184139Y0166622D01*
X0176517Y0159000D01*
X0172644Y0159000D01*
X0171652Y0158589D01*
X0170892Y0157829D01*
X0169650Y0156587D01*
X0169650Y0156927D01*
X0169170Y0158084D01*
X0168284Y0158970D01*
X0167127Y0159450D01*
X0165873Y0159450D01*
X0164716Y0158970D01*
X0164245Y0158500D01*
X0163362Y0158500D01*
X0162073Y0157211D01*
X0159709Y0154847D01*
X0159073Y0155484D01*
X0156280Y0152691D01*
X0156209Y0152761D01*
X0159002Y0155554D01*
X0158228Y0156329D01*
X0158228Y0156612D01*
X0155676Y0159163D01*
X0153539Y0161300D01*
X0156001Y0163761D01*
X0158228Y0165988D01*
X0159851Y0167611D01*
X0160862Y0166600D01*
X0164911Y0166600D01*
X0171461Y0173150D01*
X0172127Y0173150D01*
X0173284Y0173630D01*
X0174170Y0174516D01*
X0174650Y0175673D01*
X0174650Y0176111D01*
X0176188Y0174572D01*
X0178415Y0172345D01*
X0178698Y0172345D01*
X0179473Y0171571D01*
X0182266Y0174364D01*
X0182337Y0174293D01*
X0182324Y0174281D02*
X0182183Y0174281D01*
X0181326Y0173282D02*
X0181184Y0173282D01*
X0180327Y0172284D02*
X0180186Y0172284D01*
X0179758Y0171285D02*
X0169596Y0171285D01*
X0168598Y0170287D02*
X0180474Y0170287D01*
X0181472Y0169288D02*
X0167599Y0169288D01*
X0166601Y0168290D02*
X0182471Y0168290D01*
X0183469Y0167291D02*
X0165602Y0167291D01*
X0160171Y0167291D02*
X0159531Y0167291D01*
X0158532Y0166293D02*
X0183810Y0166293D01*
X0182811Y0165294D02*
X0157534Y0165294D01*
X0156535Y0164296D02*
X0181813Y0164296D01*
X0180814Y0163297D02*
X0155536Y0163297D01*
X0154538Y0162299D02*
X0179816Y0162299D01*
X0178817Y0161300D02*
X0153539Y0161300D01*
X0154538Y0160301D02*
X0177819Y0160301D01*
X0176820Y0159303D02*
X0167481Y0159303D01*
X0168950Y0158304D02*
X0171367Y0158304D01*
X0170892Y0157829D02*
X0170892Y0157829D01*
X0170369Y0157306D02*
X0169493Y0157306D01*
X0166500Y0156300D02*
X0169500Y0153300D01*
X0169528Y0153269D01*
X0169554Y0153235D01*
X0169576Y0153200D01*
X0169596Y0153163D01*
X0169612Y0153124D01*
X0169625Y0153084D01*
X0169634Y0153043D01*
X0169639Y0153001D01*
X0169641Y0152959D01*
X0169639Y0152917D01*
X0169634Y0152875D01*
X0169625Y0152834D01*
X0169612Y0152794D01*
X0169596Y0152755D01*
X0169576Y0152718D01*
X0169554Y0152683D01*
X0169528Y0152649D01*
X0169500Y0152618D01*
X0166213Y0153150D02*
X0163810Y0150747D01*
X0163527Y0151029D01*
X0160734Y0148236D01*
X0160663Y0148307D01*
X0163456Y0151100D01*
X0162820Y0151736D01*
X0164715Y0153631D01*
X0164716Y0153630D01*
X0165873Y0153150D01*
X0166213Y0153150D01*
X0165483Y0153312D02*
X0164396Y0153312D01*
X0165376Y0152313D02*
X0163398Y0152313D01*
X0163242Y0151315D02*
X0164378Y0151315D01*
X0162814Y0150316D02*
X0162673Y0150316D01*
X0161816Y0149318D02*
X0161674Y0149318D01*
X0160817Y0148319D02*
X0160676Y0148319D01*
X0159819Y0147321D02*
X0159677Y0147321D01*
X0158820Y0146322D02*
X0158679Y0146322D01*
X0157919Y0145324D02*
X0156408Y0145324D01*
X0155991Y0144325D02*
X0155409Y0144325D01*
X0154993Y0143327D02*
X0132413Y0143327D01*
X0131414Y0144325D02*
X0147863Y0144325D01*
X0146865Y0145324D02*
X0130416Y0145324D01*
X0129417Y0146322D02*
X0144068Y0146322D01*
X0143069Y0147321D02*
X0128419Y0147321D01*
X0127420Y0148319D02*
X0142071Y0148319D01*
X0141072Y0149318D02*
X0126422Y0149318D01*
X0125423Y0150316D02*
X0140074Y0150316D01*
X0139075Y0151315D02*
X0124425Y0151315D01*
X0123426Y0152313D02*
X0138263Y0152313D01*
X0138263Y0153312D02*
X0122428Y0153312D01*
X0121429Y0154310D02*
X0137878Y0154310D01*
X0137300Y0155309D02*
X0120431Y0155309D01*
X0119432Y0156307D02*
X0137300Y0156307D01*
X0137300Y0157306D02*
X0118434Y0157306D01*
X0117435Y0158304D02*
X0137300Y0158304D01*
X0137300Y0159303D02*
X0116437Y0159303D01*
X0114815Y0160301D02*
X0137300Y0160301D01*
X0137300Y0161300D02*
X0107200Y0161300D01*
X0107200Y0162299D02*
X0137300Y0162299D01*
X0137386Y0163297D02*
X0107200Y0163297D01*
X0107200Y0164296D02*
X0138384Y0164296D01*
X0139383Y0165294D02*
X0107200Y0165294D01*
X0107200Y0166293D02*
X0140381Y0166293D01*
X0140037Y0167291D02*
X0107200Y0167291D01*
X0098800Y0161300D02*
X0089000Y0161300D01*
X0089000Y0160301D02*
X0088000Y0160301D01*
X0088000Y0159303D02*
X0089000Y0159303D01*
X0089000Y0158304D02*
X0088000Y0158304D01*
X0088000Y0157306D02*
X0089000Y0157306D01*
X0089000Y0156307D02*
X0088000Y0156307D01*
X0085164Y0156307D02*
X0084000Y0156307D01*
X0084000Y0157306D02*
X0084009Y0157306D01*
X0079000Y0157306D02*
X0008327Y0157306D01*
X0007802Y0158304D02*
X0079000Y0158304D01*
X0079000Y0159303D02*
X0007276Y0159303D01*
X0006751Y0160301D02*
X0079000Y0160301D01*
X0079000Y0161300D02*
X0006226Y0161300D01*
X0006541Y0162299D02*
X0079000Y0162299D01*
X0079000Y0163297D02*
X0007066Y0163297D01*
X0007591Y0164296D02*
X0079000Y0164296D01*
X0079000Y0165294D02*
X0008117Y0165294D01*
X0008642Y0166293D02*
X0079000Y0166293D01*
X0079000Y0167291D02*
X0009167Y0167291D01*
X0009717Y0168290D02*
X0079000Y0168290D01*
X0079000Y0169288D02*
X0010330Y0169288D01*
X0010944Y0170287D02*
X0079000Y0170287D01*
X0079000Y0171285D02*
X0011557Y0171285D01*
X0012170Y0172284D02*
X0079000Y0172284D01*
X0079000Y0173282D02*
X0012784Y0173282D01*
X0013397Y0174281D02*
X0079000Y0174281D01*
X0079000Y0175279D02*
X0014010Y0175279D01*
X0014624Y0176278D02*
X0079000Y0176278D01*
X0079000Y0177276D02*
X0015237Y0177276D01*
X0015851Y0178275D02*
X0079000Y0178275D01*
X0079000Y0179273D02*
X0016464Y0179273D01*
X0017077Y0180272D02*
X0079436Y0180272D01*
X0080435Y0181270D02*
X0017691Y0181270D01*
X0018336Y0182269D02*
X0081433Y0182269D01*
X0082432Y0183267D02*
X0019078Y0183267D01*
X0025763Y0192254D02*
X0056730Y0192254D01*
X0055841Y0192622D02*
X0057826Y0191800D01*
X0059974Y0191800D01*
X0061959Y0192622D01*
X0063478Y0194141D01*
X0063668Y0194600D01*
X0079732Y0194600D01*
X0079922Y0194141D01*
X0081441Y0192622D01*
X0083426Y0191800D01*
X0085574Y0191800D01*
X0087559Y0192622D01*
X0089078Y0194141D01*
X0089900Y0196126D01*
X0089900Y0198274D01*
X0089078Y0200259D01*
X0087559Y0201778D01*
X0085574Y0202600D01*
X0083426Y0202600D01*
X0081441Y0201778D01*
X0079922Y0200259D01*
X0079649Y0199600D01*
X0063751Y0199600D01*
X0063478Y0200259D01*
X0061959Y0201778D01*
X0059974Y0202600D01*
X0057826Y0202600D01*
X0055841Y0201778D01*
X0054322Y0200259D01*
X0053500Y0198274D01*
X0053500Y0196126D01*
X0054322Y0194141D01*
X0055841Y0192622D01*
X0055211Y0193252D02*
X0026506Y0193252D01*
X0027249Y0194251D02*
X0054277Y0194251D01*
X0053863Y0195249D02*
X0027996Y0195249D01*
X0028886Y0196248D02*
X0053500Y0196248D01*
X0053500Y0197246D02*
X0029777Y0197246D01*
X0030667Y0198245D02*
X0053500Y0198245D01*
X0053902Y0199243D02*
X0031558Y0199243D01*
X0032448Y0200242D02*
X0054315Y0200242D01*
X0055304Y0201240D02*
X0033339Y0201240D01*
X0034229Y0202239D02*
X0056954Y0202239D01*
X0060846Y0202239D02*
X0082554Y0202239D01*
X0080904Y0201240D02*
X0062496Y0201240D01*
X0063485Y0200242D02*
X0079915Y0200242D01*
X0084500Y0197200D02*
X0058900Y0197200D01*
X0061070Y0192254D02*
X0082330Y0192254D01*
X0080811Y0193252D02*
X0062589Y0193252D01*
X0063523Y0194251D02*
X0079877Y0194251D01*
X0086670Y0192254D02*
X0119500Y0192254D01*
X0119500Y0193252D02*
X0088189Y0193252D01*
X0089123Y0194251D02*
X0119500Y0194251D01*
X0119500Y0195249D02*
X0089537Y0195249D01*
X0089900Y0196248D02*
X0119500Y0196248D01*
X0119500Y0197246D02*
X0089900Y0197246D01*
X0089900Y0198245D02*
X0119500Y0198245D01*
X0119500Y0199243D02*
X0089498Y0199243D01*
X0089085Y0200242D02*
X0119500Y0200242D01*
X0119500Y0201240D02*
X0088096Y0201240D01*
X0086446Y0202239D02*
X0119500Y0202239D01*
X0119500Y0203237D02*
X0035119Y0203237D01*
X0036010Y0204236D02*
X0119500Y0204236D01*
X0119500Y0205234D02*
X0036900Y0205234D01*
X0037791Y0206233D02*
X0119500Y0206233D01*
X0119500Y0207232D02*
X0038681Y0207232D01*
X0039700Y0208230D02*
X0119500Y0208230D01*
X0119500Y0209229D02*
X0040764Y0209229D01*
X0041827Y0210227D02*
X0056813Y0210227D01*
X0056904Y0210181D02*
X0057682Y0209928D01*
X0058400Y0209814D01*
X0058400Y0212600D01*
X0059400Y0212600D01*
X0059400Y0209814D01*
X0060118Y0209928D01*
X0060896Y0210181D01*
X0061625Y0210553D01*
X0062288Y0211034D01*
X0062866Y0211612D01*
X0063347Y0212275D01*
X0063513Y0212600D01*
X0079887Y0212600D01*
X0080053Y0212275D01*
X0080534Y0211612D01*
X0081112Y0211034D01*
X0081775Y0210553D01*
X0082504Y0210181D01*
X0083282Y0209928D01*
X0084000Y0209814D01*
X0084000Y0212600D01*
X0085000Y0212600D01*
X0085000Y0209814D01*
X0085718Y0209928D01*
X0086496Y0210181D01*
X0087225Y0210553D01*
X0087888Y0211034D01*
X0088466Y0211612D01*
X0088947Y0212275D01*
X0089319Y0213004D01*
X0089572Y0213782D01*
X0089686Y0214500D01*
X0087157Y0214500D01*
X0087200Y0214603D01*
X0087200Y0215500D01*
X0089686Y0215500D01*
X0089572Y0216218D01*
X0117800Y0216218D01*
X0117800Y0217217D02*
X0089207Y0217217D01*
X0089319Y0216996D02*
X0088947Y0217725D01*
X0088466Y0218388D01*
X0087888Y0218966D01*
X0087225Y0219447D01*
X0086496Y0219819D01*
X0085718Y0220072D01*
X0085000Y0220186D01*
X0085000Y0217600D01*
X0084000Y0217600D01*
X0084000Y0220186D01*
X0083282Y0220072D01*
X0082504Y0219819D01*
X0081775Y0219447D01*
X0081112Y0218966D01*
X0080534Y0218388D01*
X0080053Y0217725D01*
X0079989Y0217600D01*
X0063411Y0217600D01*
X0063347Y0217725D01*
X0062866Y0218388D01*
X0062288Y0218966D01*
X0061625Y0219447D01*
X0060896Y0219819D01*
X0060118Y0220072D01*
X0059400Y0220186D01*
X0059400Y0217600D01*
X0058400Y0217600D01*
X0058400Y0220186D01*
X0057682Y0220072D01*
X0056904Y0219819D01*
X0056175Y0219447D01*
X0055512Y0218966D01*
X0054934Y0218388D01*
X0054453Y0217725D01*
X0054081Y0216996D01*
X0053828Y0216218D01*
X0048209Y0216218D01*
X0049272Y0217217D02*
X0054193Y0217217D01*
X0053828Y0216218D02*
X0053714Y0215500D01*
X0056200Y0215500D01*
X0056200Y0214603D01*
X0056243Y0214500D01*
X0053714Y0214500D01*
X0053828Y0213782D01*
X0054081Y0213004D01*
X0054453Y0212275D01*
X0054934Y0211612D01*
X0055512Y0211034D01*
X0056175Y0210553D01*
X0056904Y0210181D01*
X0058400Y0210227D02*
X0059400Y0210227D01*
X0059400Y0211226D02*
X0058400Y0211226D01*
X0058400Y0212224D02*
X0059400Y0212224D01*
X0060987Y0210227D02*
X0082413Y0210227D01*
X0084000Y0210227D02*
X0085000Y0210227D01*
X0085000Y0211226D02*
X0084000Y0211226D01*
X0084000Y0212224D02*
X0085000Y0212224D01*
X0086587Y0210227D02*
X0119500Y0210227D01*
X0119500Y0211226D02*
X0088079Y0211226D01*
X0088911Y0212224D02*
X0119500Y0212224D01*
X0119325Y0213223D02*
X0089390Y0213223D01*
X0089641Y0214221D02*
X0118393Y0214221D01*
X0117979Y0215220D02*
X0087200Y0215220D01*
X0089572Y0216218D02*
X0089319Y0216996D01*
X0088592Y0218215D02*
X0117800Y0218215D01*
X0117800Y0219214D02*
X0087547Y0219214D01*
X0085000Y0219214D02*
X0084000Y0219214D01*
X0084000Y0218215D02*
X0085000Y0218215D01*
X0081453Y0219214D02*
X0061947Y0219214D01*
X0062992Y0218215D02*
X0080408Y0218215D01*
X0080089Y0212224D02*
X0063311Y0212224D01*
X0062479Y0211226D02*
X0080921Y0211226D01*
X0059400Y0218215D02*
X0058400Y0218215D01*
X0058400Y0219214D02*
X0059400Y0219214D01*
X0055853Y0219214D02*
X0051498Y0219214D01*
X0050336Y0218215D02*
X0054808Y0218215D01*
X0052771Y0220212D02*
X0117800Y0220212D01*
X0117800Y0221211D02*
X0054044Y0221211D01*
X0055317Y0222209D02*
X0117800Y0222209D01*
X0118167Y0223208D02*
X0056590Y0223208D01*
X0057863Y0224206D02*
X0118779Y0224206D01*
X0119999Y0225205D02*
X0059136Y0225205D01*
X0060409Y0226203D02*
X0153180Y0226203D01*
X0152182Y0225205D02*
X0135478Y0225205D01*
X0134250Y0225205D02*
X0133750Y0225205D01*
X0133750Y0224206D02*
X0134250Y0224206D01*
X0134250Y0223208D02*
X0133750Y0223208D01*
X0133750Y0222209D02*
X0134250Y0222209D01*
X0134250Y0221211D02*
X0133750Y0221211D01*
X0133750Y0220212D02*
X0134250Y0220212D01*
X0134250Y0219214D02*
X0133750Y0219214D01*
X0133750Y0218215D02*
X0134250Y0218215D01*
X0134250Y0217217D02*
X0133750Y0217217D01*
X0133750Y0216237D02*
X0134250Y0216237D01*
X0134250Y0212487D01*
X0134394Y0212487D01*
X0135167Y0212641D01*
X0135800Y0212903D01*
X0135800Y0207402D01*
X0136439Y0205858D01*
X0136798Y0205500D01*
X0133240Y0205500D01*
X0132200Y0206540D01*
X0132200Y0212903D01*
X0132833Y0212641D01*
X0133606Y0212487D01*
X0133750Y0212487D01*
X0133750Y0216237D01*
X0133750Y0216218D02*
X0134250Y0216218D01*
X0134250Y0215220D02*
X0133750Y0215220D01*
X0133750Y0214221D02*
X0134250Y0214221D01*
X0134250Y0213223D02*
X0133750Y0213223D01*
X0132200Y0212224D02*
X0135800Y0212224D01*
X0135800Y0211226D02*
X0132200Y0211226D01*
X0132200Y0210227D02*
X0135800Y0210227D01*
X0135800Y0209229D02*
X0132200Y0209229D01*
X0132200Y0208230D02*
X0135800Y0208230D01*
X0135871Y0207232D02*
X0132200Y0207232D01*
X0132507Y0206233D02*
X0136284Y0206233D01*
X0127617Y0199243D02*
X0124500Y0199243D01*
X0124500Y0198245D02*
X0128615Y0198245D01*
X0130311Y0197246D02*
X0124500Y0197246D01*
X0124500Y0200242D02*
X0126618Y0200242D01*
X0125620Y0201240D02*
X0124500Y0201240D01*
X0124500Y0202239D02*
X0124621Y0202239D01*
X0119500Y0189258D02*
X0111886Y0189258D01*
X0112595Y0188260D02*
X0119500Y0188260D01*
X0119500Y0187261D02*
X0112924Y0187261D01*
X0113000Y0186263D02*
X0119500Y0186263D01*
X0119241Y0185264D02*
X0113000Y0185264D01*
X0113000Y0184266D02*
X0118243Y0184266D01*
X0117244Y0183267D02*
X0113000Y0183267D01*
X0113000Y0182269D02*
X0113757Y0182269D01*
X0116243Y0182269D02*
X0116246Y0182269D01*
X0107648Y0190257D02*
X0098875Y0190257D01*
X0100169Y0189258D02*
X0106114Y0189258D01*
X0105405Y0188260D02*
X0100812Y0188260D01*
X0101200Y0187261D02*
X0105076Y0187261D01*
X0105000Y0186263D02*
X0101200Y0186263D01*
X0101200Y0185264D02*
X0105000Y0185264D01*
X0105000Y0184266D02*
X0101200Y0184266D01*
X0101200Y0183267D02*
X0105000Y0183267D01*
X0105000Y0182269D02*
X0104243Y0182269D01*
X0101757Y0182269D02*
X0101200Y0182269D01*
X0089000Y0166293D02*
X0088000Y0166293D01*
X0088000Y0165294D02*
X0089000Y0165294D01*
X0089000Y0164296D02*
X0088000Y0164296D01*
X0088000Y0163297D02*
X0089000Y0163297D01*
X0089000Y0162299D02*
X0088000Y0162299D01*
X0079000Y0156307D02*
X0008853Y0156307D01*
X0009378Y0155309D02*
X0079000Y0155309D01*
X0079000Y0154310D02*
X0009962Y0154310D01*
X0010576Y0153312D02*
X0079000Y0153312D01*
X0079000Y0152313D02*
X0056490Y0152313D01*
X0057822Y0151315D02*
X0079000Y0151315D01*
X0079000Y0150316D02*
X0058678Y0150316D01*
X0059092Y0149318D02*
X0079000Y0149318D01*
X0079000Y0148319D02*
X0059400Y0148319D01*
X0059400Y0147321D02*
X0079000Y0147321D01*
X0079000Y0146322D02*
X0059400Y0146322D01*
X0059400Y0145324D02*
X0079000Y0145324D01*
X0079000Y0144325D02*
X0059400Y0144325D01*
X0059400Y0143327D02*
X0079000Y0143327D01*
X0079000Y0142328D02*
X0059400Y0142328D01*
X0059400Y0141330D02*
X0079000Y0141330D01*
X0079000Y0140331D02*
X0059400Y0140331D01*
X0059400Y0139333D02*
X0079000Y0139333D01*
X0079000Y0138334D02*
X0059114Y0138334D01*
X0058700Y0137336D02*
X0079000Y0137336D01*
X0079000Y0136337D02*
X0057874Y0136337D01*
X0056616Y0135339D02*
X0079000Y0135339D01*
X0079000Y0134340D02*
X0056500Y0134340D01*
X0056500Y0133342D02*
X0079000Y0133342D01*
X0079000Y0132343D02*
X0056500Y0132343D01*
X0056500Y0131345D02*
X0079000Y0131345D01*
X0079189Y0130346D02*
X0056500Y0130346D01*
X0056988Y0129348D02*
X0079917Y0129348D01*
X0080084Y0129181D02*
X0080084Y0129181D01*
X0080915Y0128349D02*
X0057986Y0128349D01*
X0058985Y0127351D02*
X0081914Y0127351D01*
X0082912Y0126352D02*
X0059983Y0126352D01*
X0060982Y0125354D02*
X0083911Y0125354D01*
X0084909Y0124355D02*
X0061980Y0124355D01*
X0062979Y0123357D02*
X0085908Y0123357D01*
X0086906Y0122358D02*
X0063977Y0122358D01*
X0064976Y0121360D02*
X0087905Y0121360D01*
X0088903Y0120361D02*
X0065974Y0120361D01*
X0066973Y0119363D02*
X0089902Y0119363D01*
X0104584Y0129348D02*
X0111012Y0129348D01*
X0111952Y0130346D02*
X0106048Y0130346D01*
X0106762Y0131345D02*
X0111238Y0131345D01*
X0110824Y0132343D02*
X0107176Y0132343D01*
X0107200Y0133342D02*
X0110800Y0133342D01*
X0110800Y0134340D02*
X0107200Y0134340D01*
X0107200Y0135339D02*
X0110800Y0135339D01*
X0110800Y0136337D02*
X0107200Y0136337D01*
X0107200Y0137336D02*
X0110800Y0137336D01*
X0109250Y0138334D02*
X0108750Y0138334D01*
X0108750Y0139333D02*
X0109250Y0139333D01*
X0109250Y0140331D02*
X0108750Y0140331D01*
X0108750Y0141737D02*
X0108750Y0150487D01*
X0108606Y0150487D01*
X0107833Y0150334D01*
X0107200Y0150071D01*
X0107200Y0152100D01*
X0111760Y0152100D01*
X0127300Y0136560D01*
X0127300Y0134378D01*
X0127127Y0134450D01*
X0125873Y0134450D01*
X0124716Y0133970D01*
X0124545Y0133800D01*
X0121003Y0133800D01*
X0120084Y0133419D01*
X0119381Y0132716D01*
X0119200Y0132536D01*
X0119200Y0139073D01*
X0118561Y0140616D01*
X0117379Y0141798D01*
X0115835Y0142437D01*
X0114165Y0142437D01*
X0113000Y0141955D01*
X0113000Y0146881D01*
X0112846Y0147654D01*
X0112545Y0148382D01*
X0112107Y0149037D01*
X0111550Y0149594D01*
X0110895Y0150032D01*
X0110167Y0150334D01*
X0109394Y0150487D01*
X0109250Y0150487D01*
X0109250Y0141737D01*
X0108750Y0141737D01*
X0108750Y0142328D02*
X0109250Y0142328D01*
X0109250Y0143327D02*
X0108750Y0143327D01*
X0108750Y0144325D02*
X0109250Y0144325D01*
X0109250Y0145324D02*
X0108750Y0145324D01*
X0108750Y0146322D02*
X0109250Y0146322D01*
X0109250Y0147321D02*
X0108750Y0147321D01*
X0108750Y0148319D02*
X0109250Y0148319D01*
X0109250Y0149318D02*
X0108750Y0149318D01*
X0108750Y0150316D02*
X0109250Y0150316D01*
X0110209Y0150316D02*
X0113544Y0150316D01*
X0114542Y0149318D02*
X0111826Y0149318D01*
X0112571Y0148319D02*
X0115541Y0148319D01*
X0116539Y0147321D02*
X0112913Y0147321D01*
X0113000Y0146322D02*
X0117538Y0146322D01*
X0118536Y0145324D02*
X0113000Y0145324D01*
X0113000Y0144325D02*
X0119535Y0144325D01*
X0120534Y0143327D02*
X0113000Y0143327D01*
X0113000Y0142328D02*
X0113901Y0142328D01*
X0116099Y0142328D02*
X0121532Y0142328D01*
X0122531Y0141330D02*
X0117847Y0141330D01*
X0118679Y0140331D02*
X0123529Y0140331D01*
X0124528Y0139333D02*
X0119092Y0139333D01*
X0119200Y0138334D02*
X0125526Y0138334D01*
X0126525Y0137336D02*
X0119200Y0137336D01*
X0119200Y0136337D02*
X0127300Y0136337D01*
X0127300Y0135339D02*
X0119200Y0135339D01*
X0119200Y0134340D02*
X0125608Y0134340D01*
X0120006Y0133342D02*
X0119200Y0133342D01*
X0132496Y0123357D02*
X0164021Y0123357D01*
X0165020Y0124355D02*
X0133495Y0124355D01*
X0134493Y0125354D02*
X0166018Y0125354D01*
X0167017Y0126352D02*
X0135239Y0126352D01*
X0135653Y0127351D02*
X0168015Y0127351D01*
X0169014Y0128349D02*
X0135700Y0128349D01*
X0135700Y0129348D02*
X0159816Y0129348D01*
X0158817Y0130346D02*
X0135700Y0130346D01*
X0135700Y0131345D02*
X0157819Y0131345D01*
X0157103Y0132343D02*
X0135700Y0132343D01*
X0135700Y0133342D02*
X0156309Y0133342D01*
X0156773Y0134340D02*
X0157307Y0134340D01*
X0157771Y0135339D02*
X0158306Y0135339D01*
X0158770Y0136337D02*
X0159304Y0136337D01*
X0162841Y0133459D02*
X0165500Y0136119D01*
X0165500Y0137800D01*
X0165000Y0138300D01*
X0165000Y0139210D01*
X0167345Y0141555D01*
X0169082Y0139333D02*
X0173918Y0139333D01*
X0174916Y0138334D02*
X0168084Y0138334D01*
X0167700Y0137336D02*
X0175915Y0137336D01*
X0177376Y0137336D02*
X0178000Y0137336D01*
X0178374Y0138334D02*
X0178999Y0138334D01*
X0179373Y0139333D02*
X0179997Y0139333D01*
X0179901Y0139861D02*
X0179901Y0139861D01*
X0180371Y0140331D02*
X0180996Y0140331D01*
X0183350Y0135614D02*
X0183350Y0134673D01*
X0183830Y0133516D01*
X0184716Y0132630D01*
X0185873Y0132150D01*
X0187127Y0132150D01*
X0188284Y0132630D01*
X0189170Y0133516D01*
X0189650Y0134673D01*
X0189650Y0135927D01*
X0189170Y0137084D01*
X0189000Y0137255D01*
X0189000Y0144570D01*
X0188905Y0144800D01*
X0192003Y0144800D01*
X0192997Y0144800D01*
X0193916Y0145181D01*
X0209916Y0161181D01*
X0210619Y0161884D01*
X0211000Y0162803D01*
X0211000Y0170345D01*
X0211170Y0170516D01*
X0211650Y0171673D01*
X0211650Y0172927D01*
X0211288Y0173800D01*
X0218060Y0173800D01*
X0220439Y0171421D01*
X0221621Y0170239D01*
X0223165Y0169600D01*
X0228800Y0169600D01*
X0228800Y0150288D01*
X0227835Y0150687D01*
X0226165Y0150687D01*
X0224621Y0150048D01*
X0223439Y0148866D01*
X0222800Y0147323D01*
X0222800Y0140652D01*
X0223439Y0139108D01*
X0224621Y0137927D01*
X0226165Y0137287D01*
X0227835Y0137287D01*
X0228800Y0137687D01*
X0228800Y0133540D01*
X0225760Y0130500D01*
X0201665Y0130500D01*
X0200121Y0129861D01*
X0190121Y0119861D01*
X0190121Y0119861D01*
X0182760Y0112500D01*
X0172665Y0112500D01*
X0171121Y0111861D01*
X0169939Y0110679D01*
X0164500Y0105240D01*
X0164500Y0116764D01*
X0183350Y0135614D01*
X0183350Y0135339D02*
X0183074Y0135339D01*
X0183488Y0134340D02*
X0182076Y0134340D01*
X0181077Y0133342D02*
X0184004Y0133342D01*
X0185407Y0132343D02*
X0180079Y0132343D01*
X0179080Y0131345D02*
X0226605Y0131345D01*
X0227603Y0132343D02*
X0187593Y0132343D01*
X0188996Y0133342D02*
X0228602Y0133342D01*
X0228800Y0134340D02*
X0189512Y0134340D01*
X0189650Y0135339D02*
X0228800Y0135339D01*
X0228800Y0136337D02*
X0189480Y0136337D01*
X0189000Y0137336D02*
X0226048Y0137336D01*
X0227952Y0137336D02*
X0228800Y0137336D01*
X0224213Y0138334D02*
X0189000Y0138334D01*
X0189000Y0139333D02*
X0223346Y0139333D01*
X0222933Y0140331D02*
X0189000Y0140331D01*
X0189000Y0141330D02*
X0222800Y0141330D01*
X0222800Y0142328D02*
X0189000Y0142328D01*
X0189000Y0143327D02*
X0222800Y0143327D01*
X0222800Y0144325D02*
X0189000Y0144325D01*
X0194059Y0145324D02*
X0222800Y0145324D01*
X0222800Y0146322D02*
X0195058Y0146322D01*
X0196056Y0147321D02*
X0222800Y0147321D01*
X0223213Y0148319D02*
X0197055Y0148319D01*
X0198053Y0149318D02*
X0223891Y0149318D01*
X0225269Y0150316D02*
X0199052Y0150316D01*
X0200050Y0151315D02*
X0228800Y0151315D01*
X0228800Y0152313D02*
X0201049Y0152313D01*
X0202047Y0153312D02*
X0228800Y0153312D01*
X0228800Y0154310D02*
X0203046Y0154310D01*
X0204044Y0155309D02*
X0228800Y0155309D01*
X0228800Y0156307D02*
X0205043Y0156307D01*
X0206041Y0157306D02*
X0228800Y0157306D01*
X0228800Y0158304D02*
X0207040Y0158304D01*
X0208039Y0159303D02*
X0228800Y0159303D01*
X0228800Y0160301D02*
X0209037Y0160301D01*
X0210036Y0161300D02*
X0228800Y0161300D01*
X0228800Y0162299D02*
X0210791Y0162299D01*
X0211000Y0163297D02*
X0228800Y0163297D01*
X0228800Y0164296D02*
X0211000Y0164296D01*
X0211000Y0165294D02*
X0228800Y0165294D01*
X0228800Y0166293D02*
X0211000Y0166293D01*
X0211000Y0167291D02*
X0228800Y0167291D01*
X0228800Y0168290D02*
X0211000Y0168290D01*
X0211000Y0169288D02*
X0228800Y0169288D01*
X0221574Y0170287D02*
X0211000Y0170287D01*
X0211489Y0171285D02*
X0220575Y0171285D01*
X0219577Y0172284D02*
X0211650Y0172284D01*
X0211503Y0173282D02*
X0218578Y0173282D01*
X0212587Y0179273D02*
X0197600Y0179273D01*
X0197380Y0180272D02*
X0197915Y0180272D01*
X0198599Y0180272D02*
X0211589Y0180272D01*
X0210590Y0181270D02*
X0199439Y0181270D01*
X0199472Y0182269D02*
X0209592Y0182269D01*
X0208593Y0183267D02*
X0198722Y0183267D01*
X0197698Y0184266D02*
X0207595Y0184266D01*
X0206596Y0185264D02*
X0196725Y0185264D01*
X0197000Y0186114D02*
X0197718Y0186228D01*
X0198496Y0186481D01*
X0199225Y0186853D01*
X0199888Y0187334D01*
X0200466Y0187912D01*
X0200947Y0188575D01*
X0201319Y0189304D01*
X0201572Y0190082D01*
X0201686Y0190800D01*
X0197000Y0190800D01*
X0197000Y0191800D01*
X0196000Y0191800D01*
X0196000Y0190800D01*
X0191314Y0190800D01*
X0187000Y0190800D01*
X0187000Y0186114D01*
X0187718Y0186228D01*
X0188496Y0186481D01*
X0189225Y0186853D01*
X0189888Y0187334D01*
X0190466Y0187912D01*
X0190947Y0188575D01*
X0191319Y0189304D01*
X0191500Y0189861D01*
X0191681Y0189304D01*
X0192053Y0188575D01*
X0192534Y0187912D01*
X0193112Y0187334D01*
X0193775Y0186853D01*
X0194504Y0186481D01*
X0195282Y0186228D01*
X0196000Y0186114D01*
X0196000Y0190800D01*
X0197000Y0190800D01*
X0197000Y0186114D01*
X0197000Y0186263D02*
X0196000Y0186263D01*
X0195175Y0186263D02*
X0187825Y0186263D01*
X0187000Y0186263D02*
X0186000Y0186263D01*
X0185175Y0186263D02*
X0178450Y0186263D01*
X0180098Y0187261D02*
X0183212Y0187261D01*
X0182281Y0188260D02*
X0181086Y0188260D01*
X0181499Y0189258D02*
X0181704Y0189258D01*
X0181667Y0193252D02*
X0181536Y0193252D01*
X0181123Y0194251D02*
X0182216Y0194251D01*
X0183095Y0195249D02*
X0180700Y0195249D01*
X0180700Y0196248D02*
X0184901Y0196248D01*
X0186000Y0196248D02*
X0187000Y0196248D01*
X0187000Y0195249D02*
X0186000Y0195249D01*
X0186000Y0194251D02*
X0187000Y0194251D01*
X0187000Y0193252D02*
X0186000Y0193252D01*
X0186000Y0192254D02*
X0187000Y0192254D01*
X0187000Y0191255D02*
X0196000Y0191255D01*
X0196000Y0190257D02*
X0197000Y0190257D01*
X0197000Y0191255D02*
X0203800Y0191255D01*
X0203800Y0190257D02*
X0201600Y0190257D01*
X0201296Y0189258D02*
X0203800Y0189258D01*
X0204092Y0188260D02*
X0200719Y0188260D01*
X0199788Y0187261D02*
X0204599Y0187261D01*
X0205598Y0186263D02*
X0197825Y0186263D01*
X0197000Y0187261D02*
X0196000Y0187261D01*
X0196000Y0188260D02*
X0197000Y0188260D01*
X0197000Y0189258D02*
X0196000Y0189258D01*
X0197000Y0191800D02*
X0201686Y0191800D01*
X0201572Y0192518D01*
X0201319Y0193296D01*
X0200947Y0194025D01*
X0200466Y0194688D01*
X0199888Y0195266D01*
X0199225Y0195747D01*
X0198496Y0196119D01*
X0197718Y0196372D01*
X0197000Y0196486D01*
X0197000Y0191800D01*
X0197000Y0192254D02*
X0196000Y0192254D01*
X0196000Y0193252D02*
X0197000Y0193252D01*
X0197000Y0194251D02*
X0196000Y0194251D01*
X0196000Y0195249D02*
X0197000Y0195249D01*
X0197000Y0196248D02*
X0196000Y0196248D01*
X0194901Y0196248D02*
X0188099Y0196248D01*
X0189905Y0195249D02*
X0193095Y0195249D01*
X0192216Y0194251D02*
X0190784Y0194251D01*
X0191333Y0193252D02*
X0191667Y0193252D01*
X0191704Y0189258D02*
X0191296Y0189258D01*
X0190719Y0188260D02*
X0192281Y0188260D01*
X0193212Y0187261D02*
X0189788Y0187261D01*
X0187000Y0187261D02*
X0186000Y0187261D01*
X0186000Y0188260D02*
X0187000Y0188260D01*
X0187000Y0189258D02*
X0186000Y0189258D01*
X0186000Y0190257D02*
X0187000Y0190257D01*
X0180700Y0197246D02*
X0203800Y0197246D01*
X0203800Y0196248D02*
X0198099Y0196248D01*
X0199905Y0195249D02*
X0203800Y0195249D01*
X0203800Y0194251D02*
X0200784Y0194251D01*
X0201333Y0193252D02*
X0203800Y0193252D01*
X0203800Y0192254D02*
X0201614Y0192254D01*
X0203800Y0198245D02*
X0180700Y0198245D01*
X0180700Y0199243D02*
X0203800Y0199243D01*
X0203800Y0200242D02*
X0180700Y0200242D01*
X0180700Y0201240D02*
X0203800Y0201240D01*
X0203800Y0202239D02*
X0180700Y0202239D01*
X0180700Y0203237D02*
X0203800Y0203237D01*
X0203800Y0204236D02*
X0180700Y0204236D01*
X0183315Y0213987D02*
X0184310Y0213987D01*
X0198560Y0213987D01*
X0199548Y0213000D01*
X0172200Y0213000D01*
X0172200Y0227903D01*
X0172833Y0227641D01*
X0173606Y0227487D01*
X0173750Y0227487D01*
X0173750Y0231237D01*
X0174250Y0231237D01*
X0174250Y0227487D01*
X0174394Y0227487D01*
X0175167Y0227641D01*
X0175800Y0227903D01*
X0175800Y0222402D01*
X0176439Y0220858D01*
X0177504Y0219794D01*
X0177881Y0218884D01*
X0178584Y0218181D01*
X0182396Y0214368D01*
X0183315Y0213987D01*
X0182751Y0214221D02*
X0172200Y0214221D01*
X0172200Y0213223D02*
X0199325Y0213223D01*
X0197800Y0219214D02*
X0184622Y0219214D01*
X0183623Y0220212D02*
X0197800Y0220212D01*
X0197800Y0221211D02*
X0183707Y0221211D01*
X0184120Y0222209D02*
X0197800Y0222209D01*
X0198167Y0223208D02*
X0184200Y0223208D01*
X0184200Y0224206D02*
X0198779Y0224206D01*
X0199999Y0225205D02*
X0184200Y0225205D01*
X0184200Y0226203D02*
X0235919Y0226203D01*
X0235281Y0226468D02*
X0237376Y0225600D01*
X0239643Y0225600D01*
X0241738Y0226468D01*
X0243342Y0228071D01*
X0244210Y0230166D01*
X0244210Y0232434D01*
X0243342Y0234529D01*
X0241738Y0236132D01*
X0239643Y0237000D01*
X0237376Y0237000D01*
X0235281Y0236132D01*
X0233677Y0234529D01*
X0232810Y0232434D01*
X0232810Y0230166D01*
X0233677Y0228071D01*
X0235281Y0226468D01*
X0234547Y0227202D02*
X0184200Y0227202D01*
X0184200Y0228200D02*
X0233624Y0228200D01*
X0233210Y0229199D02*
X0184148Y0229199D01*
X0183734Y0230197D02*
X0232810Y0230197D01*
X0232810Y0231196D02*
X0182981Y0231196D01*
X0181422Y0232194D02*
X0232810Y0232194D01*
X0233124Y0233193D02*
X0178000Y0233193D01*
X0178000Y0234191D02*
X0233538Y0234191D01*
X0234338Y0235190D02*
X0178000Y0235190D01*
X0178000Y0236188D02*
X0235416Y0236188D01*
X0241603Y0236188D02*
X0268340Y0236188D01*
X0269876Y0235190D02*
X0242681Y0235190D01*
X0243482Y0234191D02*
X0271411Y0234191D01*
X0272947Y0233193D02*
X0243895Y0233193D01*
X0244210Y0232194D02*
X0274483Y0232194D01*
X0276019Y0231196D02*
X0244210Y0231196D01*
X0244210Y0230197D02*
X0277555Y0230197D01*
X0279091Y0229199D02*
X0243809Y0229199D01*
X0243395Y0228200D02*
X0280445Y0228200D01*
X0281718Y0227202D02*
X0242472Y0227202D01*
X0241100Y0226203D02*
X0282991Y0226203D01*
X0284264Y0225205D02*
X0215478Y0225205D01*
X0214250Y0225205D02*
X0213750Y0225205D01*
X0213750Y0224206D02*
X0214250Y0224206D01*
X0214250Y0223208D02*
X0213750Y0223208D01*
X0213750Y0222209D02*
X0214250Y0222209D01*
X0214250Y0221211D02*
X0213750Y0221211D01*
X0213750Y0220212D02*
X0214250Y0220212D01*
X0214250Y0219214D02*
X0213750Y0219214D01*
X0213750Y0218215D02*
X0214250Y0218215D01*
X0214250Y0217217D02*
X0213750Y0217217D01*
X0213750Y0216237D02*
X0214250Y0216237D01*
X0214250Y0212487D01*
X0214394Y0212487D01*
X0215167Y0212641D01*
X0215800Y0212903D01*
X0215800Y0207402D01*
X0216439Y0205858D01*
X0217500Y0204798D01*
X0217500Y0200303D01*
X0217881Y0199384D01*
X0218584Y0198681D01*
X0224500Y0192764D01*
X0224500Y0189927D01*
X0223439Y0188866D01*
X0222800Y0187323D01*
X0222800Y0180940D01*
X0212200Y0191540D01*
X0212200Y0212903D01*
X0212833Y0212641D01*
X0213606Y0212487D01*
X0213750Y0212487D01*
X0213750Y0216237D01*
X0213750Y0216218D02*
X0214250Y0216218D01*
X0214250Y0215220D02*
X0213750Y0215220D01*
X0213750Y0214221D02*
X0214250Y0214221D01*
X0214250Y0213223D02*
X0213750Y0213223D01*
X0212200Y0212224D02*
X0215800Y0212224D01*
X0215800Y0211226D02*
X0212200Y0211226D01*
X0212200Y0210227D02*
X0215800Y0210227D01*
X0215800Y0209229D02*
X0212200Y0209229D01*
X0212200Y0208230D02*
X0215800Y0208230D01*
X0215871Y0207232D02*
X0212200Y0207232D01*
X0212200Y0206233D02*
X0216284Y0206233D01*
X0217063Y0205234D02*
X0212200Y0205234D01*
X0212200Y0204236D02*
X0217500Y0204236D01*
X0217500Y0203237D02*
X0212200Y0203237D01*
X0212200Y0202239D02*
X0217500Y0202239D01*
X0217500Y0201240D02*
X0212200Y0201240D01*
X0212200Y0200242D02*
X0217525Y0200242D01*
X0218021Y0199243D02*
X0212200Y0199243D01*
X0212200Y0198245D02*
X0219020Y0198245D01*
X0220018Y0197246D02*
X0212200Y0197246D01*
X0212200Y0196248D02*
X0221017Y0196248D01*
X0222015Y0195249D02*
X0212200Y0195249D01*
X0212200Y0194251D02*
X0223014Y0194251D01*
X0224012Y0193252D02*
X0212200Y0193252D01*
X0212200Y0192254D02*
X0224500Y0192254D01*
X0224500Y0191255D02*
X0212484Y0191255D01*
X0213483Y0190257D02*
X0224500Y0190257D01*
X0223831Y0189258D02*
X0214481Y0189258D01*
X0215480Y0188260D02*
X0223188Y0188260D01*
X0222800Y0187261D02*
X0216478Y0187261D01*
X0217477Y0186263D02*
X0222800Y0186263D01*
X0222800Y0185264D02*
X0218475Y0185264D01*
X0219474Y0184266D02*
X0222800Y0184266D01*
X0222800Y0183267D02*
X0220472Y0183267D01*
X0221471Y0182269D02*
X0222800Y0182269D01*
X0222800Y0181270D02*
X0222469Y0181270D01*
X0231200Y0182269D02*
X0231757Y0182269D01*
X0231200Y0183267D02*
X0235000Y0183267D01*
X0235000Y0182269D02*
X0234243Y0182269D01*
X0235000Y0184266D02*
X0231200Y0184266D01*
X0231200Y0185264D02*
X0235000Y0185264D01*
X0235000Y0186263D02*
X0231200Y0186263D01*
X0231200Y0187261D02*
X0235076Y0187261D01*
X0235405Y0188260D02*
X0230812Y0188260D01*
X0230169Y0189258D02*
X0236114Y0189258D01*
X0237648Y0190257D02*
X0229500Y0190257D01*
X0229500Y0191255D02*
X0283600Y0191255D01*
X0283600Y0190257D02*
X0240352Y0190257D01*
X0239250Y0190257D02*
X0238750Y0190257D01*
X0238750Y0189258D02*
X0239250Y0189258D01*
X0239250Y0188260D02*
X0238750Y0188260D01*
X0238750Y0187261D02*
X0239250Y0187261D01*
X0239250Y0186263D02*
X0238750Y0186263D01*
X0238750Y0185264D02*
X0239250Y0185264D01*
X0239250Y0184266D02*
X0238750Y0184266D01*
X0238750Y0183267D02*
X0239250Y0183267D01*
X0239250Y0182269D02*
X0238750Y0182269D01*
X0238750Y0181237D02*
X0239250Y0181237D01*
X0239250Y0177487D01*
X0239394Y0177487D01*
X0240167Y0177641D01*
X0240800Y0177903D01*
X0240800Y0172402D01*
X0241439Y0170858D01*
X0241798Y0170500D01*
X0237200Y0170500D01*
X0237200Y0172402D01*
X0237200Y0177903D01*
X0237833Y0177641D01*
X0238606Y0177487D01*
X0238750Y0177487D01*
X0238750Y0181237D01*
X0238750Y0180272D02*
X0239250Y0180272D01*
X0239250Y0179273D02*
X0238750Y0179273D01*
X0238750Y0178275D02*
X0239250Y0178275D01*
X0240800Y0177276D02*
X0237200Y0177276D01*
X0237200Y0176278D02*
X0240800Y0176278D01*
X0240800Y0175279D02*
X0237200Y0175279D01*
X0237200Y0174281D02*
X0240800Y0174281D01*
X0240800Y0173282D02*
X0237200Y0173282D01*
X0237200Y0172284D02*
X0240849Y0172284D01*
X0241263Y0171285D02*
X0237200Y0171285D01*
X0237200Y0161300D02*
X0250300Y0161300D01*
X0250300Y0160301D02*
X0237200Y0160301D01*
X0237200Y0159303D02*
X0250616Y0159303D01*
X0250300Y0160067D02*
X0250300Y0162533D01*
X0251244Y0164812D01*
X0252988Y0166556D01*
X0255267Y0167500D01*
X0257733Y0167500D01*
X0260012Y0166556D01*
X0261756Y0164812D01*
X0262700Y0162533D01*
X0262700Y0160067D01*
X0261756Y0157788D01*
X0260012Y0156044D01*
X0257733Y0155100D01*
X0255267Y0155100D01*
X0252988Y0156044D01*
X0251244Y0157788D01*
X0250300Y0160067D01*
X0251030Y0158304D02*
X0237200Y0158304D01*
X0237200Y0157306D02*
X0251726Y0157306D01*
X0252724Y0156307D02*
X0237200Y0156307D01*
X0237200Y0155309D02*
X0254762Y0155309D01*
X0258238Y0155309D02*
X0261429Y0155309D01*
X0260431Y0154310D02*
X0237200Y0154310D01*
X0237200Y0153312D02*
X0259432Y0153312D01*
X0258807Y0152313D02*
X0237200Y0152313D01*
X0237200Y0151315D02*
X0258807Y0151315D01*
X0259768Y0150316D02*
X0240209Y0150316D01*
X0239250Y0150316D02*
X0238750Y0150316D01*
X0237791Y0150316D02*
X0237200Y0150316D01*
X0238750Y0149318D02*
X0239250Y0149318D01*
X0239250Y0148319D02*
X0238750Y0148319D01*
X0238750Y0147321D02*
X0239250Y0147321D01*
X0239250Y0146322D02*
X0238750Y0146322D01*
X0238750Y0145324D02*
X0239250Y0145324D01*
X0239250Y0144325D02*
X0238750Y0144325D01*
X0238750Y0143327D02*
X0239250Y0143327D01*
X0239250Y0142328D02*
X0238750Y0142328D01*
X0238750Y0141237D02*
X0239250Y0141237D01*
X0239250Y0137487D01*
X0239394Y0137487D01*
X0240167Y0137641D01*
X0240800Y0137903D01*
X0240800Y0132402D01*
X0241439Y0130858D01*
X0241981Y0130317D01*
X0235464Y0123800D01*
X0230940Y0123800D01*
X0231061Y0123921D01*
X0235379Y0128239D01*
X0236561Y0129421D01*
X0237200Y0130965D01*
X0237200Y0137903D01*
X0237833Y0137641D01*
X0238606Y0137487D01*
X0238750Y0137487D01*
X0238750Y0141237D01*
X0238750Y0140331D02*
X0239250Y0140331D01*
X0239250Y0139333D02*
X0238750Y0139333D01*
X0238750Y0138334D02*
X0239250Y0138334D01*
X0240800Y0137336D02*
X0237200Y0137336D01*
X0237200Y0136337D02*
X0240800Y0136337D01*
X0240800Y0135339D02*
X0237200Y0135339D01*
X0237200Y0134340D02*
X0240800Y0134340D01*
X0240800Y0133342D02*
X0237200Y0133342D01*
X0237200Y0132343D02*
X0240824Y0132343D01*
X0241238Y0131345D02*
X0237200Y0131345D01*
X0236944Y0130346D02*
X0241952Y0130346D01*
X0241012Y0129348D02*
X0236487Y0129348D01*
X0235489Y0128349D02*
X0240014Y0128349D01*
X0239015Y0127351D02*
X0234490Y0127351D01*
X0235379Y0128239D02*
X0235379Y0128239D01*
X0233492Y0126352D02*
X0238017Y0126352D01*
X0237018Y0125354D02*
X0232493Y0125354D01*
X0231495Y0124355D02*
X0236020Y0124355D01*
X0231061Y0123921D02*
X0231061Y0123921D01*
X0238098Y0119363D02*
X0272975Y0119363D01*
X0274145Y0119363D02*
X0274958Y0119363D01*
X0275144Y0120361D02*
X0275957Y0120361D01*
X0276034Y0121360D02*
X0276142Y0121360D01*
X0275848Y0122358D02*
X0275035Y0122358D01*
X0274850Y0123357D02*
X0242092Y0123357D01*
X0243091Y0124355D02*
X0275196Y0124355D01*
X0276241Y0125354D02*
X0244089Y0125354D01*
X0245088Y0126352D02*
X0275412Y0126352D01*
X0274414Y0127351D02*
X0246086Y0127351D01*
X0247085Y0128349D02*
X0273415Y0128349D01*
X0272417Y0129348D02*
X0247500Y0129348D01*
X0248048Y0130346D02*
X0271418Y0130346D01*
X0270420Y0131345D02*
X0248762Y0131345D01*
X0249176Y0132343D02*
X0269421Y0132343D01*
X0268423Y0133342D02*
X0249200Y0133342D01*
X0249200Y0134340D02*
X0267424Y0134340D01*
X0266426Y0135339D02*
X0249200Y0135339D01*
X0249200Y0136337D02*
X0265427Y0136337D01*
X0264429Y0137336D02*
X0249200Y0137336D01*
X0249200Y0138334D02*
X0263430Y0138334D01*
X0262432Y0139333D02*
X0249092Y0139333D01*
X0248679Y0140331D02*
X0261433Y0140331D01*
X0260435Y0141330D02*
X0247847Y0141330D01*
X0246099Y0142328D02*
X0259436Y0142328D01*
X0259000Y0143327D02*
X0243000Y0143327D01*
X0243000Y0144325D02*
X0259000Y0144325D01*
X0259000Y0145324D02*
X0243000Y0145324D01*
X0243000Y0146322D02*
X0259000Y0146322D01*
X0259000Y0147321D02*
X0242913Y0147321D01*
X0242571Y0148319D02*
X0259345Y0148319D01*
X0260292Y0149318D02*
X0241826Y0149318D01*
X0243000Y0142328D02*
X0243901Y0142328D01*
X0228800Y0150316D02*
X0228731Y0150316D01*
X0247815Y0162299D02*
X0250300Y0162299D01*
X0250616Y0163297D02*
X0249437Y0163297D01*
X0250435Y0164296D02*
X0251030Y0164296D01*
X0251434Y0165294D02*
X0251726Y0165294D01*
X0252432Y0166293D02*
X0252724Y0166293D01*
X0253431Y0167291D02*
X0254762Y0167291D01*
X0254429Y0168290D02*
X0274410Y0168290D01*
X0273411Y0167291D02*
X0258238Y0167291D01*
X0260276Y0166293D02*
X0272413Y0166293D01*
X0271414Y0165294D02*
X0261274Y0165294D01*
X0261970Y0164296D02*
X0270416Y0164296D01*
X0269417Y0163297D02*
X0262384Y0163297D01*
X0262700Y0162299D02*
X0268419Y0162299D01*
X0267420Y0161300D02*
X0262700Y0161300D01*
X0262700Y0160301D02*
X0266422Y0160301D01*
X0265423Y0159303D02*
X0262384Y0159303D01*
X0261970Y0158304D02*
X0264425Y0158304D01*
X0263426Y0157306D02*
X0261274Y0157306D01*
X0260276Y0156307D02*
X0262428Y0156307D01*
X0264000Y0145324D02*
X0264761Y0145324D01*
X0264510Y0144325D02*
X0265759Y0144325D01*
X0265509Y0143327D02*
X0270827Y0143327D01*
X0269829Y0142328D02*
X0266507Y0142328D01*
X0267506Y0141330D02*
X0269497Y0141330D01*
X0269753Y0140331D02*
X0268504Y0140331D01*
X0269503Y0139333D02*
X0270752Y0139333D01*
X0270501Y0138334D02*
X0271750Y0138334D01*
X0271500Y0137336D02*
X0272749Y0137336D01*
X0272498Y0136337D02*
X0273747Y0136337D01*
X0273497Y0135339D02*
X0274746Y0135339D01*
X0274495Y0134340D02*
X0275744Y0134340D01*
X0275494Y0133342D02*
X0278423Y0133342D01*
X0279421Y0132343D02*
X0276492Y0132343D01*
X0277491Y0131345D02*
X0280420Y0131345D01*
X0281418Y0130346D02*
X0278489Y0130346D01*
X0279488Y0129348D02*
X0282389Y0129348D01*
X0283388Y0128349D02*
X0280486Y0128349D01*
X0281485Y0127351D02*
X0283734Y0127351D01*
X0283734Y0126352D02*
X0282483Y0126352D01*
X0283482Y0125354D02*
X0284452Y0125354D01*
X0280941Y0120361D02*
X0279898Y0120361D01*
X0279942Y0119363D02*
X0278900Y0119363D01*
X0278844Y0119363D02*
X0278031Y0119363D01*
X0277901Y0118364D02*
X0278944Y0118364D01*
X0277945Y0117366D02*
X0276903Y0117366D01*
X0277022Y0116367D02*
X0205103Y0116367D01*
X0204500Y0115368D02*
X0213008Y0115368D01*
X0213750Y0115368D02*
X0214250Y0115368D01*
X0214992Y0115368D02*
X0277022Y0115368D01*
X0276045Y0114370D02*
X0264773Y0114370D01*
X0266640Y0113371D02*
X0275047Y0113371D01*
X0274048Y0112373D02*
X0267638Y0112373D01*
X0274973Y0117366D02*
X0206101Y0117366D01*
X0207100Y0118364D02*
X0273974Y0118364D01*
X0272262Y0120361D02*
X0239097Y0120361D01*
X0240095Y0121360D02*
X0272331Y0121360D01*
X0273199Y0122358D02*
X0241094Y0122358D01*
X0258262Y0111374D02*
X0218000Y0111374D01*
X0218000Y0110376D02*
X0257848Y0110376D01*
X0257797Y0109377D02*
X0218000Y0109377D01*
X0218000Y0108379D02*
X0257797Y0108379D01*
X0258096Y0107380D02*
X0256846Y0107380D01*
X0253154Y0107380D02*
X0220973Y0107380D01*
X0219027Y0107380D02*
X0218000Y0107380D01*
X0214250Y0107380D02*
X0213750Y0107380D01*
X0213750Y0108379D02*
X0214250Y0108379D01*
X0214250Y0109377D02*
X0213750Y0109377D01*
X0213750Y0110376D02*
X0214250Y0110376D01*
X0214250Y0111374D02*
X0213750Y0111374D01*
X0213750Y0112373D02*
X0214250Y0112373D01*
X0214250Y0113371D02*
X0213750Y0113371D01*
X0213750Y0114370D02*
X0214250Y0114370D01*
X0216774Y0114370D02*
X0261621Y0114370D01*
X0259754Y0113371D02*
X0217549Y0113371D01*
X0217902Y0112373D02*
X0258755Y0112373D01*
X0259981Y0104385D02*
X0260657Y0104385D01*
X0260395Y0103386D02*
X0291392Y0103386D01*
X0292638Y0104385D02*
X0265736Y0104385D01*
X0267039Y0105383D02*
X0293702Y0105383D01*
X0294765Y0106382D02*
X0267883Y0106382D01*
X0276127Y0107380D02*
X0295829Y0107380D01*
X0296892Y0108379D02*
X0277125Y0108379D01*
X0278124Y0109377D02*
X0297956Y0109377D01*
X0299019Y0110376D02*
X0279122Y0110376D01*
X0280121Y0111374D02*
X0300083Y0111374D01*
X0301147Y0112373D02*
X0282215Y0112373D01*
X0283214Y0113371D02*
X0302210Y0113371D01*
X0303274Y0114370D02*
X0284212Y0114370D01*
X0285211Y0115368D02*
X0304337Y0115368D01*
X0305253Y0116367D02*
X0285989Y0116367D01*
X0286101Y0117366D02*
X0300518Y0117366D01*
X0300573Y0117310D02*
X0300916Y0117113D01*
X0301297Y0117011D01*
X0301692Y0117011D01*
X0302073Y0117113D01*
X0302416Y0117310D01*
X0303744Y0118639D01*
X0301634Y0120749D01*
X0299384Y0118499D01*
X0300573Y0117310D01*
X0299520Y0118364D02*
X0287100Y0118364D01*
X0289908Y0119363D02*
X0290726Y0119363D01*
X0290359Y0119730D02*
X0292950Y0122322D01*
X0292950Y0122322D01*
X0290359Y0119730D01*
X0290990Y0120361D02*
X0290990Y0120361D01*
X0291988Y0121360D02*
X0291988Y0121360D01*
X0292951Y0122322D02*
X0292951Y0122322D01*
X0294568Y0120705D01*
X0296239Y0122375D01*
X0296436Y0122717D01*
X0296538Y0123099D01*
X0296538Y0123494D01*
X0296436Y0123875D01*
X0296239Y0124217D01*
X0295542Y0124914D01*
X0292951Y0122322D01*
X0292987Y0122358D02*
X0292987Y0122358D01*
X0293913Y0121360D02*
X0293913Y0121360D01*
X0294224Y0120361D02*
X0297523Y0120361D01*
X0297211Y0121360D02*
X0295223Y0121360D01*
X0296222Y0122358D02*
X0297653Y0122358D01*
X0298651Y0123357D02*
X0296538Y0123357D01*
X0296101Y0124355D02*
X0299650Y0124355D01*
X0299026Y0123357D02*
X0300396Y0123357D01*
X0300024Y0122358D02*
X0301394Y0122358D01*
X0301023Y0121360D02*
X0300875Y0121360D01*
X0301246Y0120361D02*
X0299876Y0120361D01*
X0300247Y0119363D02*
X0298878Y0119363D01*
X0298521Y0119363D02*
X0293226Y0119363D01*
X0293985Y0123357D02*
X0293985Y0123357D01*
X0294984Y0124355D02*
X0294984Y0124355D01*
X0295102Y0125354D02*
X0300648Y0125354D01*
X0301743Y0126352D02*
X0294387Y0126352D01*
X0293388Y0127351D02*
X0302363Y0127351D01*
X0303361Y0128349D02*
X0292390Y0128349D01*
X0291767Y0131300D02*
X0286634Y0136434D01*
X0284345Y0139333D02*
X0283612Y0139333D01*
X0283346Y0138334D02*
X0282614Y0138334D01*
X0282348Y0137336D02*
X0281615Y0137336D01*
X0284611Y0140331D02*
X0285343Y0140331D01*
X0285609Y0141330D02*
X0286971Y0141330D01*
X0286608Y0142328D02*
X0287623Y0142328D01*
X0287606Y0143327D02*
X0289891Y0143327D01*
X0289620Y0144325D02*
X0288605Y0144325D01*
X0289603Y0145324D02*
X0290644Y0145324D01*
X0290602Y0146322D02*
X0294118Y0146322D01*
X0293300Y0147321D02*
X0291600Y0147321D01*
X0292599Y0148319D02*
X0293283Y0148319D01*
X0293597Y0149318D02*
X0294056Y0149318D01*
X0294193Y0150316D02*
X0295054Y0150316D01*
X0295065Y0149318D02*
X0295878Y0149318D01*
X0296063Y0148319D02*
X0296876Y0148319D01*
X0297062Y0147321D02*
X0297114Y0147321D01*
X0297088Y0147294D02*
X0297494Y0146888D01*
X0295524Y0144917D01*
X0297130Y0143310D01*
X0297472Y0143113D01*
X0297854Y0143011D01*
X0298249Y0143011D01*
X0298630Y0143113D01*
X0298972Y0143310D01*
X0300022Y0144360D01*
X0297495Y0146888D01*
X0297901Y0147294D01*
X0300429Y0144767D01*
X0301400Y0145738D01*
X0301400Y0145063D01*
X0301887Y0143887D01*
X0302011Y0143764D01*
X0302011Y0143500D01*
X0301945Y0143566D01*
X0301603Y0143764D01*
X0301221Y0143866D01*
X0300826Y0143866D01*
X0300445Y0143764D01*
X0300103Y0143566D01*
X0298432Y0141895D01*
X0296761Y0140225D01*
X0296564Y0139883D01*
X0296462Y0139501D01*
X0296462Y0139106D01*
X0296564Y0138725D01*
X0296761Y0138383D01*
X0297458Y0137686D01*
X0298071Y0137073D01*
X0298071Y0136790D01*
X0299380Y0135481D01*
X0297398Y0133500D01*
X0292679Y0133500D01*
X0290783Y0135395D01*
X0291257Y0135869D01*
X0291257Y0136743D01*
X0291425Y0136743D01*
X0291806Y0136845D01*
X0292148Y0137043D01*
X0293476Y0138371D01*
X0291366Y0140481D01*
X0292051Y0141166D01*
X0294161Y0139056D01*
X0295490Y0140384D01*
X0295687Y0140727D01*
X0295789Y0141108D01*
X0295789Y0141503D01*
X0295687Y0141884D01*
X0295490Y0142227D01*
X0294300Y0143416D01*
X0292051Y0141166D01*
X0291366Y0141851D01*
X0293616Y0144100D01*
X0292427Y0145290D01*
X0293391Y0144325D02*
X0296115Y0144325D01*
X0295930Y0145324D02*
X0295117Y0145324D01*
X0297088Y0147294D01*
X0297875Y0147321D02*
X0297927Y0147321D01*
X0298060Y0146322D02*
X0298873Y0146322D01*
X0299059Y0145324D02*
X0299872Y0145324D01*
X0299987Y0144325D02*
X0301706Y0144325D01*
X0301400Y0145324D02*
X0300986Y0145324D01*
X0299863Y0143327D02*
X0298989Y0143327D01*
X0298865Y0142328D02*
X0295388Y0142328D01*
X0295789Y0141330D02*
X0297866Y0141330D01*
X0298432Y0141895D02*
X0300049Y0140278D01*
X0300049Y0140278D01*
X0300049Y0140278D01*
X0297458Y0137686D01*
X0300049Y0140278D01*
X0298432Y0141895D01*
X0298998Y0141330D02*
X0298998Y0141330D01*
X0299996Y0140331D02*
X0299996Y0140331D01*
X0299104Y0139333D02*
X0299104Y0139333D01*
X0298106Y0138334D02*
X0298106Y0138334D01*
X0297808Y0137336D02*
X0292441Y0137336D01*
X0293439Y0138334D02*
X0296810Y0138334D01*
X0296462Y0139333D02*
X0294438Y0139333D01*
X0293885Y0139333D02*
X0292515Y0139333D01*
X0292886Y0140331D02*
X0291516Y0140331D01*
X0291888Y0141330D02*
X0292215Y0141330D01*
X0291843Y0142328D02*
X0293213Y0142328D01*
X0292842Y0143327D02*
X0294212Y0143327D01*
X0294389Y0143327D02*
X0297114Y0143327D01*
X0296929Y0146322D02*
X0296116Y0146322D01*
X0298113Y0148319D02*
X0298926Y0148319D01*
X0299111Y0149318D02*
X0300862Y0149318D01*
X0300818Y0148319D02*
X0301400Y0148319D01*
X0299863Y0150316D02*
X0298821Y0150316D01*
X0298865Y0151315D02*
X0297796Y0151315D01*
X0297972Y0152313D02*
X0297429Y0152313D01*
X0296079Y0151315D02*
X0294193Y0151315D01*
X0293202Y0152313D02*
X0295333Y0152313D01*
X0294335Y0153312D02*
X0292204Y0153312D01*
X0291205Y0154310D02*
X0293302Y0154310D01*
X0291551Y0155309D02*
X0290207Y0155309D01*
X0290553Y0156307D02*
X0289208Y0156307D01*
X0289554Y0157306D02*
X0288210Y0157306D01*
X0288556Y0158304D02*
X0281204Y0158304D01*
X0280205Y0157306D02*
X0284807Y0157306D01*
X0283808Y0156307D02*
X0279207Y0156307D01*
X0278208Y0155309D02*
X0282810Y0155309D01*
X0281811Y0154310D02*
X0277210Y0154310D01*
X0276211Y0153312D02*
X0280813Y0153312D01*
X0279814Y0152313D02*
X0275213Y0152313D01*
X0274214Y0151315D02*
X0278816Y0151315D01*
X0277817Y0150316D02*
X0273216Y0150316D01*
X0272217Y0149318D02*
X0276818Y0149318D01*
X0275820Y0148319D02*
X0271219Y0148319D01*
X0270220Y0147321D02*
X0274821Y0147321D01*
X0273823Y0146322D02*
X0269222Y0146322D01*
X0268223Y0145324D02*
X0272824Y0145324D01*
X0271826Y0144325D02*
X0267225Y0144325D01*
X0282202Y0159303D02*
X0287557Y0159303D01*
X0286559Y0160301D02*
X0283201Y0160301D01*
X0283503Y0161300D02*
X0285560Y0161300D01*
X0284562Y0162299D02*
X0283217Y0162299D01*
X0283563Y0163297D02*
X0282218Y0163297D01*
X0282565Y0164296D02*
X0281220Y0164296D01*
X0281566Y0165294D02*
X0280221Y0165294D01*
X0280568Y0166293D02*
X0279223Y0166293D01*
X0279569Y0167291D02*
X0278224Y0167291D01*
X0278571Y0168290D02*
X0277226Y0168290D01*
X0277572Y0169288D02*
X0255428Y0169288D01*
X0249539Y0175279D02*
X0249200Y0175279D01*
X0249200Y0176278D02*
X0250538Y0176278D01*
X0251537Y0177276D02*
X0249200Y0177276D01*
X0249200Y0178275D02*
X0327549Y0178275D01*
X0326936Y0179273D02*
X0249117Y0179273D01*
X0248703Y0180272D02*
X0326323Y0180272D01*
X0325709Y0181270D02*
X0247907Y0181270D01*
X0246243Y0182269D02*
X0325064Y0182269D01*
X0324322Y0183267D02*
X0243000Y0183267D01*
X0243000Y0182269D02*
X0243757Y0182269D01*
X0243000Y0184266D02*
X0323579Y0184266D01*
X0322836Y0185264D02*
X0243000Y0185264D01*
X0243000Y0186263D02*
X0287050Y0186263D01*
X0287926Y0185900D02*
X0285941Y0186722D01*
X0284422Y0188241D01*
X0283600Y0190226D01*
X0283600Y0192374D01*
X0284422Y0194359D01*
X0284574Y0194511D01*
X0267647Y0211438D01*
X0265624Y0210600D01*
X0263357Y0210600D01*
X0261262Y0211468D01*
X0259658Y0213071D01*
X0258790Y0215166D01*
X0258790Y0217434D01*
X0259658Y0219529D01*
X0261262Y0221132D01*
X0263357Y0222000D01*
X0265624Y0222000D01*
X0267719Y0221132D01*
X0269323Y0219529D01*
X0270190Y0217434D01*
X0270190Y0215966D01*
X0289456Y0196700D01*
X0290074Y0196700D01*
X0292059Y0195878D01*
X0293578Y0194359D01*
X0294109Y0193076D01*
X0294181Y0193296D01*
X0294553Y0194025D01*
X0295034Y0194688D01*
X0295612Y0195266D01*
X0296275Y0195747D01*
X0297004Y0196119D01*
X0297782Y0196372D01*
X0298591Y0196500D01*
X0298700Y0196500D01*
X0298700Y0191600D01*
X0299300Y0191600D01*
X0304200Y0191600D01*
X0304200Y0191709D01*
X0304072Y0192518D01*
X0303819Y0193296D01*
X0303447Y0194025D01*
X0302966Y0194688D01*
X0302388Y0195266D01*
X0301725Y0195747D01*
X0300996Y0196119D01*
X0300218Y0196372D01*
X0299409Y0196500D01*
X0299300Y0196500D01*
X0299300Y0191600D01*
X0299300Y0191000D01*
X0304200Y0191000D01*
X0304200Y0190891D01*
X0304072Y0190082D01*
X0303819Y0189304D01*
X0303447Y0188575D01*
X0302966Y0187912D01*
X0302388Y0187334D01*
X0301725Y0186853D01*
X0300996Y0186481D01*
X0300218Y0186228D01*
X0299409Y0186100D01*
X0299300Y0186100D01*
X0299300Y0191000D01*
X0298700Y0191000D01*
X0298700Y0186100D01*
X0298591Y0186100D01*
X0297782Y0186228D01*
X0297004Y0186481D01*
X0296275Y0186853D01*
X0295612Y0187334D01*
X0295034Y0187912D01*
X0294553Y0188575D01*
X0294181Y0189304D01*
X0294109Y0189524D01*
X0293578Y0188241D01*
X0292059Y0186722D01*
X0290074Y0185900D01*
X0287926Y0185900D01*
X0285402Y0187261D02*
X0242924Y0187261D01*
X0242595Y0188260D02*
X0284414Y0188260D01*
X0284001Y0189258D02*
X0241886Y0189258D01*
X0229500Y0192254D02*
X0283600Y0192254D01*
X0283964Y0193252D02*
X0229500Y0193252D01*
X0229500Y0194251D02*
X0284377Y0194251D01*
X0283836Y0195249D02*
X0229086Y0195249D01*
X0228088Y0196248D02*
X0282837Y0196248D01*
X0281839Y0197246D02*
X0227089Y0197246D01*
X0226091Y0198245D02*
X0280840Y0198245D01*
X0279842Y0199243D02*
X0225092Y0199243D01*
X0224094Y0200242D02*
X0278843Y0200242D01*
X0277844Y0201240D02*
X0223095Y0201240D01*
X0222500Y0202239D02*
X0276846Y0202239D01*
X0275847Y0203237D02*
X0222500Y0203237D01*
X0222500Y0204236D02*
X0274849Y0204236D01*
X0273850Y0205234D02*
X0222937Y0205234D01*
X0223716Y0206233D02*
X0272852Y0206233D01*
X0271853Y0207232D02*
X0224129Y0207232D01*
X0224200Y0208230D02*
X0270855Y0208230D01*
X0269856Y0209229D02*
X0224200Y0209229D01*
X0224200Y0210227D02*
X0268858Y0210227D01*
X0267859Y0211226D02*
X0267134Y0211226D01*
X0270936Y0215220D02*
X0296255Y0215220D01*
X0295191Y0216218D02*
X0270190Y0216218D01*
X0270190Y0217217D02*
X0294128Y0217217D01*
X0293064Y0218215D02*
X0269867Y0218215D01*
X0269453Y0219214D02*
X0291901Y0219214D01*
X0290629Y0220212D02*
X0268639Y0220212D01*
X0267530Y0221211D02*
X0289356Y0221211D01*
X0288083Y0222209D02*
X0217935Y0222209D01*
X0218000Y0221211D02*
X0261451Y0221211D01*
X0260342Y0220212D02*
X0218000Y0220212D01*
X0218000Y0219214D02*
X0259528Y0219214D01*
X0259114Y0218215D02*
X0218000Y0218215D01*
X0218000Y0217217D02*
X0218632Y0217217D01*
X0221368Y0217217D02*
X0258790Y0217217D01*
X0258790Y0216218D02*
X0222959Y0216218D01*
X0223725Y0215220D02*
X0258790Y0215220D01*
X0259182Y0214221D02*
X0224139Y0214221D01*
X0224200Y0213223D02*
X0259595Y0213223D01*
X0260505Y0212224D02*
X0224200Y0212224D01*
X0224200Y0211226D02*
X0261846Y0211226D01*
X0271935Y0214221D02*
X0297318Y0214221D01*
X0298382Y0213223D02*
X0272933Y0213223D01*
X0273932Y0212224D02*
X0299446Y0212224D01*
X0300509Y0211226D02*
X0274930Y0211226D01*
X0275929Y0210227D02*
X0301573Y0210227D01*
X0302636Y0209229D02*
X0276927Y0209229D01*
X0277926Y0208230D02*
X0303700Y0208230D01*
X0304719Y0207232D02*
X0278924Y0207232D01*
X0279923Y0206233D02*
X0305609Y0206233D01*
X0306500Y0205234D02*
X0280922Y0205234D01*
X0281920Y0204236D02*
X0307390Y0204236D01*
X0308281Y0203237D02*
X0282919Y0203237D01*
X0283917Y0202239D02*
X0309171Y0202239D01*
X0310061Y0201240D02*
X0284916Y0201240D01*
X0285914Y0200242D02*
X0310952Y0200242D01*
X0311842Y0199243D02*
X0286913Y0199243D01*
X0287911Y0198245D02*
X0312733Y0198245D01*
X0313623Y0197246D02*
X0288910Y0197246D01*
X0291166Y0196248D02*
X0297401Y0196248D01*
X0298700Y0196248D02*
X0299300Y0196248D01*
X0299300Y0195249D02*
X0298700Y0195249D01*
X0298700Y0194251D02*
X0299300Y0194251D01*
X0299300Y0193252D02*
X0298700Y0193252D01*
X0298700Y0192254D02*
X0299300Y0192254D01*
X0299300Y0191255D02*
X0318380Y0191255D01*
X0319122Y0190257D02*
X0304100Y0190257D01*
X0303796Y0189258D02*
X0319865Y0189258D01*
X0320608Y0188260D02*
X0303219Y0188260D01*
X0302288Y0187261D02*
X0321351Y0187261D01*
X0322093Y0186263D02*
X0300325Y0186263D01*
X0299300Y0186263D02*
X0298700Y0186263D01*
X0298700Y0187261D02*
X0299300Y0187261D01*
X0299300Y0188260D02*
X0298700Y0188260D01*
X0298700Y0189258D02*
X0299300Y0189258D01*
X0299300Y0190257D02*
X0298700Y0190257D01*
X0297675Y0186263D02*
X0290950Y0186263D01*
X0292598Y0187261D02*
X0295712Y0187261D01*
X0294781Y0188260D02*
X0293586Y0188260D01*
X0293999Y0189258D02*
X0294204Y0189258D01*
X0294167Y0193252D02*
X0294036Y0193252D01*
X0293623Y0194251D02*
X0294716Y0194251D01*
X0295595Y0195249D02*
X0292687Y0195249D01*
X0300599Y0196248D02*
X0314514Y0196248D01*
X0315404Y0195249D02*
X0302405Y0195249D01*
X0303284Y0194251D02*
X0316151Y0194251D01*
X0315432Y0195218D02*
X0315432Y0195218D01*
X0316894Y0193252D02*
X0303833Y0193252D01*
X0304114Y0192254D02*
X0317637Y0192254D01*
X0328163Y0177276D02*
X0281463Y0177276D01*
X0282462Y0176278D02*
X0328776Y0176278D01*
X0329390Y0175279D02*
X0283461Y0175279D01*
X0284459Y0174281D02*
X0330003Y0174281D01*
X0330616Y0173282D02*
X0285458Y0173282D01*
X0286456Y0172284D02*
X0302964Y0172284D01*
X0303040Y0172328D02*
X0302698Y0172130D01*
X0300685Y0170117D01*
X0303897Y0166905D01*
X0303190Y0166197D01*
X0303897Y0165490D01*
X0300963Y0162556D01*
X0303255Y0160265D01*
X0303597Y0160067D01*
X0303978Y0159965D01*
X0304373Y0159965D01*
X0304755Y0160067D01*
X0305097Y0160265D01*
X0307110Y0162278D01*
X0303897Y0165490D01*
X0304605Y0166197D01*
X0307817Y0162985D01*
X0309830Y0164998D01*
X0310028Y0165340D01*
X0310130Y0165722D01*
X0310130Y0166117D01*
X0310028Y0166498D01*
X0309830Y0166840D01*
X0307539Y0169132D01*
X0304605Y0166197D01*
X0303897Y0166905D01*
X0306832Y0169839D01*
X0304540Y0172130D01*
X0304198Y0172328D01*
X0303817Y0172430D01*
X0303422Y0172430D01*
X0303040Y0172328D01*
X0304275Y0172284D02*
X0331230Y0172284D01*
X0331843Y0171285D02*
X0326685Y0171285D01*
X0326418Y0171372D02*
X0325609Y0171500D01*
X0322000Y0171500D01*
X0322000Y0166800D01*
X0321000Y0166800D01*
X0321000Y0171500D01*
X0317391Y0171500D01*
X0316582Y0171372D01*
X0315804Y0171119D01*
X0315075Y0170747D01*
X0314412Y0170266D01*
X0313834Y0169688D01*
X0313353Y0169025D01*
X0312981Y0168296D01*
X0312728Y0167518D01*
X0312614Y0166800D01*
X0321000Y0166800D01*
X0321000Y0165800D01*
X0312614Y0165800D01*
X0312728Y0165082D01*
X0312981Y0164304D01*
X0313353Y0163575D01*
X0313834Y0162912D01*
X0314412Y0162334D01*
X0315075Y0161853D01*
X0315804Y0161481D01*
X0316024Y0161409D01*
X0314741Y0160878D01*
X0313222Y0159359D01*
X0312400Y0157374D01*
X0312400Y0155226D01*
X0313222Y0153241D01*
X0314741Y0151722D01*
X0316726Y0150900D01*
X0326274Y0150900D01*
X0328259Y0151722D01*
X0329778Y0153241D01*
X0330600Y0155226D01*
X0330600Y0157374D01*
X0329778Y0159359D01*
X0328259Y0160878D01*
X0326976Y0161409D01*
X0327196Y0161481D01*
X0327925Y0161853D01*
X0328588Y0162334D01*
X0329166Y0162912D01*
X0329647Y0163575D01*
X0330019Y0164304D01*
X0330272Y0165082D01*
X0330386Y0165800D01*
X0322000Y0165800D01*
X0322000Y0166800D01*
X0330386Y0166800D01*
X0330272Y0167518D01*
X0330019Y0168296D01*
X0329647Y0169025D01*
X0329166Y0169688D01*
X0328588Y0170266D01*
X0327925Y0170747D01*
X0327196Y0171119D01*
X0326418Y0171372D01*
X0328560Y0170287D02*
X0332456Y0170287D01*
X0333070Y0169288D02*
X0329457Y0169288D01*
X0330021Y0168290D02*
X0333683Y0168290D01*
X0333850Y0168019D02*
X0333850Y0168019D01*
X0334233Y0167291D02*
X0330308Y0167291D01*
X0330305Y0165294D02*
X0335283Y0165294D01*
X0334758Y0166293D02*
X0322000Y0166293D01*
X0322000Y0167291D02*
X0321000Y0167291D01*
X0321000Y0166293D02*
X0310083Y0166293D01*
X0310001Y0165294D02*
X0312695Y0165294D01*
X0312985Y0164296D02*
X0309128Y0164296D01*
X0308129Y0163297D02*
X0313554Y0163297D01*
X0314461Y0162299D02*
X0307089Y0162299D01*
X0307505Y0163297D02*
X0306091Y0163297D01*
X0306506Y0164296D02*
X0305092Y0164296D01*
X0305508Y0165294D02*
X0304094Y0165294D01*
X0303701Y0165294D02*
X0302287Y0165294D01*
X0302703Y0164296D02*
X0301288Y0164296D01*
X0301704Y0163297D02*
X0300290Y0163297D01*
X0300256Y0163263D02*
X0303190Y0166197D01*
X0299978Y0169410D01*
X0297965Y0167397D01*
X0297767Y0167055D01*
X0297665Y0166673D01*
X0297665Y0166278D01*
X0297767Y0165897D01*
X0297965Y0165555D01*
X0300256Y0163263D01*
X0300222Y0163297D02*
X0298066Y0163297D01*
X0297068Y0164296D02*
X0299224Y0164296D01*
X0298225Y0165294D02*
X0293446Y0165294D01*
X0294444Y0164296D02*
X0294580Y0164296D01*
X0292447Y0166293D02*
X0297665Y0166293D01*
X0297903Y0167291D02*
X0291449Y0167291D01*
X0290450Y0168290D02*
X0298857Y0168290D01*
X0299856Y0169288D02*
X0289452Y0169288D01*
X0288453Y0170287D02*
X0300854Y0170287D01*
X0301514Y0169288D02*
X0300100Y0169288D01*
X0301098Y0168290D02*
X0302512Y0168290D01*
X0302097Y0167291D02*
X0303511Y0167291D01*
X0304284Y0167291D02*
X0305698Y0167291D01*
X0305282Y0168290D02*
X0306697Y0168290D01*
X0306281Y0169288D02*
X0313543Y0169288D01*
X0312979Y0168290D02*
X0308381Y0168290D01*
X0309379Y0167291D02*
X0312692Y0167291D01*
X0314440Y0170287D02*
X0306384Y0170287D01*
X0305385Y0171285D02*
X0316315Y0171285D01*
X0321000Y0171285D02*
X0322000Y0171285D01*
X0322000Y0170287D02*
X0321000Y0170287D01*
X0321000Y0169288D02*
X0322000Y0169288D01*
X0322000Y0168290D02*
X0321000Y0168290D01*
X0315760Y0161300D02*
X0306132Y0161300D01*
X0305134Y0160301D02*
X0314165Y0160301D01*
X0313199Y0159303D02*
X0302061Y0159303D01*
X0302535Y0158304D02*
X0312785Y0158304D01*
X0312400Y0157306D02*
X0302421Y0157306D01*
X0303135Y0156307D02*
X0312400Y0156307D01*
X0312400Y0155309D02*
X0304133Y0155309D01*
X0305132Y0154310D02*
X0312779Y0154310D01*
X0313193Y0153312D02*
X0306130Y0153312D01*
X0307023Y0152313D02*
X0314150Y0152313D01*
X0315724Y0151315D02*
X0307606Y0151315D01*
X0307800Y0150316D02*
X0330984Y0150316D01*
X0330371Y0149318D02*
X0307800Y0149318D01*
X0307800Y0148319D02*
X0329757Y0148319D01*
X0329144Y0147321D02*
X0308167Y0147321D01*
X0309166Y0146322D02*
X0328530Y0146322D01*
X0327917Y0145324D02*
X0310164Y0145324D01*
X0311163Y0144325D02*
X0327304Y0144325D01*
X0326690Y0143327D02*
X0312161Y0143327D01*
X0313160Y0142328D02*
X0326077Y0142328D01*
X0325463Y0141330D02*
X0314158Y0141330D01*
X0315157Y0140331D02*
X0324767Y0140331D01*
X0324024Y0139333D02*
X0315989Y0139333D01*
X0315989Y0138334D02*
X0323281Y0138334D01*
X0322539Y0137336D02*
X0315235Y0137336D01*
X0314236Y0136337D02*
X0321796Y0136337D01*
X0321053Y0135339D02*
X0313238Y0135339D01*
X0312239Y0134340D02*
X0320310Y0134340D01*
X0319568Y0133342D02*
X0310521Y0133342D01*
X0310416Y0133447D02*
X0310416Y0133447D01*
X0310772Y0134340D02*
X0309523Y0134340D01*
X0309503Y0135339D02*
X0309773Y0135339D01*
X0311285Y0132343D02*
X0318825Y0132343D01*
X0318082Y0131345D02*
X0311500Y0131345D01*
X0311500Y0130346D02*
X0317339Y0130346D01*
X0316597Y0129348D02*
X0311500Y0129348D01*
X0311500Y0128349D02*
X0315854Y0128349D01*
X0315047Y0127351D02*
X0311086Y0127351D01*
X0310989Y0126352D02*
X0314157Y0126352D01*
X0313267Y0125354D02*
X0310742Y0125354D01*
X0309743Y0124355D02*
X0312376Y0124355D01*
X0311486Y0123357D02*
X0308745Y0123357D01*
X0307746Y0122358D02*
X0310595Y0122358D01*
X0309705Y0121360D02*
X0306052Y0121360D01*
X0305466Y0120361D02*
X0308814Y0120361D01*
X0307924Y0119363D02*
X0304468Y0119363D01*
X0304390Y0119363D02*
X0303020Y0119363D01*
X0303391Y0120361D02*
X0302021Y0120361D01*
X0302244Y0121360D02*
X0302393Y0121360D01*
X0303469Y0118364D02*
X0307033Y0118364D01*
X0306143Y0117366D02*
X0302471Y0117366D01*
X0304360Y0129348D02*
X0299468Y0129348D01*
X0300467Y0130346D02*
X0305358Y0130346D01*
X0303516Y0131345D02*
X0301465Y0131345D01*
X0302464Y0132343D02*
X0302518Y0132343D01*
X0298310Y0131300D02*
X0291767Y0131300D01*
X0291838Y0134340D02*
X0298238Y0134340D01*
X0299237Y0135339D02*
X0290840Y0135339D01*
X0291257Y0136337D02*
X0298524Y0136337D01*
X0296868Y0140331D02*
X0295436Y0140331D01*
X0290845Y0141330D02*
X0290518Y0141330D01*
X0290889Y0142328D02*
X0289519Y0142328D01*
X0298310Y0131300D02*
X0303668Y0136659D01*
X0327276Y0151315D02*
X0331597Y0151315D01*
X0332211Y0152313D02*
X0328850Y0152313D01*
X0329807Y0153312D02*
X0332824Y0153312D01*
X0333438Y0154310D02*
X0330221Y0154310D01*
X0330600Y0155309D02*
X0334022Y0155309D01*
X0334547Y0156307D02*
X0330600Y0156307D01*
X0330600Y0157306D02*
X0335073Y0157306D01*
X0335598Y0158304D02*
X0330215Y0158304D01*
X0329801Y0159303D02*
X0336124Y0159303D01*
X0336649Y0160301D02*
X0328835Y0160301D01*
X0327240Y0161300D02*
X0337174Y0161300D01*
X0336859Y0162299D02*
X0328539Y0162299D01*
X0329446Y0163297D02*
X0336334Y0163297D01*
X0335809Y0164296D02*
X0330015Y0164296D01*
X0304700Y0166293D02*
X0304509Y0166293D01*
X0303285Y0166293D02*
X0303095Y0166293D01*
X0301221Y0162299D02*
X0299065Y0162299D01*
X0300063Y0161300D02*
X0302219Y0161300D01*
X0303218Y0160301D02*
X0301062Y0160301D01*
X0301853Y0171285D02*
X0287455Y0171285D01*
X0277845Y0120361D02*
X0277032Y0120361D01*
X0290119Y0102388D02*
X0260400Y0102388D01*
X0260400Y0101389D02*
X0288846Y0101389D01*
X0287573Y0100391D02*
X0260054Y0100391D01*
X0259641Y0099392D02*
X0286300Y0099392D01*
X0285027Y0098394D02*
X0258731Y0098394D01*
X0257270Y0097395D02*
X0283754Y0097395D01*
X0282481Y0096397D02*
X0252203Y0096397D01*
X0252203Y0095398D02*
X0281208Y0095398D01*
X0279935Y0094400D02*
X0252203Y0094400D01*
X0251811Y0093401D02*
X0278475Y0093401D01*
X0276939Y0092403D02*
X0251398Y0092403D01*
X0250422Y0091404D02*
X0275404Y0091404D01*
X0273868Y0090406D02*
X0248803Y0090406D01*
X0244803Y0090406D02*
X0208073Y0090406D01*
X0209544Y0091404D02*
X0243185Y0091404D01*
X0242209Y0092403D02*
X0210542Y0092403D01*
X0211541Y0093401D02*
X0241795Y0093401D01*
X0241403Y0094400D02*
X0221710Y0094400D01*
X0223101Y0095398D02*
X0241403Y0095398D01*
X0241403Y0096397D02*
X0223784Y0096397D01*
X0224197Y0097395D02*
X0241776Y0097395D01*
X0242189Y0098394D02*
X0224200Y0098394D01*
X0224200Y0099392D02*
X0243137Y0099392D01*
X0244688Y0100391D02*
X0224200Y0100391D01*
X0224200Y0101389D02*
X0249600Y0101389D01*
X0249600Y0102388D02*
X0224200Y0102388D01*
X0224200Y0103386D02*
X0249605Y0103386D01*
X0250019Y0104385D02*
X0224071Y0104385D01*
X0223657Y0105383D02*
X0250447Y0105383D01*
X0251445Y0106382D02*
X0222795Y0106382D01*
X0215800Y0102388D02*
X0212200Y0102388D01*
X0212200Y0101389D02*
X0215800Y0101389D01*
X0215800Y0100391D02*
X0212200Y0100391D01*
X0212200Y0099392D02*
X0215800Y0099392D01*
X0215800Y0098394D02*
X0212200Y0098394D01*
X0212200Y0097395D02*
X0215803Y0097395D01*
X0216216Y0096397D02*
X0212200Y0096397D01*
X0212200Y0095398D02*
X0216899Y0095398D01*
X0218290Y0094400D02*
X0211966Y0094400D01*
X0213750Y0103386D02*
X0214250Y0103386D01*
X0214250Y0104385D02*
X0213750Y0104385D01*
X0213750Y0105383D02*
X0214250Y0105383D01*
X0210000Y0107380D02*
X0208973Y0107380D01*
X0210000Y0108379D02*
X0206200Y0108379D01*
X0206200Y0109377D02*
X0210000Y0109377D01*
X0210000Y0110376D02*
X0206200Y0110376D01*
X0206200Y0111374D02*
X0210000Y0111374D01*
X0210098Y0112373D02*
X0206179Y0112373D01*
X0205766Y0113371D02*
X0210451Y0113371D01*
X0211226Y0114370D02*
X0205057Y0114370D01*
X0206200Y0107380D02*
X0207027Y0107380D01*
X0193459Y0093401D02*
X0183857Y0093401D01*
X0184200Y0092403D02*
X0194458Y0092403D01*
X0195456Y0091404D02*
X0184200Y0091404D01*
X0184200Y0090406D02*
X0196927Y0090406D01*
X0192461Y0094400D02*
X0183277Y0094400D01*
X0182137Y0095398D02*
X0191462Y0095398D01*
X0190464Y0096397D02*
X0178000Y0096397D01*
X0178000Y0097395D02*
X0189465Y0097395D01*
X0188744Y0098394D02*
X0178000Y0098394D01*
X0178000Y0099392D02*
X0188330Y0099392D01*
X0188300Y0100391D02*
X0177998Y0100391D01*
X0177749Y0101389D02*
X0188300Y0101389D01*
X0188300Y0102388D02*
X0177207Y0102388D01*
X0176113Y0103386D02*
X0188300Y0103386D01*
X0188300Y0104385D02*
X0186023Y0104385D01*
X0187523Y0105383D02*
X0188300Y0105383D01*
X0183632Y0113371D02*
X0164500Y0113371D01*
X0164500Y0112373D02*
X0172358Y0112373D01*
X0170635Y0111374D02*
X0164500Y0111374D01*
X0164500Y0110376D02*
X0169636Y0110376D01*
X0168638Y0109377D02*
X0164500Y0109377D01*
X0164500Y0108379D02*
X0167639Y0108379D01*
X0166641Y0107380D02*
X0164500Y0107380D01*
X0164500Y0106382D02*
X0165642Y0106382D01*
X0164644Y0105383D02*
X0164500Y0105383D01*
X0159500Y0105383D02*
X0143657Y0105383D01*
X0144071Y0104385D02*
X0159500Y0104385D01*
X0159459Y0103386D02*
X0144200Y0103386D01*
X0144200Y0102388D02*
X0158461Y0102388D01*
X0158035Y0101389D02*
X0144200Y0101389D01*
X0144200Y0100391D02*
X0157800Y0100391D01*
X0157800Y0099392D02*
X0144200Y0099392D01*
X0144200Y0098394D02*
X0157800Y0098394D01*
X0157800Y0097395D02*
X0144197Y0097395D01*
X0143784Y0096397D02*
X0157800Y0096397D01*
X0157800Y0095398D02*
X0143101Y0095398D01*
X0141710Y0094400D02*
X0157800Y0094400D01*
X0158111Y0093401D02*
X0132338Y0093401D01*
X0132200Y0094400D02*
X0138290Y0094400D01*
X0136899Y0095398D02*
X0132200Y0095398D01*
X0132200Y0096397D02*
X0136216Y0096397D01*
X0135803Y0097395D02*
X0132200Y0097395D01*
X0132200Y0098394D02*
X0135800Y0098394D01*
X0135800Y0099392D02*
X0132200Y0099392D01*
X0132200Y0100391D02*
X0135800Y0100391D01*
X0135800Y0101389D02*
X0132200Y0101389D01*
X0132200Y0102388D02*
X0135800Y0102388D01*
X0134250Y0103386D02*
X0133750Y0103386D01*
X0133750Y0104385D02*
X0134250Y0104385D01*
X0134250Y0105383D02*
X0133750Y0105383D01*
X0133750Y0107380D02*
X0134250Y0107380D01*
X0134250Y0108379D02*
X0133750Y0108379D01*
X0133750Y0109377D02*
X0134250Y0109377D01*
X0134250Y0110376D02*
X0133750Y0110376D01*
X0133750Y0111374D02*
X0134250Y0111374D01*
X0134250Y0112373D02*
X0133750Y0112373D01*
X0133750Y0113371D02*
X0134250Y0113371D01*
X0134250Y0114370D02*
X0133750Y0114370D01*
X0133750Y0115368D02*
X0134250Y0115368D01*
X0134992Y0115368D02*
X0159500Y0115368D01*
X0159500Y0114370D02*
X0136774Y0114370D01*
X0137549Y0113371D02*
X0159500Y0113371D01*
X0159500Y0112373D02*
X0137902Y0112373D01*
X0138000Y0111374D02*
X0159500Y0111374D01*
X0159500Y0110376D02*
X0138000Y0110376D01*
X0138000Y0109377D02*
X0159500Y0109377D01*
X0159500Y0108379D02*
X0138000Y0108379D01*
X0138000Y0107380D02*
X0139027Y0107380D01*
X0140973Y0107380D02*
X0159500Y0107380D01*
X0159500Y0106382D02*
X0142795Y0106382D01*
X0133008Y0115368D02*
X0132200Y0115368D01*
X0132200Y0116367D02*
X0159500Y0116367D01*
X0159500Y0117366D02*
X0132200Y0117366D01*
X0132200Y0118364D02*
X0159528Y0118364D01*
X0160027Y0119363D02*
X0132200Y0119363D01*
X0132200Y0120361D02*
X0161026Y0120361D01*
X0162024Y0121360D02*
X0132200Y0121360D01*
X0132200Y0122358D02*
X0163023Y0122358D01*
X0166100Y0118364D02*
X0188624Y0118364D01*
X0187626Y0117366D02*
X0165101Y0117366D01*
X0164500Y0116367D02*
X0186627Y0116367D01*
X0185629Y0115368D02*
X0164500Y0115368D01*
X0164500Y0114370D02*
X0184630Y0114370D01*
X0189623Y0119363D02*
X0167098Y0119363D01*
X0168097Y0120361D02*
X0190621Y0120361D01*
X0191620Y0121360D02*
X0169095Y0121360D01*
X0170094Y0122358D02*
X0192618Y0122358D01*
X0193617Y0123357D02*
X0171092Y0123357D01*
X0172091Y0124355D02*
X0194615Y0124355D01*
X0195614Y0125354D02*
X0173089Y0125354D01*
X0174088Y0126352D02*
X0196612Y0126352D01*
X0197611Y0127351D02*
X0175086Y0127351D01*
X0176085Y0128349D02*
X0198609Y0128349D01*
X0199608Y0129348D02*
X0177083Y0129348D01*
X0178082Y0130346D02*
X0201293Y0130346D01*
X0191464Y0149800D02*
X0206000Y0164336D01*
X0206000Y0170345D01*
X0205830Y0170516D01*
X0205350Y0171673D01*
X0205350Y0172927D01*
X0205712Y0173800D01*
X0201416Y0173800D01*
X0201118Y0173501D01*
X0201118Y0173218D01*
X0201285Y0173218D01*
X0201667Y0173115D01*
X0202009Y0172918D01*
X0202989Y0171937D01*
X0200810Y0169758D01*
X0201077Y0169491D01*
X0203257Y0171670D01*
X0204237Y0170690D01*
X0204434Y0170348D01*
X0204537Y0169966D01*
X0204537Y0169571D01*
X0204434Y0169190D01*
X0204237Y0168848D01*
X0202978Y0167589D01*
X0201077Y0169490D01*
X0200810Y0169223D01*
X0202711Y0167322D01*
X0201452Y0166063D01*
X0201110Y0165866D01*
X0200729Y0165763D01*
X0200334Y0165763D01*
X0199952Y0165866D01*
X0199610Y0166063D01*
X0198630Y0167043D01*
X0200809Y0169223D01*
X0200542Y0169490D01*
X0198362Y0167311D01*
X0197382Y0168291D01*
X0197185Y0168633D01*
X0197082Y0169015D01*
X0197082Y0169182D01*
X0197082Y0169182D01*
X0196910Y0169011D01*
X0195918Y0168600D01*
X0194040Y0168600D01*
X0195491Y0167149D01*
X0195491Y0165741D01*
X0194780Y0165031D01*
X0195700Y0164111D01*
X0195700Y0164055D01*
X0196170Y0163584D01*
X0196650Y0162427D01*
X0196650Y0161173D01*
X0196170Y0160016D01*
X0195284Y0159130D01*
X0194127Y0158650D01*
X0193700Y0158650D01*
X0195491Y0156859D01*
X0195491Y0155451D01*
X0192939Y0152899D01*
X0190712Y0150672D01*
X0189840Y0149800D01*
X0191464Y0149800D01*
X0191981Y0150316D02*
X0190356Y0150316D01*
X0191355Y0151315D02*
X0192979Y0151315D01*
X0192353Y0152313D02*
X0193978Y0152313D01*
X0193352Y0153312D02*
X0194976Y0153312D01*
X0194350Y0154310D02*
X0195975Y0154310D01*
X0195349Y0155309D02*
X0196973Y0155309D01*
X0197972Y0156307D02*
X0195491Y0156307D01*
X0195044Y0157306D02*
X0198970Y0157306D01*
X0199969Y0158304D02*
X0194045Y0158304D01*
X0195458Y0159303D02*
X0200967Y0159303D01*
X0201966Y0160301D02*
X0196289Y0160301D01*
X0196650Y0161300D02*
X0202964Y0161300D01*
X0203963Y0162299D02*
X0196650Y0162299D01*
X0196289Y0163297D02*
X0204961Y0163297D01*
X0205960Y0164296D02*
X0195516Y0164296D01*
X0195044Y0165294D02*
X0206000Y0165294D01*
X0206000Y0166293D02*
X0201682Y0166293D01*
X0202680Y0167291D02*
X0206000Y0167291D01*
X0206000Y0168290D02*
X0203679Y0168290D01*
X0204461Y0169288D02*
X0206000Y0169288D01*
X0206000Y0170287D02*
X0204451Y0170287D01*
X0203642Y0171285D02*
X0205511Y0171285D01*
X0205350Y0172284D02*
X0202643Y0172284D01*
X0202871Y0171285D02*
X0202337Y0171285D01*
X0201873Y0170287D02*
X0201338Y0170287D01*
X0201279Y0169288D02*
X0200874Y0169288D01*
X0200745Y0169288D02*
X0200340Y0169288D01*
X0199876Y0168290D02*
X0199341Y0168290D01*
X0198877Y0167291D02*
X0195349Y0167291D01*
X0195491Y0166293D02*
X0199381Y0166293D01*
X0197384Y0168290D02*
X0194350Y0168290D01*
X0191245Y0165455D02*
X0193500Y0163200D01*
X0193500Y0161800D01*
X0191245Y0157145D02*
X0188090Y0160300D01*
X0187500Y0160300D01*
X0186136Y0157800D02*
X0184500Y0157800D01*
X0178000Y0151300D01*
X0176500Y0151300D01*
X0186136Y0157800D02*
X0189018Y0154918D01*
X0191155Y0157145D02*
X0191245Y0157145D01*
X0201743Y0168290D02*
X0202278Y0168290D01*
X0201118Y0173282D02*
X0205497Y0173282D01*
X0198820Y0178275D02*
X0196118Y0178275D01*
X0195886Y0177276D02*
X0197822Y0177276D01*
X0198262Y0177716D02*
X0198262Y0177716D01*
X0196006Y0176278D02*
X0194887Y0176278D01*
X0195007Y0175279D02*
X0193889Y0175279D01*
X0194009Y0174281D02*
X0191081Y0174281D01*
X0190799Y0173282D02*
X0190082Y0173282D01*
X0184321Y0176278D02*
X0184180Y0176278D01*
X0183323Y0175279D02*
X0183181Y0175279D01*
X0178760Y0172284D02*
X0170595Y0172284D01*
X0172446Y0173282D02*
X0177478Y0173282D01*
X0176480Y0174281D02*
X0173935Y0174281D01*
X0174487Y0175279D02*
X0175481Y0175279D01*
X0165519Y0159303D02*
X0155536Y0159303D01*
X0156535Y0158304D02*
X0163166Y0158304D01*
X0162168Y0157306D02*
X0157534Y0157306D01*
X0158249Y0156307D02*
X0161169Y0156307D01*
X0160171Y0155309D02*
X0159248Y0155309D01*
X0158898Y0155309D02*
X0158757Y0155309D01*
X0157900Y0154310D02*
X0157758Y0154310D01*
X0156901Y0153312D02*
X0156760Y0153312D01*
X0156138Y0152691D02*
X0156209Y0152620D01*
X0153416Y0149827D01*
X0154052Y0149191D01*
X0153362Y0148500D01*
X0149911Y0148500D01*
X0149542Y0148870D01*
X0149737Y0149065D01*
X0149737Y0150473D01*
X0146792Y0153418D01*
X0146118Y0153418D01*
X0146118Y0154092D01*
X0143173Y0157037D01*
X0141765Y0157037D01*
X0141700Y0156972D01*
X0141700Y0161389D01*
X0148411Y0168100D01*
X0149432Y0169121D01*
X0149457Y0169097D01*
X0147509Y0167149D01*
X0147509Y0165741D01*
X0148149Y0165102D01*
X0147389Y0164341D01*
X0147127Y0164450D01*
X0145873Y0164450D01*
X0144716Y0163970D01*
X0143830Y0163084D01*
X0143350Y0161927D01*
X0143350Y0160673D01*
X0143830Y0159516D01*
X0144716Y0158630D01*
X0145873Y0158150D01*
X0147127Y0158150D01*
X0148284Y0158630D01*
X0149170Y0159516D01*
X0149243Y0159690D01*
X0149900Y0160347D01*
X0151401Y0161849D01*
X0151950Y0161300D01*
X0150852Y0161300D01*
X0150952Y0160301D02*
X0149854Y0160301D01*
X0149953Y0159303D02*
X0148958Y0159303D01*
X0148955Y0158304D02*
X0147499Y0158304D01*
X0147956Y0157306D02*
X0141700Y0157306D01*
X0141700Y0158304D02*
X0145500Y0158304D01*
X0144042Y0159303D02*
X0141700Y0159303D01*
X0141700Y0160301D02*
X0143504Y0160301D01*
X0143350Y0161300D02*
X0141700Y0161300D01*
X0142610Y0162299D02*
X0143504Y0162299D01*
X0143608Y0163297D02*
X0144042Y0163297D01*
X0144607Y0164296D02*
X0145501Y0164296D01*
X0145605Y0165294D02*
X0147956Y0165294D01*
X0147509Y0166293D02*
X0146604Y0166293D01*
X0147602Y0167291D02*
X0147651Y0167291D01*
X0148601Y0168290D02*
X0148650Y0168290D01*
X0147500Y0170300D02*
X0147500Y0171419D01*
X0145810Y0173110D01*
X0148500Y0175800D01*
X0147500Y0170300D02*
X0139500Y0162300D01*
X0139500Y0155800D01*
X0142190Y0153110D01*
X0144901Y0155309D02*
X0147651Y0155309D01*
X0147509Y0155451D02*
X0149737Y0153224D01*
X0152288Y0150672D01*
X0152571Y0150672D01*
X0153345Y0149897D01*
X0156138Y0152691D01*
X0155903Y0152313D02*
X0155761Y0152313D01*
X0154904Y0151315D02*
X0154763Y0151315D01*
X0153906Y0150316D02*
X0153764Y0150316D01*
X0152927Y0150316D02*
X0149737Y0150316D01*
X0149737Y0149318D02*
X0153925Y0149318D01*
X0151645Y0151315D02*
X0148895Y0151315D01*
X0147896Y0152313D02*
X0150647Y0152313D01*
X0149648Y0153312D02*
X0146898Y0153312D01*
X0145899Y0154310D02*
X0148650Y0154310D01*
X0147509Y0155451D02*
X0147509Y0156859D01*
X0151950Y0161300D01*
X0147509Y0156307D02*
X0143902Y0156307D01*
X0145810Y0149490D02*
X0149000Y0146300D01*
X0154273Y0146300D01*
X0158436Y0150463D01*
X0164273Y0156300D01*
X0166500Y0156300D01*
X0165118Y0143782D02*
X0162636Y0141300D01*
X0161500Y0141300D01*
X0160000Y0142800D01*
X0158819Y0142800D01*
X0156159Y0140141D01*
X0153994Y0142328D02*
X0133411Y0142328D01*
X0134410Y0141330D02*
X0152996Y0141330D01*
X0151997Y0140331D02*
X0135205Y0140331D01*
X0135618Y0139333D02*
X0151119Y0139333D01*
X0151119Y0138334D02*
X0135700Y0138334D01*
X0135700Y0137336D02*
X0151827Y0137336D01*
X0152826Y0136337D02*
X0135700Y0136337D01*
X0135700Y0135339D02*
X0153825Y0135339D01*
X0155106Y0134340D02*
X0135700Y0134340D01*
X0163082Y0129348D02*
X0170012Y0129348D01*
X0171011Y0130346D02*
X0164080Y0130346D01*
X0165079Y0131345D02*
X0172009Y0131345D01*
X0173008Y0132343D02*
X0166077Y0132343D01*
X0167076Y0133342D02*
X0174006Y0133342D01*
X0175005Y0134340D02*
X0167881Y0134340D01*
X0167881Y0135339D02*
X0176003Y0135339D01*
X0177002Y0136337D02*
X0167700Y0136337D01*
X0170081Y0140331D02*
X0172919Y0140331D01*
X0171921Y0141330D02*
X0171079Y0141330D01*
X0142190Y0169490D02*
X0140000Y0171681D01*
X0140000Y0184800D01*
X0146500Y0191300D01*
X0172200Y0215220D02*
X0181545Y0215220D01*
X0180546Y0216218D02*
X0172200Y0216218D01*
X0172200Y0217217D02*
X0179548Y0217217D01*
X0178549Y0218215D02*
X0172200Y0218215D01*
X0172200Y0219214D02*
X0177744Y0219214D01*
X0177086Y0220212D02*
X0172200Y0220212D01*
X0172200Y0221211D02*
X0176293Y0221211D01*
X0175880Y0222209D02*
X0172200Y0222209D01*
X0172200Y0223208D02*
X0175800Y0223208D01*
X0175800Y0224206D02*
X0172200Y0224206D01*
X0172200Y0225205D02*
X0175800Y0225205D01*
X0175800Y0226203D02*
X0172200Y0226203D01*
X0172200Y0227202D02*
X0175800Y0227202D01*
X0174250Y0228200D02*
X0173750Y0228200D01*
X0173750Y0229199D02*
X0174250Y0229199D01*
X0174250Y0230197D02*
X0173750Y0230197D01*
X0173750Y0231196D02*
X0174250Y0231196D01*
X0174250Y0232194D02*
X0173750Y0232194D01*
X0173750Y0233193D02*
X0174250Y0233193D01*
X0174250Y0234191D02*
X0173750Y0234191D01*
X0173750Y0235190D02*
X0174250Y0235190D01*
X0174250Y0236188D02*
X0173750Y0236188D01*
X0173750Y0237187D02*
X0174250Y0237187D01*
X0174250Y0238185D02*
X0173750Y0238185D01*
X0173750Y0239184D02*
X0174250Y0239184D01*
X0174250Y0240182D02*
X0173750Y0240182D01*
X0172468Y0240182D02*
X0164055Y0240182D01*
X0165243Y0239184D02*
X0171040Y0239184D01*
X0170374Y0238185D02*
X0165843Y0238185D01*
X0166200Y0237187D02*
X0170061Y0237187D01*
X0170000Y0236188D02*
X0166200Y0236188D01*
X0166200Y0235190D02*
X0170000Y0235190D01*
X0170000Y0234191D02*
X0166200Y0234191D01*
X0166200Y0233193D02*
X0170000Y0233193D01*
X0170000Y0232194D02*
X0169422Y0232194D01*
X0166578Y0232194D02*
X0166200Y0232194D01*
X0157800Y0232194D02*
X0068917Y0232194D01*
X0067381Y0231196D02*
X0157800Y0231196D01*
X0157174Y0230197D02*
X0065845Y0230197D01*
X0064309Y0229199D02*
X0156176Y0229199D01*
X0155177Y0228200D02*
X0062955Y0228200D01*
X0061682Y0227202D02*
X0154179Y0227202D01*
X0151183Y0224206D02*
X0136938Y0224206D01*
X0137617Y0223208D02*
X0150185Y0223208D01*
X0149186Y0222209D02*
X0137935Y0222209D01*
X0138000Y0221211D02*
X0148188Y0221211D01*
X0147189Y0220212D02*
X0138000Y0220212D01*
X0138000Y0219214D02*
X0146191Y0219214D01*
X0145192Y0218215D02*
X0138000Y0218215D01*
X0138000Y0217217D02*
X0138632Y0217217D01*
X0141368Y0217217D02*
X0144194Y0217217D01*
X0143195Y0216218D02*
X0142959Y0216218D01*
X0132522Y0225205D02*
X0124001Y0225205D01*
X0125221Y0224206D02*
X0131062Y0224206D01*
X0130383Y0223208D02*
X0125833Y0223208D01*
X0126200Y0222209D02*
X0130065Y0222209D01*
X0130000Y0221211D02*
X0126200Y0221211D01*
X0126200Y0220212D02*
X0130000Y0220212D01*
X0130000Y0219214D02*
X0126200Y0219214D01*
X0126200Y0218215D02*
X0130000Y0218215D01*
X0130000Y0217217D02*
X0129368Y0217217D01*
X0126632Y0217217D02*
X0126200Y0217217D01*
X0138989Y0243701D02*
X0142370Y0242300D01*
X0146030Y0242300D01*
X0149411Y0243701D01*
X0151999Y0246289D01*
X0153400Y0249670D01*
X0153400Y0253330D01*
X0151999Y0256711D01*
X0149411Y0259299D01*
X0146030Y0260700D01*
X0142370Y0260700D01*
X0138989Y0259299D01*
X0136401Y0256711D01*
X0135000Y0253330D01*
X0135000Y0249670D01*
X0136401Y0246289D01*
X0138989Y0243701D01*
X0138513Y0244176D02*
X0089540Y0244176D01*
X0087658Y0243178D02*
X0140250Y0243178D01*
X0137514Y0245175D02*
X0091422Y0245175D01*
X0093605Y0246173D02*
X0136516Y0246173D01*
X0136035Y0247172D02*
X0095973Y0247172D01*
X0098340Y0248170D02*
X0135621Y0248170D01*
X0135208Y0249169D02*
X0100708Y0249169D01*
X0103076Y0250168D02*
X0135000Y0250168D01*
X0135000Y0251166D02*
X0105443Y0251166D01*
X0107976Y0252165D02*
X0135000Y0252165D01*
X0135000Y0253163D02*
X0111088Y0253163D01*
X0114201Y0254162D02*
X0135344Y0254162D01*
X0135758Y0255160D02*
X0117314Y0255160D01*
X0120427Y0256159D02*
X0136172Y0256159D01*
X0136846Y0257157D02*
X0123792Y0257157D01*
X0128221Y0258156D02*
X0137845Y0258156D01*
X0138843Y0259154D02*
X0132651Y0259154D01*
X0137080Y0260153D02*
X0141049Y0260153D01*
X0143241Y0261151D02*
X0163340Y0261151D01*
X0163989Y0261799D02*
X0161401Y0259211D01*
X0160000Y0255830D01*
X0160000Y0252170D01*
X0161401Y0248789D01*
X0163989Y0246201D01*
X0167370Y0244800D01*
X0171030Y0244800D01*
X0174411Y0246201D01*
X0176999Y0248789D01*
X0178400Y0252170D01*
X0178400Y0255830D01*
X0176999Y0259211D01*
X0174411Y0261799D01*
X0171030Y0263200D01*
X0167370Y0263200D01*
X0163989Y0261799D01*
X0164834Y0262150D02*
X0150702Y0262150D01*
X0149557Y0259154D02*
X0161377Y0259154D01*
X0160963Y0258156D02*
X0150555Y0258156D01*
X0151554Y0257157D02*
X0160550Y0257157D01*
X0160136Y0256159D02*
X0152228Y0256159D01*
X0152642Y0255160D02*
X0160000Y0255160D01*
X0160000Y0254162D02*
X0153056Y0254162D01*
X0153400Y0253163D02*
X0160000Y0253163D01*
X0160002Y0252165D02*
X0153400Y0252165D01*
X0153400Y0251166D02*
X0160416Y0251166D01*
X0160829Y0250168D02*
X0153400Y0250168D01*
X0153192Y0249169D02*
X0161243Y0249169D01*
X0162019Y0248170D02*
X0152779Y0248170D01*
X0152365Y0247172D02*
X0163017Y0247172D01*
X0164054Y0246173D02*
X0151884Y0246173D01*
X0150886Y0245175D02*
X0166465Y0245175D01*
X0171935Y0245175D02*
X0187514Y0245175D01*
X0186516Y0246173D02*
X0174346Y0246173D01*
X0175383Y0247172D02*
X0186035Y0247172D01*
X0186401Y0246289D02*
X0188989Y0243701D01*
X0192370Y0242300D01*
X0196030Y0242300D01*
X0199411Y0243701D01*
X0201999Y0246289D01*
X0203400Y0249670D01*
X0203400Y0253330D01*
X0201999Y0256711D01*
X0199411Y0259299D01*
X0196030Y0260700D01*
X0192370Y0260700D01*
X0188989Y0259299D01*
X0186401Y0256711D01*
X0185000Y0253330D01*
X0185000Y0249670D01*
X0186401Y0246289D01*
X0185621Y0248170D02*
X0176381Y0248170D01*
X0177157Y0249169D02*
X0185208Y0249169D01*
X0185000Y0250168D02*
X0177571Y0250168D01*
X0177984Y0251166D02*
X0185000Y0251166D01*
X0185000Y0252165D02*
X0178398Y0252165D01*
X0178400Y0253163D02*
X0185000Y0253163D01*
X0185344Y0254162D02*
X0178400Y0254162D01*
X0178400Y0255160D02*
X0185758Y0255160D01*
X0186172Y0256159D02*
X0178264Y0256159D01*
X0177850Y0257157D02*
X0186846Y0257157D01*
X0187845Y0258156D02*
X0177437Y0258156D01*
X0177023Y0259154D02*
X0188843Y0259154D01*
X0191049Y0260153D02*
X0176058Y0260153D01*
X0175060Y0261151D02*
X0200159Y0261151D01*
X0199557Y0259154D02*
X0210749Y0259154D01*
X0206320Y0260153D02*
X0197351Y0260153D01*
X0200555Y0258156D02*
X0215179Y0258156D01*
X0219608Y0257157D02*
X0201554Y0257157D01*
X0202228Y0256159D02*
X0222973Y0256159D01*
X0226086Y0255160D02*
X0202642Y0255160D01*
X0203056Y0254162D02*
X0229199Y0254162D01*
X0232312Y0253163D02*
X0203400Y0253163D01*
X0203400Y0252165D02*
X0235424Y0252165D01*
X0237957Y0251166D02*
X0203400Y0251166D01*
X0203400Y0250168D02*
X0240324Y0250168D01*
X0242692Y0249169D02*
X0203192Y0249169D01*
X0202779Y0248170D02*
X0245060Y0248170D01*
X0247427Y0247172D02*
X0202365Y0247172D01*
X0201884Y0246173D02*
X0249795Y0246173D01*
X0251978Y0245175D02*
X0200886Y0245175D01*
X0199887Y0244176D02*
X0253860Y0244176D01*
X0255742Y0243178D02*
X0198149Y0243178D01*
X0190250Y0243178D02*
X0148149Y0243178D01*
X0149887Y0244176D02*
X0188513Y0244176D01*
X0177626Y0238185D02*
X0265152Y0238185D01*
X0266804Y0237187D02*
X0177939Y0237187D01*
X0176960Y0239184D02*
X0263270Y0239184D01*
X0261388Y0240182D02*
X0175532Y0240182D01*
X0178000Y0232194D02*
X0178578Y0232194D01*
X0159945Y0240182D02*
X0082012Y0240182D01*
X0080130Y0239184D02*
X0158757Y0239184D01*
X0158157Y0238185D02*
X0078248Y0238185D01*
X0076596Y0237187D02*
X0157800Y0237187D01*
X0157800Y0236188D02*
X0075060Y0236188D01*
X0073524Y0235190D02*
X0157800Y0235190D01*
X0157800Y0234191D02*
X0071989Y0234191D01*
X0070453Y0233193D02*
X0157800Y0233193D01*
X0162342Y0260153D02*
X0147351Y0260153D01*
X0163985Y0263148D02*
X0167245Y0263148D01*
X0171155Y0263148D02*
X0179415Y0263148D01*
X0173566Y0262150D02*
X0192698Y0262150D01*
X0204001Y0225205D02*
X0212522Y0225205D01*
X0211062Y0224206D02*
X0205221Y0224206D01*
X0205833Y0223208D02*
X0210383Y0223208D01*
X0210065Y0222209D02*
X0206200Y0222209D01*
X0206200Y0221211D02*
X0210000Y0221211D01*
X0210000Y0220212D02*
X0206200Y0220212D01*
X0206200Y0219214D02*
X0210000Y0219214D01*
X0210000Y0218215D02*
X0206200Y0218215D01*
X0206200Y0217217D02*
X0206632Y0217217D01*
X0209368Y0217217D02*
X0210000Y0217217D01*
X0217617Y0223208D02*
X0286810Y0223208D01*
X0285537Y0224206D02*
X0216938Y0224206D01*
X0257624Y0242179D02*
X0085776Y0242179D01*
X0083894Y0241181D02*
X0259506Y0241181D01*
X0197235Y0183267D02*
X0196700Y0183267D01*
X0196236Y0182269D02*
X0195918Y0182269D01*
X0195701Y0182269D02*
X0195383Y0182269D01*
X0194919Y0183267D02*
X0194385Y0183267D01*
X0196382Y0181270D02*
X0196916Y0181270D01*
X0112545Y0151315D02*
X0107200Y0151315D01*
X0107200Y0150316D02*
X0107791Y0150316D01*
X0098800Y0150316D02*
X0098731Y0150316D01*
X0063764Y0115500D02*
X0058240Y0115500D01*
X0038200Y0135540D01*
X0038200Y0136663D01*
X0038578Y0137041D01*
X0039109Y0138324D01*
X0039181Y0138104D01*
X0039553Y0137375D01*
X0040034Y0136712D01*
X0040612Y0136134D01*
X0041275Y0135653D01*
X0042004Y0135281D01*
X0042782Y0135028D01*
X0043500Y0134914D01*
X0043500Y0143300D01*
X0044500Y0143300D01*
X0044500Y0134914D01*
X0045218Y0135028D01*
X0045996Y0135281D01*
X0046725Y0135653D01*
X0047388Y0136134D01*
X0047966Y0136712D01*
X0048447Y0137375D01*
X0048819Y0138104D01*
X0048891Y0138324D01*
X0049422Y0137041D01*
X0050941Y0135522D01*
X0051500Y0135291D01*
X0051500Y0128303D01*
X0051881Y0127384D01*
X0063764Y0115500D01*
X0062897Y0116367D02*
X0057373Y0116367D01*
X0056374Y0117366D02*
X0061899Y0117366D01*
X0060900Y0118364D02*
X0055376Y0118364D01*
X0054377Y0119363D02*
X0059902Y0119363D01*
X0058903Y0120361D02*
X0053379Y0120361D01*
X0052380Y0121360D02*
X0057905Y0121360D01*
X0056906Y0122358D02*
X0051382Y0122358D01*
X0050383Y0123357D02*
X0055908Y0123357D01*
X0054909Y0124355D02*
X0049385Y0124355D01*
X0048386Y0125354D02*
X0053911Y0125354D01*
X0052912Y0126352D02*
X0047388Y0126352D01*
X0046389Y0127351D02*
X0051914Y0127351D01*
X0051500Y0128349D02*
X0045391Y0128349D01*
X0044392Y0129348D02*
X0051500Y0129348D01*
X0051500Y0130346D02*
X0043394Y0130346D01*
X0042395Y0131345D02*
X0051500Y0131345D01*
X0051500Y0132343D02*
X0041397Y0132343D01*
X0040398Y0133342D02*
X0051500Y0133342D01*
X0051500Y0134340D02*
X0039399Y0134340D01*
X0038401Y0135339D02*
X0041891Y0135339D01*
X0043500Y0135339D02*
X0044500Y0135339D01*
X0044500Y0136337D02*
X0043500Y0136337D01*
X0043500Y0137336D02*
X0044500Y0137336D01*
X0044500Y0138334D02*
X0043500Y0138334D01*
X0043500Y0139333D02*
X0044500Y0139333D01*
X0044500Y0140331D02*
X0043500Y0140331D01*
X0043500Y0141330D02*
X0044500Y0141330D01*
X0044500Y0142328D02*
X0043500Y0142328D01*
X0043500Y0144325D02*
X0044500Y0144325D01*
X0044500Y0145324D02*
X0043500Y0145324D01*
X0043500Y0146322D02*
X0044500Y0146322D01*
X0044500Y0147321D02*
X0043500Y0147321D01*
X0043500Y0148319D02*
X0044500Y0148319D01*
X0044500Y0149318D02*
X0043500Y0149318D01*
X0043500Y0150316D02*
X0044500Y0150316D01*
X0044500Y0151315D02*
X0043500Y0151315D01*
X0043500Y0152313D02*
X0044500Y0152313D01*
X0046007Y0152313D02*
X0051510Y0152313D01*
X0050178Y0151315D02*
X0047539Y0151315D01*
X0048381Y0150316D02*
X0049322Y0150316D01*
X0048908Y0149318D02*
X0048877Y0149318D01*
X0041993Y0152313D02*
X0036490Y0152313D01*
X0037822Y0151315D02*
X0040461Y0151315D01*
X0039619Y0150316D02*
X0038678Y0150316D01*
X0039092Y0149318D02*
X0039123Y0149318D01*
X0031510Y0152313D02*
X0011189Y0152313D01*
X0011803Y0151315D02*
X0030178Y0151315D01*
X0029322Y0150316D02*
X0012416Y0150316D01*
X0013029Y0149318D02*
X0028908Y0149318D01*
X0028600Y0148319D02*
X0013643Y0148319D01*
X0014256Y0147321D02*
X0028600Y0147321D01*
X0028600Y0146322D02*
X0014870Y0146322D01*
X0015483Y0145324D02*
X0028600Y0145324D01*
X0028600Y0144325D02*
X0016096Y0144325D01*
X0016710Y0143327D02*
X0028600Y0143327D01*
X0028600Y0142328D02*
X0017323Y0142328D01*
X0017937Y0141330D02*
X0028600Y0141330D01*
X0028600Y0140331D02*
X0018633Y0140331D01*
X0019376Y0139333D02*
X0028600Y0139333D01*
X0028886Y0138334D02*
X0020119Y0138334D01*
X0020861Y0137336D02*
X0029300Y0137336D01*
X0029800Y0136337D02*
X0021604Y0136337D01*
X0022347Y0135339D02*
X0029800Y0135339D01*
X0029800Y0134340D02*
X0023090Y0134340D01*
X0023832Y0133342D02*
X0029800Y0133342D01*
X0030057Y0132343D02*
X0024575Y0132343D01*
X0025318Y0131345D02*
X0030516Y0131345D01*
X0031514Y0130346D02*
X0026061Y0130346D01*
X0026803Y0129348D02*
X0032513Y0129348D01*
X0033511Y0128349D02*
X0027546Y0128349D01*
X0028353Y0127351D02*
X0034510Y0127351D01*
X0035508Y0126352D02*
X0029243Y0126352D01*
X0030133Y0125354D02*
X0036507Y0125354D01*
X0037505Y0124355D02*
X0031024Y0124355D01*
X0031914Y0123357D02*
X0038504Y0123357D01*
X0039502Y0122358D02*
X0032805Y0122358D01*
X0033695Y0121360D02*
X0040501Y0121360D01*
X0041499Y0120361D02*
X0034586Y0120361D01*
X0035476Y0119363D02*
X0042498Y0119363D01*
X0043496Y0118364D02*
X0036367Y0118364D01*
X0037257Y0117366D02*
X0044495Y0117366D01*
X0045493Y0116367D02*
X0038147Y0116367D01*
X0039063Y0115368D02*
X0046492Y0115368D01*
X0047490Y0114370D02*
X0040126Y0114370D01*
X0041190Y0113371D02*
X0048489Y0113371D01*
X0049487Y0112373D02*
X0042253Y0112373D01*
X0043317Y0111374D02*
X0050486Y0111374D01*
X0051484Y0110376D02*
X0044381Y0110376D01*
X0045444Y0109377D02*
X0052483Y0109377D01*
X0053481Y0108379D02*
X0046508Y0108379D01*
X0047571Y0107380D02*
X0054988Y0107380D01*
X0051384Y0135339D02*
X0046109Y0135339D01*
X0047591Y0136337D02*
X0050126Y0136337D01*
X0049300Y0137336D02*
X0048419Y0137336D01*
X0040409Y0136337D02*
X0038200Y0136337D01*
X0038700Y0137336D02*
X0039581Y0137336D01*
X0094554Y0076427D02*
X0132838Y0076427D01*
X0133836Y0075428D02*
X0096921Y0075428D01*
X0099289Y0074430D02*
X0134835Y0074430D01*
X0129996Y0064444D02*
X0162311Y0064444D01*
X0162300Y0065443D02*
X0125566Y0065443D01*
X0121674Y0066441D02*
X0162300Y0066441D01*
X0162300Y0067440D02*
X0118561Y0067440D01*
X0115448Y0068438D02*
X0162428Y0068438D01*
X0162841Y0069437D02*
X0112335Y0069437D01*
X0109223Y0070435D02*
X0163255Y0070435D01*
X0163669Y0071434D02*
X0106392Y0071434D01*
X0104024Y0072432D02*
X0164622Y0072432D01*
X0165620Y0073431D02*
X0101656Y0073431D01*
X0134425Y0063446D02*
X0162724Y0063446D01*
X0163138Y0062447D02*
X0138855Y0062447D01*
X0146230Y0061449D02*
X0163551Y0061449D01*
X0164339Y0060450D02*
X0153691Y0060450D01*
X0169940Y0078800D02*
X0170061Y0078921D01*
X0170379Y0079239D01*
X0171561Y0080421D01*
X0172200Y0081965D01*
X0172200Y0085902D01*
X0172200Y0091403D01*
X0172833Y0091141D01*
X0173606Y0090987D01*
X0173750Y0090987D01*
X0173750Y0094737D01*
X0174250Y0094737D01*
X0174250Y0090987D01*
X0174394Y0090987D01*
X0175167Y0091141D01*
X0175800Y0091403D01*
X0175800Y0085902D01*
X0176439Y0084358D01*
X0177500Y0083298D01*
X0177500Y0080836D01*
X0175464Y0078800D01*
X0169940Y0078800D01*
X0170562Y0079422D02*
X0176087Y0079422D01*
X0177085Y0080421D02*
X0171560Y0080421D01*
X0171974Y0081419D02*
X0177500Y0081419D01*
X0177500Y0082418D02*
X0172200Y0082418D01*
X0172200Y0083416D02*
X0177382Y0083416D01*
X0176416Y0084415D02*
X0172200Y0084415D01*
X0172200Y0085413D02*
X0176002Y0085413D01*
X0175800Y0086412D02*
X0172200Y0086412D01*
X0172200Y0087410D02*
X0175800Y0087410D01*
X0175800Y0088409D02*
X0172200Y0088409D01*
X0172200Y0089407D02*
X0175800Y0089407D01*
X0175800Y0090406D02*
X0172200Y0090406D01*
X0173750Y0091404D02*
X0174250Y0091404D01*
X0174250Y0092403D02*
X0173750Y0092403D01*
X0173750Y0093401D02*
X0174250Y0093401D01*
X0174250Y0094400D02*
X0173750Y0094400D01*
X0184200Y0089407D02*
X0272332Y0089407D01*
X0270796Y0088409D02*
X0184200Y0088409D01*
X0184200Y0087410D02*
X0269260Y0087410D01*
X0267725Y0086412D02*
X0184200Y0086412D01*
X0183998Y0085413D02*
X0266189Y0085413D01*
X0264398Y0084415D02*
X0183584Y0084415D01*
X0182618Y0083416D02*
X0262516Y0083416D01*
X0260634Y0082418D02*
X0182500Y0082418D01*
X0182500Y0081419D02*
X0258752Y0081419D01*
X0256870Y0080421D02*
X0182500Y0080421D01*
X0182500Y0079422D02*
X0254988Y0079422D01*
X0253106Y0078424D02*
X0182136Y0078424D01*
X0181416Y0077681D02*
X0181416Y0077681D01*
X0181161Y0077425D02*
X0251214Y0077425D01*
X0248846Y0076427D02*
X0180162Y0076427D01*
X0179164Y0075428D02*
X0246479Y0075428D01*
X0244111Y0074430D02*
X0178165Y0074430D01*
X0178619Y0074884D02*
X0178619Y0074884D01*
X0177380Y0073431D02*
X0241744Y0073431D01*
X0239376Y0072432D02*
X0178378Y0072432D01*
X0179331Y0071434D02*
X0237008Y0071434D01*
X0234177Y0070435D02*
X0179745Y0070435D01*
X0180159Y0069437D02*
X0231065Y0069437D01*
X0227952Y0068438D02*
X0180572Y0068438D01*
X0180700Y0067440D02*
X0224839Y0067440D01*
X0221726Y0066441D02*
X0180700Y0066441D01*
X0180700Y0065443D02*
X0217834Y0065443D01*
X0213404Y0064444D02*
X0180689Y0064444D01*
X0180276Y0063446D02*
X0208975Y0063446D01*
X0204545Y0062447D02*
X0179862Y0062447D01*
X0179449Y0061449D02*
X0197170Y0061449D01*
X0189709Y0060450D02*
X0178661Y0060450D01*
X0163800Y0086412D02*
X0139328Y0086412D01*
X0138330Y0087410D02*
X0163800Y0087410D01*
X0163800Y0088409D02*
X0137331Y0088409D01*
X0136332Y0089407D02*
X0163800Y0089407D01*
X0163800Y0090406D02*
X0135334Y0090406D01*
X0134335Y0091404D02*
X0159675Y0091404D01*
X0158645Y0092403D02*
X0133337Y0092403D01*
X0248919Y0100391D02*
X0249946Y0100391D01*
X0251831Y0097395D02*
X0252730Y0097395D01*
X0055321Y0211226D02*
X0042891Y0211226D01*
X0043954Y0212224D02*
X0054489Y0212224D01*
X0054010Y0213223D02*
X0045018Y0213223D01*
X0046082Y0214221D02*
X0053759Y0214221D01*
X0056200Y0215220D02*
X0047145Y0215220D01*
D26*
X0117500Y0195800D03*
X0125500Y0189800D03*
X0130500Y0182800D03*
X0127500Y0174800D03*
X0146500Y0161300D03*
X0146500Y0155800D03*
X0149500Y0141800D03*
X0150500Y0135300D03*
X0126500Y0131300D03*
X0166500Y0156300D03*
X0176500Y0151300D03*
X0187500Y0160300D03*
X0193500Y0161800D03*
X0196500Y0158300D03*
X0204500Y0166300D03*
X0208500Y0172300D03*
X0201500Y0180800D03*
X0204500Y0183800D03*
X0217500Y0195800D03*
X0224500Y0202800D03*
X0230500Y0196800D03*
X0227500Y0166800D03*
X0266500Y0167300D03*
X0294500Y0144300D03*
X0314500Y0133300D03*
X0321500Y0142300D03*
X0303500Y0116300D03*
X0299500Y0113300D03*
X0272500Y0126300D03*
X0190500Y0141800D03*
X0186500Y0135300D03*
X0171500Y0176300D03*
X0148500Y0175800D03*
D27*
X0151755Y0165455D02*
X0147600Y0161300D01*
X0146500Y0161300D01*
X0281505Y0116305D02*
X0281505Y0116295D01*
X0306634Y0143243D02*
X0306634Y0143243D01*
X0289000Y0191300D02*
X0289000Y0193620D01*
D28*
X0197190Y0173110D02*
X0195381Y0171300D01*
X0192636Y0171300D01*
X0189018Y0167682D01*
X0177636Y0156300D01*
X0173181Y0156300D01*
X0169500Y0152619D01*
X0162891Y0146009D01*
D29*
X0296103Y0158403D02*
X0296408Y0158403D01*
X0302505Y0152305D01*
X0304600Y0150211D01*
X0304600Y0145700D01*
X0306634Y0143666D01*
D30*
X0306634Y0143243D01*
X0301859Y0138469D01*
D31*
X0192190Y0178490D02*
X0188500Y0174800D01*
X0187227Y0174800D01*
M02*
