G75*
%MOIN*%
%OFA0B0*%
%FSLAX25Y25*%
%IPPOS*%
%LPD*%
%AMOC8*
5,1,8,0,0,1.08239X$1,22.5*
%
%ADD10C,0.00000*%
D10*
X0004200Y0161500D02*
X0006282Y0165556D01*
X0008463Y0169560D01*
X0010741Y0173510D01*
X0013114Y0177403D01*
X0015582Y0181237D01*
X0018142Y0185010D01*
X0020793Y0188720D01*
X0023534Y0192363D01*
X0026363Y0195939D01*
X0029278Y0199445D01*
X0032277Y0202879D01*
X0035360Y0206238D01*
X0038523Y0209522D01*
X0041765Y0212727D01*
X0045085Y0215853D01*
X0048480Y0218897D01*
X0051947Y0221857D01*
X0055486Y0224732D01*
X0059094Y0227520D01*
X0062769Y0230219D01*
X0066508Y0232827D01*
X0070310Y0235344D01*
X0074172Y0237768D01*
X0078092Y0240096D01*
X0082068Y0242329D01*
X0086096Y0244464D01*
X0090176Y0246500D01*
X0094304Y0248436D01*
X0098478Y0250271D01*
X0102695Y0252004D01*
X0106953Y0253633D01*
X0111250Y0255158D01*
X0115583Y0256579D01*
X0119949Y0257893D01*
X0124345Y0259100D01*
X0128770Y0260200D01*
X0133220Y0261192D01*
X0137693Y0262075D01*
X0142187Y0262849D01*
X0146697Y0263513D01*
X0151223Y0264067D01*
X0155761Y0264511D01*
X0160308Y0264844D01*
X0164862Y0265066D01*
X0169420Y0265177D01*
X0173980Y0265177D01*
X0178538Y0265066D01*
X0183092Y0264844D01*
X0187639Y0264511D01*
X0192177Y0264067D01*
X0196703Y0263513D01*
X0201213Y0262849D01*
X0205707Y0262075D01*
X0210180Y0261192D01*
X0214630Y0260200D01*
X0219055Y0259100D01*
X0223451Y0257893D01*
X0227817Y0256579D01*
X0232150Y0255158D01*
X0236447Y0253633D01*
X0240705Y0252004D01*
X0244922Y0250271D01*
X0249096Y0248436D01*
X0253224Y0246500D01*
X0257304Y0244464D01*
X0261332Y0242329D01*
X0265308Y0240096D01*
X0269228Y0237768D01*
X0273090Y0235344D01*
X0276892Y0232827D01*
X0280631Y0230219D01*
X0284306Y0227520D01*
X0287914Y0224732D01*
X0291453Y0221857D01*
X0294920Y0218897D01*
X0298315Y0215853D01*
X0301635Y0212727D01*
X0304877Y0209522D01*
X0308040Y0206238D01*
X0311123Y0202879D01*
X0314122Y0199445D01*
X0317037Y0195939D01*
X0319866Y0192363D01*
X0322607Y0188720D01*
X0325258Y0185010D01*
X0327818Y0181237D01*
X0330286Y0177403D01*
X0332659Y0173510D01*
X0334937Y0169560D01*
X0337118Y0165556D01*
X0339200Y0161500D01*
X0176700Y0252500D02*
X0176702Y0252684D01*
X0176709Y0252868D01*
X0176720Y0253052D01*
X0176736Y0253235D01*
X0176756Y0253418D01*
X0176781Y0253600D01*
X0176810Y0253782D01*
X0176844Y0253963D01*
X0176882Y0254143D01*
X0176925Y0254322D01*
X0176972Y0254500D01*
X0177023Y0254677D01*
X0177079Y0254853D01*
X0177138Y0255027D01*
X0177203Y0255199D01*
X0177271Y0255370D01*
X0177343Y0255539D01*
X0177420Y0255707D01*
X0177501Y0255872D01*
X0177586Y0256035D01*
X0177674Y0256197D01*
X0177767Y0256356D01*
X0177864Y0256512D01*
X0177964Y0256667D01*
X0178068Y0256819D01*
X0178176Y0256968D01*
X0178287Y0257114D01*
X0178402Y0257258D01*
X0178521Y0257399D01*
X0178643Y0257537D01*
X0178768Y0257672D01*
X0178897Y0257803D01*
X0179028Y0257932D01*
X0179163Y0258057D01*
X0179301Y0258179D01*
X0179442Y0258298D01*
X0179586Y0258413D01*
X0179732Y0258524D01*
X0179881Y0258632D01*
X0180033Y0258736D01*
X0180188Y0258836D01*
X0180344Y0258933D01*
X0180503Y0259026D01*
X0180665Y0259114D01*
X0180828Y0259199D01*
X0180993Y0259280D01*
X0181161Y0259357D01*
X0181330Y0259429D01*
X0181501Y0259497D01*
X0181673Y0259562D01*
X0181847Y0259621D01*
X0182023Y0259677D01*
X0182200Y0259728D01*
X0182378Y0259775D01*
X0182557Y0259818D01*
X0182737Y0259856D01*
X0182918Y0259890D01*
X0183100Y0259919D01*
X0183282Y0259944D01*
X0183465Y0259964D01*
X0183648Y0259980D01*
X0183832Y0259991D01*
X0184016Y0259998D01*
X0184200Y0260000D01*
X0184384Y0259998D01*
X0184568Y0259991D01*
X0184752Y0259980D01*
X0184935Y0259964D01*
X0185118Y0259944D01*
X0185300Y0259919D01*
X0185482Y0259890D01*
X0185663Y0259856D01*
X0185843Y0259818D01*
X0186022Y0259775D01*
X0186200Y0259728D01*
X0186377Y0259677D01*
X0186553Y0259621D01*
X0186727Y0259562D01*
X0186899Y0259497D01*
X0187070Y0259429D01*
X0187239Y0259357D01*
X0187407Y0259280D01*
X0187572Y0259199D01*
X0187735Y0259114D01*
X0187897Y0259026D01*
X0188056Y0258933D01*
X0188212Y0258836D01*
X0188367Y0258736D01*
X0188519Y0258632D01*
X0188668Y0258524D01*
X0188814Y0258413D01*
X0188958Y0258298D01*
X0189099Y0258179D01*
X0189237Y0258057D01*
X0189372Y0257932D01*
X0189503Y0257803D01*
X0189632Y0257672D01*
X0189757Y0257537D01*
X0189879Y0257399D01*
X0189998Y0257258D01*
X0190113Y0257114D01*
X0190224Y0256968D01*
X0190332Y0256819D01*
X0190436Y0256667D01*
X0190536Y0256512D01*
X0190633Y0256356D01*
X0190726Y0256197D01*
X0190814Y0256035D01*
X0190899Y0255872D01*
X0190980Y0255707D01*
X0191057Y0255539D01*
X0191129Y0255370D01*
X0191197Y0255199D01*
X0191262Y0255027D01*
X0191321Y0254853D01*
X0191377Y0254677D01*
X0191428Y0254500D01*
X0191475Y0254322D01*
X0191518Y0254143D01*
X0191556Y0253963D01*
X0191590Y0253782D01*
X0191619Y0253600D01*
X0191644Y0253418D01*
X0191664Y0253235D01*
X0191680Y0253052D01*
X0191691Y0252868D01*
X0191698Y0252684D01*
X0191700Y0252500D01*
X0191698Y0252316D01*
X0191691Y0252132D01*
X0191680Y0251948D01*
X0191664Y0251765D01*
X0191644Y0251582D01*
X0191619Y0251400D01*
X0191590Y0251218D01*
X0191556Y0251037D01*
X0191518Y0250857D01*
X0191475Y0250678D01*
X0191428Y0250500D01*
X0191377Y0250323D01*
X0191321Y0250147D01*
X0191262Y0249973D01*
X0191197Y0249801D01*
X0191129Y0249630D01*
X0191057Y0249461D01*
X0190980Y0249293D01*
X0190899Y0249128D01*
X0190814Y0248965D01*
X0190726Y0248803D01*
X0190633Y0248644D01*
X0190536Y0248488D01*
X0190436Y0248333D01*
X0190332Y0248181D01*
X0190224Y0248032D01*
X0190113Y0247886D01*
X0189998Y0247742D01*
X0189879Y0247601D01*
X0189757Y0247463D01*
X0189632Y0247328D01*
X0189503Y0247197D01*
X0189372Y0247068D01*
X0189237Y0246943D01*
X0189099Y0246821D01*
X0188958Y0246702D01*
X0188814Y0246587D01*
X0188668Y0246476D01*
X0188519Y0246368D01*
X0188367Y0246264D01*
X0188212Y0246164D01*
X0188056Y0246067D01*
X0187897Y0245974D01*
X0187735Y0245886D01*
X0187572Y0245801D01*
X0187407Y0245720D01*
X0187239Y0245643D01*
X0187070Y0245571D01*
X0186899Y0245503D01*
X0186727Y0245438D01*
X0186553Y0245379D01*
X0186377Y0245323D01*
X0186200Y0245272D01*
X0186022Y0245225D01*
X0185843Y0245182D01*
X0185663Y0245144D01*
X0185482Y0245110D01*
X0185300Y0245081D01*
X0185118Y0245056D01*
X0184935Y0245036D01*
X0184752Y0245020D01*
X0184568Y0245009D01*
X0184384Y0245002D01*
X0184200Y0245000D01*
X0184016Y0245002D01*
X0183832Y0245009D01*
X0183648Y0245020D01*
X0183465Y0245036D01*
X0183282Y0245056D01*
X0183100Y0245081D01*
X0182918Y0245110D01*
X0182737Y0245144D01*
X0182557Y0245182D01*
X0182378Y0245225D01*
X0182200Y0245272D01*
X0182023Y0245323D01*
X0181847Y0245379D01*
X0181673Y0245438D01*
X0181501Y0245503D01*
X0181330Y0245571D01*
X0181161Y0245643D01*
X0180993Y0245720D01*
X0180828Y0245801D01*
X0180665Y0245886D01*
X0180503Y0245974D01*
X0180344Y0246067D01*
X0180188Y0246164D01*
X0180033Y0246264D01*
X0179881Y0246368D01*
X0179732Y0246476D01*
X0179586Y0246587D01*
X0179442Y0246702D01*
X0179301Y0246821D01*
X0179163Y0246943D01*
X0179028Y0247068D01*
X0178897Y0247197D01*
X0178768Y0247328D01*
X0178643Y0247463D01*
X0178521Y0247601D01*
X0178402Y0247742D01*
X0178287Y0247886D01*
X0178176Y0248032D01*
X0178068Y0248181D01*
X0177964Y0248333D01*
X0177864Y0248488D01*
X0177767Y0248644D01*
X0177674Y0248803D01*
X0177586Y0248965D01*
X0177501Y0249128D01*
X0177420Y0249293D01*
X0177343Y0249461D01*
X0177271Y0249630D01*
X0177203Y0249801D01*
X0177138Y0249973D01*
X0177079Y0250147D01*
X0177023Y0250323D01*
X0176972Y0250500D01*
X0176925Y0250678D01*
X0176882Y0250857D01*
X0176844Y0251037D01*
X0176810Y0251218D01*
X0176781Y0251400D01*
X0176756Y0251582D01*
X0176736Y0251765D01*
X0176720Y0251948D01*
X0176709Y0252132D01*
X0176702Y0252316D01*
X0176700Y0252500D01*
X0171700Y0253000D02*
X0171702Y0253184D01*
X0171709Y0253368D01*
X0171720Y0253552D01*
X0171736Y0253735D01*
X0171756Y0253918D01*
X0171781Y0254100D01*
X0171810Y0254282D01*
X0171844Y0254463D01*
X0171882Y0254643D01*
X0171925Y0254822D01*
X0171972Y0255000D01*
X0172023Y0255177D01*
X0172079Y0255353D01*
X0172138Y0255527D01*
X0172203Y0255699D01*
X0172271Y0255870D01*
X0172343Y0256039D01*
X0172420Y0256207D01*
X0172501Y0256372D01*
X0172586Y0256535D01*
X0172674Y0256697D01*
X0172767Y0256856D01*
X0172864Y0257012D01*
X0172964Y0257167D01*
X0173068Y0257319D01*
X0173176Y0257468D01*
X0173287Y0257614D01*
X0173402Y0257758D01*
X0173521Y0257899D01*
X0173643Y0258037D01*
X0173768Y0258172D01*
X0173897Y0258303D01*
X0174028Y0258432D01*
X0174163Y0258557D01*
X0174301Y0258679D01*
X0174442Y0258798D01*
X0174586Y0258913D01*
X0174732Y0259024D01*
X0174881Y0259132D01*
X0175033Y0259236D01*
X0175188Y0259336D01*
X0175344Y0259433D01*
X0175503Y0259526D01*
X0175665Y0259614D01*
X0175828Y0259699D01*
X0175993Y0259780D01*
X0176161Y0259857D01*
X0176330Y0259929D01*
X0176501Y0259997D01*
X0176673Y0260062D01*
X0176847Y0260121D01*
X0177023Y0260177D01*
X0177200Y0260228D01*
X0177378Y0260275D01*
X0177557Y0260318D01*
X0177737Y0260356D01*
X0177918Y0260390D01*
X0178100Y0260419D01*
X0178282Y0260444D01*
X0178465Y0260464D01*
X0178648Y0260480D01*
X0178832Y0260491D01*
X0179016Y0260498D01*
X0179200Y0260500D01*
X0179384Y0260498D01*
X0179568Y0260491D01*
X0179752Y0260480D01*
X0179935Y0260464D01*
X0180118Y0260444D01*
X0180300Y0260419D01*
X0180482Y0260390D01*
X0180663Y0260356D01*
X0180843Y0260318D01*
X0181022Y0260275D01*
X0181200Y0260228D01*
X0181377Y0260177D01*
X0181553Y0260121D01*
X0181727Y0260062D01*
X0181899Y0259997D01*
X0182070Y0259929D01*
X0182239Y0259857D01*
X0182407Y0259780D01*
X0182572Y0259699D01*
X0182735Y0259614D01*
X0182897Y0259526D01*
X0183056Y0259433D01*
X0183212Y0259336D01*
X0183367Y0259236D01*
X0183519Y0259132D01*
X0183668Y0259024D01*
X0183814Y0258913D01*
X0183958Y0258798D01*
X0184099Y0258679D01*
X0184237Y0258557D01*
X0184372Y0258432D01*
X0184503Y0258303D01*
X0184632Y0258172D01*
X0184757Y0258037D01*
X0184879Y0257899D01*
X0184998Y0257758D01*
X0185113Y0257614D01*
X0185224Y0257468D01*
X0185332Y0257319D01*
X0185436Y0257167D01*
X0185536Y0257012D01*
X0185633Y0256856D01*
X0185726Y0256697D01*
X0185814Y0256535D01*
X0185899Y0256372D01*
X0185980Y0256207D01*
X0186057Y0256039D01*
X0186129Y0255870D01*
X0186197Y0255699D01*
X0186262Y0255527D01*
X0186321Y0255353D01*
X0186377Y0255177D01*
X0186428Y0255000D01*
X0186475Y0254822D01*
X0186518Y0254643D01*
X0186556Y0254463D01*
X0186590Y0254282D01*
X0186619Y0254100D01*
X0186644Y0253918D01*
X0186664Y0253735D01*
X0186680Y0253552D01*
X0186691Y0253368D01*
X0186698Y0253184D01*
X0186700Y0253000D01*
X0186698Y0252816D01*
X0186691Y0252632D01*
X0186680Y0252448D01*
X0186664Y0252265D01*
X0186644Y0252082D01*
X0186619Y0251900D01*
X0186590Y0251718D01*
X0186556Y0251537D01*
X0186518Y0251357D01*
X0186475Y0251178D01*
X0186428Y0251000D01*
X0186377Y0250823D01*
X0186321Y0250647D01*
X0186262Y0250473D01*
X0186197Y0250301D01*
X0186129Y0250130D01*
X0186057Y0249961D01*
X0185980Y0249793D01*
X0185899Y0249628D01*
X0185814Y0249465D01*
X0185726Y0249303D01*
X0185633Y0249144D01*
X0185536Y0248988D01*
X0185436Y0248833D01*
X0185332Y0248681D01*
X0185224Y0248532D01*
X0185113Y0248386D01*
X0184998Y0248242D01*
X0184879Y0248101D01*
X0184757Y0247963D01*
X0184632Y0247828D01*
X0184503Y0247697D01*
X0184372Y0247568D01*
X0184237Y0247443D01*
X0184099Y0247321D01*
X0183958Y0247202D01*
X0183814Y0247087D01*
X0183668Y0246976D01*
X0183519Y0246868D01*
X0183367Y0246764D01*
X0183212Y0246664D01*
X0183056Y0246567D01*
X0182897Y0246474D01*
X0182735Y0246386D01*
X0182572Y0246301D01*
X0182407Y0246220D01*
X0182239Y0246143D01*
X0182070Y0246071D01*
X0181899Y0246003D01*
X0181727Y0245938D01*
X0181553Y0245879D01*
X0181377Y0245823D01*
X0181200Y0245772D01*
X0181022Y0245725D01*
X0180843Y0245682D01*
X0180663Y0245644D01*
X0180482Y0245610D01*
X0180300Y0245581D01*
X0180118Y0245556D01*
X0179935Y0245536D01*
X0179752Y0245520D01*
X0179568Y0245509D01*
X0179384Y0245502D01*
X0179200Y0245500D01*
X0179016Y0245502D01*
X0178832Y0245509D01*
X0178648Y0245520D01*
X0178465Y0245536D01*
X0178282Y0245556D01*
X0178100Y0245581D01*
X0177918Y0245610D01*
X0177737Y0245644D01*
X0177557Y0245682D01*
X0177378Y0245725D01*
X0177200Y0245772D01*
X0177023Y0245823D01*
X0176847Y0245879D01*
X0176673Y0245938D01*
X0176501Y0246003D01*
X0176330Y0246071D01*
X0176161Y0246143D01*
X0175993Y0246220D01*
X0175828Y0246301D01*
X0175665Y0246386D01*
X0175503Y0246474D01*
X0175344Y0246567D01*
X0175188Y0246664D01*
X0175033Y0246764D01*
X0174881Y0246868D01*
X0174732Y0246976D01*
X0174586Y0247087D01*
X0174442Y0247202D01*
X0174301Y0247321D01*
X0174163Y0247443D01*
X0174028Y0247568D01*
X0173897Y0247697D01*
X0173768Y0247828D01*
X0173643Y0247963D01*
X0173521Y0248101D01*
X0173402Y0248242D01*
X0173287Y0248386D01*
X0173176Y0248532D01*
X0173068Y0248681D01*
X0172964Y0248833D01*
X0172864Y0248988D01*
X0172767Y0249144D01*
X0172674Y0249303D01*
X0172586Y0249465D01*
X0172501Y0249628D01*
X0172420Y0249793D01*
X0172343Y0249961D01*
X0172271Y0250130D01*
X0172203Y0250301D01*
X0172138Y0250473D01*
X0172079Y0250647D01*
X0172023Y0250823D01*
X0171972Y0251000D01*
X0171925Y0251178D01*
X0171882Y0251357D01*
X0171844Y0251537D01*
X0171810Y0251718D01*
X0171781Y0251900D01*
X0171756Y0252082D01*
X0171736Y0252265D01*
X0171720Y0252448D01*
X0171709Y0252632D01*
X0171702Y0252816D01*
X0171700Y0253000D01*
X0166700Y0253500D02*
X0166702Y0253684D01*
X0166709Y0253868D01*
X0166720Y0254052D01*
X0166736Y0254235D01*
X0166756Y0254418D01*
X0166781Y0254600D01*
X0166810Y0254782D01*
X0166844Y0254963D01*
X0166882Y0255143D01*
X0166925Y0255322D01*
X0166972Y0255500D01*
X0167023Y0255677D01*
X0167079Y0255853D01*
X0167138Y0256027D01*
X0167203Y0256199D01*
X0167271Y0256370D01*
X0167343Y0256539D01*
X0167420Y0256707D01*
X0167501Y0256872D01*
X0167586Y0257035D01*
X0167674Y0257197D01*
X0167767Y0257356D01*
X0167864Y0257512D01*
X0167964Y0257667D01*
X0168068Y0257819D01*
X0168176Y0257968D01*
X0168287Y0258114D01*
X0168402Y0258258D01*
X0168521Y0258399D01*
X0168643Y0258537D01*
X0168768Y0258672D01*
X0168897Y0258803D01*
X0169028Y0258932D01*
X0169163Y0259057D01*
X0169301Y0259179D01*
X0169442Y0259298D01*
X0169586Y0259413D01*
X0169732Y0259524D01*
X0169881Y0259632D01*
X0170033Y0259736D01*
X0170188Y0259836D01*
X0170344Y0259933D01*
X0170503Y0260026D01*
X0170665Y0260114D01*
X0170828Y0260199D01*
X0170993Y0260280D01*
X0171161Y0260357D01*
X0171330Y0260429D01*
X0171501Y0260497D01*
X0171673Y0260562D01*
X0171847Y0260621D01*
X0172023Y0260677D01*
X0172200Y0260728D01*
X0172378Y0260775D01*
X0172557Y0260818D01*
X0172737Y0260856D01*
X0172918Y0260890D01*
X0173100Y0260919D01*
X0173282Y0260944D01*
X0173465Y0260964D01*
X0173648Y0260980D01*
X0173832Y0260991D01*
X0174016Y0260998D01*
X0174200Y0261000D01*
X0174384Y0260998D01*
X0174568Y0260991D01*
X0174752Y0260980D01*
X0174935Y0260964D01*
X0175118Y0260944D01*
X0175300Y0260919D01*
X0175482Y0260890D01*
X0175663Y0260856D01*
X0175843Y0260818D01*
X0176022Y0260775D01*
X0176200Y0260728D01*
X0176377Y0260677D01*
X0176553Y0260621D01*
X0176727Y0260562D01*
X0176899Y0260497D01*
X0177070Y0260429D01*
X0177239Y0260357D01*
X0177407Y0260280D01*
X0177572Y0260199D01*
X0177735Y0260114D01*
X0177897Y0260026D01*
X0178056Y0259933D01*
X0178212Y0259836D01*
X0178367Y0259736D01*
X0178519Y0259632D01*
X0178668Y0259524D01*
X0178814Y0259413D01*
X0178958Y0259298D01*
X0179099Y0259179D01*
X0179237Y0259057D01*
X0179372Y0258932D01*
X0179503Y0258803D01*
X0179632Y0258672D01*
X0179757Y0258537D01*
X0179879Y0258399D01*
X0179998Y0258258D01*
X0180113Y0258114D01*
X0180224Y0257968D01*
X0180332Y0257819D01*
X0180436Y0257667D01*
X0180536Y0257512D01*
X0180633Y0257356D01*
X0180726Y0257197D01*
X0180814Y0257035D01*
X0180899Y0256872D01*
X0180980Y0256707D01*
X0181057Y0256539D01*
X0181129Y0256370D01*
X0181197Y0256199D01*
X0181262Y0256027D01*
X0181321Y0255853D01*
X0181377Y0255677D01*
X0181428Y0255500D01*
X0181475Y0255322D01*
X0181518Y0255143D01*
X0181556Y0254963D01*
X0181590Y0254782D01*
X0181619Y0254600D01*
X0181644Y0254418D01*
X0181664Y0254235D01*
X0181680Y0254052D01*
X0181691Y0253868D01*
X0181698Y0253684D01*
X0181700Y0253500D01*
X0181698Y0253316D01*
X0181691Y0253132D01*
X0181680Y0252948D01*
X0181664Y0252765D01*
X0181644Y0252582D01*
X0181619Y0252400D01*
X0181590Y0252218D01*
X0181556Y0252037D01*
X0181518Y0251857D01*
X0181475Y0251678D01*
X0181428Y0251500D01*
X0181377Y0251323D01*
X0181321Y0251147D01*
X0181262Y0250973D01*
X0181197Y0250801D01*
X0181129Y0250630D01*
X0181057Y0250461D01*
X0180980Y0250293D01*
X0180899Y0250128D01*
X0180814Y0249965D01*
X0180726Y0249803D01*
X0180633Y0249644D01*
X0180536Y0249488D01*
X0180436Y0249333D01*
X0180332Y0249181D01*
X0180224Y0249032D01*
X0180113Y0248886D01*
X0179998Y0248742D01*
X0179879Y0248601D01*
X0179757Y0248463D01*
X0179632Y0248328D01*
X0179503Y0248197D01*
X0179372Y0248068D01*
X0179237Y0247943D01*
X0179099Y0247821D01*
X0178958Y0247702D01*
X0178814Y0247587D01*
X0178668Y0247476D01*
X0178519Y0247368D01*
X0178367Y0247264D01*
X0178212Y0247164D01*
X0178056Y0247067D01*
X0177897Y0246974D01*
X0177735Y0246886D01*
X0177572Y0246801D01*
X0177407Y0246720D01*
X0177239Y0246643D01*
X0177070Y0246571D01*
X0176899Y0246503D01*
X0176727Y0246438D01*
X0176553Y0246379D01*
X0176377Y0246323D01*
X0176200Y0246272D01*
X0176022Y0246225D01*
X0175843Y0246182D01*
X0175663Y0246144D01*
X0175482Y0246110D01*
X0175300Y0246081D01*
X0175118Y0246056D01*
X0174935Y0246036D01*
X0174752Y0246020D01*
X0174568Y0246009D01*
X0174384Y0246002D01*
X0174200Y0246000D01*
X0174016Y0246002D01*
X0173832Y0246009D01*
X0173648Y0246020D01*
X0173465Y0246036D01*
X0173282Y0246056D01*
X0173100Y0246081D01*
X0172918Y0246110D01*
X0172737Y0246144D01*
X0172557Y0246182D01*
X0172378Y0246225D01*
X0172200Y0246272D01*
X0172023Y0246323D01*
X0171847Y0246379D01*
X0171673Y0246438D01*
X0171501Y0246503D01*
X0171330Y0246571D01*
X0171161Y0246643D01*
X0170993Y0246720D01*
X0170828Y0246801D01*
X0170665Y0246886D01*
X0170503Y0246974D01*
X0170344Y0247067D01*
X0170188Y0247164D01*
X0170033Y0247264D01*
X0169881Y0247368D01*
X0169732Y0247476D01*
X0169586Y0247587D01*
X0169442Y0247702D01*
X0169301Y0247821D01*
X0169163Y0247943D01*
X0169028Y0248068D01*
X0168897Y0248197D01*
X0168768Y0248328D01*
X0168643Y0248463D01*
X0168521Y0248601D01*
X0168402Y0248742D01*
X0168287Y0248886D01*
X0168176Y0249032D01*
X0168068Y0249181D01*
X0167964Y0249333D01*
X0167864Y0249488D01*
X0167767Y0249644D01*
X0167674Y0249803D01*
X0167586Y0249965D01*
X0167501Y0250128D01*
X0167420Y0250293D01*
X0167343Y0250461D01*
X0167271Y0250630D01*
X0167203Y0250801D01*
X0167138Y0250973D01*
X0167079Y0251147D01*
X0167023Y0251323D01*
X0166972Y0251500D01*
X0166925Y0251678D01*
X0166882Y0251857D01*
X0166844Y0252037D01*
X0166810Y0252218D01*
X0166781Y0252400D01*
X0166756Y0252582D01*
X0166736Y0252765D01*
X0166720Y0252948D01*
X0166709Y0253132D01*
X0166702Y0253316D01*
X0166700Y0253500D01*
X0156700Y0253500D02*
X0156702Y0253684D01*
X0156709Y0253868D01*
X0156720Y0254052D01*
X0156736Y0254235D01*
X0156756Y0254418D01*
X0156781Y0254600D01*
X0156810Y0254782D01*
X0156844Y0254963D01*
X0156882Y0255143D01*
X0156925Y0255322D01*
X0156972Y0255500D01*
X0157023Y0255677D01*
X0157079Y0255853D01*
X0157138Y0256027D01*
X0157203Y0256199D01*
X0157271Y0256370D01*
X0157343Y0256539D01*
X0157420Y0256707D01*
X0157501Y0256872D01*
X0157586Y0257035D01*
X0157674Y0257197D01*
X0157767Y0257356D01*
X0157864Y0257512D01*
X0157964Y0257667D01*
X0158068Y0257819D01*
X0158176Y0257968D01*
X0158287Y0258114D01*
X0158402Y0258258D01*
X0158521Y0258399D01*
X0158643Y0258537D01*
X0158768Y0258672D01*
X0158897Y0258803D01*
X0159028Y0258932D01*
X0159163Y0259057D01*
X0159301Y0259179D01*
X0159442Y0259298D01*
X0159586Y0259413D01*
X0159732Y0259524D01*
X0159881Y0259632D01*
X0160033Y0259736D01*
X0160188Y0259836D01*
X0160344Y0259933D01*
X0160503Y0260026D01*
X0160665Y0260114D01*
X0160828Y0260199D01*
X0160993Y0260280D01*
X0161161Y0260357D01*
X0161330Y0260429D01*
X0161501Y0260497D01*
X0161673Y0260562D01*
X0161847Y0260621D01*
X0162023Y0260677D01*
X0162200Y0260728D01*
X0162378Y0260775D01*
X0162557Y0260818D01*
X0162737Y0260856D01*
X0162918Y0260890D01*
X0163100Y0260919D01*
X0163282Y0260944D01*
X0163465Y0260964D01*
X0163648Y0260980D01*
X0163832Y0260991D01*
X0164016Y0260998D01*
X0164200Y0261000D01*
X0164384Y0260998D01*
X0164568Y0260991D01*
X0164752Y0260980D01*
X0164935Y0260964D01*
X0165118Y0260944D01*
X0165300Y0260919D01*
X0165482Y0260890D01*
X0165663Y0260856D01*
X0165843Y0260818D01*
X0166022Y0260775D01*
X0166200Y0260728D01*
X0166377Y0260677D01*
X0166553Y0260621D01*
X0166727Y0260562D01*
X0166899Y0260497D01*
X0167070Y0260429D01*
X0167239Y0260357D01*
X0167407Y0260280D01*
X0167572Y0260199D01*
X0167735Y0260114D01*
X0167897Y0260026D01*
X0168056Y0259933D01*
X0168212Y0259836D01*
X0168367Y0259736D01*
X0168519Y0259632D01*
X0168668Y0259524D01*
X0168814Y0259413D01*
X0168958Y0259298D01*
X0169099Y0259179D01*
X0169237Y0259057D01*
X0169372Y0258932D01*
X0169503Y0258803D01*
X0169632Y0258672D01*
X0169757Y0258537D01*
X0169879Y0258399D01*
X0169998Y0258258D01*
X0170113Y0258114D01*
X0170224Y0257968D01*
X0170332Y0257819D01*
X0170436Y0257667D01*
X0170536Y0257512D01*
X0170633Y0257356D01*
X0170726Y0257197D01*
X0170814Y0257035D01*
X0170899Y0256872D01*
X0170980Y0256707D01*
X0171057Y0256539D01*
X0171129Y0256370D01*
X0171197Y0256199D01*
X0171262Y0256027D01*
X0171321Y0255853D01*
X0171377Y0255677D01*
X0171428Y0255500D01*
X0171475Y0255322D01*
X0171518Y0255143D01*
X0171556Y0254963D01*
X0171590Y0254782D01*
X0171619Y0254600D01*
X0171644Y0254418D01*
X0171664Y0254235D01*
X0171680Y0254052D01*
X0171691Y0253868D01*
X0171698Y0253684D01*
X0171700Y0253500D01*
X0171698Y0253316D01*
X0171691Y0253132D01*
X0171680Y0252948D01*
X0171664Y0252765D01*
X0171644Y0252582D01*
X0171619Y0252400D01*
X0171590Y0252218D01*
X0171556Y0252037D01*
X0171518Y0251857D01*
X0171475Y0251678D01*
X0171428Y0251500D01*
X0171377Y0251323D01*
X0171321Y0251147D01*
X0171262Y0250973D01*
X0171197Y0250801D01*
X0171129Y0250630D01*
X0171057Y0250461D01*
X0170980Y0250293D01*
X0170899Y0250128D01*
X0170814Y0249965D01*
X0170726Y0249803D01*
X0170633Y0249644D01*
X0170536Y0249488D01*
X0170436Y0249333D01*
X0170332Y0249181D01*
X0170224Y0249032D01*
X0170113Y0248886D01*
X0169998Y0248742D01*
X0169879Y0248601D01*
X0169757Y0248463D01*
X0169632Y0248328D01*
X0169503Y0248197D01*
X0169372Y0248068D01*
X0169237Y0247943D01*
X0169099Y0247821D01*
X0168958Y0247702D01*
X0168814Y0247587D01*
X0168668Y0247476D01*
X0168519Y0247368D01*
X0168367Y0247264D01*
X0168212Y0247164D01*
X0168056Y0247067D01*
X0167897Y0246974D01*
X0167735Y0246886D01*
X0167572Y0246801D01*
X0167407Y0246720D01*
X0167239Y0246643D01*
X0167070Y0246571D01*
X0166899Y0246503D01*
X0166727Y0246438D01*
X0166553Y0246379D01*
X0166377Y0246323D01*
X0166200Y0246272D01*
X0166022Y0246225D01*
X0165843Y0246182D01*
X0165663Y0246144D01*
X0165482Y0246110D01*
X0165300Y0246081D01*
X0165118Y0246056D01*
X0164935Y0246036D01*
X0164752Y0246020D01*
X0164568Y0246009D01*
X0164384Y0246002D01*
X0164200Y0246000D01*
X0164016Y0246002D01*
X0163832Y0246009D01*
X0163648Y0246020D01*
X0163465Y0246036D01*
X0163282Y0246056D01*
X0163100Y0246081D01*
X0162918Y0246110D01*
X0162737Y0246144D01*
X0162557Y0246182D01*
X0162378Y0246225D01*
X0162200Y0246272D01*
X0162023Y0246323D01*
X0161847Y0246379D01*
X0161673Y0246438D01*
X0161501Y0246503D01*
X0161330Y0246571D01*
X0161161Y0246643D01*
X0160993Y0246720D01*
X0160828Y0246801D01*
X0160665Y0246886D01*
X0160503Y0246974D01*
X0160344Y0247067D01*
X0160188Y0247164D01*
X0160033Y0247264D01*
X0159881Y0247368D01*
X0159732Y0247476D01*
X0159586Y0247587D01*
X0159442Y0247702D01*
X0159301Y0247821D01*
X0159163Y0247943D01*
X0159028Y0248068D01*
X0158897Y0248197D01*
X0158768Y0248328D01*
X0158643Y0248463D01*
X0158521Y0248601D01*
X0158402Y0248742D01*
X0158287Y0248886D01*
X0158176Y0249032D01*
X0158068Y0249181D01*
X0157964Y0249333D01*
X0157864Y0249488D01*
X0157767Y0249644D01*
X0157674Y0249803D01*
X0157586Y0249965D01*
X0157501Y0250128D01*
X0157420Y0250293D01*
X0157343Y0250461D01*
X0157271Y0250630D01*
X0157203Y0250801D01*
X0157138Y0250973D01*
X0157079Y0251147D01*
X0157023Y0251323D01*
X0156972Y0251500D01*
X0156925Y0251678D01*
X0156882Y0251857D01*
X0156844Y0252037D01*
X0156810Y0252218D01*
X0156781Y0252400D01*
X0156756Y0252582D01*
X0156736Y0252765D01*
X0156720Y0252948D01*
X0156709Y0253132D01*
X0156702Y0253316D01*
X0156700Y0253500D01*
X0151700Y0253000D02*
X0151702Y0253184D01*
X0151709Y0253368D01*
X0151720Y0253552D01*
X0151736Y0253735D01*
X0151756Y0253918D01*
X0151781Y0254100D01*
X0151810Y0254282D01*
X0151844Y0254463D01*
X0151882Y0254643D01*
X0151925Y0254822D01*
X0151972Y0255000D01*
X0152023Y0255177D01*
X0152079Y0255353D01*
X0152138Y0255527D01*
X0152203Y0255699D01*
X0152271Y0255870D01*
X0152343Y0256039D01*
X0152420Y0256207D01*
X0152501Y0256372D01*
X0152586Y0256535D01*
X0152674Y0256697D01*
X0152767Y0256856D01*
X0152864Y0257012D01*
X0152964Y0257167D01*
X0153068Y0257319D01*
X0153176Y0257468D01*
X0153287Y0257614D01*
X0153402Y0257758D01*
X0153521Y0257899D01*
X0153643Y0258037D01*
X0153768Y0258172D01*
X0153897Y0258303D01*
X0154028Y0258432D01*
X0154163Y0258557D01*
X0154301Y0258679D01*
X0154442Y0258798D01*
X0154586Y0258913D01*
X0154732Y0259024D01*
X0154881Y0259132D01*
X0155033Y0259236D01*
X0155188Y0259336D01*
X0155344Y0259433D01*
X0155503Y0259526D01*
X0155665Y0259614D01*
X0155828Y0259699D01*
X0155993Y0259780D01*
X0156161Y0259857D01*
X0156330Y0259929D01*
X0156501Y0259997D01*
X0156673Y0260062D01*
X0156847Y0260121D01*
X0157023Y0260177D01*
X0157200Y0260228D01*
X0157378Y0260275D01*
X0157557Y0260318D01*
X0157737Y0260356D01*
X0157918Y0260390D01*
X0158100Y0260419D01*
X0158282Y0260444D01*
X0158465Y0260464D01*
X0158648Y0260480D01*
X0158832Y0260491D01*
X0159016Y0260498D01*
X0159200Y0260500D01*
X0159384Y0260498D01*
X0159568Y0260491D01*
X0159752Y0260480D01*
X0159935Y0260464D01*
X0160118Y0260444D01*
X0160300Y0260419D01*
X0160482Y0260390D01*
X0160663Y0260356D01*
X0160843Y0260318D01*
X0161022Y0260275D01*
X0161200Y0260228D01*
X0161377Y0260177D01*
X0161553Y0260121D01*
X0161727Y0260062D01*
X0161899Y0259997D01*
X0162070Y0259929D01*
X0162239Y0259857D01*
X0162407Y0259780D01*
X0162572Y0259699D01*
X0162735Y0259614D01*
X0162897Y0259526D01*
X0163056Y0259433D01*
X0163212Y0259336D01*
X0163367Y0259236D01*
X0163519Y0259132D01*
X0163668Y0259024D01*
X0163814Y0258913D01*
X0163958Y0258798D01*
X0164099Y0258679D01*
X0164237Y0258557D01*
X0164372Y0258432D01*
X0164503Y0258303D01*
X0164632Y0258172D01*
X0164757Y0258037D01*
X0164879Y0257899D01*
X0164998Y0257758D01*
X0165113Y0257614D01*
X0165224Y0257468D01*
X0165332Y0257319D01*
X0165436Y0257167D01*
X0165536Y0257012D01*
X0165633Y0256856D01*
X0165726Y0256697D01*
X0165814Y0256535D01*
X0165899Y0256372D01*
X0165980Y0256207D01*
X0166057Y0256039D01*
X0166129Y0255870D01*
X0166197Y0255699D01*
X0166262Y0255527D01*
X0166321Y0255353D01*
X0166377Y0255177D01*
X0166428Y0255000D01*
X0166475Y0254822D01*
X0166518Y0254643D01*
X0166556Y0254463D01*
X0166590Y0254282D01*
X0166619Y0254100D01*
X0166644Y0253918D01*
X0166664Y0253735D01*
X0166680Y0253552D01*
X0166691Y0253368D01*
X0166698Y0253184D01*
X0166700Y0253000D01*
X0166698Y0252816D01*
X0166691Y0252632D01*
X0166680Y0252448D01*
X0166664Y0252265D01*
X0166644Y0252082D01*
X0166619Y0251900D01*
X0166590Y0251718D01*
X0166556Y0251537D01*
X0166518Y0251357D01*
X0166475Y0251178D01*
X0166428Y0251000D01*
X0166377Y0250823D01*
X0166321Y0250647D01*
X0166262Y0250473D01*
X0166197Y0250301D01*
X0166129Y0250130D01*
X0166057Y0249961D01*
X0165980Y0249793D01*
X0165899Y0249628D01*
X0165814Y0249465D01*
X0165726Y0249303D01*
X0165633Y0249144D01*
X0165536Y0248988D01*
X0165436Y0248833D01*
X0165332Y0248681D01*
X0165224Y0248532D01*
X0165113Y0248386D01*
X0164998Y0248242D01*
X0164879Y0248101D01*
X0164757Y0247963D01*
X0164632Y0247828D01*
X0164503Y0247697D01*
X0164372Y0247568D01*
X0164237Y0247443D01*
X0164099Y0247321D01*
X0163958Y0247202D01*
X0163814Y0247087D01*
X0163668Y0246976D01*
X0163519Y0246868D01*
X0163367Y0246764D01*
X0163212Y0246664D01*
X0163056Y0246567D01*
X0162897Y0246474D01*
X0162735Y0246386D01*
X0162572Y0246301D01*
X0162407Y0246220D01*
X0162239Y0246143D01*
X0162070Y0246071D01*
X0161899Y0246003D01*
X0161727Y0245938D01*
X0161553Y0245879D01*
X0161377Y0245823D01*
X0161200Y0245772D01*
X0161022Y0245725D01*
X0160843Y0245682D01*
X0160663Y0245644D01*
X0160482Y0245610D01*
X0160300Y0245581D01*
X0160118Y0245556D01*
X0159935Y0245536D01*
X0159752Y0245520D01*
X0159568Y0245509D01*
X0159384Y0245502D01*
X0159200Y0245500D01*
X0159016Y0245502D01*
X0158832Y0245509D01*
X0158648Y0245520D01*
X0158465Y0245536D01*
X0158282Y0245556D01*
X0158100Y0245581D01*
X0157918Y0245610D01*
X0157737Y0245644D01*
X0157557Y0245682D01*
X0157378Y0245725D01*
X0157200Y0245772D01*
X0157023Y0245823D01*
X0156847Y0245879D01*
X0156673Y0245938D01*
X0156501Y0246003D01*
X0156330Y0246071D01*
X0156161Y0246143D01*
X0155993Y0246220D01*
X0155828Y0246301D01*
X0155665Y0246386D01*
X0155503Y0246474D01*
X0155344Y0246567D01*
X0155188Y0246664D01*
X0155033Y0246764D01*
X0154881Y0246868D01*
X0154732Y0246976D01*
X0154586Y0247087D01*
X0154442Y0247202D01*
X0154301Y0247321D01*
X0154163Y0247443D01*
X0154028Y0247568D01*
X0153897Y0247697D01*
X0153768Y0247828D01*
X0153643Y0247963D01*
X0153521Y0248101D01*
X0153402Y0248242D01*
X0153287Y0248386D01*
X0153176Y0248532D01*
X0153068Y0248681D01*
X0152964Y0248833D01*
X0152864Y0248988D01*
X0152767Y0249144D01*
X0152674Y0249303D01*
X0152586Y0249465D01*
X0152501Y0249628D01*
X0152420Y0249793D01*
X0152343Y0249961D01*
X0152271Y0250130D01*
X0152203Y0250301D01*
X0152138Y0250473D01*
X0152079Y0250647D01*
X0152023Y0250823D01*
X0151972Y0251000D01*
X0151925Y0251178D01*
X0151882Y0251357D01*
X0151844Y0251537D01*
X0151810Y0251718D01*
X0151781Y0251900D01*
X0151756Y0252082D01*
X0151736Y0252265D01*
X0151720Y0252448D01*
X0151709Y0252632D01*
X0151702Y0252816D01*
X0151700Y0253000D01*
X0146700Y0252500D02*
X0146702Y0252684D01*
X0146709Y0252868D01*
X0146720Y0253052D01*
X0146736Y0253235D01*
X0146756Y0253418D01*
X0146781Y0253600D01*
X0146810Y0253782D01*
X0146844Y0253963D01*
X0146882Y0254143D01*
X0146925Y0254322D01*
X0146972Y0254500D01*
X0147023Y0254677D01*
X0147079Y0254853D01*
X0147138Y0255027D01*
X0147203Y0255199D01*
X0147271Y0255370D01*
X0147343Y0255539D01*
X0147420Y0255707D01*
X0147501Y0255872D01*
X0147586Y0256035D01*
X0147674Y0256197D01*
X0147767Y0256356D01*
X0147864Y0256512D01*
X0147964Y0256667D01*
X0148068Y0256819D01*
X0148176Y0256968D01*
X0148287Y0257114D01*
X0148402Y0257258D01*
X0148521Y0257399D01*
X0148643Y0257537D01*
X0148768Y0257672D01*
X0148897Y0257803D01*
X0149028Y0257932D01*
X0149163Y0258057D01*
X0149301Y0258179D01*
X0149442Y0258298D01*
X0149586Y0258413D01*
X0149732Y0258524D01*
X0149881Y0258632D01*
X0150033Y0258736D01*
X0150188Y0258836D01*
X0150344Y0258933D01*
X0150503Y0259026D01*
X0150665Y0259114D01*
X0150828Y0259199D01*
X0150993Y0259280D01*
X0151161Y0259357D01*
X0151330Y0259429D01*
X0151501Y0259497D01*
X0151673Y0259562D01*
X0151847Y0259621D01*
X0152023Y0259677D01*
X0152200Y0259728D01*
X0152378Y0259775D01*
X0152557Y0259818D01*
X0152737Y0259856D01*
X0152918Y0259890D01*
X0153100Y0259919D01*
X0153282Y0259944D01*
X0153465Y0259964D01*
X0153648Y0259980D01*
X0153832Y0259991D01*
X0154016Y0259998D01*
X0154200Y0260000D01*
X0154384Y0259998D01*
X0154568Y0259991D01*
X0154752Y0259980D01*
X0154935Y0259964D01*
X0155118Y0259944D01*
X0155300Y0259919D01*
X0155482Y0259890D01*
X0155663Y0259856D01*
X0155843Y0259818D01*
X0156022Y0259775D01*
X0156200Y0259728D01*
X0156377Y0259677D01*
X0156553Y0259621D01*
X0156727Y0259562D01*
X0156899Y0259497D01*
X0157070Y0259429D01*
X0157239Y0259357D01*
X0157407Y0259280D01*
X0157572Y0259199D01*
X0157735Y0259114D01*
X0157897Y0259026D01*
X0158056Y0258933D01*
X0158212Y0258836D01*
X0158367Y0258736D01*
X0158519Y0258632D01*
X0158668Y0258524D01*
X0158814Y0258413D01*
X0158958Y0258298D01*
X0159099Y0258179D01*
X0159237Y0258057D01*
X0159372Y0257932D01*
X0159503Y0257803D01*
X0159632Y0257672D01*
X0159757Y0257537D01*
X0159879Y0257399D01*
X0159998Y0257258D01*
X0160113Y0257114D01*
X0160224Y0256968D01*
X0160332Y0256819D01*
X0160436Y0256667D01*
X0160536Y0256512D01*
X0160633Y0256356D01*
X0160726Y0256197D01*
X0160814Y0256035D01*
X0160899Y0255872D01*
X0160980Y0255707D01*
X0161057Y0255539D01*
X0161129Y0255370D01*
X0161197Y0255199D01*
X0161262Y0255027D01*
X0161321Y0254853D01*
X0161377Y0254677D01*
X0161428Y0254500D01*
X0161475Y0254322D01*
X0161518Y0254143D01*
X0161556Y0253963D01*
X0161590Y0253782D01*
X0161619Y0253600D01*
X0161644Y0253418D01*
X0161664Y0253235D01*
X0161680Y0253052D01*
X0161691Y0252868D01*
X0161698Y0252684D01*
X0161700Y0252500D01*
X0161698Y0252316D01*
X0161691Y0252132D01*
X0161680Y0251948D01*
X0161664Y0251765D01*
X0161644Y0251582D01*
X0161619Y0251400D01*
X0161590Y0251218D01*
X0161556Y0251037D01*
X0161518Y0250857D01*
X0161475Y0250678D01*
X0161428Y0250500D01*
X0161377Y0250323D01*
X0161321Y0250147D01*
X0161262Y0249973D01*
X0161197Y0249801D01*
X0161129Y0249630D01*
X0161057Y0249461D01*
X0160980Y0249293D01*
X0160899Y0249128D01*
X0160814Y0248965D01*
X0160726Y0248803D01*
X0160633Y0248644D01*
X0160536Y0248488D01*
X0160436Y0248333D01*
X0160332Y0248181D01*
X0160224Y0248032D01*
X0160113Y0247886D01*
X0159998Y0247742D01*
X0159879Y0247601D01*
X0159757Y0247463D01*
X0159632Y0247328D01*
X0159503Y0247197D01*
X0159372Y0247068D01*
X0159237Y0246943D01*
X0159099Y0246821D01*
X0158958Y0246702D01*
X0158814Y0246587D01*
X0158668Y0246476D01*
X0158519Y0246368D01*
X0158367Y0246264D01*
X0158212Y0246164D01*
X0158056Y0246067D01*
X0157897Y0245974D01*
X0157735Y0245886D01*
X0157572Y0245801D01*
X0157407Y0245720D01*
X0157239Y0245643D01*
X0157070Y0245571D01*
X0156899Y0245503D01*
X0156727Y0245438D01*
X0156553Y0245379D01*
X0156377Y0245323D01*
X0156200Y0245272D01*
X0156022Y0245225D01*
X0155843Y0245182D01*
X0155663Y0245144D01*
X0155482Y0245110D01*
X0155300Y0245081D01*
X0155118Y0245056D01*
X0154935Y0245036D01*
X0154752Y0245020D01*
X0154568Y0245009D01*
X0154384Y0245002D01*
X0154200Y0245000D01*
X0154016Y0245002D01*
X0153832Y0245009D01*
X0153648Y0245020D01*
X0153465Y0245036D01*
X0153282Y0245056D01*
X0153100Y0245081D01*
X0152918Y0245110D01*
X0152737Y0245144D01*
X0152557Y0245182D01*
X0152378Y0245225D01*
X0152200Y0245272D01*
X0152023Y0245323D01*
X0151847Y0245379D01*
X0151673Y0245438D01*
X0151501Y0245503D01*
X0151330Y0245571D01*
X0151161Y0245643D01*
X0150993Y0245720D01*
X0150828Y0245801D01*
X0150665Y0245886D01*
X0150503Y0245974D01*
X0150344Y0246067D01*
X0150188Y0246164D01*
X0150033Y0246264D01*
X0149881Y0246368D01*
X0149732Y0246476D01*
X0149586Y0246587D01*
X0149442Y0246702D01*
X0149301Y0246821D01*
X0149163Y0246943D01*
X0149028Y0247068D01*
X0148897Y0247197D01*
X0148768Y0247328D01*
X0148643Y0247463D01*
X0148521Y0247601D01*
X0148402Y0247742D01*
X0148287Y0247886D01*
X0148176Y0248032D01*
X0148068Y0248181D01*
X0147964Y0248333D01*
X0147864Y0248488D01*
X0147767Y0248644D01*
X0147674Y0248803D01*
X0147586Y0248965D01*
X0147501Y0249128D01*
X0147420Y0249293D01*
X0147343Y0249461D01*
X0147271Y0249630D01*
X0147203Y0249801D01*
X0147138Y0249973D01*
X0147079Y0250147D01*
X0147023Y0250323D01*
X0146972Y0250500D01*
X0146925Y0250678D01*
X0146882Y0250857D01*
X0146844Y0251037D01*
X0146810Y0251218D01*
X0146781Y0251400D01*
X0146756Y0251582D01*
X0146736Y0251765D01*
X0146720Y0251948D01*
X0146709Y0252132D01*
X0146702Y0252316D01*
X0146700Y0252500D01*
X0161700Y0254000D02*
X0161702Y0254184D01*
X0161709Y0254368D01*
X0161720Y0254552D01*
X0161736Y0254735D01*
X0161756Y0254918D01*
X0161781Y0255100D01*
X0161810Y0255282D01*
X0161844Y0255463D01*
X0161882Y0255643D01*
X0161925Y0255822D01*
X0161972Y0256000D01*
X0162023Y0256177D01*
X0162079Y0256353D01*
X0162138Y0256527D01*
X0162203Y0256699D01*
X0162271Y0256870D01*
X0162343Y0257039D01*
X0162420Y0257207D01*
X0162501Y0257372D01*
X0162586Y0257535D01*
X0162674Y0257697D01*
X0162767Y0257856D01*
X0162864Y0258012D01*
X0162964Y0258167D01*
X0163068Y0258319D01*
X0163176Y0258468D01*
X0163287Y0258614D01*
X0163402Y0258758D01*
X0163521Y0258899D01*
X0163643Y0259037D01*
X0163768Y0259172D01*
X0163897Y0259303D01*
X0164028Y0259432D01*
X0164163Y0259557D01*
X0164301Y0259679D01*
X0164442Y0259798D01*
X0164586Y0259913D01*
X0164732Y0260024D01*
X0164881Y0260132D01*
X0165033Y0260236D01*
X0165188Y0260336D01*
X0165344Y0260433D01*
X0165503Y0260526D01*
X0165665Y0260614D01*
X0165828Y0260699D01*
X0165993Y0260780D01*
X0166161Y0260857D01*
X0166330Y0260929D01*
X0166501Y0260997D01*
X0166673Y0261062D01*
X0166847Y0261121D01*
X0167023Y0261177D01*
X0167200Y0261228D01*
X0167378Y0261275D01*
X0167557Y0261318D01*
X0167737Y0261356D01*
X0167918Y0261390D01*
X0168100Y0261419D01*
X0168282Y0261444D01*
X0168465Y0261464D01*
X0168648Y0261480D01*
X0168832Y0261491D01*
X0169016Y0261498D01*
X0169200Y0261500D01*
X0169384Y0261498D01*
X0169568Y0261491D01*
X0169752Y0261480D01*
X0169935Y0261464D01*
X0170118Y0261444D01*
X0170300Y0261419D01*
X0170482Y0261390D01*
X0170663Y0261356D01*
X0170843Y0261318D01*
X0171022Y0261275D01*
X0171200Y0261228D01*
X0171377Y0261177D01*
X0171553Y0261121D01*
X0171727Y0261062D01*
X0171899Y0260997D01*
X0172070Y0260929D01*
X0172239Y0260857D01*
X0172407Y0260780D01*
X0172572Y0260699D01*
X0172735Y0260614D01*
X0172897Y0260526D01*
X0173056Y0260433D01*
X0173212Y0260336D01*
X0173367Y0260236D01*
X0173519Y0260132D01*
X0173668Y0260024D01*
X0173814Y0259913D01*
X0173958Y0259798D01*
X0174099Y0259679D01*
X0174237Y0259557D01*
X0174372Y0259432D01*
X0174503Y0259303D01*
X0174632Y0259172D01*
X0174757Y0259037D01*
X0174879Y0258899D01*
X0174998Y0258758D01*
X0175113Y0258614D01*
X0175224Y0258468D01*
X0175332Y0258319D01*
X0175436Y0258167D01*
X0175536Y0258012D01*
X0175633Y0257856D01*
X0175726Y0257697D01*
X0175814Y0257535D01*
X0175899Y0257372D01*
X0175980Y0257207D01*
X0176057Y0257039D01*
X0176129Y0256870D01*
X0176197Y0256699D01*
X0176262Y0256527D01*
X0176321Y0256353D01*
X0176377Y0256177D01*
X0176428Y0256000D01*
X0176475Y0255822D01*
X0176518Y0255643D01*
X0176556Y0255463D01*
X0176590Y0255282D01*
X0176619Y0255100D01*
X0176644Y0254918D01*
X0176664Y0254735D01*
X0176680Y0254552D01*
X0176691Y0254368D01*
X0176698Y0254184D01*
X0176700Y0254000D01*
X0176698Y0253816D01*
X0176691Y0253632D01*
X0176680Y0253448D01*
X0176664Y0253265D01*
X0176644Y0253082D01*
X0176619Y0252900D01*
X0176590Y0252718D01*
X0176556Y0252537D01*
X0176518Y0252357D01*
X0176475Y0252178D01*
X0176428Y0252000D01*
X0176377Y0251823D01*
X0176321Y0251647D01*
X0176262Y0251473D01*
X0176197Y0251301D01*
X0176129Y0251130D01*
X0176057Y0250961D01*
X0175980Y0250793D01*
X0175899Y0250628D01*
X0175814Y0250465D01*
X0175726Y0250303D01*
X0175633Y0250144D01*
X0175536Y0249988D01*
X0175436Y0249833D01*
X0175332Y0249681D01*
X0175224Y0249532D01*
X0175113Y0249386D01*
X0174998Y0249242D01*
X0174879Y0249101D01*
X0174757Y0248963D01*
X0174632Y0248828D01*
X0174503Y0248697D01*
X0174372Y0248568D01*
X0174237Y0248443D01*
X0174099Y0248321D01*
X0173958Y0248202D01*
X0173814Y0248087D01*
X0173668Y0247976D01*
X0173519Y0247868D01*
X0173367Y0247764D01*
X0173212Y0247664D01*
X0173056Y0247567D01*
X0172897Y0247474D01*
X0172735Y0247386D01*
X0172572Y0247301D01*
X0172407Y0247220D01*
X0172239Y0247143D01*
X0172070Y0247071D01*
X0171899Y0247003D01*
X0171727Y0246938D01*
X0171553Y0246879D01*
X0171377Y0246823D01*
X0171200Y0246772D01*
X0171022Y0246725D01*
X0170843Y0246682D01*
X0170663Y0246644D01*
X0170482Y0246610D01*
X0170300Y0246581D01*
X0170118Y0246556D01*
X0169935Y0246536D01*
X0169752Y0246520D01*
X0169568Y0246509D01*
X0169384Y0246502D01*
X0169200Y0246500D01*
X0169016Y0246502D01*
X0168832Y0246509D01*
X0168648Y0246520D01*
X0168465Y0246536D01*
X0168282Y0246556D01*
X0168100Y0246581D01*
X0167918Y0246610D01*
X0167737Y0246644D01*
X0167557Y0246682D01*
X0167378Y0246725D01*
X0167200Y0246772D01*
X0167023Y0246823D01*
X0166847Y0246879D01*
X0166673Y0246938D01*
X0166501Y0247003D01*
X0166330Y0247071D01*
X0166161Y0247143D01*
X0165993Y0247220D01*
X0165828Y0247301D01*
X0165665Y0247386D01*
X0165503Y0247474D01*
X0165344Y0247567D01*
X0165188Y0247664D01*
X0165033Y0247764D01*
X0164881Y0247868D01*
X0164732Y0247976D01*
X0164586Y0248087D01*
X0164442Y0248202D01*
X0164301Y0248321D01*
X0164163Y0248443D01*
X0164028Y0248568D01*
X0163897Y0248697D01*
X0163768Y0248828D01*
X0163643Y0248963D01*
X0163521Y0249101D01*
X0163402Y0249242D01*
X0163287Y0249386D01*
X0163176Y0249532D01*
X0163068Y0249681D01*
X0162964Y0249833D01*
X0162864Y0249988D01*
X0162767Y0250144D01*
X0162674Y0250303D01*
X0162586Y0250465D01*
X0162501Y0250628D01*
X0162420Y0250793D01*
X0162343Y0250961D01*
X0162271Y0251130D01*
X0162203Y0251301D01*
X0162138Y0251473D01*
X0162079Y0251647D01*
X0162023Y0251823D01*
X0161972Y0252000D01*
X0161925Y0252178D01*
X0161882Y0252357D01*
X0161844Y0252537D01*
X0161810Y0252718D01*
X0161781Y0252900D01*
X0161756Y0253082D01*
X0161736Y0253265D01*
X0161720Y0253448D01*
X0161709Y0253632D01*
X0161702Y0253816D01*
X0161700Y0254000D01*
X0004200Y0161500D02*
X0006282Y0157444D01*
X0008463Y0153440D01*
X0010741Y0149490D01*
X0013114Y0145597D01*
X0015582Y0141763D01*
X0018142Y0137990D01*
X0020793Y0134280D01*
X0023534Y0130637D01*
X0026363Y0127061D01*
X0029278Y0123555D01*
X0032277Y0120121D01*
X0035360Y0116762D01*
X0038523Y0113478D01*
X0041765Y0110273D01*
X0045085Y0107147D01*
X0048480Y0104103D01*
X0051947Y0101143D01*
X0055486Y0098268D01*
X0059094Y0095480D01*
X0062769Y0092781D01*
X0066508Y0090173D01*
X0070310Y0087656D01*
X0074172Y0085232D01*
X0078092Y0082904D01*
X0082068Y0080671D01*
X0086096Y0078536D01*
X0090176Y0076500D01*
X0094304Y0074564D01*
X0098478Y0072729D01*
X0102695Y0070996D01*
X0106953Y0069367D01*
X0111250Y0067842D01*
X0115583Y0066421D01*
X0119949Y0065107D01*
X0124345Y0063900D01*
X0128770Y0062800D01*
X0133220Y0061808D01*
X0137693Y0060925D01*
X0142187Y0060151D01*
X0146697Y0059487D01*
X0151223Y0058933D01*
X0155761Y0058489D01*
X0160308Y0058156D01*
X0164862Y0057934D01*
X0169420Y0057823D01*
X0173980Y0057823D01*
X0178538Y0057934D01*
X0183092Y0058156D01*
X0187639Y0058489D01*
X0192177Y0058933D01*
X0196703Y0059487D01*
X0201213Y0060151D01*
X0205707Y0060925D01*
X0210180Y0061808D01*
X0214630Y0062800D01*
X0219055Y0063900D01*
X0223451Y0065107D01*
X0227817Y0066421D01*
X0232150Y0067842D01*
X0236447Y0069367D01*
X0240705Y0070996D01*
X0244922Y0072729D01*
X0249096Y0074564D01*
X0253224Y0076500D01*
X0257304Y0078536D01*
X0261332Y0080671D01*
X0265308Y0082904D01*
X0269228Y0085232D01*
X0273090Y0087656D01*
X0276892Y0090173D01*
X0280631Y0092781D01*
X0284306Y0095480D01*
X0287914Y0098268D01*
X0291453Y0101143D01*
X0294920Y0104103D01*
X0298315Y0107147D01*
X0301635Y0110273D01*
X0304877Y0113478D01*
X0308040Y0116762D01*
X0311123Y0120121D01*
X0314122Y0123555D01*
X0317037Y0127061D01*
X0319866Y0130637D01*
X0322607Y0134280D01*
X0325258Y0137990D01*
X0327818Y0141763D01*
X0330286Y0145597D01*
X0332659Y0149490D01*
X0334937Y0153440D01*
X0337118Y0157444D01*
X0339200Y0161500D01*
M02*
