G75*
%MOIN*%
%OFA0B0*%
%FSLAX25Y25*%
%IPPOS*%
%LPD*%
%AMOC8*
5,1,8,0,0,1.08239X$1,22.5*
%
%ADD10R,0.00150X0.00075*%
%ADD11R,0.00075X0.00075*%
%ADD12C,0.00600*%
%ADD13C,0.00800*%
%ADD14C,0.01000*%
%ADD15C,0.00591*%
%ADD16C,0.00700*%
%ADD17R,0.00625X0.00125*%
%ADD18R,0.01375X0.00125*%
%ADD19R,0.01250X0.00125*%
%ADD20R,0.02250X0.00125*%
%ADD21R,0.02375X0.00125*%
%ADD22R,0.04375X0.00125*%
%ADD23R,0.02750X0.00125*%
%ADD24R,0.02875X0.00125*%
%ADD25R,0.03500X0.00125*%
%ADD26R,0.04000X0.00125*%
%ADD27R,0.04250X0.00125*%
%ADD28R,0.04500X0.00125*%
%ADD29R,0.04625X0.00125*%
%ADD30R,0.04750X0.00125*%
%ADD31R,0.05125X0.00125*%
%ADD32R,0.02000X0.00125*%
%ADD33R,0.01875X0.00125*%
%ADD34R,0.01125X0.00125*%
%ADD35R,0.01750X0.00125*%
%ADD36R,0.01625X0.00125*%
%ADD37R,0.01500X0.00125*%
%ADD38R,0.05000X0.00125*%
%ADD39R,0.04875X0.00125*%
%ADD40R,0.02500X0.00125*%
%ADD41R,0.03000X0.00125*%
%ADD42R,0.03375X0.00125*%
%ADD43R,0.03750X0.00125*%
%ADD44R,0.04125X0.00125*%
%ADD45R,0.02125X0.00125*%
%ADD46R,0.05250X0.00125*%
%ADD47R,0.03875X0.00125*%
%ADD48R,0.03625X0.00125*%
%ADD49R,0.03125X0.00125*%
%ADD50R,0.01000X0.00125*%
%ADD51R,0.00125X0.00125*%
%ADD52R,0.00250X0.00125*%
%ADD53R,0.00375X0.00125*%
%ADD54R,0.00500X0.00125*%
%ADD55R,0.00750X0.00125*%
%ADD56R,0.00875X0.00125*%
%ADD57R,0.02625X0.00125*%
%ADD58R,0.03250X0.00125*%
%ADD59R,0.05500X0.00125*%
%ADD60R,0.05625X0.00125*%
%ADD61R,0.05750X0.00125*%
%ADD62R,0.06125X0.00125*%
%ADD63R,0.06000X0.00125*%
%ADD64R,0.06375X0.00125*%
%ADD65R,0.06500X0.00125*%
%ADD66R,0.06750X0.00125*%
%ADD67R,0.06625X0.00125*%
%ADD68R,0.06875X0.00125*%
%ADD69R,0.07125X0.00125*%
%ADD70R,0.07250X0.00125*%
%ADD71R,0.07375X0.00125*%
%ADD72R,0.07625X0.00125*%
%ADD73R,0.07750X0.00125*%
%ADD74R,0.08125X0.00125*%
%ADD75R,0.08000X0.00125*%
%ADD76R,0.08250X0.00125*%
%ADD77R,0.08875X0.00125*%
%ADD78R,0.09000X0.00125*%
%ADD79R,0.09125X0.00125*%
%ADD80R,0.09750X0.00125*%
%ADD81R,0.10875X0.00125*%
%ADD82R,0.10750X0.00125*%
%ADD83R,0.11625X0.00125*%
%ADD84R,0.11500X0.00125*%
%ADD85R,0.26875X0.00125*%
%ADD86R,0.26625X0.00125*%
%ADD87R,0.26250X0.00125*%
%ADD88R,0.25875X0.00125*%
%ADD89R,0.25625X0.00125*%
%ADD90R,0.25250X0.00125*%
%ADD91R,0.25000X0.00125*%
%ADD92R,0.24625X0.00125*%
%ADD93R,0.24125X0.00125*%
%ADD94R,0.23875X0.00125*%
%ADD95R,0.23500X0.00125*%
%ADD96R,0.23375X0.00125*%
%ADD97R,0.22875X0.00125*%
%ADD98R,0.22250X0.00125*%
%ADD99R,0.22125X0.00125*%
%ADD100R,0.21625X0.00125*%
%ADD101R,0.21250X0.00125*%
%ADD102R,0.20875X0.00125*%
%ADD103R,0.20375X0.00125*%
%ADD104R,0.19875X0.00125*%
%ADD105R,0.19375X0.00125*%
%ADD106R,0.19125X0.00125*%
%ADD107R,0.18375X0.00125*%
%ADD108R,0.17875X0.00125*%
%ADD109R,0.17500X0.00125*%
%ADD110R,0.16625X0.00125*%
%ADD111R,0.16375X0.00125*%
%ADD112R,0.15750X0.00125*%
%ADD113R,0.14875X0.00125*%
%ADD114R,0.14375X0.00125*%
%ADD115R,0.13500X0.00125*%
%ADD116R,0.12875X0.00125*%
%ADD117R,0.12125X0.00125*%
%ADD118R,0.10375X0.00125*%
%ADD119R,0.08375X0.00125*%
%ADD120R,0.06250X0.00125*%
%ADD121R,0.05875X0.00125*%
%ADD122R,0.05375X0.00125*%
%ADD123R,0.13125X0.00125*%
%ADD124R,0.13625X0.00125*%
%ADD125R,0.07500X0.00125*%
%ADD126R,0.07875X0.00125*%
D10*
X0170563Y0135175D03*
X0170563Y0135250D03*
X0170488Y0135400D03*
X0170488Y0135475D03*
X0172737Y0135250D03*
X0172737Y0135175D03*
D11*
X0172775Y0135325D03*
X0172775Y0135400D03*
X0172775Y0135475D03*
X0172775Y0135550D03*
X0172775Y0135625D03*
X0170525Y0135325D03*
X0170450Y0135550D03*
X0170450Y0135625D03*
X0170450Y0135700D03*
D12*
X0169800Y0138608D02*
X0172903Y0138608D01*
X0171868Y0139642D01*
X0172903Y0140676D01*
X0169800Y0140676D01*
X0170317Y0142015D02*
X0169800Y0142532D01*
X0169800Y0143566D01*
X0170317Y0144083D01*
X0172386Y0144083D01*
X0172903Y0143566D01*
X0172903Y0142532D01*
X0172386Y0142015D01*
X0170317Y0142015D01*
X0170317Y0145422D02*
X0169800Y0145939D01*
X0169800Y0146973D01*
X0170317Y0147490D01*
X0170834Y0147490D01*
X0171351Y0146973D01*
X0171351Y0145939D01*
X0171868Y0145422D01*
X0172386Y0145422D01*
X0172903Y0145939D01*
X0172903Y0146973D01*
X0172386Y0147490D01*
X0172903Y0148829D02*
X0172903Y0149863D01*
X0172903Y0149346D02*
X0169800Y0149346D01*
X0169800Y0148829D02*
X0169800Y0149863D01*
X0162403Y0149762D02*
X0160334Y0149762D01*
X0159300Y0148727D01*
X0160334Y0147693D01*
X0162403Y0147693D01*
X0162403Y0146355D02*
X0162403Y0144286D01*
X0160851Y0144286D01*
X0161368Y0145320D01*
X0161368Y0145838D01*
X0160851Y0146355D01*
X0159817Y0146355D01*
X0159300Y0145838D01*
X0159300Y0144803D01*
X0159817Y0144286D01*
X0152566Y0127053D02*
X0152566Y0123950D01*
X0153600Y0123950D02*
X0151532Y0123950D01*
X0150193Y0123950D02*
X0149159Y0124984D01*
X0149159Y0126018D01*
X0150193Y0127053D01*
X0152566Y0127053D02*
X0153600Y0126018D01*
X0144515Y0127053D02*
X0142446Y0127053D01*
X0143481Y0127053D02*
X0143481Y0123950D01*
X0141108Y0124467D02*
X0141108Y0126018D01*
X0141108Y0124467D02*
X0140591Y0123950D01*
X0140074Y0124467D01*
X0139557Y0123950D01*
X0139040Y0124467D01*
X0139040Y0126018D01*
X0137701Y0125501D02*
X0137701Y0124467D01*
X0137184Y0123950D01*
X0136150Y0123950D01*
X0135633Y0124467D01*
X0135633Y0125501D01*
X0136150Y0126018D01*
X0137184Y0126018D01*
X0137701Y0125501D01*
X0130887Y0125501D02*
X0129853Y0125501D01*
X0130887Y0123950D02*
X0128819Y0123950D01*
X0127480Y0124467D02*
X0126963Y0123950D01*
X0125412Y0123950D01*
X0125412Y0123433D02*
X0125929Y0122916D01*
X0126446Y0122916D01*
X0125412Y0123433D02*
X0125412Y0126018D01*
X0124074Y0125501D02*
X0124074Y0124467D01*
X0123556Y0123950D01*
X0122522Y0123950D01*
X0122005Y0124984D02*
X0124074Y0124984D01*
X0124074Y0125501D02*
X0123556Y0126018D01*
X0122522Y0126018D01*
X0122005Y0125501D01*
X0122005Y0124984D01*
X0120667Y0123950D02*
X0119115Y0123950D01*
X0118598Y0124467D01*
X0118598Y0125501D01*
X0119115Y0126018D01*
X0120667Y0126018D01*
X0120667Y0127053D02*
X0120667Y0123950D01*
X0117260Y0124467D02*
X0116743Y0124984D01*
X0115191Y0124984D01*
X0115191Y0125501D02*
X0115191Y0123950D01*
X0116743Y0123950D01*
X0117260Y0124467D01*
X0116743Y0126018D02*
X0115708Y0126018D01*
X0115191Y0125501D01*
X0113853Y0123950D02*
X0112819Y0123950D01*
X0113336Y0123950D02*
X0113336Y0127053D01*
X0113853Y0127053D01*
X0111582Y0127053D02*
X0111064Y0127053D01*
X0111064Y0123950D01*
X0110547Y0123950D02*
X0111582Y0123950D01*
X0109310Y0123950D02*
X0107759Y0123950D01*
X0107242Y0124467D01*
X0107759Y0124984D01*
X0108793Y0124984D01*
X0109310Y0125501D01*
X0108793Y0126018D01*
X0107242Y0126018D01*
X0105903Y0121503D02*
X0105903Y0118400D01*
X0103835Y0118400D01*
X0102496Y0118400D02*
X0102496Y0121503D01*
X0100945Y0121503D01*
X0100428Y0120986D01*
X0100428Y0118917D01*
X0100945Y0118400D01*
X0102496Y0118400D01*
X0104869Y0119951D02*
X0105903Y0119951D01*
X0105903Y0121503D02*
X0103835Y0121503D01*
X0102496Y0123950D02*
X0100945Y0123950D01*
X0100428Y0124467D01*
X0100945Y0124984D01*
X0101979Y0124984D01*
X0102496Y0125501D01*
X0101979Y0126018D01*
X0100428Y0126018D01*
X0099090Y0125501D02*
X0099090Y0124467D01*
X0098572Y0123950D01*
X0097538Y0123950D01*
X0097021Y0124984D02*
X0099090Y0124984D01*
X0099090Y0125501D02*
X0098572Y0126018D01*
X0097538Y0126018D01*
X0097021Y0125501D01*
X0097021Y0124984D01*
X0095683Y0124984D02*
X0093614Y0124984D01*
X0093614Y0125501D01*
X0094131Y0126018D01*
X0095166Y0126018D01*
X0095683Y0125501D01*
X0095683Y0124467D01*
X0095166Y0123950D01*
X0094131Y0123950D01*
X0091759Y0120468D02*
X0090207Y0120468D01*
X0090724Y0119434D02*
X0091759Y0119434D01*
X0092276Y0119951D01*
X0091759Y0120468D01*
X0090724Y0119434D02*
X0090207Y0118917D01*
X0090724Y0118400D01*
X0092276Y0118400D01*
X0088352Y0118917D02*
X0087835Y0118400D01*
X0088352Y0118917D02*
X0088352Y0120986D01*
X0088869Y0120468D02*
X0087835Y0120468D01*
X0086080Y0120468D02*
X0085046Y0120468D01*
X0084529Y0119951D01*
X0084529Y0118400D01*
X0086080Y0118400D01*
X0086597Y0118917D01*
X0086080Y0119434D01*
X0084529Y0119434D01*
X0083191Y0119434D02*
X0082156Y0120468D01*
X0081639Y0120468D01*
X0080351Y0120468D02*
X0079317Y0120468D01*
X0079834Y0120986D02*
X0079834Y0118917D01*
X0079317Y0118400D01*
X0080410Y0114736D02*
X0080410Y0112667D01*
X0079893Y0112150D01*
X0078139Y0112667D02*
X0077622Y0112150D01*
X0078139Y0112667D02*
X0078139Y0114736D01*
X0078656Y0114218D02*
X0077622Y0114218D01*
X0076385Y0113701D02*
X0076385Y0112667D01*
X0075868Y0112150D01*
X0074834Y0112150D01*
X0074317Y0112667D01*
X0074317Y0113701D01*
X0074834Y0114218D01*
X0075868Y0114218D01*
X0076385Y0113701D01*
X0072978Y0114218D02*
X0071427Y0114218D01*
X0070910Y0113701D01*
X0070910Y0112150D01*
X0072978Y0112150D02*
X0072978Y0114218D01*
X0074673Y0117366D02*
X0074673Y0120468D01*
X0073122Y0120468D01*
X0072605Y0119951D01*
X0072605Y0118917D01*
X0073122Y0118400D01*
X0074673Y0118400D01*
X0071266Y0118917D02*
X0070749Y0118400D01*
X0069198Y0118400D01*
X0069198Y0120468D01*
X0067860Y0121503D02*
X0067342Y0121503D01*
X0067342Y0118400D01*
X0066825Y0118400D02*
X0067860Y0118400D01*
X0065588Y0118400D02*
X0064037Y0118400D01*
X0063520Y0118917D01*
X0064037Y0119434D01*
X0065071Y0119434D01*
X0065588Y0119951D01*
X0065071Y0120468D01*
X0063520Y0120468D01*
X0062181Y0120468D02*
X0061664Y0120468D01*
X0061664Y0118400D01*
X0062181Y0118400D02*
X0061147Y0118400D01*
X0059910Y0118400D02*
X0059910Y0120468D01*
X0058359Y0120468D01*
X0057842Y0119951D01*
X0057842Y0118400D01*
X0056503Y0118917D02*
X0055986Y0118400D01*
X0054435Y0118400D01*
X0054435Y0117883D02*
X0054435Y0120468D01*
X0055986Y0120468D01*
X0056503Y0119951D01*
X0056503Y0118917D01*
X0055469Y0117366D02*
X0054952Y0117366D01*
X0054435Y0117883D01*
X0055935Y0123950D02*
X0055935Y0126018D01*
X0054901Y0126018D02*
X0054384Y0126018D01*
X0054901Y0126018D02*
X0055935Y0124984D01*
X0057274Y0124984D02*
X0059342Y0124984D01*
X0059342Y0124467D02*
X0059342Y0125501D01*
X0058825Y0126018D01*
X0057791Y0126018D01*
X0057274Y0125501D01*
X0057274Y0124984D01*
X0057791Y0123950D02*
X0058825Y0123950D01*
X0059342Y0124467D01*
X0060681Y0123950D02*
X0060681Y0125501D01*
X0061198Y0126018D01*
X0062232Y0126018D01*
X0062749Y0125501D01*
X0063986Y0126018D02*
X0065021Y0126018D01*
X0064503Y0126536D02*
X0064503Y0124467D01*
X0063986Y0123950D01*
X0062749Y0123950D02*
X0062749Y0127053D01*
X0062851Y0129500D02*
X0063885Y0129500D01*
X0063368Y0129500D02*
X0063368Y0132603D01*
X0063885Y0132603D01*
X0065223Y0132086D02*
X0065223Y0131051D01*
X0065740Y0130534D01*
X0067292Y0130534D01*
X0067292Y0129500D02*
X0067292Y0132603D01*
X0065740Y0132603D01*
X0065223Y0132086D01*
X0061096Y0131568D02*
X0060062Y0131568D01*
X0059545Y0131051D01*
X0059545Y0129500D01*
X0061096Y0129500D01*
X0061613Y0130017D01*
X0061096Y0130534D01*
X0059545Y0130534D01*
X0058207Y0130017D02*
X0057689Y0129500D01*
X0056138Y0129500D01*
X0056138Y0128983D02*
X0056655Y0128466D01*
X0057172Y0128466D01*
X0056138Y0128983D02*
X0056138Y0131568D01*
X0054800Y0131568D02*
X0054800Y0131051D01*
X0054283Y0131051D01*
X0054283Y0131568D01*
X0054800Y0131568D01*
X0054800Y0130017D02*
X0054800Y0129500D01*
X0054283Y0129500D01*
X0054283Y0130017D01*
X0054800Y0130017D01*
X0058207Y0130017D02*
X0058207Y0131568D01*
X0066359Y0125501D02*
X0066876Y0126018D01*
X0067910Y0126018D01*
X0068427Y0125501D01*
X0068427Y0124467D01*
X0067910Y0123950D01*
X0066876Y0123950D01*
X0066359Y0124467D01*
X0066359Y0125501D01*
X0069766Y0125501D02*
X0069766Y0123950D01*
X0069766Y0125501D02*
X0070283Y0126018D01*
X0071834Y0126018D01*
X0071834Y0123950D01*
X0073173Y0123950D02*
X0074724Y0123950D01*
X0075241Y0124467D01*
X0074724Y0124984D01*
X0073173Y0124984D01*
X0073173Y0125501D02*
X0073173Y0123950D01*
X0073173Y0125501D02*
X0073690Y0126018D01*
X0074724Y0126018D01*
X0075342Y0129500D02*
X0075860Y0130017D01*
X0075860Y0132086D01*
X0076377Y0131568D02*
X0075342Y0131568D01*
X0074105Y0131051D02*
X0073588Y0131568D01*
X0072554Y0131568D01*
X0072037Y0131051D01*
X0072037Y0130017D01*
X0072554Y0129500D01*
X0073588Y0129500D01*
X0074105Y0130017D01*
X0074105Y0131051D01*
X0081122Y0131568D02*
X0081122Y0130017D01*
X0081639Y0129500D01*
X0082156Y0130017D01*
X0082673Y0129500D01*
X0083191Y0130017D01*
X0083191Y0131568D01*
X0084529Y0131051D02*
X0085046Y0131568D01*
X0086080Y0131568D01*
X0086597Y0131051D01*
X0086597Y0130017D01*
X0086080Y0129500D01*
X0085046Y0129500D01*
X0084529Y0130017D01*
X0084529Y0131051D01*
X0087936Y0131051D02*
X0090004Y0131051D01*
X0090004Y0129500D02*
X0090004Y0132603D01*
X0087936Y0132603D02*
X0087936Y0129500D01*
X0088352Y0126018D02*
X0088869Y0125501D01*
X0088869Y0124467D01*
X0088352Y0123950D01*
X0087318Y0123950D01*
X0086800Y0124467D01*
X0086800Y0125501D01*
X0087318Y0126018D01*
X0088352Y0126018D01*
X0085462Y0126018D02*
X0085462Y0123950D01*
X0085462Y0126018D02*
X0083911Y0126018D01*
X0083394Y0125501D01*
X0083394Y0123950D01*
X0082055Y0124467D02*
X0082055Y0125501D01*
X0081538Y0126018D01*
X0080504Y0126018D01*
X0079987Y0125501D01*
X0079987Y0124984D01*
X0082055Y0124984D01*
X0082055Y0124467D02*
X0081538Y0123950D01*
X0080504Y0123950D01*
X0083191Y0120468D02*
X0083191Y0118400D01*
X0087741Y0115253D02*
X0087741Y0112150D01*
X0086190Y0112150D01*
X0085673Y0112667D01*
X0085673Y0113701D01*
X0086190Y0114218D01*
X0087741Y0114218D01*
X0084334Y0114218D02*
X0084334Y0112667D01*
X0083817Y0112150D01*
X0082266Y0112150D01*
X0082266Y0114218D01*
X0080928Y0114218D02*
X0079893Y0114218D01*
X0085054Y0108668D02*
X0084537Y0108151D01*
X0084537Y0107634D01*
X0086606Y0107634D01*
X0086606Y0107117D02*
X0086606Y0108151D01*
X0086089Y0108668D01*
X0085054Y0108668D01*
X0085054Y0106600D02*
X0086089Y0106600D01*
X0086606Y0107117D01*
X0087944Y0106600D02*
X0089495Y0106600D01*
X0090013Y0107117D01*
X0090013Y0108151D01*
X0089495Y0108668D01*
X0087944Y0108668D01*
X0087944Y0109703D02*
X0087944Y0106600D01*
X0091351Y0107117D02*
X0091351Y0108151D01*
X0091868Y0108668D01*
X0092902Y0108668D01*
X0093420Y0108151D01*
X0093420Y0107117D01*
X0092902Y0106600D01*
X0091868Y0106600D01*
X0091351Y0107117D01*
X0094758Y0106600D02*
X0094758Y0108151D01*
X0095275Y0108668D01*
X0095792Y0108151D01*
X0095792Y0106600D01*
X0096826Y0106600D02*
X0096826Y0108668D01*
X0096309Y0108668D01*
X0095792Y0108151D01*
X0096411Y0112150D02*
X0095894Y0112667D01*
X0096411Y0113184D01*
X0097445Y0113184D01*
X0097962Y0113701D01*
X0097445Y0114218D01*
X0095894Y0114218D01*
X0094555Y0113701D02*
X0094038Y0114218D01*
X0092487Y0114218D01*
X0093004Y0113184D02*
X0094038Y0113184D01*
X0094555Y0113701D01*
X0094555Y0112150D02*
X0093004Y0112150D01*
X0092487Y0112667D01*
X0093004Y0113184D01*
X0096411Y0112150D02*
X0097962Y0112150D01*
X0099301Y0113184D02*
X0101369Y0113184D01*
X0101369Y0112667D02*
X0101369Y0113701D01*
X0100852Y0114218D01*
X0099818Y0114218D01*
X0099301Y0113701D01*
X0099301Y0113184D01*
X0099818Y0112150D02*
X0100852Y0112150D01*
X0101369Y0112667D01*
X0102657Y0114218D02*
X0103174Y0114218D01*
X0104208Y0113184D01*
X0104208Y0112150D02*
X0104208Y0114218D01*
X0105546Y0113701D02*
X0106064Y0113184D01*
X0107615Y0113184D01*
X0107615Y0112150D02*
X0107615Y0115253D01*
X0106064Y0115253D01*
X0105546Y0114736D01*
X0105546Y0113701D01*
X0105445Y0108668D02*
X0104928Y0108668D01*
X0105445Y0108668D02*
X0106479Y0107634D01*
X0106479Y0106600D02*
X0106479Y0108668D01*
X0107818Y0108151D02*
X0107818Y0106600D01*
X0109369Y0106600D01*
X0109886Y0107117D01*
X0109369Y0107634D01*
X0107818Y0107634D01*
X0107818Y0108151D02*
X0108335Y0108668D01*
X0109369Y0108668D01*
X0111225Y0108151D02*
X0111225Y0106600D01*
X0111225Y0108151D02*
X0111742Y0108668D01*
X0112776Y0108668D01*
X0113293Y0108151D01*
X0114632Y0108668D02*
X0116183Y0108668D01*
X0116700Y0108151D01*
X0116183Y0107634D01*
X0115149Y0107634D01*
X0114632Y0107117D01*
X0115149Y0106600D01*
X0116700Y0106600D01*
X0116149Y0104253D02*
X0117700Y0102701D01*
X0115632Y0102701D01*
X0116149Y0101150D02*
X0116149Y0104253D01*
X0114293Y0104253D02*
X0113259Y0103218D01*
X0113259Y0102184D01*
X0114293Y0101150D01*
X0113776Y0097668D02*
X0114293Y0097151D01*
X0114293Y0096117D01*
X0113776Y0095600D01*
X0112742Y0095600D01*
X0112225Y0096117D01*
X0112225Y0097151D01*
X0112742Y0097668D01*
X0113776Y0097668D01*
X0115632Y0097151D02*
X0116149Y0097668D01*
X0116666Y0097151D01*
X0116666Y0095600D01*
X0117700Y0095600D02*
X0117700Y0097668D01*
X0117183Y0097668D01*
X0116666Y0097151D01*
X0115632Y0097151D02*
X0115632Y0095600D01*
X0110886Y0096117D02*
X0110886Y0097151D01*
X0110369Y0097668D01*
X0108818Y0097668D01*
X0108818Y0098703D02*
X0108818Y0095600D01*
X0110369Y0095600D01*
X0110886Y0096117D01*
X0107479Y0096117D02*
X0107479Y0097151D01*
X0106962Y0097668D01*
X0105928Y0097668D01*
X0105411Y0097151D01*
X0105411Y0096634D01*
X0107479Y0096634D01*
X0107479Y0096117D02*
X0106962Y0095600D01*
X0105928Y0095600D01*
X0104072Y0095600D02*
X0102521Y0095600D01*
X0102004Y0096117D01*
X0102521Y0096634D01*
X0103555Y0096634D01*
X0104072Y0097151D01*
X0103555Y0097668D01*
X0102004Y0097668D01*
X0101801Y0101150D02*
X0100767Y0101150D01*
X0101284Y0101150D02*
X0101284Y0104253D01*
X0101801Y0104253D01*
X0103140Y0102701D02*
X0103657Y0103218D01*
X0104691Y0103218D01*
X0105208Y0102701D01*
X0105208Y0101667D01*
X0104691Y0101150D01*
X0103657Y0101150D01*
X0103140Y0101667D01*
X0103140Y0102701D01*
X0106546Y0101667D02*
X0107064Y0101150D01*
X0108098Y0101150D01*
X0108615Y0101667D01*
X0108615Y0103736D01*
X0108098Y0104253D01*
X0107064Y0104253D01*
X0106546Y0103736D01*
X0103640Y0107117D02*
X0103640Y0108151D01*
X0103123Y0108668D01*
X0102089Y0108668D01*
X0101572Y0108151D01*
X0101572Y0107634D01*
X0103640Y0107634D01*
X0103640Y0107117D02*
X0103123Y0106600D01*
X0102089Y0106600D01*
X0099530Y0104253D02*
X0099013Y0104253D01*
X0099013Y0101150D01*
X0099530Y0101150D02*
X0098496Y0101150D01*
X0097259Y0101667D02*
X0097259Y0102701D01*
X0096741Y0103218D01*
X0095707Y0103218D01*
X0095190Y0102701D01*
X0095190Y0102184D01*
X0097259Y0102184D01*
X0097259Y0101667D02*
X0096741Y0101150D01*
X0095707Y0101150D01*
X0093852Y0101667D02*
X0093335Y0101150D01*
X0091783Y0101150D01*
X0089928Y0101667D02*
X0089411Y0101150D01*
X0089928Y0101667D02*
X0089928Y0103736D01*
X0090445Y0103218D02*
X0089411Y0103218D01*
X0091783Y0103218D02*
X0093335Y0103218D01*
X0093852Y0102701D01*
X0093852Y0101667D01*
X0093335Y0097668D02*
X0091783Y0097668D01*
X0092300Y0096634D02*
X0093335Y0096634D01*
X0093852Y0097151D01*
X0093335Y0097668D01*
X0092300Y0096634D02*
X0091783Y0096117D01*
X0092300Y0095600D01*
X0093852Y0095600D01*
X0095190Y0095600D02*
X0096741Y0095600D01*
X0097259Y0096117D01*
X0096741Y0096634D01*
X0095190Y0096634D01*
X0095190Y0097151D02*
X0095190Y0095600D01*
X0095190Y0097151D02*
X0095707Y0097668D01*
X0096741Y0097668D01*
X0087038Y0097668D02*
X0087038Y0096117D01*
X0086521Y0095600D01*
X0084969Y0095600D01*
X0084969Y0095083D02*
X0085487Y0094566D01*
X0086004Y0094566D01*
X0084969Y0095083D02*
X0084969Y0097668D01*
X0083631Y0097151D02*
X0083114Y0097668D01*
X0082080Y0097668D01*
X0081563Y0097151D01*
X0081563Y0096117D01*
X0082080Y0095600D01*
X0083114Y0095600D01*
X0083631Y0096117D01*
X0083631Y0097151D01*
X0080224Y0097668D02*
X0080224Y0096117D01*
X0079707Y0095600D01*
X0078156Y0095600D01*
X0078156Y0097668D01*
X0079808Y0101150D02*
X0079291Y0101667D01*
X0079808Y0102184D01*
X0080843Y0102184D01*
X0081360Y0102701D01*
X0080843Y0103218D01*
X0079291Y0103218D01*
X0079808Y0101150D02*
X0081360Y0101150D01*
X0082698Y0101150D02*
X0084249Y0101150D01*
X0084767Y0101667D01*
X0084249Y0102184D01*
X0082698Y0102184D01*
X0082698Y0102701D02*
X0082698Y0101150D01*
X0082698Y0102701D02*
X0083215Y0103218D01*
X0084249Y0103218D01*
X0074546Y0103218D02*
X0074029Y0103218D01*
X0073512Y0102701D01*
X0072995Y0103218D01*
X0072477Y0102701D01*
X0072477Y0101150D01*
X0073512Y0101150D02*
X0073512Y0102701D01*
X0074546Y0103218D02*
X0074546Y0101150D01*
X0071139Y0101667D02*
X0070622Y0102184D01*
X0069071Y0102184D01*
X0069071Y0102701D02*
X0069071Y0101150D01*
X0070622Y0101150D01*
X0071139Y0101667D01*
X0070622Y0103218D02*
X0069588Y0103218D01*
X0069071Y0102701D01*
X0067732Y0103218D02*
X0066181Y0103218D01*
X0065664Y0102701D01*
X0065664Y0101150D01*
X0064325Y0101667D02*
X0063808Y0101150D01*
X0062257Y0101150D01*
X0062257Y0100633D02*
X0062257Y0103218D01*
X0064325Y0103218D02*
X0064325Y0101667D01*
X0063291Y0100116D02*
X0062774Y0100116D01*
X0062257Y0100633D01*
X0065045Y0097668D02*
X0064528Y0097151D01*
X0064528Y0095600D01*
X0066596Y0095600D02*
X0066596Y0097668D01*
X0065045Y0097668D01*
X0067935Y0097151D02*
X0068452Y0097668D01*
X0069486Y0097668D01*
X0069486Y0096634D02*
X0067935Y0096634D01*
X0067935Y0097151D02*
X0067935Y0095600D01*
X0069486Y0095600D01*
X0070003Y0096117D01*
X0069486Y0096634D01*
X0071342Y0095600D02*
X0072893Y0095600D01*
X0073410Y0096117D01*
X0073410Y0097151D01*
X0072893Y0097668D01*
X0071342Y0097668D01*
X0067732Y0101150D02*
X0067732Y0103218D01*
X0065130Y0112150D02*
X0065647Y0112667D01*
X0065647Y0114736D01*
X0066164Y0114218D02*
X0065130Y0114218D01*
X0063893Y0113701D02*
X0063893Y0112667D01*
X0063376Y0112150D01*
X0062342Y0112150D01*
X0061825Y0112667D01*
X0061825Y0113701D01*
X0062342Y0114218D01*
X0063376Y0114218D01*
X0063893Y0113701D01*
X0071266Y0118917D02*
X0071266Y0120468D01*
X0061664Y0121503D02*
X0061664Y0122020D01*
X0097021Y0120468D02*
X0098572Y0120468D01*
X0099089Y0119951D01*
X0098572Y0119434D01*
X0097538Y0119434D01*
X0097021Y0118917D01*
X0097538Y0118400D01*
X0099089Y0118400D01*
X0107242Y0118400D02*
X0109310Y0118400D01*
X0109310Y0121503D01*
X0113954Y0120468D02*
X0114988Y0121503D01*
X0116327Y0120986D02*
X0116844Y0121503D01*
X0117878Y0121503D01*
X0118395Y0120986D01*
X0116327Y0120986D02*
X0116327Y0120468D01*
X0118395Y0118400D01*
X0116327Y0118400D01*
X0114988Y0118400D02*
X0113954Y0119434D01*
X0113954Y0120468D01*
X0113293Y0115253D02*
X0112259Y0114218D01*
X0112259Y0113184D01*
X0113293Y0112150D01*
X0114632Y0112667D02*
X0115149Y0112150D01*
X0116183Y0112150D01*
X0116700Y0112667D01*
X0115666Y0113701D02*
X0115149Y0113701D01*
X0114632Y0113184D01*
X0114632Y0112667D01*
X0115149Y0113701D02*
X0114632Y0114218D01*
X0114632Y0114736D01*
X0115149Y0115253D01*
X0116183Y0115253D01*
X0116700Y0114736D01*
X0113293Y0109703D02*
X0113293Y0106600D01*
X0127480Y0124467D02*
X0127480Y0126018D01*
X0128819Y0127053D02*
X0130887Y0127053D01*
X0130887Y0123950D01*
X0179800Y0141396D02*
X0179800Y0142431D01*
X0180317Y0142948D01*
X0181351Y0142948D01*
X0181351Y0141913D01*
X0180317Y0140879D02*
X0179800Y0141396D01*
X0180317Y0140879D02*
X0182386Y0140879D01*
X0182903Y0141396D01*
X0182903Y0142431D01*
X0182386Y0142948D01*
X0182903Y0144286D02*
X0179800Y0146355D01*
X0182903Y0146355D01*
X0182903Y0147693D02*
X0182903Y0149244D01*
X0182386Y0149762D01*
X0180317Y0149762D01*
X0179800Y0149244D01*
X0179800Y0147693D01*
X0182903Y0147693D01*
X0182903Y0144286D02*
X0179800Y0144286D01*
X0179800Y0172879D02*
X0182903Y0172879D01*
X0182903Y0174431D01*
X0182386Y0174948D01*
X0181351Y0174948D01*
X0180834Y0174431D01*
X0180834Y0172879D01*
X0180834Y0173913D02*
X0179800Y0174948D01*
X0180317Y0176286D02*
X0179800Y0176803D01*
X0179800Y0177837D01*
X0180317Y0178355D01*
X0180834Y0178355D01*
X0181351Y0177837D01*
X0181351Y0176803D01*
X0181868Y0176286D01*
X0182386Y0176286D01*
X0182903Y0176803D01*
X0182903Y0177837D01*
X0182386Y0178355D01*
X0182903Y0179693D02*
X0182903Y0181762D01*
X0182903Y0180727D02*
X0179800Y0180727D01*
X0172903Y0179693D02*
X0169800Y0179693D01*
X0170834Y0179693D02*
X0172903Y0181762D01*
X0171351Y0180210D02*
X0169800Y0181762D01*
X0170317Y0178355D02*
X0169800Y0177837D01*
X0169800Y0176803D01*
X0170317Y0176286D01*
X0172386Y0176286D01*
X0172903Y0176803D01*
X0172903Y0177837D01*
X0172386Y0178355D01*
X0172386Y0174948D02*
X0172903Y0174431D01*
X0172903Y0173396D01*
X0172386Y0172879D01*
X0171868Y0172879D01*
X0171351Y0173396D01*
X0171351Y0174431D01*
X0170834Y0174948D01*
X0170317Y0174948D01*
X0169800Y0174431D01*
X0169800Y0173396D01*
X0170317Y0172879D01*
X0162903Y0174108D02*
X0161868Y0175142D01*
X0162903Y0176176D01*
X0159800Y0176176D01*
X0159800Y0177515D02*
X0159800Y0178549D01*
X0159800Y0178032D02*
X0162903Y0178032D01*
X0162903Y0177515D02*
X0162903Y0178549D01*
X0162386Y0179786D02*
X0161868Y0179786D01*
X0161351Y0180303D01*
X0161351Y0181337D01*
X0160834Y0181855D01*
X0160317Y0181855D01*
X0159800Y0181337D01*
X0159800Y0180303D01*
X0160317Y0179786D01*
X0162386Y0179786D02*
X0162903Y0180303D01*
X0162903Y0181337D01*
X0162386Y0181855D01*
X0162386Y0183193D02*
X0160317Y0183193D01*
X0159800Y0183710D01*
X0159800Y0184744D01*
X0160317Y0185262D01*
X0162386Y0185262D01*
X0162903Y0184744D01*
X0162903Y0183710D01*
X0162386Y0183193D01*
X0162903Y0174108D02*
X0159800Y0174108D01*
X0137703Y0186618D02*
X0137136Y0186051D01*
X0134867Y0186051D01*
X0134300Y0186618D01*
X0134300Y0187752D01*
X0134867Y0188319D01*
X0136001Y0188319D01*
X0136001Y0187185D01*
X0137136Y0188319D02*
X0137703Y0187752D01*
X0137703Y0186618D01*
X0137703Y0189734D02*
X0137703Y0191435D01*
X0137136Y0192002D01*
X0136001Y0192002D01*
X0135434Y0191435D01*
X0135434Y0189734D01*
X0135434Y0190868D02*
X0134300Y0192002D01*
X0134300Y0193417D02*
X0137703Y0193417D01*
X0134300Y0195685D01*
X0137703Y0195685D01*
X0137703Y0189734D02*
X0134300Y0189734D01*
X0205300Y0190234D02*
X0205300Y0192502D01*
X0205300Y0193917D02*
X0208703Y0193917D01*
X0207001Y0194484D02*
X0205300Y0196185D01*
X0206434Y0193917D02*
X0208703Y0196185D01*
X0208703Y0190234D02*
X0205300Y0190234D01*
X0205867Y0188819D02*
X0205300Y0188252D01*
X0205300Y0186551D01*
X0208703Y0186551D01*
X0208703Y0188252D01*
X0208136Y0188819D01*
X0207569Y0188819D01*
X0207001Y0188252D01*
X0207001Y0186551D01*
X0207001Y0188252D02*
X0206434Y0188819D01*
X0205867Y0188819D01*
X0312882Y0173301D02*
X0315151Y0173301D01*
X0316565Y0171600D02*
X0318267Y0173301D01*
X0318834Y0172734D02*
X0316565Y0175003D01*
X0318834Y0175003D02*
X0318834Y0171600D01*
X0320248Y0171600D02*
X0322517Y0171600D01*
X0322517Y0175003D01*
X0323931Y0174436D02*
X0323931Y0173869D01*
X0324499Y0173301D01*
X0326200Y0173301D01*
X0326200Y0171600D02*
X0326200Y0175003D01*
X0324499Y0175003D01*
X0323931Y0174436D01*
X0324499Y0173301D02*
X0323931Y0172734D01*
X0323931Y0172167D01*
X0324499Y0171600D01*
X0326200Y0171600D01*
X0326200Y0150003D02*
X0324499Y0150003D01*
X0323931Y0149436D01*
X0323931Y0148301D01*
X0324499Y0147734D01*
X0326200Y0147734D01*
X0326200Y0146600D02*
X0326200Y0150003D01*
X0325066Y0147734D02*
X0323931Y0146600D01*
X0322517Y0146600D02*
X0320248Y0146600D01*
X0318834Y0146600D02*
X0318834Y0150003D01*
X0317132Y0150003D01*
X0316565Y0149436D01*
X0316565Y0147167D01*
X0317132Y0146600D01*
X0318834Y0146600D01*
X0321383Y0148301D02*
X0322517Y0148301D01*
X0322517Y0146600D02*
X0322517Y0150003D01*
X0320248Y0150003D01*
X0315151Y0148301D02*
X0312882Y0148301D01*
X0314016Y0147167D02*
X0314016Y0149436D01*
D13*
X0112124Y0075700D02*
X0109722Y0075700D01*
X0109722Y0080504D01*
X0109722Y0078903D02*
X0112124Y0078903D01*
X0112925Y0078102D01*
X0112925Y0076501D01*
X0112124Y0075700D01*
X0114820Y0078903D02*
X0115620Y0078903D01*
X0117222Y0077301D01*
X0117222Y0075700D02*
X0117222Y0078903D01*
X0119175Y0078102D02*
X0119175Y0075700D01*
X0121577Y0075700D01*
X0122378Y0076501D01*
X0121577Y0077301D01*
X0119175Y0077301D01*
X0119175Y0078102D02*
X0119976Y0078903D01*
X0121577Y0078903D01*
X0124332Y0078102D02*
X0125132Y0078903D01*
X0126734Y0078903D01*
X0127534Y0078102D01*
X0127534Y0076501D01*
X0126734Y0075700D01*
X0125132Y0075700D01*
X0124332Y0076501D01*
X0124332Y0078102D01*
X0129488Y0078102D02*
X0129488Y0076501D01*
X0130289Y0075700D01*
X0132691Y0075700D01*
X0132691Y0080504D01*
X0132691Y0078903D02*
X0130289Y0078903D01*
X0129488Y0078102D01*
X0134645Y0078102D02*
X0134645Y0076501D01*
X0135445Y0075700D01*
X0137047Y0075700D01*
X0137847Y0076501D01*
X0137847Y0078102D01*
X0137047Y0078903D01*
X0135445Y0078903D01*
X0134645Y0078102D01*
X0139801Y0078102D02*
X0139801Y0076501D01*
X0140602Y0075700D01*
X0143004Y0075700D01*
X0143004Y0074099D02*
X0143004Y0078903D01*
X0140602Y0078903D01*
X0139801Y0078102D01*
X0144957Y0078102D02*
X0144957Y0075700D01*
X0147359Y0075700D01*
X0148160Y0076501D01*
X0147359Y0077301D01*
X0144957Y0077301D01*
X0144957Y0078102D02*
X0145758Y0078903D01*
X0147359Y0078903D01*
X0150114Y0080504D02*
X0153316Y0075700D01*
X0155270Y0075700D02*
X0155270Y0078102D01*
X0156071Y0078903D01*
X0156871Y0078102D01*
X0156871Y0075700D01*
X0158473Y0075700D02*
X0158473Y0078903D01*
X0157672Y0078903D01*
X0156871Y0078102D01*
X0160427Y0078102D02*
X0160427Y0076501D01*
X0161227Y0075700D01*
X0162829Y0075700D01*
X0163629Y0076501D01*
X0163629Y0078102D01*
X0162829Y0078903D01*
X0161227Y0078903D01*
X0160427Y0078102D01*
X0165583Y0078903D02*
X0167985Y0078903D01*
X0168786Y0078102D01*
X0168786Y0076501D01*
X0167985Y0075700D01*
X0165583Y0075700D01*
X0170563Y0075700D02*
X0171364Y0075700D01*
X0171364Y0076501D01*
X0170563Y0076501D01*
X0170563Y0075700D01*
X0173317Y0076501D02*
X0173317Y0078102D01*
X0174118Y0078903D01*
X0176520Y0078903D01*
X0176520Y0080504D02*
X0176520Y0075700D01*
X0174118Y0075700D01*
X0173317Y0076501D01*
X0178474Y0075700D02*
X0178474Y0078903D01*
X0181677Y0078903D02*
X0181677Y0076501D01*
X0180876Y0075700D01*
X0178474Y0075700D01*
X0183630Y0075700D02*
X0183630Y0078102D01*
X0184431Y0078903D01*
X0186032Y0078903D01*
X0186833Y0078102D01*
X0188669Y0078903D02*
X0190271Y0078903D01*
X0189470Y0079703D02*
X0189470Y0076501D01*
X0188669Y0075700D01*
X0186833Y0075700D02*
X0186833Y0080504D01*
X0192908Y0080504D02*
X0192908Y0081305D01*
X0192908Y0078903D02*
X0192908Y0075700D01*
X0193708Y0075700D02*
X0192107Y0075700D01*
X0192908Y0078903D02*
X0193708Y0078903D01*
X0195662Y0078903D02*
X0195662Y0074899D01*
X0196463Y0074099D01*
X0197263Y0074099D01*
X0198064Y0075700D02*
X0195662Y0075700D01*
X0198064Y0075700D02*
X0198865Y0076501D01*
X0198865Y0078102D01*
X0198064Y0078903D01*
X0195662Y0078903D01*
X0200818Y0080504D02*
X0204021Y0075700D01*
X0209177Y0075700D02*
X0205975Y0080504D01*
X0210955Y0078903D02*
X0210955Y0078102D01*
X0211756Y0078102D01*
X0211756Y0078903D01*
X0210955Y0078903D01*
X0210955Y0076501D02*
X0210955Y0075700D01*
X0211756Y0075700D01*
X0211756Y0076501D01*
X0210955Y0076501D01*
X0213709Y0076501D02*
X0214510Y0077301D01*
X0216111Y0077301D01*
X0216912Y0078102D01*
X0216111Y0078903D01*
X0213709Y0078903D01*
X0213709Y0076501D02*
X0214510Y0075700D01*
X0216912Y0075700D01*
X0218866Y0076501D02*
X0219666Y0075700D01*
X0222068Y0075700D01*
X0222068Y0074099D02*
X0222068Y0078903D01*
X0219666Y0078903D01*
X0218866Y0078102D01*
X0218866Y0076501D01*
X0223905Y0075700D02*
X0224705Y0076501D01*
X0224705Y0079703D01*
X0223905Y0078903D02*
X0225506Y0078903D01*
X0227342Y0078903D02*
X0228944Y0078903D01*
X0228143Y0079703D02*
X0228143Y0076501D01*
X0227342Y0075700D01*
X0230897Y0075700D02*
X0230897Y0078102D01*
X0231698Y0078903D01*
X0233299Y0078903D01*
X0234100Y0078102D01*
X0234100Y0080504D02*
X0234100Y0075700D01*
X0184000Y0151300D02*
X0179000Y0151300D01*
X0176500Y0153800D01*
X0176500Y0168800D01*
X0179000Y0171300D01*
X0184000Y0171300D01*
X0186500Y0168800D01*
X0186500Y0153800D01*
X0184000Y0151300D01*
X0176500Y0153800D02*
X0174000Y0151300D01*
X0169000Y0151300D01*
X0166500Y0153800D01*
X0166500Y0168800D01*
X0169000Y0171300D01*
X0174000Y0171300D01*
X0176500Y0168800D01*
X0166500Y0168800D02*
X0164000Y0171300D01*
X0159000Y0171300D01*
X0156500Y0168800D01*
X0156500Y0153800D01*
X0159000Y0151300D01*
X0164000Y0151300D01*
X0166500Y0153800D01*
X0164000Y0172619D02*
X0159000Y0172619D01*
X0159000Y0186300D02*
X0154000Y0186300D01*
X0151500Y0188800D01*
X0149000Y0186300D01*
X0144000Y0186300D01*
X0141500Y0188800D01*
X0141500Y0193800D01*
X0144000Y0196300D01*
X0149000Y0196300D01*
X0151500Y0193800D01*
X0154000Y0196300D01*
X0159000Y0196300D01*
X0161500Y0193800D01*
X0164000Y0196300D01*
X0169000Y0196300D01*
X0171500Y0193800D01*
X0174000Y0196300D01*
X0179000Y0196300D01*
X0181500Y0193800D01*
X0184000Y0196300D01*
X0189000Y0196300D01*
X0191500Y0193800D01*
X0194000Y0196300D01*
X0199000Y0196300D01*
X0201500Y0193800D01*
X0201500Y0188800D01*
X0199000Y0186300D01*
X0194000Y0186300D01*
X0191500Y0188800D01*
X0189000Y0186300D01*
X0184000Y0186300D01*
X0181500Y0188800D01*
X0179000Y0186300D01*
X0174000Y0186300D01*
X0171500Y0188800D01*
X0169000Y0186300D01*
X0164000Y0186300D01*
X0161500Y0188800D01*
X0159000Y0186300D01*
D14*
X0159384Y0199300D02*
X0157516Y0199300D01*
X0158450Y0199300D02*
X0158450Y0204905D01*
X0159384Y0204905D02*
X0157516Y0204905D01*
X0155333Y0204905D02*
X0155333Y0199300D01*
X0152530Y0199300D01*
X0151596Y0200234D01*
X0151596Y0203971D01*
X0152530Y0204905D01*
X0155333Y0204905D01*
X0149256Y0204905D02*
X0149256Y0199300D01*
X0145519Y0199300D01*
X0147387Y0202102D02*
X0149256Y0202102D01*
X0149256Y0204905D02*
X0145519Y0204905D01*
X0146532Y0209200D02*
X0146532Y0214805D01*
X0150268Y0214805D02*
X0146532Y0209200D01*
X0150268Y0209200D02*
X0150268Y0214805D01*
X0152609Y0213871D02*
X0152609Y0210134D01*
X0153543Y0209200D01*
X0155412Y0209200D01*
X0156346Y0210134D01*
X0156346Y0213871D01*
X0155412Y0214805D01*
X0153543Y0214805D01*
X0152609Y0213871D01*
X0164763Y0213871D02*
X0164763Y0212002D01*
X0165698Y0211068D01*
X0168500Y0211068D01*
X0168500Y0209200D02*
X0168500Y0214805D01*
X0165698Y0214805D01*
X0164763Y0213871D01*
X0166632Y0211068D02*
X0164763Y0209200D01*
X0170841Y0209200D02*
X0174577Y0209200D01*
X0174577Y0214805D01*
X0170841Y0214805D01*
X0172709Y0212002D02*
X0174577Y0212002D01*
X0176918Y0210134D02*
X0176918Y0213871D01*
X0177852Y0214805D01*
X0180654Y0214805D01*
X0180654Y0209200D01*
X0177852Y0209200D01*
X0176918Y0210134D01*
X0176682Y0204905D02*
X0177616Y0203971D01*
X0177616Y0203037D01*
X0176682Y0202102D01*
X0174813Y0202102D01*
X0173879Y0201168D01*
X0173879Y0200234D01*
X0174813Y0199300D01*
X0176682Y0199300D01*
X0177616Y0200234D01*
X0179799Y0199300D02*
X0181667Y0199300D01*
X0180733Y0199300D02*
X0180733Y0204905D01*
X0181667Y0204905D02*
X0179799Y0204905D01*
X0176682Y0204905D02*
X0174813Y0204905D01*
X0173879Y0203971D01*
X0165461Y0203971D02*
X0165461Y0203037D01*
X0164527Y0202102D01*
X0162659Y0202102D01*
X0161725Y0201168D01*
X0161725Y0200234D01*
X0162659Y0199300D01*
X0164527Y0199300D01*
X0165461Y0200234D01*
X0165461Y0203971D02*
X0164527Y0204905D01*
X0162659Y0204905D01*
X0161725Y0203971D01*
X0182995Y0209200D02*
X0186732Y0209200D01*
X0186732Y0214805D01*
X0189072Y0213871D02*
X0190006Y0214805D01*
X0191875Y0214805D01*
X0192809Y0213871D01*
X0192809Y0210134D01*
X0191875Y0209200D01*
X0190006Y0209200D01*
X0189072Y0210134D01*
X0189072Y0213871D01*
X0195149Y0213871D02*
X0196084Y0214805D01*
X0197952Y0214805D01*
X0198886Y0213871D01*
X0198886Y0212937D01*
X0197952Y0212002D01*
X0196084Y0212002D01*
X0195149Y0211068D01*
X0195149Y0210134D01*
X0196084Y0209200D01*
X0197952Y0209200D01*
X0198886Y0210134D01*
X0193822Y0204905D02*
X0190085Y0204905D01*
X0191953Y0204905D02*
X0191953Y0199300D01*
X0187744Y0199300D02*
X0187744Y0204905D01*
X0187744Y0202102D02*
X0184008Y0202102D01*
X0184008Y0199300D02*
X0184008Y0204905D01*
X0236500Y0161300D02*
X0246500Y0161300D01*
X0241500Y0156300D02*
X0241500Y0166300D01*
X0106500Y0161300D02*
X0096500Y0161300D01*
D15*
X0168064Y0071154D02*
X0169548Y0069943D01*
X0170146Y0070251D01*
X0170787Y0070456D01*
X0170980Y0072361D01*
X0172420Y0072361D01*
X0172613Y0070456D01*
X0173254Y0070251D01*
X0173852Y0069943D01*
X0175336Y0071154D01*
X0176354Y0070136D01*
X0175143Y0068652D01*
X0175451Y0068054D01*
X0175656Y0067413D01*
X0177561Y0067220D01*
X0177561Y0065780D01*
X0175656Y0065587D01*
X0175451Y0064946D01*
X0175143Y0064348D01*
X0176354Y0062864D01*
X0175336Y0061846D01*
X0173852Y0063057D01*
X0173254Y0062749D01*
X0172406Y0064795D01*
X0172785Y0065007D01*
X0173103Y0065301D01*
X0173345Y0065662D01*
X0173495Y0066069D01*
X0173546Y0066500D01*
X0173493Y0066939D01*
X0173337Y0067352D01*
X0173088Y0067717D01*
X0172759Y0068011D01*
X0172369Y0068220D01*
X0171941Y0068329D01*
X0171499Y0068334D01*
X0171069Y0068234D01*
X0170675Y0068034D01*
X0170340Y0067746D01*
X0170082Y0067387D01*
X0169918Y0066977D01*
X0169855Y0066540D01*
X0169899Y0066100D01*
X0170045Y0065684D01*
X0170286Y0065314D01*
X0170609Y0065012D01*
X0170994Y0064795D01*
X0170146Y0062749D01*
X0169548Y0063057D01*
X0168064Y0061846D01*
X0167046Y0062864D01*
X0168257Y0064348D01*
X0167949Y0064946D01*
X0167744Y0065587D01*
X0165839Y0065780D01*
X0165839Y0067220D01*
X0167744Y0067413D01*
X0167949Y0068054D01*
X0168257Y0068652D01*
X0167046Y0070136D01*
X0168064Y0071154D01*
X0167495Y0070584D02*
X0168762Y0070584D01*
X0169485Y0069995D02*
X0167161Y0069995D01*
X0167641Y0069406D02*
X0175759Y0069406D01*
X0176239Y0069995D02*
X0173915Y0069995D01*
X0173751Y0069995D02*
X0169649Y0069995D01*
X0170800Y0070584D02*
X0172600Y0070584D01*
X0172540Y0071173D02*
X0170860Y0071173D01*
X0170919Y0071763D02*
X0172481Y0071763D01*
X0172421Y0072352D02*
X0170979Y0072352D01*
X0174638Y0070584D02*
X0175905Y0070584D01*
X0175278Y0068817D02*
X0168122Y0068817D01*
X0168039Y0068228D02*
X0171058Y0068228D01*
X0170263Y0067639D02*
X0167816Y0067639D01*
X0165839Y0067050D02*
X0169947Y0067050D01*
X0169863Y0066461D02*
X0165839Y0066461D01*
X0165839Y0065872D02*
X0169979Y0065872D01*
X0170319Y0065283D02*
X0167841Y0065283D01*
X0168079Y0064694D02*
X0170952Y0064694D01*
X0170708Y0064105D02*
X0168058Y0064105D01*
X0167578Y0063516D02*
X0170464Y0063516D01*
X0170220Y0062927D02*
X0169801Y0062927D01*
X0169389Y0062927D02*
X0167097Y0062927D01*
X0167573Y0062337D02*
X0168666Y0062337D01*
X0172692Y0064105D02*
X0175342Y0064105D01*
X0175321Y0064694D02*
X0172448Y0064694D01*
X0173083Y0065283D02*
X0175559Y0065283D01*
X0175822Y0063516D02*
X0172936Y0063516D01*
X0173180Y0062927D02*
X0173599Y0062927D01*
X0174011Y0062927D02*
X0176303Y0062927D01*
X0175827Y0062337D02*
X0174734Y0062337D01*
X0173422Y0065872D02*
X0177561Y0065872D01*
X0177561Y0066461D02*
X0173541Y0066461D01*
X0173451Y0067050D02*
X0177561Y0067050D01*
X0175584Y0067639D02*
X0173141Y0067639D01*
X0172336Y0068228D02*
X0175361Y0068228D01*
D16*
X0081500Y0135550D02*
X0271500Y0135550D01*
X0271640Y0135552D01*
X0271780Y0135558D01*
X0271920Y0135568D01*
X0272060Y0135581D01*
X0272199Y0135599D01*
X0272338Y0135621D01*
X0272475Y0135646D01*
X0272613Y0135675D01*
X0272749Y0135708D01*
X0272884Y0135745D01*
X0273018Y0135786D01*
X0273151Y0135831D01*
X0273283Y0135879D01*
X0273413Y0135931D01*
X0273542Y0135986D01*
X0273669Y0136045D01*
X0273795Y0136108D01*
X0273919Y0136174D01*
X0274040Y0136243D01*
X0274160Y0136316D01*
X0274278Y0136393D01*
X0274393Y0136472D01*
X0274507Y0136555D01*
X0274617Y0136641D01*
X0274726Y0136730D01*
X0274832Y0136822D01*
X0274935Y0136917D01*
X0275036Y0137014D01*
X0275133Y0137115D01*
X0275228Y0137218D01*
X0275320Y0137324D01*
X0275409Y0137433D01*
X0275495Y0137543D01*
X0275578Y0137657D01*
X0275657Y0137772D01*
X0275734Y0137890D01*
X0275807Y0138010D01*
X0275876Y0138131D01*
X0275942Y0138255D01*
X0276005Y0138381D01*
X0276064Y0138508D01*
X0276119Y0138637D01*
X0276171Y0138767D01*
X0276219Y0138899D01*
X0276264Y0139032D01*
X0276305Y0139166D01*
X0276342Y0139301D01*
X0276375Y0139437D01*
X0276404Y0139575D01*
X0276429Y0139712D01*
X0276451Y0139851D01*
X0276469Y0139990D01*
X0276482Y0140130D01*
X0276492Y0140270D01*
X0276498Y0140410D01*
X0276500Y0140550D01*
X0276500Y0182050D01*
X0276498Y0182190D01*
X0276492Y0182330D01*
X0276482Y0182470D01*
X0276469Y0182610D01*
X0276451Y0182749D01*
X0276429Y0182888D01*
X0276404Y0183025D01*
X0276375Y0183163D01*
X0276342Y0183299D01*
X0276305Y0183434D01*
X0276264Y0183568D01*
X0276219Y0183701D01*
X0276171Y0183833D01*
X0276119Y0183963D01*
X0276064Y0184092D01*
X0276005Y0184219D01*
X0275942Y0184345D01*
X0275876Y0184469D01*
X0275807Y0184590D01*
X0275734Y0184710D01*
X0275657Y0184828D01*
X0275578Y0184943D01*
X0275495Y0185057D01*
X0275409Y0185167D01*
X0275320Y0185276D01*
X0275228Y0185382D01*
X0275133Y0185485D01*
X0275036Y0185586D01*
X0274935Y0185683D01*
X0274832Y0185778D01*
X0274726Y0185870D01*
X0274617Y0185959D01*
X0274507Y0186045D01*
X0274393Y0186128D01*
X0274278Y0186207D01*
X0274160Y0186284D01*
X0274040Y0186357D01*
X0273919Y0186426D01*
X0273795Y0186492D01*
X0273669Y0186555D01*
X0273542Y0186614D01*
X0273413Y0186669D01*
X0273283Y0186721D01*
X0273151Y0186769D01*
X0273018Y0186814D01*
X0272884Y0186855D01*
X0272749Y0186892D01*
X0272613Y0186925D01*
X0272475Y0186954D01*
X0272338Y0186979D01*
X0272199Y0187001D01*
X0272060Y0187019D01*
X0271920Y0187032D01*
X0271780Y0187042D01*
X0271640Y0187048D01*
X0271500Y0187050D01*
X0081500Y0187050D01*
X0081360Y0187048D01*
X0081220Y0187042D01*
X0081080Y0187032D01*
X0080940Y0187019D01*
X0080801Y0187001D01*
X0080662Y0186979D01*
X0080525Y0186954D01*
X0080387Y0186925D01*
X0080251Y0186892D01*
X0080116Y0186855D01*
X0079982Y0186814D01*
X0079849Y0186769D01*
X0079717Y0186721D01*
X0079587Y0186669D01*
X0079458Y0186614D01*
X0079331Y0186555D01*
X0079205Y0186492D01*
X0079081Y0186426D01*
X0078960Y0186357D01*
X0078840Y0186284D01*
X0078722Y0186207D01*
X0078607Y0186128D01*
X0078493Y0186045D01*
X0078383Y0185959D01*
X0078274Y0185870D01*
X0078168Y0185778D01*
X0078065Y0185683D01*
X0077964Y0185586D01*
X0077867Y0185485D01*
X0077772Y0185382D01*
X0077680Y0185276D01*
X0077591Y0185167D01*
X0077505Y0185057D01*
X0077422Y0184943D01*
X0077343Y0184828D01*
X0077266Y0184710D01*
X0077193Y0184590D01*
X0077124Y0184469D01*
X0077058Y0184345D01*
X0076995Y0184219D01*
X0076936Y0184092D01*
X0076881Y0183963D01*
X0076829Y0183833D01*
X0076781Y0183701D01*
X0076736Y0183568D01*
X0076695Y0183434D01*
X0076658Y0183299D01*
X0076625Y0183163D01*
X0076596Y0183025D01*
X0076571Y0182888D01*
X0076549Y0182749D01*
X0076531Y0182610D01*
X0076518Y0182470D01*
X0076508Y0182330D01*
X0076502Y0182190D01*
X0076500Y0182050D01*
X0076500Y0140550D01*
X0076502Y0140410D01*
X0076508Y0140270D01*
X0076518Y0140130D01*
X0076531Y0139990D01*
X0076549Y0139851D01*
X0076571Y0139712D01*
X0076596Y0139575D01*
X0076625Y0139437D01*
X0076658Y0139301D01*
X0076695Y0139166D01*
X0076736Y0139032D01*
X0076781Y0138899D01*
X0076829Y0138767D01*
X0076881Y0138637D01*
X0076936Y0138508D01*
X0076995Y0138381D01*
X0077058Y0138255D01*
X0077124Y0138131D01*
X0077193Y0138010D01*
X0077266Y0137890D01*
X0077343Y0137772D01*
X0077422Y0137657D01*
X0077505Y0137543D01*
X0077591Y0137433D01*
X0077680Y0137324D01*
X0077772Y0137218D01*
X0077867Y0137115D01*
X0077964Y0137014D01*
X0078065Y0136917D01*
X0078168Y0136822D01*
X0078274Y0136730D01*
X0078383Y0136641D01*
X0078493Y0136555D01*
X0078607Y0136472D01*
X0078722Y0136393D01*
X0078840Y0136316D01*
X0078960Y0136243D01*
X0079081Y0136174D01*
X0079205Y0136108D01*
X0079331Y0136045D01*
X0079458Y0135986D01*
X0079587Y0135931D01*
X0079717Y0135879D01*
X0079849Y0135831D01*
X0079982Y0135786D01*
X0080116Y0135745D01*
X0080251Y0135708D01*
X0080387Y0135675D01*
X0080525Y0135646D01*
X0080662Y0135621D01*
X0080801Y0135599D01*
X0080940Y0135581D01*
X0081080Y0135568D01*
X0081220Y0135558D01*
X0081360Y0135552D01*
X0081500Y0135550D01*
D17*
X0151500Y0112300D03*
X0151500Y0112175D03*
X0151625Y0112425D03*
X0151625Y0112550D03*
X0170875Y0102800D03*
X0190625Y0112425D03*
X0190625Y0112550D03*
X0190750Y0112300D03*
X0175250Y0131175D03*
X0175000Y0131050D03*
X0173000Y0130925D03*
X0172875Y0130800D03*
X0171875Y0131550D03*
X0171875Y0131675D03*
X0171875Y0131800D03*
X0171875Y0131925D03*
X0171875Y0132050D03*
X0170375Y0132050D03*
X0170375Y0132175D03*
X0170375Y0132300D03*
X0170375Y0131925D03*
X0170375Y0131800D03*
X0169375Y0130800D03*
X0167250Y0131050D03*
X0167125Y0131175D03*
X0167000Y0131300D03*
D18*
X0152500Y0114050D03*
X0149875Y0106925D03*
X0149625Y0106300D03*
X0149500Y0106050D03*
X0149125Y0104925D03*
X0149000Y0104550D03*
X0149000Y0104425D03*
X0148875Y0104300D03*
X0148875Y0104175D03*
X0148750Y0103925D03*
X0148750Y0103800D03*
X0148625Y0103425D03*
X0148625Y0103300D03*
X0148500Y0103175D03*
X0153625Y0103425D03*
X0153750Y0102925D03*
X0160750Y0102925D03*
X0160750Y0103050D03*
X0160875Y0103175D03*
X0161000Y0103550D03*
X0161000Y0103675D03*
X0161125Y0103800D03*
X0161125Y0103925D03*
X0161250Y0104175D03*
X0161250Y0104300D03*
X0161375Y0104675D03*
X0161375Y0104800D03*
X0161500Y0104925D03*
X0161875Y0106050D03*
X0162000Y0106550D03*
X0162125Y0106800D03*
X0162250Y0107175D03*
X0162375Y0107425D03*
X0166000Y0103175D03*
X0166125Y0103050D03*
X0166125Y0102925D03*
X0168500Y0104550D03*
X0168625Y0104425D03*
X0168750Y0104300D03*
X0168375Y0104800D03*
X0168250Y0104925D03*
X0168250Y0108175D03*
X0168375Y0108425D03*
X0173125Y0108550D03*
X0173250Y0108300D03*
X0173375Y0108175D03*
X0173500Y0107675D03*
X0175750Y0107675D03*
X0175750Y0107800D03*
X0175875Y0107925D03*
X0175875Y0108050D03*
X0176250Y0108675D03*
X0176000Y0104925D03*
X0176000Y0104800D03*
X0176125Y0104675D03*
X0176250Y0104425D03*
X0173500Y0105300D03*
X0173375Y0104925D03*
X0173375Y0104800D03*
X0173250Y0104675D03*
X0173125Y0104425D03*
X0180625Y0104300D03*
X0180750Y0104425D03*
X0180875Y0104550D03*
X0180875Y0104675D03*
X0181000Y0104800D03*
X0181000Y0104925D03*
X0181125Y0105050D03*
X0181125Y0107925D03*
X0181000Y0108175D03*
X0180875Y0108425D03*
X0180750Y0108550D03*
X0183375Y0108425D03*
X0183500Y0108800D03*
X0183375Y0107550D03*
X0189125Y0104550D03*
X0189125Y0104425D03*
X0189000Y0104175D03*
X0189000Y0104050D03*
X0188875Y0103925D03*
X0188875Y0103800D03*
X0188750Y0103425D03*
X0188625Y0103050D03*
X0188625Y0102925D03*
X0189250Y0104800D03*
X0189750Y0106300D03*
X0189875Y0106550D03*
X0190125Y0107425D03*
X0193500Y0104050D03*
X0193875Y0102925D03*
X0189875Y0113925D03*
X0189750Y0114050D03*
D19*
X0189937Y0113800D03*
X0189937Y0113675D03*
X0191187Y0110050D03*
X0190562Y0108425D03*
X0190562Y0108300D03*
X0190437Y0108175D03*
X0190312Y0108050D03*
X0190312Y0107925D03*
X0190312Y0107800D03*
X0190312Y0107675D03*
X0190187Y0107550D03*
X0190062Y0107300D03*
X0190062Y0107175D03*
X0190062Y0107050D03*
X0189937Y0106925D03*
X0189937Y0106800D03*
X0189937Y0106675D03*
X0189812Y0106425D03*
X0189687Y0106175D03*
X0189687Y0106050D03*
X0189312Y0104925D03*
X0189187Y0104675D03*
X0189062Y0104300D03*
X0188812Y0103675D03*
X0188812Y0103550D03*
X0188687Y0103300D03*
X0188687Y0103175D03*
X0186562Y0103175D03*
X0186562Y0103300D03*
X0186562Y0103425D03*
X0186562Y0103550D03*
X0186562Y0103675D03*
X0186562Y0103800D03*
X0186562Y0103925D03*
X0186562Y0104050D03*
X0186562Y0104175D03*
X0186562Y0104300D03*
X0186562Y0104425D03*
X0186562Y0104550D03*
X0186562Y0104675D03*
X0186562Y0104800D03*
X0186562Y0104925D03*
X0186562Y0105050D03*
X0186562Y0105175D03*
X0186562Y0105300D03*
X0186562Y0105425D03*
X0186562Y0105550D03*
X0186562Y0105675D03*
X0186562Y0106925D03*
X0186562Y0107050D03*
X0186562Y0107175D03*
X0186562Y0107300D03*
X0186562Y0107425D03*
X0186562Y0107550D03*
X0186562Y0107675D03*
X0186562Y0107800D03*
X0186562Y0107925D03*
X0186562Y0108050D03*
X0186562Y0108175D03*
X0186562Y0108300D03*
X0186562Y0108425D03*
X0186562Y0108550D03*
X0186562Y0108675D03*
X0186562Y0108800D03*
X0186562Y0108925D03*
X0186562Y0109050D03*
X0183437Y0108675D03*
X0183437Y0108550D03*
X0183312Y0108300D03*
X0183312Y0108175D03*
X0183312Y0108050D03*
X0183312Y0107925D03*
X0183312Y0107800D03*
X0183312Y0107675D03*
X0183437Y0107425D03*
X0183437Y0107300D03*
X0181312Y0107300D03*
X0181312Y0107425D03*
X0181187Y0107550D03*
X0181187Y0107675D03*
X0181187Y0107800D03*
X0181062Y0108050D03*
X0180937Y0108300D03*
X0181312Y0107175D03*
X0181312Y0107050D03*
X0181312Y0106925D03*
X0181312Y0106800D03*
X0181312Y0106675D03*
X0181312Y0106550D03*
X0181312Y0106425D03*
X0181312Y0106300D03*
X0181312Y0106175D03*
X0181312Y0106050D03*
X0181312Y0105925D03*
X0181312Y0105800D03*
X0181312Y0105675D03*
X0181312Y0105550D03*
X0181187Y0105425D03*
X0181187Y0105300D03*
X0181187Y0105175D03*
X0176187Y0104550D03*
X0175937Y0105050D03*
X0175937Y0105175D03*
X0175812Y0105300D03*
X0175812Y0105425D03*
X0175687Y0105550D03*
X0175687Y0105675D03*
X0175687Y0105800D03*
X0175687Y0105925D03*
X0175687Y0106050D03*
X0175687Y0106175D03*
X0175687Y0106300D03*
X0175687Y0106675D03*
X0175687Y0106925D03*
X0175687Y0107050D03*
X0175687Y0107175D03*
X0175687Y0107300D03*
X0175687Y0107425D03*
X0175687Y0107550D03*
X0175937Y0108175D03*
X0173687Y0107300D03*
X0173687Y0107175D03*
X0173687Y0107050D03*
X0173687Y0106925D03*
X0173687Y0106800D03*
X0173687Y0106675D03*
X0173687Y0106550D03*
X0173687Y0106425D03*
X0173687Y0106300D03*
X0173687Y0106175D03*
X0173687Y0106050D03*
X0173687Y0105925D03*
X0173687Y0105800D03*
X0173687Y0105675D03*
X0173562Y0105550D03*
X0173562Y0105425D03*
X0173437Y0105175D03*
X0173437Y0105050D03*
X0173187Y0104550D03*
X0173562Y0107550D03*
X0173437Y0107800D03*
X0173437Y0107925D03*
X0173437Y0108050D03*
X0173187Y0108425D03*
X0168188Y0108050D03*
X0168188Y0107925D03*
X0168063Y0107800D03*
X0168063Y0105550D03*
X0168063Y0105425D03*
X0168188Y0105300D03*
X0168188Y0105175D03*
X0168188Y0105050D03*
X0168438Y0104675D03*
X0165938Y0103550D03*
X0165938Y0103425D03*
X0165938Y0103300D03*
X0165813Y0103675D03*
X0165813Y0103800D03*
X0165688Y0103925D03*
X0165688Y0104050D03*
X0165688Y0104175D03*
X0165563Y0104425D03*
X0165563Y0104550D03*
X0165438Y0104800D03*
X0165313Y0104925D03*
X0164938Y0106050D03*
X0164938Y0106175D03*
X0164938Y0106300D03*
X0164813Y0106425D03*
X0164688Y0106675D03*
X0164688Y0106800D03*
X0164688Y0106925D03*
X0164563Y0107050D03*
X0164438Y0107300D03*
X0164438Y0107425D03*
X0164438Y0107550D03*
X0164313Y0107675D03*
X0164313Y0107800D03*
X0164313Y0107925D03*
X0164188Y0108175D03*
X0164063Y0108425D03*
X0162688Y0108425D03*
X0162688Y0108300D03*
X0162563Y0108175D03*
X0162563Y0108050D03*
X0162563Y0107925D03*
X0162438Y0107800D03*
X0162438Y0107675D03*
X0162438Y0107550D03*
X0162313Y0107300D03*
X0162188Y0107050D03*
X0162188Y0106925D03*
X0162063Y0106675D03*
X0161938Y0106425D03*
X0161938Y0106300D03*
X0161938Y0106175D03*
X0161313Y0104550D03*
X0161313Y0104425D03*
X0161188Y0104050D03*
X0160938Y0103425D03*
X0160938Y0103300D03*
X0163438Y0110050D03*
X0152438Y0106675D03*
X0152438Y0106550D03*
X0152438Y0106425D03*
X0152563Y0106175D03*
X0152563Y0106050D03*
X0152313Y0106925D03*
X0152188Y0107050D03*
X0152188Y0107175D03*
X0152188Y0107300D03*
X0151938Y0107675D03*
X0151938Y0107800D03*
X0151938Y0107925D03*
X0151813Y0108175D03*
X0151813Y0108300D03*
X0151813Y0108425D03*
X0150438Y0108550D03*
X0150313Y0108425D03*
X0150313Y0108300D03*
X0150313Y0108175D03*
X0150188Y0108050D03*
X0150188Y0107925D03*
X0150063Y0107800D03*
X0150063Y0107675D03*
X0150063Y0107550D03*
X0150063Y0107425D03*
X0149938Y0107300D03*
X0149938Y0107175D03*
X0149938Y0107050D03*
X0149813Y0106800D03*
X0149688Y0106675D03*
X0149688Y0106550D03*
X0149688Y0106425D03*
X0149563Y0106175D03*
X0149063Y0104800D03*
X0149063Y0104675D03*
X0148813Y0104050D03*
X0148688Y0103675D03*
X0148688Y0103550D03*
X0148438Y0103050D03*
X0148438Y0102925D03*
X0153188Y0104300D03*
X0153188Y0104425D03*
X0153188Y0104550D03*
X0153063Y0104800D03*
X0153063Y0104925D03*
X0153313Y0104175D03*
X0153438Y0104050D03*
X0153438Y0103925D03*
X0153438Y0103800D03*
X0153438Y0103675D03*
X0153563Y0103550D03*
X0153688Y0103300D03*
X0153688Y0103175D03*
X0153688Y0103050D03*
X0151063Y0110050D03*
X0152313Y0113675D03*
X0152438Y0113800D03*
X0152438Y0113925D03*
X0167438Y0129175D03*
X0168563Y0129925D03*
X0168688Y0129800D03*
X0173812Y0130050D03*
X0191937Y0108300D03*
X0191937Y0108175D03*
X0192062Y0107925D03*
X0192187Y0107675D03*
X0192187Y0107550D03*
X0192312Y0107300D03*
X0192437Y0107050D03*
X0192437Y0106925D03*
X0192562Y0106675D03*
X0192562Y0106550D03*
X0192562Y0106425D03*
X0193187Y0104925D03*
X0193187Y0104800D03*
X0193187Y0104675D03*
X0193312Y0104550D03*
X0193437Y0104425D03*
X0193437Y0104300D03*
X0193437Y0104175D03*
X0193562Y0103925D03*
X0193687Y0103800D03*
X0193687Y0103675D03*
X0193687Y0103550D03*
X0193687Y0103425D03*
X0193812Y0103300D03*
X0193812Y0103175D03*
X0193812Y0103050D03*
X0186562Y0103050D03*
X0186562Y0102925D03*
D20*
X0191187Y0108925D03*
X0188687Y0115550D03*
X0188562Y0115675D03*
X0188562Y0115800D03*
X0178562Y0102925D03*
X0170813Y0110175D03*
X0153688Y0115675D03*
X0153563Y0115550D03*
X0151063Y0108925D03*
X0151063Y0108800D03*
D21*
X0151000Y0108675D03*
X0153750Y0115800D03*
X0153875Y0115925D03*
X0163375Y0108800D03*
X0163375Y0108675D03*
X0170875Y0102925D03*
X0178500Y0110175D03*
X0188250Y0116050D03*
X0188375Y0115925D03*
X0191250Y0108800D03*
D22*
X0157125Y0109175D03*
X0157125Y0109300D03*
X0157125Y0109425D03*
X0157125Y0109550D03*
X0157125Y0109675D03*
X0157125Y0109800D03*
X0157125Y0109925D03*
X0157125Y0110050D03*
X0157125Y0110175D03*
X0157125Y0103800D03*
X0157125Y0103675D03*
X0157125Y0103550D03*
X0157125Y0103425D03*
X0157125Y0103300D03*
X0157125Y0103175D03*
X0157125Y0103050D03*
X0157125Y0102925D03*
X0156750Y0118800D03*
X0156875Y0118925D03*
D23*
X0154563Y0116675D03*
X0154438Y0116550D03*
X0170813Y0110050D03*
X0178562Y0103050D03*
X0187937Y0116550D03*
D24*
X0187750Y0116675D03*
X0187625Y0116800D03*
X0185750Y0110175D03*
X0178500Y0110050D03*
X0170875Y0103050D03*
X0154625Y0116800D03*
D25*
X0155438Y0117675D03*
X0170813Y0109925D03*
X0170813Y0103175D03*
X0178562Y0103175D03*
X0185437Y0106175D03*
X0185437Y0109925D03*
X0186812Y0117675D03*
X0186687Y0117800D03*
D26*
X0186062Y0118425D03*
X0185187Y0109550D03*
X0185187Y0106550D03*
X0185187Y0106425D03*
X0178562Y0103300D03*
X0170813Y0103300D03*
X0157313Y0106175D03*
X0157313Y0106300D03*
X0157313Y0106425D03*
X0157313Y0106550D03*
X0157313Y0106675D03*
X0157313Y0106800D03*
X0157313Y0106925D03*
X0157313Y0107050D03*
D27*
X0169563Y0106675D03*
X0169563Y0106550D03*
X0169563Y0106425D03*
X0169563Y0106300D03*
X0169563Y0106175D03*
X0169563Y0106050D03*
X0169563Y0105925D03*
X0169563Y0105800D03*
X0169563Y0105675D03*
X0170938Y0103425D03*
X0170813Y0109675D03*
X0178437Y0109675D03*
X0178562Y0103425D03*
X0185562Y0118800D03*
X0156563Y0118675D03*
D28*
X0170813Y0109550D03*
X0178437Y0109550D03*
X0178562Y0103550D03*
X0191187Y0105800D03*
X0191187Y0105925D03*
X0185437Y0118925D03*
X0185312Y0119050D03*
X0163438Y0105925D03*
X0163438Y0105800D03*
X0163438Y0105675D03*
X0151063Y0105800D03*
X0151063Y0105925D03*
D29*
X0163375Y0105550D03*
X0170875Y0103550D03*
X0157000Y0119050D03*
X0157125Y0119175D03*
X0185125Y0119175D03*
D30*
X0178437Y0109425D03*
X0178562Y0103675D03*
X0170813Y0103675D03*
X0170813Y0109425D03*
X0157313Y0119300D03*
X0171188Y0129050D03*
X0171813Y0129800D03*
X0191187Y0105675D03*
X0191187Y0105550D03*
X0151063Y0105550D03*
X0151063Y0105675D03*
X0151063Y0105425D03*
D31*
X0151125Y0105050D03*
X0163375Y0105050D03*
X0170875Y0103800D03*
X0170750Y0109300D03*
X0178500Y0103800D03*
X0191250Y0105050D03*
X0157875Y0119675D03*
D32*
X0153438Y0115300D03*
X0153313Y0115175D03*
X0151063Y0109175D03*
X0163438Y0109175D03*
X0172562Y0103925D03*
X0180187Y0103925D03*
X0183937Y0106925D03*
X0191187Y0109175D03*
X0191187Y0109300D03*
D33*
X0189125Y0114925D03*
X0189000Y0115050D03*
X0189000Y0115175D03*
X0180375Y0108925D03*
X0180250Y0109050D03*
X0176625Y0109050D03*
X0172625Y0109050D03*
X0169000Y0109050D03*
X0169125Y0103925D03*
X0176875Y0103925D03*
X0180375Y0104050D03*
X0163375Y0109300D03*
X0163375Y0109425D03*
X0153125Y0114800D03*
X0153125Y0114925D03*
X0153250Y0115050D03*
X0151000Y0109425D03*
X0151000Y0109300D03*
X0171125Y0130300D03*
X0171125Y0130425D03*
X0171125Y0130550D03*
D34*
X0168500Y0130050D03*
X0168250Y0130175D03*
X0168125Y0130300D03*
X0173750Y0129925D03*
X0174000Y0130175D03*
X0174875Y0129175D03*
X0190000Y0113550D03*
X0190125Y0113425D03*
X0191875Y0108425D03*
X0192000Y0108050D03*
X0192125Y0107800D03*
X0192250Y0107425D03*
X0192375Y0107175D03*
X0192500Y0106800D03*
X0192625Y0106300D03*
X0192750Y0106175D03*
X0192750Y0106050D03*
X0175625Y0106425D03*
X0175625Y0106550D03*
X0175625Y0106800D03*
X0173625Y0107425D03*
X0165500Y0104675D03*
X0165625Y0104300D03*
X0164750Y0106550D03*
X0164500Y0107175D03*
X0164250Y0108050D03*
X0164125Y0108300D03*
X0163375Y0110175D03*
X0158750Y0109050D03*
X0158750Y0108925D03*
X0158750Y0108800D03*
X0158750Y0108675D03*
X0158750Y0108550D03*
X0158750Y0108425D03*
X0158750Y0108300D03*
X0158750Y0108175D03*
X0158750Y0108050D03*
X0158750Y0107925D03*
X0158750Y0107800D03*
X0158750Y0107675D03*
X0158750Y0107550D03*
X0158750Y0107425D03*
X0158750Y0107300D03*
X0158750Y0107175D03*
X0158750Y0106050D03*
X0158750Y0105925D03*
X0158750Y0105800D03*
X0158750Y0105675D03*
X0158750Y0105550D03*
X0158750Y0105425D03*
X0158750Y0105300D03*
X0158750Y0105175D03*
X0158750Y0105050D03*
X0158750Y0104925D03*
X0158750Y0104800D03*
X0158750Y0104675D03*
X0158750Y0104550D03*
X0158750Y0104425D03*
X0158750Y0104300D03*
X0158750Y0104175D03*
X0158750Y0104050D03*
X0158750Y0103925D03*
X0153125Y0104675D03*
X0152500Y0106300D03*
X0152375Y0106800D03*
X0152125Y0107425D03*
X0152000Y0107550D03*
X0151875Y0108050D03*
X0151750Y0108550D03*
X0152125Y0113425D03*
X0152250Y0113550D03*
D35*
X0152813Y0114425D03*
X0152813Y0114550D03*
X0152938Y0114675D03*
X0151063Y0109550D03*
X0163438Y0109550D03*
X0172687Y0108925D03*
X0176562Y0108925D03*
X0176687Y0104050D03*
X0172687Y0104050D03*
X0183812Y0109050D03*
X0191187Y0109425D03*
X0191187Y0109550D03*
X0189312Y0114675D03*
X0189187Y0114800D03*
D36*
X0189500Y0114550D03*
X0189500Y0114425D03*
X0191125Y0109675D03*
X0183625Y0108925D03*
X0183625Y0107050D03*
X0180500Y0108800D03*
X0176375Y0108800D03*
X0172875Y0108800D03*
X0168875Y0108925D03*
X0169000Y0104050D03*
X0163375Y0109675D03*
X0163375Y0109800D03*
X0151000Y0109675D03*
X0167750Y0129050D03*
X0180500Y0104175D03*
D37*
X0176437Y0104175D03*
X0176437Y0104300D03*
X0172937Y0104300D03*
X0172937Y0104175D03*
X0168813Y0104175D03*
X0168313Y0108300D03*
X0168563Y0108550D03*
X0168563Y0108675D03*
X0168688Y0108800D03*
X0173062Y0108675D03*
X0176062Y0108425D03*
X0176062Y0108300D03*
X0176187Y0108550D03*
X0180687Y0108675D03*
X0183562Y0107175D03*
X0191187Y0109800D03*
X0191187Y0109925D03*
X0189562Y0114175D03*
X0189562Y0114300D03*
X0174562Y0129050D03*
X0152688Y0114300D03*
X0152688Y0114175D03*
X0151063Y0109925D03*
X0151063Y0109800D03*
X0163313Y0109925D03*
D38*
X0163438Y0105175D03*
X0151063Y0105175D03*
X0157563Y0119550D03*
X0171188Y0129175D03*
X0184687Y0119550D03*
X0178437Y0109300D03*
X0191187Y0105300D03*
X0191187Y0105175D03*
D39*
X0191250Y0105425D03*
X0185000Y0119300D03*
X0184750Y0119425D03*
X0163375Y0105425D03*
X0163375Y0105300D03*
X0151125Y0105300D03*
X0157500Y0119425D03*
D40*
X0154063Y0116175D03*
X0154063Y0116050D03*
X0163438Y0108550D03*
X0185937Y0105800D03*
X0191187Y0108550D03*
X0191187Y0108675D03*
X0188187Y0116175D03*
X0188062Y0116300D03*
D41*
X0187562Y0116925D03*
X0187437Y0117050D03*
X0185687Y0105925D03*
X0154813Y0116925D03*
X0154813Y0117050D03*
D42*
X0155375Y0117550D03*
X0178500Y0109925D03*
X0185500Y0106050D03*
X0187000Y0117550D03*
D43*
X0186437Y0118050D03*
X0186187Y0118300D03*
X0178437Y0109800D03*
X0185312Y0106300D03*
X0171188Y0129925D03*
X0171188Y0130050D03*
X0171188Y0130175D03*
D44*
X0185750Y0118675D03*
X0185875Y0118550D03*
X0185125Y0109425D03*
X0185125Y0109300D03*
X0185125Y0109175D03*
X0185125Y0106800D03*
X0185125Y0106675D03*
X0156375Y0118550D03*
D45*
X0153500Y0115425D03*
X0151000Y0109050D03*
X0163375Y0109050D03*
X0163375Y0108925D03*
X0188750Y0115425D03*
X0188875Y0115300D03*
X0191125Y0109050D03*
D46*
X0184437Y0119675D03*
X0184312Y0119800D03*
X0178437Y0109175D03*
X0170813Y0109175D03*
X0157938Y0119800D03*
X0171188Y0129300D03*
D47*
X0156250Y0118425D03*
X0156125Y0118300D03*
X0156000Y0118175D03*
X0185250Y0109675D03*
X0186250Y0118175D03*
D48*
X0186625Y0117925D03*
X0185375Y0109800D03*
X0170750Y0109800D03*
X0155875Y0118050D03*
X0155625Y0117925D03*
X0155625Y0117800D03*
D49*
X0155000Y0117175D03*
X0185625Y0110050D03*
X0187250Y0117175D03*
D50*
X0190187Y0113300D03*
X0190187Y0113175D03*
X0191187Y0110175D03*
X0174187Y0130300D03*
X0174312Y0130425D03*
X0171688Y0130675D03*
X0167938Y0130425D03*
X0152063Y0113300D03*
X0152063Y0113175D03*
X0151938Y0113050D03*
X0151063Y0110175D03*
D51*
X0165875Y0132175D03*
X0165750Y0132300D03*
X0168750Y0131800D03*
X0168875Y0131675D03*
X0170000Y0134175D03*
X0170000Y0134300D03*
X0170000Y0134425D03*
X0170000Y0134550D03*
X0172375Y0134550D03*
X0172375Y0134675D03*
X0172375Y0134425D03*
X0173625Y0131925D03*
X0173500Y0131800D03*
X0176250Y0132050D03*
X0176375Y0132175D03*
X0176500Y0132300D03*
X0176750Y0132425D03*
X0191250Y0111425D03*
X0191250Y0111300D03*
D52*
X0191062Y0111550D03*
X0191062Y0111675D03*
X0176062Y0131925D03*
X0173437Y0131675D03*
X0173312Y0131425D03*
X0172188Y0133675D03*
X0172188Y0133800D03*
X0172313Y0133925D03*
X0172313Y0134050D03*
X0172313Y0134175D03*
X0172313Y0134300D03*
X0170063Y0134050D03*
X0170063Y0133925D03*
X0170063Y0133800D03*
X0170188Y0133175D03*
X0168938Y0131550D03*
X0166313Y0131800D03*
X0166188Y0131925D03*
X0166063Y0132050D03*
X0166688Y0129300D03*
X0151313Y0111800D03*
X0151188Y0111675D03*
X0151188Y0111550D03*
X0151063Y0111425D03*
X0151063Y0111300D03*
D53*
X0151375Y0111925D03*
X0151375Y0112050D03*
X0169250Y0131050D03*
X0169125Y0131300D03*
X0169000Y0131425D03*
X0170250Y0132925D03*
X0170250Y0133050D03*
X0170125Y0133300D03*
X0170125Y0133425D03*
X0170125Y0133550D03*
X0170125Y0133675D03*
X0172125Y0133550D03*
X0172125Y0133425D03*
X0172125Y0133300D03*
X0172125Y0133175D03*
X0172125Y0133050D03*
X0172000Y0132675D03*
X0172000Y0132550D03*
X0172000Y0132425D03*
X0173375Y0131550D03*
X0173250Y0131300D03*
X0175500Y0131425D03*
X0175750Y0131550D03*
X0175750Y0131675D03*
X0176000Y0131800D03*
X0175500Y0129300D03*
X0166750Y0131425D03*
X0191000Y0111800D03*
D54*
X0190937Y0111925D03*
X0190937Y0112050D03*
X0190812Y0112175D03*
X0175312Y0131300D03*
X0173187Y0131175D03*
X0173062Y0131050D03*
X0171938Y0132175D03*
X0171938Y0132300D03*
X0172063Y0132800D03*
X0172063Y0132925D03*
X0170313Y0132800D03*
X0170313Y0132675D03*
X0170313Y0132550D03*
X0170313Y0132425D03*
X0169188Y0131175D03*
X0169313Y0130925D03*
X0166563Y0131550D03*
X0166563Y0131675D03*
D55*
X0167313Y0130925D03*
X0167563Y0130800D03*
X0167813Y0130550D03*
X0169563Y0130550D03*
X0169688Y0130300D03*
X0170563Y0130925D03*
X0170563Y0131050D03*
X0170563Y0131300D03*
X0170438Y0131425D03*
X0170438Y0131550D03*
X0170438Y0131675D03*
X0171813Y0131425D03*
X0172812Y0130675D03*
X0172812Y0130550D03*
X0174937Y0130925D03*
X0190562Y0112675D03*
X0151688Y0112675D03*
D56*
X0151750Y0112800D03*
X0151875Y0112925D03*
X0167750Y0130675D03*
X0169500Y0130675D03*
X0169625Y0130425D03*
X0170625Y0130675D03*
X0170625Y0130800D03*
X0170500Y0131175D03*
X0171750Y0131175D03*
X0171750Y0131300D03*
X0171750Y0131050D03*
X0171750Y0130925D03*
X0171750Y0130800D03*
X0172625Y0130425D03*
X0172625Y0130300D03*
X0174500Y0130550D03*
X0174625Y0130675D03*
X0174750Y0130800D03*
X0190375Y0113050D03*
X0190375Y0112925D03*
X0190500Y0112800D03*
D57*
X0188000Y0116425D03*
X0154250Y0116425D03*
X0154250Y0116300D03*
D58*
X0155188Y0117300D03*
X0155188Y0117425D03*
X0187062Y0117425D03*
X0187187Y0117300D03*
D59*
X0184062Y0119925D03*
X0158188Y0119925D03*
D60*
X0171125Y0128175D03*
X0183875Y0120050D03*
D61*
X0183687Y0120175D03*
X0171188Y0129550D03*
X0158563Y0120175D03*
X0158438Y0120050D03*
D62*
X0183500Y0120300D03*
D63*
X0183312Y0120425D03*
X0158938Y0120425D03*
X0158813Y0120300D03*
D64*
X0183125Y0120550D03*
D65*
X0159188Y0120550D03*
D66*
X0182687Y0120800D03*
X0182812Y0120675D03*
D67*
X0171125Y0126800D03*
X0171125Y0127300D03*
X0171125Y0128550D03*
X0159500Y0120675D03*
D68*
X0159625Y0120800D03*
D69*
X0159875Y0120925D03*
X0171125Y0128675D03*
X0182375Y0120925D03*
D70*
X0182187Y0121050D03*
D71*
X0160125Y0121050D03*
D72*
X0171125Y0128050D03*
X0181875Y0121175D03*
D73*
X0160438Y0121175D03*
D74*
X0161000Y0121425D03*
X0181500Y0121300D03*
D75*
X0160813Y0121300D03*
D76*
X0181312Y0121425D03*
D77*
X0180875Y0121550D03*
X0161500Y0121550D03*
D78*
X0180687Y0121675D03*
D79*
X0171125Y0126550D03*
X0171125Y0127425D03*
X0161625Y0121675D03*
D80*
X0162188Y0121800D03*
X0180062Y0121800D03*
D81*
X0179375Y0121925D03*
D82*
X0162813Y0121925D03*
D83*
X0171125Y0126300D03*
X0178875Y0122050D03*
D84*
X0171188Y0127925D03*
X0163313Y0122050D03*
D85*
X0171125Y0122175D03*
D86*
X0171125Y0122300D03*
D87*
X0171188Y0122425D03*
D88*
X0171125Y0122550D03*
D89*
X0171125Y0122675D03*
D90*
X0171188Y0122800D03*
D91*
X0171188Y0122925D03*
D92*
X0171125Y0123050D03*
D93*
X0171125Y0123175D03*
D94*
X0171125Y0123300D03*
D95*
X0171188Y0123425D03*
D96*
X0171125Y0123550D03*
D97*
X0171125Y0123675D03*
D98*
X0171188Y0123800D03*
D99*
X0171125Y0123925D03*
D100*
X0171125Y0124050D03*
D101*
X0171188Y0124175D03*
D102*
X0171125Y0124300D03*
D103*
X0171125Y0124425D03*
D104*
X0171125Y0124550D03*
D105*
X0171125Y0124675D03*
D106*
X0171125Y0124800D03*
D107*
X0171125Y0124925D03*
D108*
X0171125Y0125050D03*
D109*
X0171188Y0125175D03*
D110*
X0171125Y0125300D03*
D111*
X0171125Y0125425D03*
D112*
X0171188Y0125550D03*
D113*
X0171125Y0125675D03*
D114*
X0171125Y0125800D03*
D115*
X0171063Y0125925D03*
D116*
X0171125Y0126050D03*
D117*
X0171125Y0126175D03*
D118*
X0171125Y0126425D03*
X0171125Y0127550D03*
D119*
X0171125Y0126675D03*
D120*
X0171188Y0126925D03*
X0171188Y0128425D03*
D121*
X0171125Y0128300D03*
X0171125Y0127050D03*
X0171125Y0129675D03*
D122*
X0171125Y0129425D03*
X0171125Y0127175D03*
D123*
X0171125Y0127675D03*
D124*
X0171250Y0127800D03*
D125*
X0171188Y0128800D03*
D126*
X0171125Y0128925D03*
M02*
