G75*
%MOIN*%
%OFA0B0*%
%FSLAX25Y25*%
%IPPOS*%
%LPD*%
%AMOC8*
5,1,8,0,0,1.08239X$1,22.5*
%
%ADD10R,0.02756X0.03543*%
%ADD11R,0.02756X0.06693*%
%ADD12R,0.05000X0.02200*%
%ADD13R,0.02200X0.05000*%
%ADD14R,0.01575X0.04331*%
%ADD15R,0.21654X0.08465*%
%ADD16R,0.03150X0.04724*%
%ADD17R,0.04331X0.03937*%
%ADD18R,0.06299X0.07087*%
D10*
G36*
X0145533Y0147264D02*
X0143584Y0149213D01*
X0146087Y0151716D01*
X0148036Y0149767D01*
X0145533Y0147264D01*
G37*
G36*
X0141913Y0150884D02*
X0139964Y0152833D01*
X0142467Y0155336D01*
X0144416Y0153387D01*
X0141913Y0150884D01*
G37*
G36*
X0144416Y0169213D02*
X0142467Y0167264D01*
X0139964Y0169767D01*
X0141913Y0171716D01*
X0144416Y0169213D01*
G37*
G36*
X0148036Y0172833D02*
X0146087Y0170884D01*
X0143584Y0173387D01*
X0145533Y0175336D01*
X0148036Y0172833D01*
G37*
G36*
X0189964Y0178767D02*
X0191913Y0180716D01*
X0194416Y0178213D01*
X0192467Y0176264D01*
X0189964Y0178767D01*
G37*
G36*
X0193584Y0182387D02*
X0195533Y0184336D01*
X0198036Y0181833D01*
X0196087Y0179884D01*
X0193584Y0182387D01*
G37*
G36*
X0197467Y0175336D02*
X0199416Y0173387D01*
X0196913Y0170884D01*
X0194964Y0172833D01*
X0197467Y0175336D01*
G37*
G36*
X0201087Y0171716D02*
X0203036Y0169767D01*
X0200533Y0167264D01*
X0198584Y0169213D01*
X0201087Y0171716D01*
G37*
D11*
G36*
X0164232Y0136799D02*
X0166181Y0134850D01*
X0161450Y0130119D01*
X0159501Y0132068D01*
X0164232Y0136799D01*
G37*
G36*
X0160891Y0140140D02*
X0162840Y0138191D01*
X0158109Y0133460D01*
X0156160Y0135409D01*
X0160891Y0140140D01*
G37*
G36*
X0157550Y0143481D02*
X0159499Y0141532D01*
X0154768Y0136801D01*
X0152819Y0138750D01*
X0157550Y0143481D01*
G37*
D12*
G36*
X0165436Y0146998D02*
X0161902Y0143464D01*
X0160346Y0145020D01*
X0163880Y0148554D01*
X0165436Y0146998D01*
G37*
G36*
X0167663Y0144771D02*
X0164129Y0141237D01*
X0162573Y0142793D01*
X0166107Y0146327D01*
X0167663Y0144771D01*
G37*
G36*
X0169890Y0142544D02*
X0166356Y0139010D01*
X0164800Y0140566D01*
X0168334Y0144100D01*
X0169890Y0142544D01*
G37*
G36*
X0163208Y0149225D02*
X0159674Y0145691D01*
X0158118Y0147247D01*
X0161652Y0150781D01*
X0163208Y0149225D01*
G37*
G36*
X0160981Y0151452D02*
X0157447Y0147918D01*
X0155891Y0149474D01*
X0159425Y0153008D01*
X0160981Y0151452D01*
G37*
G36*
X0158754Y0153680D02*
X0155220Y0150146D01*
X0153664Y0151702D01*
X0157198Y0155236D01*
X0158754Y0153680D01*
G37*
G36*
X0156527Y0155907D02*
X0152993Y0152373D01*
X0151437Y0153929D01*
X0154971Y0157463D01*
X0156527Y0155907D01*
G37*
G36*
X0154300Y0158134D02*
X0150766Y0154600D01*
X0149210Y0156156D01*
X0152744Y0159690D01*
X0154300Y0158134D01*
G37*
G36*
X0182654Y0177580D02*
X0179120Y0174046D01*
X0177564Y0175602D01*
X0181098Y0179136D01*
X0182654Y0177580D01*
G37*
G36*
X0184882Y0175353D02*
X0181348Y0171819D01*
X0179792Y0173375D01*
X0183326Y0176909D01*
X0184882Y0175353D01*
G37*
G36*
X0187109Y0173126D02*
X0183575Y0169592D01*
X0182019Y0171148D01*
X0185553Y0174682D01*
X0187109Y0173126D01*
G37*
G36*
X0189336Y0170898D02*
X0185802Y0167364D01*
X0184246Y0168920D01*
X0187780Y0172454D01*
X0189336Y0170898D01*
G37*
G36*
X0191563Y0168671D02*
X0188029Y0165137D01*
X0186473Y0166693D01*
X0190007Y0170227D01*
X0191563Y0168671D01*
G37*
G36*
X0193790Y0166444D02*
X0190256Y0162910D01*
X0188700Y0164466D01*
X0192234Y0168000D01*
X0193790Y0166444D01*
G37*
G36*
X0180427Y0179807D02*
X0176893Y0176273D01*
X0175337Y0177829D01*
X0178871Y0181363D01*
X0180427Y0179807D01*
G37*
G36*
X0178200Y0182034D02*
X0174666Y0178500D01*
X0173110Y0180056D01*
X0176644Y0183590D01*
X0178200Y0182034D01*
G37*
D13*
G36*
X0169890Y0180056D02*
X0168334Y0178500D01*
X0164800Y0182034D01*
X0166356Y0183590D01*
X0169890Y0180056D01*
G37*
G36*
X0167663Y0177829D02*
X0166107Y0176273D01*
X0162573Y0179807D01*
X0164129Y0181363D01*
X0167663Y0177829D01*
G37*
G36*
X0165436Y0175602D02*
X0163880Y0174046D01*
X0160346Y0177580D01*
X0161902Y0179136D01*
X0165436Y0175602D01*
G37*
G36*
X0163208Y0173375D02*
X0161652Y0171819D01*
X0158118Y0175353D01*
X0159674Y0176909D01*
X0163208Y0173375D01*
G37*
G36*
X0160981Y0171148D02*
X0159425Y0169592D01*
X0155891Y0173126D01*
X0157447Y0174682D01*
X0160981Y0171148D01*
G37*
G36*
X0158754Y0168920D02*
X0157198Y0167364D01*
X0153664Y0170898D01*
X0155220Y0172454D01*
X0158754Y0168920D01*
G37*
G36*
X0156527Y0166693D02*
X0154971Y0165137D01*
X0151437Y0168671D01*
X0152993Y0170227D01*
X0156527Y0166693D01*
G37*
G36*
X0154300Y0164466D02*
X0152744Y0162910D01*
X0149210Y0166444D01*
X0150766Y0168000D01*
X0154300Y0164466D01*
G37*
G36*
X0178200Y0140566D02*
X0176644Y0139010D01*
X0173110Y0142544D01*
X0174666Y0144100D01*
X0178200Y0140566D01*
G37*
G36*
X0180427Y0142793D02*
X0178871Y0141237D01*
X0175337Y0144771D01*
X0176893Y0146327D01*
X0180427Y0142793D01*
G37*
G36*
X0182654Y0145020D02*
X0181098Y0143464D01*
X0177564Y0146998D01*
X0179120Y0148554D01*
X0182654Y0145020D01*
G37*
G36*
X0184882Y0147247D02*
X0183326Y0145691D01*
X0179792Y0149225D01*
X0181348Y0150781D01*
X0184882Y0147247D01*
G37*
G36*
X0187109Y0149474D02*
X0185553Y0147918D01*
X0182019Y0151452D01*
X0183575Y0153008D01*
X0187109Y0149474D01*
G37*
G36*
X0189336Y0151702D02*
X0187780Y0150146D01*
X0184246Y0153680D01*
X0185802Y0155236D01*
X0189336Y0151702D01*
G37*
G36*
X0191563Y0153929D02*
X0190007Y0152373D01*
X0186473Y0155907D01*
X0188029Y0157463D01*
X0191563Y0153929D01*
G37*
G36*
X0193790Y0156156D02*
X0192234Y0154600D01*
X0188700Y0158134D01*
X0190256Y0159690D01*
X0193790Y0156156D01*
G37*
D14*
G36*
X0286548Y0125664D02*
X0285435Y0126777D01*
X0288496Y0129838D01*
X0289609Y0128725D01*
X0286548Y0125664D01*
G37*
G36*
X0288357Y0123854D02*
X0287244Y0124967D01*
X0290305Y0128028D01*
X0291418Y0126915D01*
X0288357Y0123854D01*
G37*
G36*
X0290167Y0122044D02*
X0289054Y0123157D01*
X0292115Y0126218D01*
X0293228Y0125105D01*
X0290167Y0122044D01*
G37*
G36*
X0291977Y0120235D02*
X0290864Y0121348D01*
X0293925Y0124409D01*
X0295038Y0123296D01*
X0291977Y0120235D01*
G37*
G36*
X0304504Y0132762D02*
X0303391Y0133875D01*
X0306452Y0136936D01*
X0307565Y0135823D01*
X0304504Y0132762D01*
G37*
G36*
X0302694Y0134572D02*
X0301581Y0135685D01*
X0304642Y0138746D01*
X0305755Y0137633D01*
X0302694Y0134572D01*
G37*
G36*
X0300885Y0136381D02*
X0299772Y0137494D01*
X0302833Y0140555D01*
X0303946Y0139442D01*
X0300885Y0136381D01*
G37*
G36*
X0299075Y0138191D02*
X0297962Y0139304D01*
X0301023Y0142365D01*
X0302136Y0141252D01*
X0299075Y0138191D01*
G37*
D15*
G36*
X0292493Y0150618D02*
X0277182Y0135307D01*
X0271197Y0141292D01*
X0286508Y0156603D01*
X0292493Y0150618D01*
G37*
G36*
X0281803Y0161308D02*
X0266492Y0145997D01*
X0260507Y0151982D01*
X0275818Y0167293D01*
X0281803Y0161308D01*
G37*
D16*
G36*
X0294712Y0147851D02*
X0296939Y0150078D01*
X0300278Y0146739D01*
X0298051Y0144512D01*
X0294712Y0147851D01*
G37*
G36*
X0299722Y0152861D02*
X0301949Y0155088D01*
X0305288Y0151749D01*
X0303061Y0149522D01*
X0299722Y0152861D01*
G37*
G36*
X0277051Y0124088D02*
X0279278Y0121861D01*
X0275939Y0118522D01*
X0273712Y0120749D01*
X0277051Y0124088D01*
G37*
G36*
X0282061Y0119078D02*
X0284288Y0116851D01*
X0280949Y0113512D01*
X0278722Y0115739D01*
X0282061Y0119078D01*
G37*
D17*
G36*
X0304556Y0121573D02*
X0301495Y0118512D01*
X0298712Y0121295D01*
X0301773Y0124356D01*
X0304556Y0121573D01*
G37*
G36*
X0309288Y0126305D02*
X0306227Y0123244D01*
X0303444Y0126027D01*
X0306505Y0129088D01*
X0309288Y0126305D01*
G37*
G36*
X0311227Y0141856D02*
X0314288Y0138795D01*
X0311505Y0136012D01*
X0308444Y0139073D01*
X0311227Y0141856D01*
G37*
G36*
X0306495Y0146588D02*
X0309556Y0143527D01*
X0306773Y0140744D01*
X0303712Y0143805D01*
X0306495Y0146588D01*
G37*
G36*
X0288444Y0141027D02*
X0291505Y0144088D01*
X0294288Y0141305D01*
X0291227Y0138244D01*
X0288444Y0141027D01*
G37*
G36*
X0283712Y0136295D02*
X0286773Y0139356D01*
X0289556Y0136573D01*
X0286495Y0133512D01*
X0283712Y0136295D01*
G37*
D18*
G36*
X0300834Y0158125D02*
X0296381Y0153672D01*
X0291372Y0158681D01*
X0295825Y0163134D01*
X0300834Y0158125D01*
G37*
G36*
X0308628Y0165919D02*
X0304175Y0161466D01*
X0299166Y0166475D01*
X0303619Y0170928D01*
X0308628Y0165919D01*
G37*
M02*
