G75*
%MOIN*%
%OFA0B0*%
%FSLAX25Y25*%
%IPPOS*%
%LPD*%
%AMOC8*
5,1,8,0,0,1.08239X$1,22.5*
%
%ADD10C,0.15800*%
%ADD11C,0.05800*%
%ADD12C,0.08200*%
%ADD13C,0.08200*%
%ADD14C,0.00500*%
%ADD15C,0.05800*%
%ADD16C,0.09800*%
D10*
X0154200Y0252500D03*
X0159200Y0253000D03*
X0164200Y0253500D03*
X0169200Y0254000D03*
X0174200Y0253500D03*
X0179200Y0253000D03*
X0184200Y0252500D03*
D11*
X0128000Y0103237D02*
X0128000Y0098237D01*
X0122000Y0106487D02*
X0122000Y0111487D01*
X0134000Y0111487D02*
X0134000Y0106487D01*
X0140000Y0103237D02*
X0140000Y0098237D01*
X0162000Y0099987D02*
X0162000Y0094987D01*
X0168000Y0091737D02*
X0168000Y0086737D01*
X0174000Y0094987D02*
X0174000Y0099987D01*
X0180000Y0091737D02*
X0180000Y0086737D01*
X0202000Y0106487D02*
X0202000Y0111487D01*
X0208000Y0103237D02*
X0208000Y0098237D01*
X0214000Y0106487D02*
X0214000Y0111487D01*
X0220000Y0103237D02*
X0220000Y0098237D01*
X0233000Y0133237D02*
X0233000Y0138237D01*
X0227000Y0141487D02*
X0227000Y0146487D01*
X0239000Y0146487D02*
X0239000Y0141487D01*
X0245000Y0138237D02*
X0245000Y0133237D01*
X0245000Y0173237D02*
X0245000Y0178237D01*
X0239000Y0181487D02*
X0239000Y0186487D01*
X0233000Y0178237D02*
X0233000Y0173237D01*
X0227000Y0181487D02*
X0227000Y0186487D01*
X0220000Y0208237D02*
X0220000Y0213237D01*
X0214000Y0216487D02*
X0214000Y0221487D01*
X0208000Y0213237D02*
X0208000Y0208237D01*
X0202000Y0216487D02*
X0202000Y0221487D01*
X0180000Y0223237D02*
X0180000Y0228237D01*
X0174000Y0231487D02*
X0174000Y0236487D01*
X0168000Y0228237D02*
X0168000Y0223237D01*
X0162000Y0231487D02*
X0162000Y0236487D01*
X0134000Y0221487D02*
X0134000Y0216487D01*
X0140000Y0213237D02*
X0140000Y0208237D01*
X0128000Y0208237D02*
X0128000Y0213237D01*
X0122000Y0216487D02*
X0122000Y0221487D01*
X0109000Y0186487D02*
X0109000Y0181487D01*
X0115000Y0178237D02*
X0115000Y0173237D01*
X0103000Y0173237D02*
X0103000Y0178237D01*
X0097000Y0181487D02*
X0097000Y0186487D01*
X0097000Y0146487D02*
X0097000Y0141487D01*
X0103000Y0138237D02*
X0103000Y0133237D01*
X0109000Y0141487D02*
X0109000Y0146487D01*
X0115000Y0138237D02*
X0115000Y0133237D01*
D12*
X0146500Y0191300D03*
X0156500Y0191300D03*
X0166500Y0191300D03*
X0176500Y0191300D03*
X0186500Y0191300D03*
X0196500Y0191300D03*
X0234179Y0233800D03*
X0268820Y0213800D03*
X0289000Y0191300D03*
X0299000Y0191300D03*
X0084500Y0197200D03*
X0084500Y0215000D03*
X0058900Y0215000D03*
X0058900Y0197200D03*
D13*
X0054000Y0147500D02*
X0054000Y0140100D01*
X0044000Y0140100D02*
X0044000Y0147500D01*
X0034000Y0147500D02*
X0034000Y0140100D01*
X0317800Y0156300D02*
X0325200Y0156300D01*
X0325200Y0166300D02*
X0317800Y0166300D01*
D14*
X0265332Y0111870D02*
X0265825Y0111397D01*
X0266206Y0110829D01*
X0266468Y0110198D01*
X0266602Y0109528D01*
X0266602Y0108845D01*
X0266469Y0108175D01*
X0266209Y0107543D01*
X0265829Y0106975D01*
X0265347Y0106491D01*
X0264782Y0106121D01*
X0264157Y0105869D01*
X0263494Y0105744D01*
X0262819Y0105750D01*
X0262159Y0105888D01*
X0261538Y0106152D01*
X0260981Y0106532D01*
X0260508Y0107014D01*
X0260133Y0107559D01*
X0259871Y0108168D01*
X0259732Y0108816D01*
X0259723Y0109479D01*
X0259844Y0110130D01*
X0260089Y0110746D01*
X0260450Y0111302D01*
X0260912Y0111777D01*
X0261472Y0112168D01*
X0262097Y0112443D01*
X0262764Y0112590D01*
X0263447Y0112604D01*
X0264120Y0112485D01*
X0264756Y0112237D01*
X0265332Y0111870D01*
X0265211Y0111947D02*
X0261156Y0111947D01*
X0260593Y0111449D02*
X0265771Y0111449D01*
X0266124Y0110950D02*
X0260222Y0110950D01*
X0259972Y0110452D02*
X0266362Y0110452D01*
X0266517Y0109953D02*
X0259811Y0109953D01*
X0259724Y0109455D02*
X0266602Y0109455D01*
X0266602Y0108956D02*
X0259730Y0108956D01*
X0259809Y0108458D02*
X0266526Y0108458D01*
X0266381Y0107959D02*
X0259960Y0107959D01*
X0260201Y0107461D02*
X0266154Y0107461D01*
X0265817Y0106962D02*
X0260559Y0106962D01*
X0261081Y0106464D02*
X0265305Y0106464D01*
X0264395Y0105965D02*
X0261977Y0105965D01*
X0258061Y0103916D02*
X0258315Y0103293D01*
X0258443Y0102631D01*
X0258440Y0101958D01*
X0258305Y0101298D01*
X0258044Y0100677D01*
X0257667Y0100119D01*
X0257188Y0099645D01*
X0256627Y0099269D01*
X0256003Y0099010D01*
X0255341Y0098878D01*
X0254665Y0098877D01*
X0254003Y0099009D01*
X0253378Y0099267D01*
X0252817Y0099642D01*
X0252339Y0100119D01*
X0251960Y0100664D01*
X0251695Y0101273D01*
X0251554Y0101921D01*
X0251542Y0102585D01*
X0251659Y0103238D01*
X0251902Y0103855D01*
X0252261Y0104414D01*
X0252721Y0104891D01*
X0253290Y0105284D01*
X0253924Y0105558D01*
X0254600Y0105703D01*
X0255291Y0105714D01*
X0255971Y0105589D01*
X0256613Y0105334D01*
X0257193Y0104959D01*
X0257689Y0104478D01*
X0258061Y0103916D01*
X0258024Y0103971D02*
X0251977Y0103971D01*
X0251752Y0103473D02*
X0258242Y0103473D01*
X0258377Y0102974D02*
X0251612Y0102974D01*
X0251544Y0102476D02*
X0258443Y0102476D01*
X0258440Y0101977D02*
X0251553Y0101977D01*
X0251650Y0101479D02*
X0258342Y0101479D01*
X0258172Y0100980D02*
X0251823Y0100980D01*
X0252087Y0100482D02*
X0257912Y0100482D01*
X0257530Y0099983D02*
X0252475Y0099983D01*
X0253052Y0099485D02*
X0256949Y0099485D01*
X0255883Y0098986D02*
X0254117Y0098986D01*
X0249869Y0097041D02*
X0250124Y0096405D01*
X0250251Y0095731D01*
X0250244Y0095046D01*
X0250103Y0094375D01*
X0249834Y0093745D01*
X0249447Y0093179D01*
X0248957Y0092700D01*
X0248396Y0092331D01*
X0247773Y0092079D01*
X0247114Y0091953D01*
X0246442Y0091958D01*
X0245784Y0092095D01*
X0245166Y0092357D01*
X0244611Y0092734D01*
X0244140Y0093213D01*
X0243757Y0093759D01*
X0243488Y0094369D01*
X0243343Y0095020D01*
X0243328Y0095686D01*
X0243443Y0096343D01*
X0243685Y0096964D01*
X0244042Y0097527D01*
X0244503Y0098009D01*
X0245072Y0098405D01*
X0245708Y0098684D01*
X0246386Y0098832D01*
X0247080Y0098846D01*
X0247764Y0098723D01*
X0248410Y0098470D01*
X0248994Y0098096D01*
X0249494Y0097614D01*
X0249869Y0097041D01*
X0249888Y0096992D02*
X0243702Y0096992D01*
X0243502Y0096494D02*
X0250089Y0096494D01*
X0250201Y0095995D02*
X0243382Y0095995D01*
X0243332Y0095497D02*
X0250248Y0095497D01*
X0250234Y0094998D02*
X0243348Y0094998D01*
X0243459Y0094499D02*
X0250129Y0094499D01*
X0249943Y0094001D02*
X0243650Y0094001D01*
X0243937Y0093502D02*
X0249668Y0093502D01*
X0249268Y0093004D02*
X0244346Y0093004D01*
X0244947Y0092505D02*
X0248662Y0092505D01*
X0247397Y0092007D02*
X0246207Y0092007D01*
X0244019Y0097491D02*
X0249575Y0097491D01*
X0249105Y0097989D02*
X0244484Y0097989D01*
X0245260Y0098488D02*
X0248365Y0098488D01*
X0252315Y0104470D02*
X0257695Y0104470D01*
X0257180Y0104968D02*
X0252833Y0104968D01*
X0253713Y0105467D02*
X0256280Y0105467D01*
X0262112Y0112446D02*
X0264221Y0112446D01*
D15*
X0181500Y0156300D03*
X0171500Y0156300D03*
X0161500Y0156300D03*
X0161500Y0166300D03*
X0171500Y0166300D03*
X0181500Y0166300D03*
D16*
X0256500Y0161300D03*
X0088500Y0161300D03*
M02*
