G75*
%MOIN*%
%OFA0B0*%
%FSLAX25Y25*%
%IPPOS*%
%LPD*%
%AMOC8*
5,1,8,0,0,1.08239X$1,22.5*
%
%ADD10C,0.00000*%
D10*
X0164000Y0066300D02*
X0164002Y0066484D01*
X0164009Y0066668D01*
X0164020Y0066852D01*
X0164036Y0067035D01*
X0164056Y0067218D01*
X0164081Y0067400D01*
X0164110Y0067582D01*
X0164144Y0067763D01*
X0164182Y0067943D01*
X0164225Y0068122D01*
X0164272Y0068300D01*
X0164323Y0068477D01*
X0164379Y0068653D01*
X0164438Y0068827D01*
X0164503Y0068999D01*
X0164571Y0069170D01*
X0164643Y0069339D01*
X0164720Y0069507D01*
X0164801Y0069672D01*
X0164886Y0069835D01*
X0164974Y0069997D01*
X0165067Y0070156D01*
X0165164Y0070312D01*
X0165264Y0070467D01*
X0165368Y0070619D01*
X0165476Y0070768D01*
X0165587Y0070914D01*
X0165702Y0071058D01*
X0165821Y0071199D01*
X0165943Y0071337D01*
X0166068Y0071472D01*
X0166197Y0071603D01*
X0166328Y0071732D01*
X0166463Y0071857D01*
X0166601Y0071979D01*
X0166742Y0072098D01*
X0166886Y0072213D01*
X0167032Y0072324D01*
X0167181Y0072432D01*
X0167333Y0072536D01*
X0167488Y0072636D01*
X0167644Y0072733D01*
X0167803Y0072826D01*
X0167965Y0072914D01*
X0168128Y0072999D01*
X0168293Y0073080D01*
X0168461Y0073157D01*
X0168630Y0073229D01*
X0168801Y0073297D01*
X0168973Y0073362D01*
X0169147Y0073421D01*
X0169323Y0073477D01*
X0169500Y0073528D01*
X0169678Y0073575D01*
X0169857Y0073618D01*
X0170037Y0073656D01*
X0170218Y0073690D01*
X0170400Y0073719D01*
X0170582Y0073744D01*
X0170765Y0073764D01*
X0170948Y0073780D01*
X0171132Y0073791D01*
X0171316Y0073798D01*
X0171500Y0073800D01*
X0171684Y0073798D01*
X0171868Y0073791D01*
X0172052Y0073780D01*
X0172235Y0073764D01*
X0172418Y0073744D01*
X0172600Y0073719D01*
X0172782Y0073690D01*
X0172963Y0073656D01*
X0173143Y0073618D01*
X0173322Y0073575D01*
X0173500Y0073528D01*
X0173677Y0073477D01*
X0173853Y0073421D01*
X0174027Y0073362D01*
X0174199Y0073297D01*
X0174370Y0073229D01*
X0174539Y0073157D01*
X0174707Y0073080D01*
X0174872Y0072999D01*
X0175035Y0072914D01*
X0175197Y0072826D01*
X0175356Y0072733D01*
X0175512Y0072636D01*
X0175667Y0072536D01*
X0175819Y0072432D01*
X0175968Y0072324D01*
X0176114Y0072213D01*
X0176258Y0072098D01*
X0176399Y0071979D01*
X0176537Y0071857D01*
X0176672Y0071732D01*
X0176803Y0071603D01*
X0176932Y0071472D01*
X0177057Y0071337D01*
X0177179Y0071199D01*
X0177298Y0071058D01*
X0177413Y0070914D01*
X0177524Y0070768D01*
X0177632Y0070619D01*
X0177736Y0070467D01*
X0177836Y0070312D01*
X0177933Y0070156D01*
X0178026Y0069997D01*
X0178114Y0069835D01*
X0178199Y0069672D01*
X0178280Y0069507D01*
X0178357Y0069339D01*
X0178429Y0069170D01*
X0178497Y0068999D01*
X0178562Y0068827D01*
X0178621Y0068653D01*
X0178677Y0068477D01*
X0178728Y0068300D01*
X0178775Y0068122D01*
X0178818Y0067943D01*
X0178856Y0067763D01*
X0178890Y0067582D01*
X0178919Y0067400D01*
X0178944Y0067218D01*
X0178964Y0067035D01*
X0178980Y0066852D01*
X0178991Y0066668D01*
X0178998Y0066484D01*
X0179000Y0066300D01*
X0178998Y0066116D01*
X0178991Y0065932D01*
X0178980Y0065748D01*
X0178964Y0065565D01*
X0178944Y0065382D01*
X0178919Y0065200D01*
X0178890Y0065018D01*
X0178856Y0064837D01*
X0178818Y0064657D01*
X0178775Y0064478D01*
X0178728Y0064300D01*
X0178677Y0064123D01*
X0178621Y0063947D01*
X0178562Y0063773D01*
X0178497Y0063601D01*
X0178429Y0063430D01*
X0178357Y0063261D01*
X0178280Y0063093D01*
X0178199Y0062928D01*
X0178114Y0062765D01*
X0178026Y0062603D01*
X0177933Y0062444D01*
X0177836Y0062288D01*
X0177736Y0062133D01*
X0177632Y0061981D01*
X0177524Y0061832D01*
X0177413Y0061686D01*
X0177298Y0061542D01*
X0177179Y0061401D01*
X0177057Y0061263D01*
X0176932Y0061128D01*
X0176803Y0060997D01*
X0176672Y0060868D01*
X0176537Y0060743D01*
X0176399Y0060621D01*
X0176258Y0060502D01*
X0176114Y0060387D01*
X0175968Y0060276D01*
X0175819Y0060168D01*
X0175667Y0060064D01*
X0175512Y0059964D01*
X0175356Y0059867D01*
X0175197Y0059774D01*
X0175035Y0059686D01*
X0174872Y0059601D01*
X0174707Y0059520D01*
X0174539Y0059443D01*
X0174370Y0059371D01*
X0174199Y0059303D01*
X0174027Y0059238D01*
X0173853Y0059179D01*
X0173677Y0059123D01*
X0173500Y0059072D01*
X0173322Y0059025D01*
X0173143Y0058982D01*
X0172963Y0058944D01*
X0172782Y0058910D01*
X0172600Y0058881D01*
X0172418Y0058856D01*
X0172235Y0058836D01*
X0172052Y0058820D01*
X0171868Y0058809D01*
X0171684Y0058802D01*
X0171500Y0058800D01*
X0171316Y0058802D01*
X0171132Y0058809D01*
X0170948Y0058820D01*
X0170765Y0058836D01*
X0170582Y0058856D01*
X0170400Y0058881D01*
X0170218Y0058910D01*
X0170037Y0058944D01*
X0169857Y0058982D01*
X0169678Y0059025D01*
X0169500Y0059072D01*
X0169323Y0059123D01*
X0169147Y0059179D01*
X0168973Y0059238D01*
X0168801Y0059303D01*
X0168630Y0059371D01*
X0168461Y0059443D01*
X0168293Y0059520D01*
X0168128Y0059601D01*
X0167965Y0059686D01*
X0167803Y0059774D01*
X0167644Y0059867D01*
X0167488Y0059964D01*
X0167333Y0060064D01*
X0167181Y0060168D01*
X0167032Y0060276D01*
X0166886Y0060387D01*
X0166742Y0060502D01*
X0166601Y0060621D01*
X0166463Y0060743D01*
X0166328Y0060868D01*
X0166197Y0060997D01*
X0166068Y0061128D01*
X0165943Y0061263D01*
X0165821Y0061401D01*
X0165702Y0061542D01*
X0165587Y0061686D01*
X0165476Y0061832D01*
X0165368Y0061981D01*
X0165264Y0062133D01*
X0165164Y0062288D01*
X0165067Y0062444D01*
X0164974Y0062603D01*
X0164886Y0062765D01*
X0164801Y0062928D01*
X0164720Y0063093D01*
X0164643Y0063261D01*
X0164571Y0063430D01*
X0164503Y0063601D01*
X0164438Y0063773D01*
X0164379Y0063947D01*
X0164323Y0064123D01*
X0164272Y0064300D01*
X0164225Y0064478D01*
X0164182Y0064657D01*
X0164144Y0064837D01*
X0164110Y0065018D01*
X0164081Y0065200D01*
X0164056Y0065382D01*
X0164036Y0065565D01*
X0164020Y0065748D01*
X0164009Y0065932D01*
X0164002Y0066116D01*
X0164000Y0066300D01*
X0004200Y0161500D02*
X0006282Y0165556D01*
X0008463Y0169560D01*
X0010741Y0173510D01*
X0013114Y0177403D01*
X0015582Y0181237D01*
X0018142Y0185010D01*
X0020793Y0188720D01*
X0023534Y0192363D01*
X0026363Y0195939D01*
X0029278Y0199445D01*
X0032277Y0202879D01*
X0035360Y0206238D01*
X0038523Y0209522D01*
X0041765Y0212727D01*
X0045085Y0215853D01*
X0048480Y0218897D01*
X0051947Y0221857D01*
X0055486Y0224732D01*
X0059094Y0227520D01*
X0062769Y0230219D01*
X0066508Y0232827D01*
X0070310Y0235344D01*
X0074172Y0237768D01*
X0078092Y0240096D01*
X0082068Y0242329D01*
X0086096Y0244464D01*
X0090176Y0246500D01*
X0094304Y0248436D01*
X0098478Y0250271D01*
X0102695Y0252004D01*
X0106953Y0253633D01*
X0111250Y0255158D01*
X0115583Y0256579D01*
X0119949Y0257893D01*
X0124345Y0259100D01*
X0128770Y0260200D01*
X0133220Y0261192D01*
X0137693Y0262075D01*
X0142187Y0262849D01*
X0146697Y0263513D01*
X0151223Y0264067D01*
X0155761Y0264511D01*
X0160308Y0264844D01*
X0164862Y0265066D01*
X0169420Y0265177D01*
X0173980Y0265177D01*
X0178538Y0265066D01*
X0183092Y0264844D01*
X0187639Y0264511D01*
X0192177Y0264067D01*
X0196703Y0263513D01*
X0201213Y0262849D01*
X0205707Y0262075D01*
X0210180Y0261192D01*
X0214630Y0260200D01*
X0219055Y0259100D01*
X0223451Y0257893D01*
X0227817Y0256579D01*
X0232150Y0255158D01*
X0236447Y0253633D01*
X0240705Y0252004D01*
X0244922Y0250271D01*
X0249096Y0248436D01*
X0253224Y0246500D01*
X0257304Y0244464D01*
X0261332Y0242329D01*
X0265308Y0240096D01*
X0269228Y0237768D01*
X0273090Y0235344D01*
X0276892Y0232827D01*
X0280631Y0230219D01*
X0284306Y0227520D01*
X0287914Y0224732D01*
X0291453Y0221857D01*
X0294920Y0218897D01*
X0298315Y0215853D01*
X0301635Y0212727D01*
X0304877Y0209522D01*
X0308040Y0206238D01*
X0311123Y0202879D01*
X0314122Y0199445D01*
X0317037Y0195939D01*
X0319866Y0192363D01*
X0322607Y0188720D01*
X0325258Y0185010D01*
X0327818Y0181237D01*
X0330286Y0177403D01*
X0332659Y0173510D01*
X0334937Y0169560D01*
X0337118Y0165556D01*
X0339200Y0161500D01*
X0186700Y0251500D02*
X0186702Y0251684D01*
X0186709Y0251868D01*
X0186720Y0252052D01*
X0186736Y0252235D01*
X0186756Y0252418D01*
X0186781Y0252600D01*
X0186810Y0252782D01*
X0186844Y0252963D01*
X0186882Y0253143D01*
X0186925Y0253322D01*
X0186972Y0253500D01*
X0187023Y0253677D01*
X0187079Y0253853D01*
X0187138Y0254027D01*
X0187203Y0254199D01*
X0187271Y0254370D01*
X0187343Y0254539D01*
X0187420Y0254707D01*
X0187501Y0254872D01*
X0187586Y0255035D01*
X0187674Y0255197D01*
X0187767Y0255356D01*
X0187864Y0255512D01*
X0187964Y0255667D01*
X0188068Y0255819D01*
X0188176Y0255968D01*
X0188287Y0256114D01*
X0188402Y0256258D01*
X0188521Y0256399D01*
X0188643Y0256537D01*
X0188768Y0256672D01*
X0188897Y0256803D01*
X0189028Y0256932D01*
X0189163Y0257057D01*
X0189301Y0257179D01*
X0189442Y0257298D01*
X0189586Y0257413D01*
X0189732Y0257524D01*
X0189881Y0257632D01*
X0190033Y0257736D01*
X0190188Y0257836D01*
X0190344Y0257933D01*
X0190503Y0258026D01*
X0190665Y0258114D01*
X0190828Y0258199D01*
X0190993Y0258280D01*
X0191161Y0258357D01*
X0191330Y0258429D01*
X0191501Y0258497D01*
X0191673Y0258562D01*
X0191847Y0258621D01*
X0192023Y0258677D01*
X0192200Y0258728D01*
X0192378Y0258775D01*
X0192557Y0258818D01*
X0192737Y0258856D01*
X0192918Y0258890D01*
X0193100Y0258919D01*
X0193282Y0258944D01*
X0193465Y0258964D01*
X0193648Y0258980D01*
X0193832Y0258991D01*
X0194016Y0258998D01*
X0194200Y0259000D01*
X0194384Y0258998D01*
X0194568Y0258991D01*
X0194752Y0258980D01*
X0194935Y0258964D01*
X0195118Y0258944D01*
X0195300Y0258919D01*
X0195482Y0258890D01*
X0195663Y0258856D01*
X0195843Y0258818D01*
X0196022Y0258775D01*
X0196200Y0258728D01*
X0196377Y0258677D01*
X0196553Y0258621D01*
X0196727Y0258562D01*
X0196899Y0258497D01*
X0197070Y0258429D01*
X0197239Y0258357D01*
X0197407Y0258280D01*
X0197572Y0258199D01*
X0197735Y0258114D01*
X0197897Y0258026D01*
X0198056Y0257933D01*
X0198212Y0257836D01*
X0198367Y0257736D01*
X0198519Y0257632D01*
X0198668Y0257524D01*
X0198814Y0257413D01*
X0198958Y0257298D01*
X0199099Y0257179D01*
X0199237Y0257057D01*
X0199372Y0256932D01*
X0199503Y0256803D01*
X0199632Y0256672D01*
X0199757Y0256537D01*
X0199879Y0256399D01*
X0199998Y0256258D01*
X0200113Y0256114D01*
X0200224Y0255968D01*
X0200332Y0255819D01*
X0200436Y0255667D01*
X0200536Y0255512D01*
X0200633Y0255356D01*
X0200726Y0255197D01*
X0200814Y0255035D01*
X0200899Y0254872D01*
X0200980Y0254707D01*
X0201057Y0254539D01*
X0201129Y0254370D01*
X0201197Y0254199D01*
X0201262Y0254027D01*
X0201321Y0253853D01*
X0201377Y0253677D01*
X0201428Y0253500D01*
X0201475Y0253322D01*
X0201518Y0253143D01*
X0201556Y0252963D01*
X0201590Y0252782D01*
X0201619Y0252600D01*
X0201644Y0252418D01*
X0201664Y0252235D01*
X0201680Y0252052D01*
X0201691Y0251868D01*
X0201698Y0251684D01*
X0201700Y0251500D01*
X0201698Y0251316D01*
X0201691Y0251132D01*
X0201680Y0250948D01*
X0201664Y0250765D01*
X0201644Y0250582D01*
X0201619Y0250400D01*
X0201590Y0250218D01*
X0201556Y0250037D01*
X0201518Y0249857D01*
X0201475Y0249678D01*
X0201428Y0249500D01*
X0201377Y0249323D01*
X0201321Y0249147D01*
X0201262Y0248973D01*
X0201197Y0248801D01*
X0201129Y0248630D01*
X0201057Y0248461D01*
X0200980Y0248293D01*
X0200899Y0248128D01*
X0200814Y0247965D01*
X0200726Y0247803D01*
X0200633Y0247644D01*
X0200536Y0247488D01*
X0200436Y0247333D01*
X0200332Y0247181D01*
X0200224Y0247032D01*
X0200113Y0246886D01*
X0199998Y0246742D01*
X0199879Y0246601D01*
X0199757Y0246463D01*
X0199632Y0246328D01*
X0199503Y0246197D01*
X0199372Y0246068D01*
X0199237Y0245943D01*
X0199099Y0245821D01*
X0198958Y0245702D01*
X0198814Y0245587D01*
X0198668Y0245476D01*
X0198519Y0245368D01*
X0198367Y0245264D01*
X0198212Y0245164D01*
X0198056Y0245067D01*
X0197897Y0244974D01*
X0197735Y0244886D01*
X0197572Y0244801D01*
X0197407Y0244720D01*
X0197239Y0244643D01*
X0197070Y0244571D01*
X0196899Y0244503D01*
X0196727Y0244438D01*
X0196553Y0244379D01*
X0196377Y0244323D01*
X0196200Y0244272D01*
X0196022Y0244225D01*
X0195843Y0244182D01*
X0195663Y0244144D01*
X0195482Y0244110D01*
X0195300Y0244081D01*
X0195118Y0244056D01*
X0194935Y0244036D01*
X0194752Y0244020D01*
X0194568Y0244009D01*
X0194384Y0244002D01*
X0194200Y0244000D01*
X0194016Y0244002D01*
X0193832Y0244009D01*
X0193648Y0244020D01*
X0193465Y0244036D01*
X0193282Y0244056D01*
X0193100Y0244081D01*
X0192918Y0244110D01*
X0192737Y0244144D01*
X0192557Y0244182D01*
X0192378Y0244225D01*
X0192200Y0244272D01*
X0192023Y0244323D01*
X0191847Y0244379D01*
X0191673Y0244438D01*
X0191501Y0244503D01*
X0191330Y0244571D01*
X0191161Y0244643D01*
X0190993Y0244720D01*
X0190828Y0244801D01*
X0190665Y0244886D01*
X0190503Y0244974D01*
X0190344Y0245067D01*
X0190188Y0245164D01*
X0190033Y0245264D01*
X0189881Y0245368D01*
X0189732Y0245476D01*
X0189586Y0245587D01*
X0189442Y0245702D01*
X0189301Y0245821D01*
X0189163Y0245943D01*
X0189028Y0246068D01*
X0188897Y0246197D01*
X0188768Y0246328D01*
X0188643Y0246463D01*
X0188521Y0246601D01*
X0188402Y0246742D01*
X0188287Y0246886D01*
X0188176Y0247032D01*
X0188068Y0247181D01*
X0187964Y0247333D01*
X0187864Y0247488D01*
X0187767Y0247644D01*
X0187674Y0247803D01*
X0187586Y0247965D01*
X0187501Y0248128D01*
X0187420Y0248293D01*
X0187343Y0248461D01*
X0187271Y0248630D01*
X0187203Y0248801D01*
X0187138Y0248973D01*
X0187079Y0249147D01*
X0187023Y0249323D01*
X0186972Y0249500D01*
X0186925Y0249678D01*
X0186882Y0249857D01*
X0186844Y0250037D01*
X0186810Y0250218D01*
X0186781Y0250400D01*
X0186756Y0250582D01*
X0186736Y0250765D01*
X0186720Y0250948D01*
X0186709Y0251132D01*
X0186702Y0251316D01*
X0186700Y0251500D01*
X0339200Y0161500D02*
X0337118Y0157444D01*
X0334937Y0153440D01*
X0332659Y0149490D01*
X0330286Y0145597D01*
X0327818Y0141763D01*
X0325258Y0137990D01*
X0322607Y0134280D01*
X0319866Y0130637D01*
X0317037Y0127061D01*
X0314122Y0123555D01*
X0311123Y0120121D01*
X0308040Y0116762D01*
X0304877Y0113478D01*
X0301635Y0110273D01*
X0298315Y0107147D01*
X0294920Y0104103D01*
X0291453Y0101143D01*
X0287914Y0098268D01*
X0284306Y0095480D01*
X0280631Y0092781D01*
X0276892Y0090173D01*
X0273090Y0087656D01*
X0269228Y0085232D01*
X0265308Y0082904D01*
X0261332Y0080671D01*
X0257304Y0078536D01*
X0253224Y0076500D01*
X0249096Y0074564D01*
X0244922Y0072729D01*
X0240705Y0070996D01*
X0236447Y0069367D01*
X0232150Y0067842D01*
X0227817Y0066421D01*
X0223451Y0065107D01*
X0219055Y0063900D01*
X0214630Y0062800D01*
X0210180Y0061808D01*
X0205707Y0060925D01*
X0201213Y0060151D01*
X0196703Y0059487D01*
X0192177Y0058933D01*
X0187639Y0058489D01*
X0183092Y0058156D01*
X0178538Y0057934D01*
X0173980Y0057823D01*
X0169420Y0057823D01*
X0164862Y0057934D01*
X0160308Y0058156D01*
X0155761Y0058489D01*
X0151223Y0058933D01*
X0146697Y0059487D01*
X0142187Y0060151D01*
X0137693Y0060925D01*
X0133220Y0061808D01*
X0128770Y0062800D01*
X0124345Y0063900D01*
X0119949Y0065107D01*
X0115583Y0066421D01*
X0111250Y0067842D01*
X0106953Y0069367D01*
X0102695Y0070996D01*
X0098478Y0072729D01*
X0094304Y0074564D01*
X0090176Y0076500D01*
X0086096Y0078536D01*
X0082068Y0080671D01*
X0078092Y0082904D01*
X0074172Y0085232D01*
X0070310Y0087656D01*
X0066508Y0090173D01*
X0062769Y0092781D01*
X0059094Y0095480D01*
X0055486Y0098268D01*
X0051947Y0101143D01*
X0048480Y0104103D01*
X0045085Y0107147D01*
X0041765Y0110273D01*
X0038523Y0113478D01*
X0035360Y0116762D01*
X0032277Y0120121D01*
X0029278Y0123555D01*
X0026363Y0127061D01*
X0023534Y0130637D01*
X0020793Y0134280D01*
X0018142Y0137990D01*
X0015582Y0141763D01*
X0013114Y0145597D01*
X0010741Y0149490D01*
X0008463Y0153440D01*
X0006282Y0157444D01*
X0004200Y0161500D01*
X0136700Y0251500D02*
X0136702Y0251684D01*
X0136709Y0251868D01*
X0136720Y0252052D01*
X0136736Y0252235D01*
X0136756Y0252418D01*
X0136781Y0252600D01*
X0136810Y0252782D01*
X0136844Y0252963D01*
X0136882Y0253143D01*
X0136925Y0253322D01*
X0136972Y0253500D01*
X0137023Y0253677D01*
X0137079Y0253853D01*
X0137138Y0254027D01*
X0137203Y0254199D01*
X0137271Y0254370D01*
X0137343Y0254539D01*
X0137420Y0254707D01*
X0137501Y0254872D01*
X0137586Y0255035D01*
X0137674Y0255197D01*
X0137767Y0255356D01*
X0137864Y0255512D01*
X0137964Y0255667D01*
X0138068Y0255819D01*
X0138176Y0255968D01*
X0138287Y0256114D01*
X0138402Y0256258D01*
X0138521Y0256399D01*
X0138643Y0256537D01*
X0138768Y0256672D01*
X0138897Y0256803D01*
X0139028Y0256932D01*
X0139163Y0257057D01*
X0139301Y0257179D01*
X0139442Y0257298D01*
X0139586Y0257413D01*
X0139732Y0257524D01*
X0139881Y0257632D01*
X0140033Y0257736D01*
X0140188Y0257836D01*
X0140344Y0257933D01*
X0140503Y0258026D01*
X0140665Y0258114D01*
X0140828Y0258199D01*
X0140993Y0258280D01*
X0141161Y0258357D01*
X0141330Y0258429D01*
X0141501Y0258497D01*
X0141673Y0258562D01*
X0141847Y0258621D01*
X0142023Y0258677D01*
X0142200Y0258728D01*
X0142378Y0258775D01*
X0142557Y0258818D01*
X0142737Y0258856D01*
X0142918Y0258890D01*
X0143100Y0258919D01*
X0143282Y0258944D01*
X0143465Y0258964D01*
X0143648Y0258980D01*
X0143832Y0258991D01*
X0144016Y0258998D01*
X0144200Y0259000D01*
X0144384Y0258998D01*
X0144568Y0258991D01*
X0144752Y0258980D01*
X0144935Y0258964D01*
X0145118Y0258944D01*
X0145300Y0258919D01*
X0145482Y0258890D01*
X0145663Y0258856D01*
X0145843Y0258818D01*
X0146022Y0258775D01*
X0146200Y0258728D01*
X0146377Y0258677D01*
X0146553Y0258621D01*
X0146727Y0258562D01*
X0146899Y0258497D01*
X0147070Y0258429D01*
X0147239Y0258357D01*
X0147407Y0258280D01*
X0147572Y0258199D01*
X0147735Y0258114D01*
X0147897Y0258026D01*
X0148056Y0257933D01*
X0148212Y0257836D01*
X0148367Y0257736D01*
X0148519Y0257632D01*
X0148668Y0257524D01*
X0148814Y0257413D01*
X0148958Y0257298D01*
X0149099Y0257179D01*
X0149237Y0257057D01*
X0149372Y0256932D01*
X0149503Y0256803D01*
X0149632Y0256672D01*
X0149757Y0256537D01*
X0149879Y0256399D01*
X0149998Y0256258D01*
X0150113Y0256114D01*
X0150224Y0255968D01*
X0150332Y0255819D01*
X0150436Y0255667D01*
X0150536Y0255512D01*
X0150633Y0255356D01*
X0150726Y0255197D01*
X0150814Y0255035D01*
X0150899Y0254872D01*
X0150980Y0254707D01*
X0151057Y0254539D01*
X0151129Y0254370D01*
X0151197Y0254199D01*
X0151262Y0254027D01*
X0151321Y0253853D01*
X0151377Y0253677D01*
X0151428Y0253500D01*
X0151475Y0253322D01*
X0151518Y0253143D01*
X0151556Y0252963D01*
X0151590Y0252782D01*
X0151619Y0252600D01*
X0151644Y0252418D01*
X0151664Y0252235D01*
X0151680Y0252052D01*
X0151691Y0251868D01*
X0151698Y0251684D01*
X0151700Y0251500D01*
X0151698Y0251316D01*
X0151691Y0251132D01*
X0151680Y0250948D01*
X0151664Y0250765D01*
X0151644Y0250582D01*
X0151619Y0250400D01*
X0151590Y0250218D01*
X0151556Y0250037D01*
X0151518Y0249857D01*
X0151475Y0249678D01*
X0151428Y0249500D01*
X0151377Y0249323D01*
X0151321Y0249147D01*
X0151262Y0248973D01*
X0151197Y0248801D01*
X0151129Y0248630D01*
X0151057Y0248461D01*
X0150980Y0248293D01*
X0150899Y0248128D01*
X0150814Y0247965D01*
X0150726Y0247803D01*
X0150633Y0247644D01*
X0150536Y0247488D01*
X0150436Y0247333D01*
X0150332Y0247181D01*
X0150224Y0247032D01*
X0150113Y0246886D01*
X0149998Y0246742D01*
X0149879Y0246601D01*
X0149757Y0246463D01*
X0149632Y0246328D01*
X0149503Y0246197D01*
X0149372Y0246068D01*
X0149237Y0245943D01*
X0149099Y0245821D01*
X0148958Y0245702D01*
X0148814Y0245587D01*
X0148668Y0245476D01*
X0148519Y0245368D01*
X0148367Y0245264D01*
X0148212Y0245164D01*
X0148056Y0245067D01*
X0147897Y0244974D01*
X0147735Y0244886D01*
X0147572Y0244801D01*
X0147407Y0244720D01*
X0147239Y0244643D01*
X0147070Y0244571D01*
X0146899Y0244503D01*
X0146727Y0244438D01*
X0146553Y0244379D01*
X0146377Y0244323D01*
X0146200Y0244272D01*
X0146022Y0244225D01*
X0145843Y0244182D01*
X0145663Y0244144D01*
X0145482Y0244110D01*
X0145300Y0244081D01*
X0145118Y0244056D01*
X0144935Y0244036D01*
X0144752Y0244020D01*
X0144568Y0244009D01*
X0144384Y0244002D01*
X0144200Y0244000D01*
X0144016Y0244002D01*
X0143832Y0244009D01*
X0143648Y0244020D01*
X0143465Y0244036D01*
X0143282Y0244056D01*
X0143100Y0244081D01*
X0142918Y0244110D01*
X0142737Y0244144D01*
X0142557Y0244182D01*
X0142378Y0244225D01*
X0142200Y0244272D01*
X0142023Y0244323D01*
X0141847Y0244379D01*
X0141673Y0244438D01*
X0141501Y0244503D01*
X0141330Y0244571D01*
X0141161Y0244643D01*
X0140993Y0244720D01*
X0140828Y0244801D01*
X0140665Y0244886D01*
X0140503Y0244974D01*
X0140344Y0245067D01*
X0140188Y0245164D01*
X0140033Y0245264D01*
X0139881Y0245368D01*
X0139732Y0245476D01*
X0139586Y0245587D01*
X0139442Y0245702D01*
X0139301Y0245821D01*
X0139163Y0245943D01*
X0139028Y0246068D01*
X0138897Y0246197D01*
X0138768Y0246328D01*
X0138643Y0246463D01*
X0138521Y0246601D01*
X0138402Y0246742D01*
X0138287Y0246886D01*
X0138176Y0247032D01*
X0138068Y0247181D01*
X0137964Y0247333D01*
X0137864Y0247488D01*
X0137767Y0247644D01*
X0137674Y0247803D01*
X0137586Y0247965D01*
X0137501Y0248128D01*
X0137420Y0248293D01*
X0137343Y0248461D01*
X0137271Y0248630D01*
X0137203Y0248801D01*
X0137138Y0248973D01*
X0137079Y0249147D01*
X0137023Y0249323D01*
X0136972Y0249500D01*
X0136925Y0249678D01*
X0136882Y0249857D01*
X0136844Y0250037D01*
X0136810Y0250218D01*
X0136781Y0250400D01*
X0136756Y0250582D01*
X0136736Y0250765D01*
X0136720Y0250948D01*
X0136709Y0251132D01*
X0136702Y0251316D01*
X0136700Y0251500D01*
X0161700Y0254000D02*
X0161702Y0254184D01*
X0161709Y0254368D01*
X0161720Y0254552D01*
X0161736Y0254735D01*
X0161756Y0254918D01*
X0161781Y0255100D01*
X0161810Y0255282D01*
X0161844Y0255463D01*
X0161882Y0255643D01*
X0161925Y0255822D01*
X0161972Y0256000D01*
X0162023Y0256177D01*
X0162079Y0256353D01*
X0162138Y0256527D01*
X0162203Y0256699D01*
X0162271Y0256870D01*
X0162343Y0257039D01*
X0162420Y0257207D01*
X0162501Y0257372D01*
X0162586Y0257535D01*
X0162674Y0257697D01*
X0162767Y0257856D01*
X0162864Y0258012D01*
X0162964Y0258167D01*
X0163068Y0258319D01*
X0163176Y0258468D01*
X0163287Y0258614D01*
X0163402Y0258758D01*
X0163521Y0258899D01*
X0163643Y0259037D01*
X0163768Y0259172D01*
X0163897Y0259303D01*
X0164028Y0259432D01*
X0164163Y0259557D01*
X0164301Y0259679D01*
X0164442Y0259798D01*
X0164586Y0259913D01*
X0164732Y0260024D01*
X0164881Y0260132D01*
X0165033Y0260236D01*
X0165188Y0260336D01*
X0165344Y0260433D01*
X0165503Y0260526D01*
X0165665Y0260614D01*
X0165828Y0260699D01*
X0165993Y0260780D01*
X0166161Y0260857D01*
X0166330Y0260929D01*
X0166501Y0260997D01*
X0166673Y0261062D01*
X0166847Y0261121D01*
X0167023Y0261177D01*
X0167200Y0261228D01*
X0167378Y0261275D01*
X0167557Y0261318D01*
X0167737Y0261356D01*
X0167918Y0261390D01*
X0168100Y0261419D01*
X0168282Y0261444D01*
X0168465Y0261464D01*
X0168648Y0261480D01*
X0168832Y0261491D01*
X0169016Y0261498D01*
X0169200Y0261500D01*
X0169384Y0261498D01*
X0169568Y0261491D01*
X0169752Y0261480D01*
X0169935Y0261464D01*
X0170118Y0261444D01*
X0170300Y0261419D01*
X0170482Y0261390D01*
X0170663Y0261356D01*
X0170843Y0261318D01*
X0171022Y0261275D01*
X0171200Y0261228D01*
X0171377Y0261177D01*
X0171553Y0261121D01*
X0171727Y0261062D01*
X0171899Y0260997D01*
X0172070Y0260929D01*
X0172239Y0260857D01*
X0172407Y0260780D01*
X0172572Y0260699D01*
X0172735Y0260614D01*
X0172897Y0260526D01*
X0173056Y0260433D01*
X0173212Y0260336D01*
X0173367Y0260236D01*
X0173519Y0260132D01*
X0173668Y0260024D01*
X0173814Y0259913D01*
X0173958Y0259798D01*
X0174099Y0259679D01*
X0174237Y0259557D01*
X0174372Y0259432D01*
X0174503Y0259303D01*
X0174632Y0259172D01*
X0174757Y0259037D01*
X0174879Y0258899D01*
X0174998Y0258758D01*
X0175113Y0258614D01*
X0175224Y0258468D01*
X0175332Y0258319D01*
X0175436Y0258167D01*
X0175536Y0258012D01*
X0175633Y0257856D01*
X0175726Y0257697D01*
X0175814Y0257535D01*
X0175899Y0257372D01*
X0175980Y0257207D01*
X0176057Y0257039D01*
X0176129Y0256870D01*
X0176197Y0256699D01*
X0176262Y0256527D01*
X0176321Y0256353D01*
X0176377Y0256177D01*
X0176428Y0256000D01*
X0176475Y0255822D01*
X0176518Y0255643D01*
X0176556Y0255463D01*
X0176590Y0255282D01*
X0176619Y0255100D01*
X0176644Y0254918D01*
X0176664Y0254735D01*
X0176680Y0254552D01*
X0176691Y0254368D01*
X0176698Y0254184D01*
X0176700Y0254000D01*
X0176698Y0253816D01*
X0176691Y0253632D01*
X0176680Y0253448D01*
X0176664Y0253265D01*
X0176644Y0253082D01*
X0176619Y0252900D01*
X0176590Y0252718D01*
X0176556Y0252537D01*
X0176518Y0252357D01*
X0176475Y0252178D01*
X0176428Y0252000D01*
X0176377Y0251823D01*
X0176321Y0251647D01*
X0176262Y0251473D01*
X0176197Y0251301D01*
X0176129Y0251130D01*
X0176057Y0250961D01*
X0175980Y0250793D01*
X0175899Y0250628D01*
X0175814Y0250465D01*
X0175726Y0250303D01*
X0175633Y0250144D01*
X0175536Y0249988D01*
X0175436Y0249833D01*
X0175332Y0249681D01*
X0175224Y0249532D01*
X0175113Y0249386D01*
X0174998Y0249242D01*
X0174879Y0249101D01*
X0174757Y0248963D01*
X0174632Y0248828D01*
X0174503Y0248697D01*
X0174372Y0248568D01*
X0174237Y0248443D01*
X0174099Y0248321D01*
X0173958Y0248202D01*
X0173814Y0248087D01*
X0173668Y0247976D01*
X0173519Y0247868D01*
X0173367Y0247764D01*
X0173212Y0247664D01*
X0173056Y0247567D01*
X0172897Y0247474D01*
X0172735Y0247386D01*
X0172572Y0247301D01*
X0172407Y0247220D01*
X0172239Y0247143D01*
X0172070Y0247071D01*
X0171899Y0247003D01*
X0171727Y0246938D01*
X0171553Y0246879D01*
X0171377Y0246823D01*
X0171200Y0246772D01*
X0171022Y0246725D01*
X0170843Y0246682D01*
X0170663Y0246644D01*
X0170482Y0246610D01*
X0170300Y0246581D01*
X0170118Y0246556D01*
X0169935Y0246536D01*
X0169752Y0246520D01*
X0169568Y0246509D01*
X0169384Y0246502D01*
X0169200Y0246500D01*
X0169016Y0246502D01*
X0168832Y0246509D01*
X0168648Y0246520D01*
X0168465Y0246536D01*
X0168282Y0246556D01*
X0168100Y0246581D01*
X0167918Y0246610D01*
X0167737Y0246644D01*
X0167557Y0246682D01*
X0167378Y0246725D01*
X0167200Y0246772D01*
X0167023Y0246823D01*
X0166847Y0246879D01*
X0166673Y0246938D01*
X0166501Y0247003D01*
X0166330Y0247071D01*
X0166161Y0247143D01*
X0165993Y0247220D01*
X0165828Y0247301D01*
X0165665Y0247386D01*
X0165503Y0247474D01*
X0165344Y0247567D01*
X0165188Y0247664D01*
X0165033Y0247764D01*
X0164881Y0247868D01*
X0164732Y0247976D01*
X0164586Y0248087D01*
X0164442Y0248202D01*
X0164301Y0248321D01*
X0164163Y0248443D01*
X0164028Y0248568D01*
X0163897Y0248697D01*
X0163768Y0248828D01*
X0163643Y0248963D01*
X0163521Y0249101D01*
X0163402Y0249242D01*
X0163287Y0249386D01*
X0163176Y0249532D01*
X0163068Y0249681D01*
X0162964Y0249833D01*
X0162864Y0249988D01*
X0162767Y0250144D01*
X0162674Y0250303D01*
X0162586Y0250465D01*
X0162501Y0250628D01*
X0162420Y0250793D01*
X0162343Y0250961D01*
X0162271Y0251130D01*
X0162203Y0251301D01*
X0162138Y0251473D01*
X0162079Y0251647D01*
X0162023Y0251823D01*
X0161972Y0252000D01*
X0161925Y0252178D01*
X0161882Y0252357D01*
X0161844Y0252537D01*
X0161810Y0252718D01*
X0161781Y0252900D01*
X0161756Y0253082D01*
X0161736Y0253265D01*
X0161720Y0253448D01*
X0161709Y0253632D01*
X0161702Y0253816D01*
X0161700Y0254000D01*
M02*
