G75*
%MOIN*%
%OFA0B0*%
%FSLAX25Y25*%
%IPPOS*%
%LPD*%
%AMOC8*
5,1,8,0,0,1.08239X$1,22.5*
%
%ADD10C,0.15800*%
%ADD11C,0.00500*%
%ADD12C,0.08200*%
%ADD13R,0.03556X0.04343*%
%ADD14R,0.03556X0.07493*%
%ADD15R,0.05800X0.03000*%
%ADD16R,0.03000X0.05800*%
%ADD17R,0.02375X0.05131*%
%ADD18R,0.22454X0.09265*%
%ADD19R,0.03950X0.05524*%
%ADD20R,0.05131X0.04737*%
%ADD21C,0.09800*%
%ADD22R,0.07099X0.07887*%
D10*
X0171500Y0066300D03*
X0194200Y0251500D03*
X0169200Y0254000D03*
X0144200Y0251500D03*
D11*
X0236809Y0231751D02*
X0236954Y0232106D01*
X0237185Y0232435D01*
X0237483Y0232705D01*
X0237833Y0232902D01*
X0238219Y0233015D01*
X0238620Y0233040D01*
X0239017Y0232976D01*
X0239390Y0232824D01*
X0239704Y0232583D01*
X0239958Y0232279D01*
X0240137Y0231925D01*
X0240233Y0231541D01*
X0240241Y0231144D01*
X0240161Y0230756D01*
X0239996Y0230396D01*
X0239764Y0230087D01*
X0239469Y0229837D01*
X0239126Y0229660D01*
X0238752Y0229563D01*
X0238366Y0229552D01*
X0237987Y0229627D01*
X0237635Y0229784D01*
X0237321Y0230005D01*
X0237065Y0230289D01*
X0236878Y0230623D01*
X0236770Y0230991D01*
X0236747Y0231373D01*
X0236809Y0231751D01*
X0236783Y0231590D02*
X0240221Y0231590D01*
X0240230Y0231092D02*
X0236764Y0231092D01*
X0236895Y0230593D02*
X0240087Y0230593D01*
X0239770Y0230095D02*
X0237240Y0230095D01*
X0238143Y0229596D02*
X0238880Y0229596D01*
X0240054Y0232089D02*
X0236947Y0232089D01*
X0237353Y0232587D02*
X0239699Y0232587D01*
X0262976Y0217117D02*
X0263206Y0217446D01*
X0263504Y0217716D01*
X0263855Y0217913D01*
X0264241Y0218026D01*
X0264642Y0218051D01*
X0265039Y0217987D01*
X0265411Y0217835D01*
X0265726Y0217594D01*
X0265979Y0217290D01*
X0266159Y0216936D01*
X0266255Y0216552D01*
X0266263Y0216155D01*
X0266183Y0215767D01*
X0266018Y0215407D01*
X0265786Y0215098D01*
X0265491Y0214848D01*
X0265148Y0214671D01*
X0264774Y0214574D01*
X0264388Y0214563D01*
X0264009Y0214638D01*
X0263656Y0214795D01*
X0263343Y0215016D01*
X0263086Y0215300D01*
X0262899Y0215634D01*
X0262792Y0216002D01*
X0262768Y0216384D01*
X0262831Y0216762D01*
X0262976Y0217117D01*
X0262987Y0217133D02*
X0266059Y0217133D01*
X0266234Y0216635D02*
X0262810Y0216635D01*
X0262783Y0216136D02*
X0266259Y0216136D01*
X0266124Y0215638D02*
X0262898Y0215638D01*
X0263231Y0215139D02*
X0265817Y0215139D01*
X0265032Y0214641D02*
X0264003Y0214641D01*
X0263412Y0217632D02*
X0265677Y0217632D01*
X0287891Y0192640D02*
X0288226Y0192863D01*
X0288602Y0193005D01*
X0289000Y0193060D01*
X0289393Y0193009D01*
X0289765Y0192872D01*
X0290097Y0192655D01*
X0290372Y0192370D01*
X0290577Y0192031D01*
X0290702Y0191655D01*
X0290740Y0191260D01*
X0290693Y0190877D01*
X0290563Y0190513D01*
X0290354Y0190188D01*
X0290079Y0189917D01*
X0289750Y0189714D01*
X0289384Y0189590D01*
X0289000Y0189550D01*
X0288618Y0189584D01*
X0288254Y0189702D01*
X0287925Y0189898D01*
X0287648Y0190163D01*
X0287437Y0190482D01*
X0287302Y0190841D01*
X0287250Y0191220D01*
X0287285Y0191621D01*
X0287408Y0192003D01*
X0287614Y0192349D01*
X0287891Y0192640D01*
X0287990Y0192706D02*
X0290018Y0192706D01*
X0290471Y0192208D02*
X0287530Y0192208D01*
X0287314Y0191709D02*
X0290684Y0191709D01*
X0290734Y0191211D02*
X0287251Y0191211D01*
X0287350Y0190712D02*
X0290634Y0190712D01*
X0290371Y0190214D02*
X0287614Y0190214D01*
X0288232Y0189715D02*
X0289751Y0189715D01*
X0297302Y0190841D02*
X0297250Y0191220D01*
X0297285Y0191621D01*
X0297408Y0192003D01*
X0297614Y0192349D01*
X0297891Y0192640D01*
X0298226Y0192863D01*
X0298602Y0193005D01*
X0299000Y0193060D01*
X0299393Y0193009D01*
X0299765Y0192872D01*
X0300097Y0192655D01*
X0300372Y0192370D01*
X0300577Y0192031D01*
X0300702Y0191655D01*
X0300740Y0191260D01*
X0300693Y0190877D01*
X0300563Y0190513D01*
X0300354Y0190188D01*
X0300079Y0189917D01*
X0299750Y0189714D01*
X0299384Y0189590D01*
X0299000Y0189550D01*
X0298618Y0189584D01*
X0298254Y0189702D01*
X0297925Y0189898D01*
X0297648Y0190163D01*
X0297437Y0190482D01*
X0297302Y0190841D01*
X0297350Y0190712D02*
X0300634Y0190712D01*
X0300734Y0191211D02*
X0297251Y0191211D01*
X0297314Y0191709D02*
X0300684Y0191709D01*
X0300471Y0192208D02*
X0297530Y0192208D01*
X0297990Y0192706D02*
X0300018Y0192706D01*
X0300371Y0190214D02*
X0297614Y0190214D01*
X0298232Y0189715D02*
X0299751Y0189715D01*
X0263904Y0110782D02*
X0264254Y0110585D01*
X0264552Y0110315D01*
X0264766Y0109981D01*
X0264900Y0109608D01*
X0264947Y0109215D01*
X0264906Y0108821D01*
X0264778Y0108446D01*
X0264570Y0108108D01*
X0264292Y0107826D01*
X0263968Y0107615D01*
X0263606Y0107481D01*
X0263223Y0107432D01*
X0262838Y0107469D01*
X0262472Y0107590D01*
X0262141Y0107791D01*
X0261864Y0108059D01*
X0261644Y0108373D01*
X0261501Y0108728D01*
X0261439Y0109106D01*
X0261464Y0109489D01*
X0261573Y0109856D01*
X0261761Y0110190D01*
X0262018Y0110473D01*
X0262347Y0110704D01*
X0262720Y0110856D01*
X0263117Y0110920D01*
X0263518Y0110895D01*
X0263904Y0110782D01*
X0264401Y0110452D02*
X0261999Y0110452D01*
X0261627Y0109953D02*
X0264776Y0109953D01*
X0264918Y0109455D02*
X0261462Y0109455D01*
X0261464Y0108956D02*
X0264920Y0108956D01*
X0264782Y0108458D02*
X0261610Y0108458D01*
X0261967Y0107959D02*
X0264423Y0107959D01*
X0263446Y0107461D02*
X0262922Y0107461D01*
X0256366Y0103394D02*
X0256580Y0103060D01*
X0256714Y0102687D01*
X0256761Y0102293D01*
X0256720Y0101899D01*
X0256592Y0101524D01*
X0256384Y0101187D01*
X0256106Y0100904D01*
X0255782Y0100693D01*
X0255420Y0100560D01*
X0255037Y0100510D01*
X0254652Y0100547D01*
X0254285Y0100669D01*
X0253955Y0100869D01*
X0253677Y0101138D01*
X0253458Y0101452D01*
X0253314Y0101807D01*
X0253253Y0102185D01*
X0253278Y0102567D01*
X0253386Y0102934D01*
X0253574Y0103268D01*
X0253832Y0103552D01*
X0254161Y0103782D01*
X0254534Y0103934D01*
X0254930Y0103999D01*
X0255332Y0103974D01*
X0255717Y0103860D01*
X0256068Y0103664D01*
X0256366Y0103394D01*
X0256279Y0103473D02*
X0253760Y0103473D01*
X0253409Y0102974D02*
X0256610Y0102974D01*
X0256739Y0102476D02*
X0253272Y0102476D01*
X0253287Y0101977D02*
X0256728Y0101977D01*
X0256564Y0101479D02*
X0253447Y0101479D01*
X0253840Y0100980D02*
X0256180Y0100980D01*
X0255341Y0103971D02*
X0254761Y0103971D01*
X0248150Y0096539D02*
X0248364Y0096205D01*
X0248498Y0095832D01*
X0248545Y0095439D01*
X0248504Y0095045D01*
X0248376Y0094669D01*
X0248168Y0094332D01*
X0247890Y0094050D01*
X0247567Y0093839D01*
X0247204Y0093705D01*
X0246821Y0093656D01*
X0246436Y0093693D01*
X0246070Y0093814D01*
X0245739Y0094014D01*
X0245462Y0094283D01*
X0245243Y0094597D01*
X0245099Y0094952D01*
X0245037Y0095330D01*
X0245062Y0095713D01*
X0245171Y0096080D01*
X0245359Y0096414D01*
X0245616Y0096697D01*
X0245946Y0096928D01*
X0246318Y0097079D01*
X0246715Y0097144D01*
X0247116Y0097119D01*
X0247502Y0097006D01*
X0247852Y0096809D01*
X0248150Y0096539D01*
X0248180Y0096494D02*
X0245431Y0096494D01*
X0245146Y0095995D02*
X0248440Y0095995D01*
X0248538Y0095497D02*
X0245048Y0095497D01*
X0245091Y0094998D02*
X0248488Y0094998D01*
X0248271Y0094499D02*
X0245311Y0094499D01*
X0245762Y0094001D02*
X0247815Y0094001D01*
X0247526Y0096992D02*
X0246103Y0096992D01*
D12*
X0196500Y0191300D03*
X0186500Y0191300D03*
X0176500Y0191300D03*
X0166500Y0191300D03*
X0156500Y0191300D03*
X0146500Y0191300D03*
D13*
G36*
X0148602Y0172833D02*
X0146087Y0170318D01*
X0143018Y0173387D01*
X0145533Y0175902D01*
X0148602Y0172833D01*
G37*
G36*
X0144982Y0169213D02*
X0142467Y0166698D01*
X0139398Y0169767D01*
X0141913Y0172282D01*
X0144982Y0169213D01*
G37*
G36*
X0141913Y0150318D02*
X0139398Y0152833D01*
X0142467Y0155902D01*
X0144982Y0153387D01*
X0141913Y0150318D01*
G37*
G36*
X0145533Y0146698D02*
X0143018Y0149213D01*
X0146087Y0152282D01*
X0148602Y0149767D01*
X0145533Y0146698D01*
G37*
G36*
X0189398Y0178767D02*
X0191913Y0181282D01*
X0194982Y0178213D01*
X0192467Y0175698D01*
X0189398Y0178767D01*
G37*
G36*
X0193018Y0182387D02*
X0195533Y0184902D01*
X0198602Y0181833D01*
X0196087Y0179318D01*
X0193018Y0182387D01*
G37*
G36*
X0197467Y0175902D02*
X0199982Y0173387D01*
X0196913Y0170318D01*
X0194398Y0172833D01*
X0197467Y0175902D01*
G37*
G36*
X0201087Y0172282D02*
X0203602Y0169767D01*
X0200533Y0166698D01*
X0198018Y0169213D01*
X0201087Y0172282D01*
G37*
D14*
G36*
X0164232Y0137365D02*
X0166747Y0134850D01*
X0161450Y0129553D01*
X0158935Y0132068D01*
X0164232Y0137365D01*
G37*
G36*
X0160891Y0140706D02*
X0163406Y0138191D01*
X0158109Y0132894D01*
X0155594Y0135409D01*
X0160891Y0140706D01*
G37*
G36*
X0157550Y0144047D02*
X0160065Y0141532D01*
X0154768Y0136235D01*
X0152253Y0138750D01*
X0157550Y0144047D01*
G37*
D15*
G36*
X0166002Y0146998D02*
X0161902Y0142898D01*
X0159780Y0145020D01*
X0163880Y0149120D01*
X0166002Y0146998D01*
G37*
G36*
X0168229Y0144771D02*
X0164129Y0140671D01*
X0162007Y0142793D01*
X0166107Y0146893D01*
X0168229Y0144771D01*
G37*
G36*
X0170456Y0142544D02*
X0166356Y0138444D01*
X0164234Y0140566D01*
X0168334Y0144666D01*
X0170456Y0142544D01*
G37*
G36*
X0163774Y0149225D02*
X0159674Y0145125D01*
X0157552Y0147247D01*
X0161652Y0151347D01*
X0163774Y0149225D01*
G37*
G36*
X0161547Y0151452D02*
X0157447Y0147352D01*
X0155325Y0149474D01*
X0159425Y0153574D01*
X0161547Y0151452D01*
G37*
G36*
X0159320Y0153680D02*
X0155220Y0149580D01*
X0153098Y0151702D01*
X0157198Y0155802D01*
X0159320Y0153680D01*
G37*
G36*
X0157093Y0155907D02*
X0152993Y0151807D01*
X0150871Y0153929D01*
X0154971Y0158029D01*
X0157093Y0155907D01*
G37*
G36*
X0154866Y0158134D02*
X0150766Y0154034D01*
X0148644Y0156156D01*
X0152744Y0160256D01*
X0154866Y0158134D01*
G37*
G36*
X0183220Y0177580D02*
X0179120Y0173480D01*
X0176998Y0175602D01*
X0181098Y0179702D01*
X0183220Y0177580D01*
G37*
G36*
X0185448Y0175353D02*
X0181348Y0171253D01*
X0179226Y0173375D01*
X0183326Y0177475D01*
X0185448Y0175353D01*
G37*
G36*
X0187675Y0173126D02*
X0183575Y0169026D01*
X0181453Y0171148D01*
X0185553Y0175248D01*
X0187675Y0173126D01*
G37*
G36*
X0189902Y0170898D02*
X0185802Y0166798D01*
X0183680Y0168920D01*
X0187780Y0173020D01*
X0189902Y0170898D01*
G37*
G36*
X0192129Y0168671D02*
X0188029Y0164571D01*
X0185907Y0166693D01*
X0190007Y0170793D01*
X0192129Y0168671D01*
G37*
G36*
X0194356Y0166444D02*
X0190256Y0162344D01*
X0188134Y0164466D01*
X0192234Y0168566D01*
X0194356Y0166444D01*
G37*
G36*
X0180993Y0179807D02*
X0176893Y0175707D01*
X0174771Y0177829D01*
X0178871Y0181929D01*
X0180993Y0179807D01*
G37*
G36*
X0178766Y0182034D02*
X0174666Y0177934D01*
X0172544Y0180056D01*
X0176644Y0184156D01*
X0178766Y0182034D01*
G37*
D16*
G36*
X0170456Y0180056D02*
X0168334Y0177934D01*
X0164234Y0182034D01*
X0166356Y0184156D01*
X0170456Y0180056D01*
G37*
G36*
X0168229Y0177829D02*
X0166107Y0175707D01*
X0162007Y0179807D01*
X0164129Y0181929D01*
X0168229Y0177829D01*
G37*
G36*
X0166002Y0175602D02*
X0163880Y0173480D01*
X0159780Y0177580D01*
X0161902Y0179702D01*
X0166002Y0175602D01*
G37*
G36*
X0163774Y0173375D02*
X0161652Y0171253D01*
X0157552Y0175353D01*
X0159674Y0177475D01*
X0163774Y0173375D01*
G37*
G36*
X0161547Y0171148D02*
X0159425Y0169026D01*
X0155325Y0173126D01*
X0157447Y0175248D01*
X0161547Y0171148D01*
G37*
G36*
X0159320Y0168920D02*
X0157198Y0166798D01*
X0153098Y0170898D01*
X0155220Y0173020D01*
X0159320Y0168920D01*
G37*
G36*
X0157093Y0166693D02*
X0154971Y0164571D01*
X0150871Y0168671D01*
X0152993Y0170793D01*
X0157093Y0166693D01*
G37*
G36*
X0154866Y0164466D02*
X0152744Y0162344D01*
X0148644Y0166444D01*
X0150766Y0168566D01*
X0154866Y0164466D01*
G37*
G36*
X0178766Y0140566D02*
X0176644Y0138444D01*
X0172544Y0142544D01*
X0174666Y0144666D01*
X0178766Y0140566D01*
G37*
G36*
X0180993Y0142793D02*
X0178871Y0140671D01*
X0174771Y0144771D01*
X0176893Y0146893D01*
X0180993Y0142793D01*
G37*
G36*
X0183220Y0145020D02*
X0181098Y0142898D01*
X0176998Y0146998D01*
X0179120Y0149120D01*
X0183220Y0145020D01*
G37*
G36*
X0185448Y0147247D02*
X0183326Y0145125D01*
X0179226Y0149225D01*
X0181348Y0151347D01*
X0185448Y0147247D01*
G37*
G36*
X0187675Y0149474D02*
X0185553Y0147352D01*
X0181453Y0151452D01*
X0183575Y0153574D01*
X0187675Y0149474D01*
G37*
G36*
X0189902Y0151702D02*
X0187780Y0149580D01*
X0183680Y0153680D01*
X0185802Y0155802D01*
X0189902Y0151702D01*
G37*
G36*
X0192129Y0153929D02*
X0190007Y0151807D01*
X0185907Y0155907D01*
X0188029Y0158029D01*
X0192129Y0153929D01*
G37*
G36*
X0194356Y0156156D02*
X0192234Y0154034D01*
X0188134Y0158134D01*
X0190256Y0160256D01*
X0194356Y0156156D01*
G37*
D17*
G36*
X0286548Y0125098D02*
X0284869Y0126777D01*
X0288496Y0130404D01*
X0290175Y0128725D01*
X0286548Y0125098D01*
G37*
G36*
X0288357Y0123288D02*
X0286678Y0124967D01*
X0290305Y0128594D01*
X0291984Y0126915D01*
X0288357Y0123288D01*
G37*
G36*
X0290167Y0121478D02*
X0288488Y0123157D01*
X0292115Y0126784D01*
X0293794Y0125105D01*
X0290167Y0121478D01*
G37*
G36*
X0291977Y0119669D02*
X0290298Y0121348D01*
X0293925Y0124975D01*
X0295604Y0123296D01*
X0291977Y0119669D01*
G37*
G36*
X0304504Y0132196D02*
X0302825Y0133875D01*
X0306452Y0137502D01*
X0308131Y0135823D01*
X0304504Y0132196D01*
G37*
G36*
X0302694Y0134006D02*
X0301015Y0135685D01*
X0304642Y0139312D01*
X0306321Y0137633D01*
X0302694Y0134006D01*
G37*
G36*
X0300885Y0135815D02*
X0299206Y0137494D01*
X0302833Y0141121D01*
X0304512Y0139442D01*
X0300885Y0135815D01*
G37*
G36*
X0299075Y0137625D02*
X0297396Y0139304D01*
X0301023Y0142931D01*
X0302702Y0141252D01*
X0299075Y0137625D01*
G37*
D18*
G36*
X0293059Y0150618D02*
X0277182Y0134741D01*
X0270631Y0141292D01*
X0286508Y0157169D01*
X0293059Y0150618D01*
G37*
G36*
X0282369Y0161308D02*
X0266492Y0145431D01*
X0259941Y0151982D01*
X0275818Y0167859D01*
X0282369Y0161308D01*
G37*
D19*
G36*
X0294146Y0147851D02*
X0296939Y0150644D01*
X0300844Y0146739D01*
X0298051Y0143946D01*
X0294146Y0147851D01*
G37*
G36*
X0299156Y0152861D02*
X0301949Y0155654D01*
X0305854Y0151749D01*
X0303061Y0148956D01*
X0299156Y0152861D01*
G37*
G36*
X0277051Y0124654D02*
X0279844Y0121861D01*
X0275939Y0117956D01*
X0273146Y0120749D01*
X0277051Y0124654D01*
G37*
G36*
X0282061Y0119644D02*
X0284854Y0116851D01*
X0280949Y0112946D01*
X0278156Y0115739D01*
X0282061Y0119644D01*
G37*
D20*
G36*
X0283146Y0136295D02*
X0286773Y0139922D01*
X0290122Y0136573D01*
X0286495Y0132946D01*
X0283146Y0136295D01*
G37*
G36*
X0287878Y0141027D02*
X0291505Y0144654D01*
X0294854Y0141305D01*
X0291227Y0137678D01*
X0287878Y0141027D01*
G37*
G36*
X0306495Y0147154D02*
X0310122Y0143527D01*
X0306773Y0140178D01*
X0303146Y0143805D01*
X0306495Y0147154D01*
G37*
G36*
X0311227Y0142422D02*
X0314854Y0138795D01*
X0311505Y0135446D01*
X0307878Y0139073D01*
X0311227Y0142422D01*
G37*
G36*
X0309854Y0126305D02*
X0306227Y0122678D01*
X0302878Y0126027D01*
X0306505Y0129654D01*
X0309854Y0126305D01*
G37*
G36*
X0305122Y0121573D02*
X0301495Y0117946D01*
X0298146Y0121295D01*
X0301773Y0124922D01*
X0305122Y0121573D01*
G37*
D21*
X0256500Y0161300D03*
X0088500Y0161300D03*
D22*
G36*
X0301400Y0158125D02*
X0296381Y0153106D01*
X0290806Y0158681D01*
X0295825Y0163700D01*
X0301400Y0158125D01*
G37*
G36*
X0309194Y0165919D02*
X0304175Y0160900D01*
X0298600Y0166475D01*
X0303619Y0171494D01*
X0309194Y0165919D01*
G37*
M02*
