%
M48
M72
T01C0.0150
T02C0.0300
T03C0.0320
T04C0.0400
T05C0.0440
T06C0.0500
T07C0.1500
%
T01
X12650Y13130
X15050Y13530
X14950Y14180
X14650Y15580
X14650Y16130
X12750Y17480
X13050Y18280
X12550Y18980
X11750Y19580
X14850Y17580
X17150Y17630
X18750Y16030
X19350Y16180
X19650Y15830
X20450Y16630
X20850Y17230
X20150Y18080
X20450Y18380
X21750Y19580
X22450Y20280
X23050Y19680
X22750Y16680
X26650Y16730
X29450Y14430
X31450Y13330
X32150Y14230
X30350Y11630
X29950Y11330
X27250Y12630
X19050Y14180
X18650Y13530
X17650Y15130
X16650Y15630
T02
X12200Y10649
X12800Y10324
X13400Y10649
X14000Y10324
X16200Y9499
X16800Y9174
X17400Y9499
X18000Y9174
X20200Y10649
X20800Y10324
X21400Y10649
X22000Y10324
X23300Y13824
X22700Y14149
X23900Y14149
X24500Y13824
X24500Y17824
X23900Y18149
X23300Y17824
X22700Y18149
X22000Y21324
X21400Y21649
X20800Y21324
X20200Y21649
X18000Y22824
X17400Y23149
X16800Y22824
X16200Y23149
X14000Y21324
X13400Y21649
X12800Y21324
X12200Y21649
X10900Y18149
X10300Y17824
X9700Y18149
X11500Y17824
X10900Y14149
X10300Y13824
X9700Y14149
X11500Y13824
T03
X28900Y19130
X29900Y19130
T04
X26449Y21630
X23851Y23130
X19650Y19130
X18650Y19130
X17650Y19130
X16650Y19130
X15650Y19130
X14650Y19130
X8450Y19720
X8450Y21500
X5890Y21500
X5890Y19720
X5400Y14380
X4400Y14380
X3400Y14380
X24680Y9542
X25500Y10230
X26320Y10918
T05
X32150Y15630
X32150Y16630
T06
X25650Y16130
X8850Y16130
T07
X14420Y25150
X16920Y25400
X19420Y25150
X17150Y6630
M30
